<svg
   xmlns:dc="http://purl.org/dc/elements/1.1/"
   xmlns:cc="http://creativecommons.org/ns#"
   xmlns:rdf="http://www.w3.org/1999/02/22-rdf-syntax-ns#"
   xmlns:svg="http://www.w3.org/2000/svg"
   xmlns="http://www.w3.org/2000/svg"
   width="38.507812mm"
   height="38.512398mm"
   viewBox="0 0 136.445 136.46125"
   version="1.1">
  <g transform="translate(468.2225,-561.27444)">
    <path
       id="path120"
       style="fill: currentColor"
       d="m -445.71225,656.85431 0,-58.52 10.05075,0 0,58.52 -10.05075,0" />
    <path
       id="path122"
       style="fill: currentColor"
       d="m -405.10388,617.86844 0,-4.539 c 0,-4.94388 -2.2705,-7.05125 -4.86425,-7.05125 -4.05075,0 -5.34912,2.10737 -5.34912,6.48437 l 0,29.6655 c 0,4.376 1.29837,6.48288 5.34912,6.48288 3.648,0 4.86425,-2.10688 4.86425,-5.916 l 0,-7.05125 10.05038,0 0,6.72662 c 0,8.267 -4.86338,14.99463 -14.91463,14.99463 -10.53662,0 -15.39987,-6.72763 -15.39987,-14.99463 l 0,-30.15 c 0,-8.2675 4.86325,-14.996 15.39987,-14.996 10.05125,0 14.91463,7.29438 14.91463,16.04825 l 0,4.29588 -10.05038,0" />
    <path
       id="path124"
       style="fill: currentColor"
       d="m -384.27225,656.85431 0,-58.52 10.04925,0 0,58.52 -10.04925,0" />
    <path
       id="path126"
       style="fill: currentColor"
       d="m -368.54813,648.91094 2.10788,0 c 3.89063,0 5.268,-1.621 5.268,-4.86175 l 0,-45.71488 10.04988,0 0,46.84863 c 0,7.457 -2.99813,12.482 -14.10263,12.482 l -3.32313,0 0,-8.754" />
  </g>
</svg>
