<?xml version="1.0" encoding="UTF-8" standalone="no"?>
<svg
   viewBox="0 0 2212.6221 778.69425"
   id="svg2"
   version="1.1"
   inkscape:version="1.1.2 (0a00cf5339, 2022-02-04)"
   sodipodi:docname="logo-design-system.svg"
   width="2212.6221"
   height="778.69421"
   xmlns:inkscape="http://www.inkscape.org/namespaces/inkscape"
   xmlns:sodipodi="http://sodipodi.sourceforge.net/DTD/sodipodi-0.dtd"
   xmlns="http://www.w3.org/2000/svg"
   xmlns:svg="http://www.w3.org/2000/svg"
   xmlns:rdf="http://www.w3.org/1999/02/22-rdf-syntax-ns#"
   xmlns:cc="http://creativecommons.org/ns#"
   xmlns:dc="http://purl.org/dc/elements/1.1/">
  <metadata
     id="metadata19">
    <rdf:RDF>
      <cc:Work
         rdf:about="">
        <dc:format>image/svg+xml</dc:format>
        <dc:type
           rdf:resource="http://purl.org/dc/dcmitype/StillImage" />
      </cc:Work>
    </rdf:RDF>
  </metadata>
  <defs
     id="defs17" />
  <sodipodi:namedview
     pagecolor="#ffffff"
     bordercolor="#666666"
     borderopacity="1"
     objecttolerance="10"
     gridtolerance="10"
     guidetolerance="10"
     inkscape:pageopacity="0"
     inkscape:pageshadow="2"
     inkscape:window-width="1920"
     inkscape:window-height="1016"
     id="namedview15"
     showgrid="false"
     fit-margin-top="0"
     fit-margin-left="0"
     fit-margin-right="0"
     fit-margin-bottom="0"
     inkscape:zoom="0.32"
     inkscape:cx="1185.9375"
     inkscape:cy="614.0625"
     inkscape:window-x="0"
     inkscape:window-y="0"
     inkscape:window-maximized="1"
     inkscape:current-layer="svg2"
     inkscape:pagecheckerboard="0" />
  <linearGradient
     id="a"
     gradientUnits="userSpaceOnUse"
     x1="540.29999"
     y1="-102.36"
     x2="540.29999"
     y2="318.12"
     gradientTransform="translate(-321.71,102.36)">
    <stop
       offset="0"
       stop-color="#45c5ff"
       id="stop9" />
    <stop
       offset="1"
       stop-color="#fa4171"
       id="stop11" />
  </linearGradient>
  <rect
     style="fill:#000000;fill-opacity:0.1;stroke-width:1.27578"
     id="rect18315"
     width="2212.6221"
     height="778.69421"
     x="0"
     y="0"
     rx="84.81295"
     ry="89.451256" />
  <g
     id="g18289"
     transform="translate(127.96631,109.93655)">
    <path
       d="m 115.48,298.78 c -0.15,0 0,-161.31 0,-161.31 H 0 v 412.44 h 115.03 c 114.15,0 206.68,-56.22 206.68,-125.57 0,-69.35 -92.08,-125.56 -206.23,-125.56 z"
       id="path6"
       inkscape:connector-curvature="0"
       style="fill:#fa4171" />
    <path
       d="m 115.48,0 v 298.79 c 107.84,0.14 196.26,50.46 205.42,114.56 l 0.8,7.13 V 125.56 C 321.7,56.3 229.42,0.15 115.48,0 Z"
       id="path13"
       inkscape:connector-curvature="0"
       style="fill:url(#a)" />
    <path
       d="m 1144.84,191.41458 c 0.78,5.15 1.18,9.58 1.18,13.18 v 103.38 h -4 c -7.1,0 -13.26,-2.56 -18.32,-7.62 -3.56,-3.55 -5.88,-7.65 -6.95,-12.24 -12.67,14.9 -28.99,22.44 -48.63,22.44 -16.42,0 -29.92,-4.63 -40.1,-13.76 -10.31,-9.25 -15.53,-21.16 -15.53,-35.41 v -1.94 c 0,-16.73 6.86,-29.19 20.38,-37.02 12.82,-7.42 27.72,-11.19 44.28,-11.19 h 26.58 v 4 c 0,1.48 -0.39,3.59 -1.27,6.85 -0.94,3.45 -3,6.86 -6.14,10.12 -3.46,3.6 -8.28,5.42 -14.33,5.42 h -5.16 c -9.4,0 -17.68,1.85 -24.59,5.51 -6.16,3.26 -9.16,8.59 -9.16,16.3 0,7.15 2.56,12.6 7.81,16.68 5.49,4.26 12.59,6.42 21.1,6.42 12.81,0 23.14,-3.96 31.58,-12.11 8.4,-8.11 12.49,-18.35 12.49,-31.32 v -34.2 c 0,-11.26 -2.94,-19.72 -8.74,-25.15 -5.87,-5.49 -14.83,-8.28 -26.62,-8.28 -9.21,0 -16.71,2.08 -22.32,6.17 -5.7,4.15 -9.85,9.47 -12.35,15.81 l -1.37,3.48 -28.95,-9.22 1.6,-3.99 c 4.12,-10.31 11.61,-19.67 22.25,-27.83 10.79,-8.26 24.85,-12.44 41.79,-12.44 15.76,0 28.69,3.14 38.44,9.33 9.78,6.22 16.97,14.53 21.37,24.7 1.67,4.05 2.89,8.71 3.68,13.93 z m -288.56,-13.93 c -4.4,-10.17 -11.59,-18.48 -21.37,-24.7 -9.75,-6.19 -22.69,-9.33 -38.44,-9.33 -16.95,0 -31.01,4.19 -41.79,12.44 -10.64,8.16 -18.13,17.52 -22.25,27.83 l -1.6,3.99 28.95,9.22 1.37,-3.48 c 2.49,-6.34 6.65,-11.66 12.35,-15.81 5.61,-4.09 13.12,-6.17 22.32,-6.17 11.79,0 20.75,2.79 26.62,8.28 5.8,5.43 8.73,13.89 8.73,25.15 v 34.2 c 0,12.97 -4.08,23.21 -12.49,31.32 -8.44,8.15 -18.77,12.11 -31.58,12.11 -8.63,0 -15.53,-2.1 -21.1,-6.42 -5.26,-4.08 -7.81,-9.53 -7.81,-16.68 0,-7.71 3,-13.05 9.16,-16.3 6.91,-3.65 15.19,-5.51 24.59,-5.51 h 5.16 c 6.06,0 10.88,-1.82 14.33,-5.42 3.14,-3.26 5.2,-6.67 6.14,-10.12 0.88,-3.26 1.27,-5.37 1.27,-6.85 v -4 h -26.58 c -16.56,0 -31.46,3.76 -44.27,11.19 -13.53,7.83 -20.39,20.29 -20.39,37.02 v 1.94 c 0,14.25 5.22,26.16 15.53,35.41 10.19,9.13 23.68,13.76 40.1,13.76 19.64,0 35.95,-7.54 48.63,-22.45 1.07,4.59 3.39,8.69 6.94,12.24 5.06,5.06 11.22,7.62 18.32,7.62 h 4 v -103.37 c 0,-3.6 -0.4,-8.03 -1.17,-13.18 -0.79,-5.22 -2.01,-9.88 -3.67,-13.93 z m 89.71,-48.06 c 0,-7.3 -2.56,-13.57 -7.62,-18.64 -5.07,-5.06 -11.34,-7.62 -18.64,-7.62 h -4 v 44.52 h -28.39 v 27.68 h 28.39 v 90.21 c 0,29.43 16.45,44.98 47.56,44.98 2.74,0 5.86,-0.22 9.53,-0.68 3.7,-0.46 6.74,-1.03 9.27,-1.72 l 2.94,-0.81 v -26.59 l -4.74,0.9 c -3.16,0.6 -7.58,0.9 -13.13,0.9 -18.76,0 -21.17,-9.42 -21.17,-17.62 v -89.57 h 15.03 c 6.67,0 12.4,-2.35 17.03,-6.98 4.63,-4.63 6.98,-10.25 6.98,-16.7 v -4 h -39.04 z m -259.96,4.57 c 10.43,17.66 15.72,37.61 15.72,59.31 0,22.59 -5.57,43.06 -16.57,60.82 -10.97,17.74 -25.97,31.74 -44.6,41.6 -18.55,9.84 -39.38,14.83 -61.88,14.83 H 507.59 V 77.024571 h 71.11 c 23.58,0 44.95,5.1 63.53,15.160004 18.62,10.090005 33.35,24.160005 43.8,41.810005 z m -28.05,15.48 c -7.44,-13.05 -18.15,-23.45 -31.83,-30.9 -13.76,-7.49 -30.17,-11.29 -48.75,-11.29 h -38.27 v 173.01 h 38.59 c 17.95,0 34.09,-3.75 47.97,-11.15 13.79,-7.35 24.6,-17.64 32.15,-30.58 7.56,-12.98 11.4,-27.98 11.4,-44.61 -0.01,-16.41 -3.8,-31.38 -11.26,-44.48 z m 1102.87,-3.08 c -10.37,0 -20.45,2.9 -29.96,8.63 -5.83,3.5 -10.98,8.19 -15.4,13.99 v -20.37 h -30.26 v 161.9 h 4 c 7.31,0 13.63,-2.62 18.8,-7.78 5.16,-5.17 7.78,-11.5 7.78,-18.79 v -52.59 c 0,-15.03 3.62,-27.94 10.75,-38.39 6.9,-10.12 17.8,-15.04 33.32,-15.04 1.75,0 4.54,0.21 8.27,0.63 l 4.44,0.49 v -31.75 l -3.36,-0.55 c -0.98,-0.17 -2.91,-0.38 -8.38,-0.38 z m -476.53,82.25 c -10.31,-7.82 -22.96,-12.69 -37.61,-14.5 -10.71,-1.23 -19.3,-3.34 -25.55,-6.26 -5.25,-2.45 -7.69,-6.88 -7.69,-13.96 0,-5.5 2.29,-10.16 7.01,-14.24 4.88,-4.23 10.89,-6.28 18.35,-6.28 10.88,0 19.15,3.64 25.26,11.08 2.91,3.65 6.49,6.61 10.62,8.78 4.22,2.23 8.65,3.36 13.16,3.36 1.31,0 3.26,-0.22 6.15,-0.71 l 5.1,-1.25 -0.51,-3.58 c -0.93,-6.52 -3.5,-13.27 -7.65,-20.07 -4.2,-6.89 -10.71,-12.89 -19.33,-17.83 -8.63,-4.96 -19.67,-7.47 -32.8,-7.47 -9.14,0 -18.07,2.03 -26.55,6.03 -8.53,4.03 -15.56,9.83 -20.9,17.25 -5.42,7.55 -8.17,16.47 -8.17,26.53 0,15.11 5.25,26.37 15.6,33.47 9.71,6.67 22.66,11.19 38.48,13.41 10.02,1.43 18.26,3.83 24.49,7.15 5.38,2.87 7.88,7.44 7.88,14.38 0,6.44 -2.52,11.39 -7.71,15.15 -5.59,4.05 -12.21,6.02 -20.23,6.02 -12.04,0 -20.99,-4.5 -27.36,-13.76 -2.75,-3.99 -6.4,-7.14 -10.87,-9.38 -4.42,-2.2 -9.14,-3.32 -14.05,-3.32 -1.5,0 -3.62,0.23 -6.47,0.71 l -3.95,0.66 0.66,3.95 c 2.07,12.39 8.08,23.7 17.88,33.61 9.98,10.11 24.94,15.23 44.47,15.23 10.43,0 20.17,-2.08 28.96,-6.19 8.88,-4.15 16.08,-10.07 21.41,-17.6 5.41,-7.66 8.15,-16.63 8.15,-26.67 0.02,-14.14 -5.45,-25.48 -16.23,-33.7 z m 357.6,-51.16 c -4.4,-10.17 -11.59,-18.48 -21.37,-24.7 -9.75,-6.19 -22.69,-9.33 -38.44,-9.33 -16.95,0 -31.01,4.19 -41.79,12.44 -10.64,8.16 -18.13,17.52 -22.25,27.83 l -1.6,3.99 28.95,9.22 1.37,-3.48 c 2.49,-6.34 6.65,-11.66 12.35,-15.81 5.61,-4.09 13.12,-6.17 22.32,-6.17 11.79,0 20.75,2.79 26.63,8.28 5.8,5.43 8.73,13.89 8.73,25.15 v 34.2 c 0,12.97 -4.08,23.21 -12.49,31.32 -8.44,8.15 -18.78,12.11 -31.58,12.11 -8.63,0 -15.53,-2.1 -21.1,-6.42 -5.26,-4.08 -7.81,-9.53 -7.81,-16.68 0,-7.71 3,-13.05 9.16,-16.3 6.91,-3.65 15.19,-5.51 24.59,-5.51 h 5.16 c 6.06,0 10.88,-1.82 14.33,-5.41 3.14,-3.25 5.2,-6.66 6.14,-10.13 0.88,-3.26 1.27,-5.37 1.27,-6.85 v -4 h -26.59 c -16.56,0 -31.46,3.76 -44.28,11.19 -13.53,7.83 -20.38,20.29 -20.38,37.02 v 1.94 c 0,14.25 5.22,26.16 15.53,35.41 10.18,9.13 23.68,13.76 40.1,13.76 19.64,0 35.95,-7.54 48.63,-22.45 1.07,4.59 3.39,8.69 6.94,12.24 5.06,5.06 11.22,7.62 18.32,7.62 h 4 v -103.37 c 0,-3.6 -0.4,-8.03 -1.17,-13.18 -0.79,-5.2 -2.01,-9.86 -3.67,-13.93 z m 290.64,6.69 c -5.89,-12.7 -14.71,-22.77 -26.19,-29.94 -11.46,-7.14 -25.47,-10.77 -41.64,-10.77 -14.69,0 -28.22,3.9 -40.23,11.6 -11.92,7.64 -21.44,17.96 -28.3,30.67 -6.85,12.68 -10.32,26.51 -10.32,41.1 0,15.26 3.59,29.43 10.67,42.12 7.09,12.72 17.03,22.94 29.52,30.37 12.51,7.44 26.61,11.21 41.89,11.21 14.4,0 27.76,-3.43 39.72,-10.2 12.06,-6.82 21.29,-16.62 27.43,-29.14 l 1.79,-3.64 -26.28,-12.46 -1.73,3.56 c -3.71,7.62 -9.16,13.56 -16.17,17.66 -7.08,4.14 -15.52,6.23 -25.08,6.23 -9.16,0 -17.61,-2.16 -25.13,-6.42 -7.54,-4.26 -13.68,-10.15 -18.25,-17.5 -4.56,-7.33 -7.07,-15.69 -7.47,-24.91 -0.21,-3.4 -0.31,-7.44 -0.31,-12.02 v -0.32 c 0,-3.62 0.23,-4.84 0.3,-5.13 l 0.21,-0.42 0.09,-0.62 c 1.21,-7.98 4.09,-15.41 8.56,-22.08 4.47,-6.65 10.22,-12.05 17.08,-16.03 6.77,-3.92 14.18,-5.91 22.03,-5.91 13.43,0 23.84,3.89 31.85,11.9 7.11,7.1 11.66,16.45 13.58,27.85 h -68.16 v 5.77 c 0.25,4.82 1.89,9.47 4.88,13.83 3.36,4.9 9.24,7.39 17.5,7.39 h 76.08 l 0.48,-3.45 c 0.24,-1.73 0.36,-4.33 0.36,-7.97 0,-15.56 -2.95,-29.8 -8.76,-42.33 z m -515.98,-38.44 c -20.05,0 -36.34,7.39 -48.59,22.01 V 94.564575 c 0,-7.310004 -2.62,-13.630004 -7.79,-18.800004 -5.17,-5.16 -11.5,-7.78 -18.79,-7.78 h -4 V 310.56458 H 1368 v -91.44 c 0,-12.84 3.88,-23.3 11.86,-31.97 7.88,-8.58 17.68,-12.75 29.96,-12.75 12.67,0 22.02,3.67 28.6,11.21 6.63,7.6 9.99,18.12 9.99,31.25 v 67.11 c 0,7.3 2.55,13.61 7.59,18.76 5.06,5.19 11.34,7.82 18.67,7.82 h 4 v -99.18 c 0,-19.43 -5.45,-35.36 -16.19,-47.36 -10.85,-12.12 -26.3,-18.27 -45.9,-18.28 z"
       id="path4"
       inkscape:connector-curvature="0"
       style="fill:#000000;fill-opacity:1" />
    <g
       aria-label="design system"
       id="text6347"
       style="font-size:125.488px;line-height:1.25;font-family:Lato;-inkscape-font-specification:Lato;stroke-width:1.96075">
      <path
         d="m 1230.3065,459.02383 q -2.3843,0 -3.0117,-2.32152 l -1.0039,-7.71752 q -4.0784,4.95678 -9.3489,7.96849 -5.2077,2.94897 -11.9841,2.94897 -5.4587,0 -9.9135,-2.07055 -4.4548,-2.1333 -7.592,-6.21166 -3.1372,-4.07836 -4.8313,-10.16453 -1.6941,-6.08616 -1.6941,-13.99191 0,-7.02733 1.8823,-13.05075 1.8823,-6.08617 5.396,-10.54099 3.5137,-4.45483 8.5959,-6.96459 5.145,-2.5725 11.5449,-2.5725 5.8352,0 9.9763,2.00781 4.2039,1.94506 7.4665,5.52147 v -35.26213 h 11.1685 v 92.42191 z m -21.7094,-8.15672 q 5.5215,0 9.5998,-2.50976 4.1411,-2.50976 7.592,-7.09007 v -30.68181 q -3.1372,-4.14111 -6.7763,-5.8352 -3.6392,-1.69408 -8.1567,-1.69408 -8.8469,0 -13.6155,6.33714 -4.7685,6.33714 -4.7685,18.07027 0,6.21166 1.0666,10.66648 1.0667,4.39208 3.1372,7.27831 2.0706,2.82348 5.0823,4.1411 3.0117,1.31762 6.8391,1.31762 z"
         id="path17843" />
      <path
         d="m 1280.6899,394.46026 q 5.7097,0 10.541,1.94506 4.894,1.88232 8.4077,5.52147 3.5764,3.57641 5.5842,8.90965 2.0078,5.2705 2.0078,12.04685 0,2.63525 -0.5647,3.51366 -0.5647,0.87842 -2.1333,0.87842 h -42.4777 q 0.1255,6.02342 1.6314,10.47825 1.5058,4.45482 4.1411,7.46653 2.6352,2.94897 6.2744,4.45483 3.6391,1.44311 8.1567,1.44311 4.2038,0 7.2155,-0.94116 3.0745,-1.0039 5.2705,-2.1333 2.1961,-1.12939 3.6392,-2.07055 1.5058,-1.0039 2.5725,-1.0039 1.3804,0 2.1333,1.06665 l 3.1372,4.07836 q -2.0706,2.50976 -4.9568,4.39208 -2.8862,1.81957 -6.2116,3.01171 -3.2627,1.19213 -6.7764,1.75683 -3.5137,0.62744 -6.9646,0.62744 -6.5881,0 -12.1723,-2.19604 -5.5215,-2.25878 -9.5998,-6.52538 -4.0157,-4.32933 -6.2744,-10.66648 -2.2588,-6.33714 -2.2588,-14.5566 0,-6.65087 2.0078,-12.42332 2.0705,-5.77244 5.8979,-9.97629 3.8274,-4.26659 9.3489,-6.65087 5.5214,-2.44701 12.4233,-2.44701 z m 0.251,8.21946 q -8.094,0 -12.7371,4.7058 -4.643,4.64306 -5.7724,12.92527 h 34.7602 q 0,-3.89013 -1.1294,-7.09008 -1.0667,-3.26268 -3.2,-5.58421 -2.0705,-2.38427 -5.0822,-3.63915 -3.0118,-1.31763 -6.8391,-1.31763 z"
         id="path17845" />
      <path
         d="m 1357.9277,405.94241 q -0.7529,1.38037 -2.3215,1.38037 -0.9412,0 -2.1333,-0.69019 -1.1921,-0.69018 -2.949,-1.50585 -1.6941,-0.87842 -4.0783,-1.5686 -2.3843,-0.75293 -5.647,-0.75293 -2.8235,0 -5.0823,0.75293 -2.2587,0.69018 -3.8901,1.94506 -1.5686,1.25488 -2.447,2.94897 -0.8157,1.63134 -0.8157,3.57641 0,2.44701 1.3804,4.07836 1.4431,1.63134 3.7646,2.82348 2.3216,1.19213 5.2705,2.13329 2.949,0.87842 6.0235,1.94507 3.1372,1.0039 6.0861,2.25878 2.949,1.25488 5.2705,3.1372 2.3216,1.88232 3.7019,4.64306 1.4431,2.69799 1.4431,6.52537 0,4.39208 -1.5686,8.15672 -1.5686,3.7019 -4.643,6.46264 -3.0745,2.69799 -7.5293,4.26659 -4.4548,1.5686 -10.29,1.5686 -6.6509,0 -12.0469,-2.1333 -5.396,-2.19604 -9.1606,-5.58421 l 2.6353,-4.2666 q 0.5019,-0.81567 1.1921,-1.25488 0.6902,-0.4392 1.7568,-0.4392 1.1294,0 2.3843,0.87841 1.2549,0.87842 3.0117,1.94507 1.8196,1.06664 4.3921,1.94506 2.5725,0.87842 6.3999,0.87842 3.2627,0 5.7097,-0.81568 2.447,-0.87841 4.0783,-2.32152 1.6314,-1.44312 2.3843,-3.32544 0.8157,-1.88232 0.8157,-4.01561 0,-2.63525 -1.4431,-4.32934 -1.3804,-1.75683 -3.7019,-2.94897 -2.3216,-1.25488 -5.3333,-2.13329 -2.9489,-0.94116 -6.0861,-1.94507 -3.0745,-1.0039 -6.0862,-2.25878 -2.949,-1.31762 -5.2705,-3.26269 -2.3215,-1.94506 -3.7646,-4.76854 -1.3804,-2.88623 -1.3804,-6.96459 0,-3.63915 1.5059,-6.96458 1.5058,-3.38818 4.392,-5.89794 2.8863,-2.5725 7.0901,-4.07836 4.2039,-1.50585 9.5998,-1.50585 6.2744,0 11.2312,2.00781 5.0195,1.94506 8.6587,5.39598 z"
         id="path17847" />
      <path
         d="m 1387.0408,395.46416 v 63.55967 h -11.1685 v -63.55967 z m 2.3842,-19.95259 q 0,1.63134 -0.6901,3.07446 -0.6275,1.38036 -1.7569,2.50976 -1.0666,1.06664 -2.5725,1.69408 -1.4431,0.62744 -3.0744,0.62744 -1.6314,0 -3.0745,-0.62744 -1.3804,-0.62744 -2.447,-1.69408 -1.0667,-1.1294 -1.6941,-2.50976 -0.6274,-1.44312 -0.6274,-3.07446 0,-1.63134 0.6274,-3.07446 0.6274,-1.50585 1.6941,-2.5725 1.0666,-1.12939 2.447,-1.75683 1.4431,-0.62744 3.0745,-0.62744 1.6313,0 3.0744,0.62744 1.5059,0.62744 2.5725,1.75683 1.1294,1.06665 1.7569,2.5725 0.6901,1.44312 0.6901,3.07446 z"
         id="path17849" />
      <path
         d="m 1427.5106,394.39751 q 4.1411,0 7.7175,0.94116 3.5764,0.87842 6.5254,2.63525 h 17.2546 v 4.14111 q 0,2.07055 -2.6352,2.63524 l -7.2156,1.00391 q 2.1333,4.07836 2.1333,9.09788 0,4.64305 -1.8196,8.47044 -1.7568,3.76464 -4.894,6.46263 -3.1372,2.69799 -7.5293,4.1411 -4.3921,1.44312 -9.5371,1.44312 -4.5175,0 -8.4704,-1.06665 -2.0078,1.25488 -3.0745,2.69799 -1.0039,1.44311 -1.0039,2.82348 0,2.25878 1.8196,3.45092 1.8823,1.12939 4.894,1.63134 3.0117,0.50196 6.8391,0.62744 3.8902,0.12549 7.9058,0.43921 4.0783,0.25098 7.9057,0.94116 3.8901,0.69019 6.9019,2.25879 3.0117,1.5686 4.8312,4.32933 1.8824,2.76074 1.8824,7.15282 0,4.07836 -2.0706,7.90574 -2.0078,3.82739 -5.8352,6.77635 -3.8274,3.01172 -9.4116,4.76855 -5.5214,1.81957 -12.486,1.81957 -6.9646,0 -12.1724,-1.38036 -5.2077,-1.38037 -8.6586,-3.7019 -3.451,-2.32153 -5.2078,-5.39598 -1.6941,-3.01172 -1.6941,-6.33715 0,-4.7058 2.949,-7.96849 2.949,-3.26268 8.0312,-5.20775 -2.8235,-1.25488 -4.4548,-3.32543 -1.6313,-2.1333 -1.6313,-5.7097 0,-1.38037 0.5019,-2.82348 0.502,-1.50586 1.5059,-2.94897 1.0666,-1.44311 2.5725,-2.76074 1.5058,-1.31762 3.5136,-2.32153 -4.7058,-2.63524 -7.341,-7.02732 -2.6353,-4.39208 -2.6353,-10.16453 0,-4.64306 1.7569,-8.4077 1.8195,-3.82738 5.0195,-6.46263 3.1999,-2.69799 7.592,-4.1411 4.4548,-1.44312 9.7253,-1.44312 z m 20.1409,68.07724 q 0,-2.32152 -1.3177,-3.76464 -1.3176,-1.44311 -3.5764,-2.25878 -2.196,-0.81567 -5.145,-1.12939 -2.949,-0.37647 -6.2744,-0.5647 -3.2627,-0.18823 -6.6509,-0.37646 -3.3881,-0.18823 -6.5253,-0.62744 -3.5137,1.63134 -5.7725,4.07836 -2.196,2.44701 -2.196,5.83519 0,2.1333 1.0666,3.95287 1.1294,1.88232 3.3882,3.19995 2.2588,1.38036 5.647,2.13329 3.4509,0.81567 8.0939,0.81567 4.5176,0 8.094,-0.81567 3.5764,-0.81567 6.0234,-2.32153 2.5098,-1.50585 3.8274,-3.5764 1.3177,-2.07056 1.3177,-4.58032 z m -20.1409,-34.5092 q 3.3882,0 5.9607,-0.94116 2.5725,-0.94116 4.3293,-2.63524 1.7569,-1.69409 2.6353,-4.01562 0.8784,-2.38427 0.8784,-5.20775 0,-5.83519 -3.5764,-9.28611 -3.5137,-3.45092 -10.2273,-3.45092 -6.7763,0 -10.3527,3.45092 -3.5137,3.45092 -3.5137,9.28611 0,2.82348 0.8784,5.20775 0.9412,2.32153 2.698,4.01562 1.7568,1.69408 4.3293,2.63524 2.5726,0.94116 5.9607,0.94116 z"
         id="path17851" />
      <path
         d="m 1470.6156,459.02383 v -63.55967 h 6.7136 q 2.3843,0 2.949,2.32153 l 0.8784,6.90184 q 4.1411,-4.58031 9.2861,-7.40379 5.145,-2.82348 11.8586,-2.82348 5.2078,0 9.1606,1.75683 4.0156,1.69409 6.6509,4.89403 2.698,3.1372 4.0783,7.59203 1.3804,4.45482 1.3804,9.8508 v 40.46988 h -11.2312 v -40.46988 q 0,-7.21556 -3.3254,-11.16843 -3.2627,-4.01561 -9.9763,-4.01561 -5.0195,0 -9.3488,2.38427 -4.2666,2.38427 -7.843,6.46263 v 46.80702 z"
         id="path17853" />
      <path
         d="m 1609.7814,405.94241 q -0.7529,1.38037 -2.3215,1.38037 -0.9412,0 -2.1333,-0.69019 -1.1921,-0.69018 -2.949,-1.50585 -1.6941,-0.87842 -4.0783,-1.5686 -2.3843,-0.75293 -5.647,-0.75293 -2.8235,0 -5.0823,0.75293 -2.2587,0.69018 -3.8901,1.94506 -1.5686,1.25488 -2.447,2.94897 -0.8157,1.63134 -0.8157,3.57641 0,2.44701 1.3804,4.07836 1.4431,1.63134 3.7646,2.82348 2.3216,1.19213 5.2705,2.13329 2.949,0.87842 6.0235,1.94507 3.1372,1.0039 6.0861,2.25878 2.949,1.25488 5.2705,3.1372 2.3215,1.88232 3.7019,4.64306 1.4431,2.69799 1.4431,6.52537 0,4.39208 -1.5686,8.15672 -1.5686,3.7019 -4.643,6.46264 -3.0745,2.69799 -7.5293,4.26659 -4.4548,1.5686 -10.29,1.5686 -6.6509,0 -12.0469,-2.1333 -5.396,-2.19604 -9.1606,-5.58421 l 2.6353,-4.2666 q 0.5019,-0.81567 1.1921,-1.25488 0.6902,-0.4392 1.7568,-0.4392 1.1294,0 2.3843,0.87841 1.2549,0.87842 3.0117,1.94507 1.8196,1.06664 4.3921,1.94506 2.5725,0.87842 6.3999,0.87842 3.2627,0 5.7097,-0.81568 2.447,-0.87841 4.0783,-2.32152 1.6314,-1.44312 2.3843,-3.32544 0.8157,-1.88232 0.8157,-4.01561 0,-2.63525 -1.4431,-4.32934 -1.3804,-1.75683 -3.7019,-2.94897 -2.3216,-1.25488 -5.3333,-2.13329 -2.9489,-0.94116 -6.0861,-1.94507 -3.0745,-1.0039 -6.0862,-2.25878 -2.949,-1.31762 -5.2705,-3.26269 -2.3215,-1.94506 -3.7646,-4.76854 -1.3804,-2.88623 -1.3804,-6.96459 0,-3.63915 1.5058,-6.96458 1.5059,-3.38818 4.3921,-5.89794 2.8863,-2.5725 7.0901,-4.07836 4.2038,-1.50585 9.5998,-1.50585 6.2744,0 11.2312,2.00781 5.0195,1.94506 8.6587,5.39598 z"
         id="path17855" />
      <path
         d="m 1645.357,477.78429 q -0.5647,1.25488 -1.4431,2.00781 -0.8157,0.75293 -2.5725,0.75293 h -8.2822 l 11.6076,-25.22309 -26.227,-59.85778 h 9.6626 q 1.4431,0 2.2588,0.75293 0.8784,0.69018 1.1921,1.5686 l 17.0036,40.03067 q 0.502,1.44311 0.9412,2.82348 0.4392,1.31763 0.7529,2.76074 0.8157,-2.82348 1.8823,-5.64696 l 16.5017,-39.96793 q 0.3765,-1.0039 1.2549,-1.63134 0.9412,-0.69019 2.0705,-0.69019 h 8.847 z"
         id="path17857" />
      <path
         d="m 1726.5475,405.94241 q -0.7529,1.38037 -2.3215,1.38037 -0.9412,0 -2.1333,-0.69019 -1.1921,-0.69018 -2.949,-1.50585 -1.694,-0.87842 -4.0783,-1.5686 -2.3843,-0.75293 -5.647,-0.75293 -2.8235,0 -5.0822,0.75293 -2.2588,0.69018 -3.8902,1.94506 -1.5686,1.25488 -2.447,2.94897 -0.8157,1.63134 -0.8157,3.57641 0,2.44701 1.3804,4.07836 1.4431,1.63134 3.7647,2.82348 2.3215,1.19213 5.2704,2.13329 2.949,0.87842 6.0235,1.94507 3.1372,1.0039 6.0861,2.25878 2.949,1.25488 5.2705,3.1372 2.3216,1.88232 3.7019,4.64306 1.4431,2.69799 1.4431,6.52537 0,4.39208 -1.5686,8.15672 -1.5686,3.7019 -4.643,6.46264 -3.0745,2.69799 -7.5293,4.26659 -4.4548,1.5686 -10.29,1.5686 -6.6509,0 -12.0469,-2.1333 -5.3959,-2.19604 -9.1606,-5.58421 l 2.6353,-4.2666 q 0.5019,-0.81567 1.1921,-1.25488 0.6902,-0.4392 1.7568,-0.4392 1.1294,0 2.3843,0.87841 1.2549,0.87842 3.0117,1.94507 1.8196,1.06664 4.3921,1.94506 2.5725,0.87842 6.3999,0.87842 3.2627,0 5.7097,-0.81568 2.447,-0.87841 4.0784,-2.32152 1.6313,-1.44312 2.3842,-3.32544 0.8157,-1.88232 0.8157,-4.01561 0,-2.63525 -1.4431,-4.32934 -1.3804,-1.75683 -3.7019,-2.94897 -2.3215,-1.25488 -5.3333,-2.13329 -2.9489,-0.94116 -6.0861,-1.94507 -3.0745,-1.0039 -6.0862,-2.25878 -2.949,-1.31762 -5.2705,-3.26269 -2.3215,-1.94506 -3.7646,-4.76854 -1.3804,-2.88623 -1.3804,-6.96459 0,-3.63915 1.5059,-6.96458 1.5058,-3.38818 4.392,-5.89794 2.8863,-2.5725 7.0901,-4.07836 4.2039,-1.50585 9.5998,-1.50585 6.2744,0 11.2312,2.00781 5.0195,1.94506 8.6587,5.39598 z"
         id="path17859" />
      <path
         d="m 1763.3781,460.02774 q -7.5293,0 -11.6076,-4.20385 -4.0156,-4.20385 -4.0156,-12.10959 v -38.90128 h -7.6548 q -1.0039,0 -1.6941,-0.5647 -0.6902,-0.62744 -0.6902,-1.88232 v -4.45482 l 10.4155,-1.31763 2.5725,-19.63887 q 0.1883,-0.94116 0.8157,-1.50585 0.6902,-0.62744 1.7568,-0.62744 h 5.647 v 21.89765 h 18.384 v 8.09398 h -18.384 v 38.14835 q 0,4.01562 1.9451,5.96068 1.945,1.94506 5.0195,1.94506 1.7568,0 3.0117,-0.4392 1.3176,-0.50196 2.2588,-1.06665 0.9411,-0.5647 1.5686,-1.00391 0.6901,-0.50195 1.1921,-0.50195 0.8784,0 1.5686,1.06665 l 3.2627,5.33324 q -2.8862,2.69799 -6.9646,4.26659 -4.0784,1.50586 -8.4077,1.50586 z"
         id="path17861" />
      <path
         d="m 1814.8909,394.46026 q 5.7097,0 10.5409,1.94506 4.8941,1.88232 8.4077,5.52147 3.5764,3.57641 5.5843,8.90965 2.0078,5.2705 2.0078,12.04685 0,2.63525 -0.5647,3.51366 -0.5647,0.87842 -2.1333,0.87842 h -42.4777 q 0.1255,6.02342 1.6313,10.47825 1.5059,4.45482 4.1411,7.46653 2.6353,2.94897 6.2744,4.45483 3.6392,1.44311 8.1568,1.44311 4.2038,0 7.2155,-0.94116 3.0745,-1.0039 5.2705,-2.1333 2.196,-1.12939 3.6392,-2.07055 1.5058,-1.0039 2.5725,-1.0039 1.3803,0 2.1333,1.06665 l 3.1372,4.07836 q -2.0706,2.50976 -4.9568,4.39208 -2.8862,1.81957 -6.2117,3.01171 -3.2627,1.19213 -6.7763,1.75683 -3.5137,0.62744 -6.9646,0.62744 -6.5881,0 -12.1723,-2.19604 -5.5215,-2.25878 -9.5999,-6.52538 -4.0156,-4.32933 -6.2744,-10.66648 -2.2588,-6.33714 -2.2588,-14.5566 0,-6.65087 2.0078,-12.42332 2.0706,-5.77244 5.898,-9.97629 3.8274,-4.26659 9.3488,-6.65087 5.5215,-2.44701 12.4234,-2.44701 z m 0.2509,8.21946 q -8.0939,0 -12.737,4.7058 -4.6431,4.64306 -5.7725,12.92527 h 34.7602 q 0,-3.89013 -1.1294,-7.09008 -1.0666,-3.26268 -3.1999,-5.58421 -2.0706,-2.38427 -5.0823,-3.63915 -3.0117,-1.31763 -6.8391,-1.31763 z"
         id="path17863" />
      <path
         d="m 1855.1097,459.02383 v -63.55967 h 6.7136 q 2.3843,0 2.949,2.32153 l 0.8157,6.52538 q 3.5136,-4.32934 7.9057,-7.09008 4.3921,-2.76073 10.1645,-2.76073 6.3999,0 10.3528,3.57641 4.0156,3.5764 5.7724,9.66257 1.3804,-3.45092 3.5137,-5.96068 2.1961,-2.50976 4.894,-4.1411 2.698,-1.63135 5.7097,-2.38427 3.0745,-0.75293 6.2117,-0.75293 5.0195,0 8.9097,1.63134 3.9528,1.5686 6.6508,4.64306 2.7608,3.07445 4.2039,7.59202 1.4431,4.45483 1.4431,10.22727 v 40.46988 h -11.2312 v -40.46988 q 0,-7.46653 -3.2627,-11.29392 -3.2627,-3.89012 -9.4116,-3.89012 -2.7607,0 -5.2705,1.0039 -2.447,0.94116 -4.3293,2.82348 -1.8823,1.88232 -3.0117,4.76854 -1.0667,2.82348 -1.0667,6.58812 v 40.46988 h -11.2312 v -40.46988 q 0,-7.65476 -3.0744,-11.4194 -3.0745,-3.76464 -8.9724,-3.76464 -4.1411,0 -7.6548,2.25878 -3.5136,2.19604 -6.4626,6.02342 v 47.37172 z"
         id="path17865" />
    </g>
  </g>
</svg>
