<?xml version="1.0" encoding="UTF-8" standalone="no"?>
<svg
   xmlns:dc="http://purl.org/dc/elements/1.1/"
   xmlns:cc="http://creativecommons.org/ns#"
   xmlns:rdf="http://www.w3.org/1999/02/22-rdf-syntax-ns#"
   xmlns:svg="http://www.w3.org/2000/svg"
   xmlns="http://www.w3.org/2000/svg"
   xmlns:sodipodi="http://sodipodi.sourceforge.net/DTD/sodipodi-0.dtd"
   xmlns:inkscape="http://www.inkscape.org/namespaces/inkscape"
   viewBox="0 0 1941.32 549.91"
   id="svg2"
   version="1.1"
   inkscape:version="0.91 r13725"
   sodipodi:docname="logo-color.svg"
   width="1941.3199"
   height="549.90997">
  <metadata
     id="metadata19">
    <rdf:RDF>
      <cc:Work
         rdf:about="">
        <dc:format>image/svg+xml</dc:format>
        <dc:type
           rdf:resource="http://purl.org/dc/dcmitype/StillImage" />
        <dc:title></dc:title>
      </cc:Work>
    </rdf:RDF>
  </metadata>
  <defs
     id="defs17" />
  <sodipodi:namedview
     pagecolor="#ffffff"
     bordercolor="#666666"
     borderopacity="1"
     objecttolerance="10"
     gridtolerance="10"
     guidetolerance="10"
     inkscape:pageopacity="0"
     inkscape:pageshadow="2"
     inkscape:window-width="1920"
     inkscape:window-height="1056"
     id="namedview15"
     showgrid="false"
     fit-margin-top="0"
     fit-margin-left="0"
     fit-margin-right="0"
     fit-margin-bottom="0"
     inkscape:zoom="0.48645405"
     inkscape:cx="970.2112"
     inkscape:cy="271.14475"
     inkscape:window-x="0"
     inkscape:window-y="24"
     inkscape:window-maximized="1"
     inkscape:current-layer="svg2" />
  <path
     d="m 1144.84,293.83 c 0.78,5.15 1.18,9.58 1.18,13.18 l 0,103.38 -4,0 c -7.1,0 -13.26,-2.56 -18.32,-7.62 -3.56,-3.55 -5.88,-7.65 -6.95,-12.24 -12.67,14.9 -28.99,22.44 -48.63,22.44 -16.42,0 -29.92,-4.63 -40.1,-13.76 -10.31,-9.25 -15.53,-21.16 -15.53,-35.41 l 0,-1.94 c 0,-16.73 6.86,-29.19 20.38,-37.02 12.82,-7.42 27.72,-11.19 44.28,-11.19 l 26.58,0 0,4 c 0,1.48 -0.39,3.59 -1.27,6.85 -0.94,3.45 -3,6.86 -6.14,10.12 -3.46,3.6 -8.28,5.42 -14.33,5.42 l -5.16,0 c -9.4,0 -17.68,1.85 -24.59,5.51 -6.16,3.26 -9.16,8.59 -9.16,16.3 0,7.15 2.56,12.6 7.81,16.68 5.49,4.26 12.59,6.42 21.1,6.42 12.81,0 23.14,-3.96 31.58,-12.11 8.4,-8.11 12.49,-18.35 12.49,-31.32 l 0,-34.2 c 0,-11.26 -2.94,-19.72 -8.74,-25.15 -5.87,-5.49 -14.83,-8.28 -26.62,-8.28 -9.21,0 -16.71,2.08 -22.32,6.17 -5.7,4.15 -9.85,9.47 -12.35,15.81 l -1.37,3.48 -28.95,-9.22 1.6,-3.99 c 4.12,-10.31 11.61,-19.67 22.25,-27.83 10.79,-8.26 24.85,-12.44 41.79,-12.44 15.76,0 28.69,3.14 38.44,9.33 9.78,6.22 16.97,14.53 21.37,24.7 1.67,4.05 2.89,8.71 3.68,13.93 z M 856.28,279.9 c -4.4,-10.17 -11.59,-18.48 -21.37,-24.7 -9.75,-6.19 -22.69,-9.33 -38.44,-9.33 -16.95,0 -31.01,4.19 -41.79,12.44 -10.64,8.16 -18.13,17.52 -22.25,27.83 l -1.6,3.99 28.95,9.22 1.37,-3.48 c 2.49,-6.34 6.65,-11.66 12.35,-15.81 5.61,-4.09 13.12,-6.17 22.32,-6.17 11.79,0 20.75,2.79 26.62,8.28 5.8,5.43 8.73,13.89 8.73,25.15 l 0,34.2 c 0,12.97 -4.08,23.21 -12.49,31.32 -8.44,8.15 -18.77,12.11 -31.58,12.11 -8.63,0 -15.53,-2.1 -21.1,-6.42 -5.26,-4.08 -7.81,-9.53 -7.81,-16.68 0,-7.71 3,-13.05 9.16,-16.3 6.91,-3.65 15.19,-5.51 24.59,-5.51 l 5.16,0 c 6.06,0 10.88,-1.82 14.33,-5.42 3.14,-3.26 5.2,-6.67 6.14,-10.12 0.88,-3.26 1.27,-5.37 1.27,-6.85 l 0,-4 -26.58,0 c -16.56,0 -31.46,3.76 -44.27,11.19 -13.53,7.83 -20.39,20.29 -20.39,37.02 l 0,1.94 c 0,14.25 5.22,26.16 15.53,35.41 10.19,9.13 23.68,13.76 40.1,13.76 19.64,0 35.95,-7.54 48.63,-22.45 1.07,4.59 3.39,8.69 6.94,12.24 5.06,5.06 11.22,7.62 18.32,7.62 l 4,0 0,-103.37 c 0,-3.6 -0.4,-8.03 -1.17,-13.18 -0.79,-5.22 -2.01,-9.88 -3.67,-13.93 z m 89.71,-48.06 c 0,-7.3 -2.56,-13.57 -7.62,-18.64 -5.07,-5.06 -11.34,-7.62 -18.64,-7.62 l -4,0 0,44.52 -28.39,0 0,27.68 28.39,0 0,90.21 c 0,29.43 16.45,44.98 47.56,44.98 2.74,0 5.86,-0.22 9.53,-0.68 3.7,-0.46 6.74,-1.03 9.27,-1.72 l 2.94,-0.81 0,-26.59 -4.74,0.9 c -3.16,0.6 -7.58,0.9 -13.13,0.9 -18.76,0 -21.17,-9.42 -21.17,-17.62 l 0,-89.57 15.03,0 c 6.67,0 12.4,-2.35 17.03,-6.98 4.63,-4.63 6.98,-10.25 6.98,-16.7 l 0,-4 -39.04,0 0,-18.26 z m -259.96,4.57 c 10.43,17.66 15.72,37.61 15.72,59.31 0,22.59 -5.57,43.06 -16.57,60.82 -10.97,17.74 -25.97,31.74 -44.6,41.6 -18.55,9.84 -39.38,14.83 -61.88,14.83 l -71.11,0 0,-233.53 71.11,0 c 23.58,0 44.95,5.1 63.53,15.16 18.62,10.09 33.35,24.16 43.8,41.81 z m -28.05,15.48 C 650.54,238.84 639.83,228.44 626.15,220.99 612.39,213.5 595.98,209.7 577.4,209.7 l -38.27,0 0,173.01 38.59,0 c 17.95,0 34.09,-3.75 47.97,-11.15 13.79,-7.35 24.6,-17.64 32.15,-30.58 7.56,-12.98 11.4,-27.98 11.4,-44.61 -0.01,-16.41 -3.8,-31.38 -11.26,-44.48 z m 1102.87,-3.08 c -10.37,0 -20.45,2.9 -29.96,8.63 -5.83,3.5 -10.98,8.19 -15.4,13.99 l 0,-20.37 -30.26,0 0,161.9 4,0 c 7.31,0 13.63,-2.62 18.8,-7.78 5.16,-5.17 7.78,-11.5 7.78,-18.79 l 0,-52.59 c 0,-15.03 3.62,-27.94 10.75,-38.39 6.9,-10.12 17.8,-15.04 33.32,-15.04 1.75,0 4.54,0.21 8.27,0.63 l 4.44,0.49 0,-31.75 -3.36,-0.55 c -0.98,-0.17 -2.91,-0.38 -8.38,-0.38 z m -476.53,82.25 c -10.31,-7.82 -22.96,-12.69 -37.61,-14.5 -10.71,-1.23 -19.3,-3.34 -25.55,-6.26 -5.25,-2.45 -7.69,-6.88 -7.69,-13.96 0,-5.5 2.29,-10.16 7.01,-14.24 4.88,-4.23 10.89,-6.28 18.35,-6.28 10.88,0 19.15,3.64 25.26,11.08 2.91,3.65 6.49,6.61 10.62,8.78 4.22,2.23 8.65,3.36 13.16,3.36 1.31,0 3.26,-0.22 6.15,-0.71 l 5.1,-1.25 -0.51,-3.58 c -0.93,-6.52 -3.5,-13.27 -7.65,-20.07 -4.2,-6.89 -10.71,-12.89 -19.33,-17.83 -8.63,-4.96 -19.67,-7.47 -32.8,-7.47 -9.14,0 -18.07,2.03 -26.55,6.03 -8.53,4.03 -15.56,9.83 -20.9,17.25 -5.42,7.55 -8.17,16.47 -8.17,26.53 0,15.11 5.25,26.37 15.6,33.47 9.71,6.67 22.66,11.19 38.48,13.41 10.02,1.43 18.26,3.83 24.49,7.15 5.38,2.87 7.88,7.44 7.88,14.38 0,6.44 -2.52,11.39 -7.71,15.15 -5.59,4.05 -12.21,6.02 -20.23,6.02 -12.04,0 -20.99,-4.5 -27.36,-13.76 -2.75,-3.99 -6.4,-7.14 -10.87,-9.38 -4.42,-2.2 -9.14,-3.32 -14.05,-3.32 -1.5,0 -3.62,0.23 -6.47,0.71 l -3.95,0.66 0.66,3.95 c 2.07,12.39 8.08,23.7 17.88,33.61 9.98,10.11 24.94,15.23 44.47,15.23 10.43,0 20.17,-2.08 28.96,-6.19 8.88,-4.15 16.08,-10.07 21.41,-17.6 5.41,-7.66 8.15,-16.63 8.15,-26.67 0.02,-14.14 -5.45,-25.48 -16.23,-33.7 z m 357.6,-51.16 c -4.4,-10.17 -11.59,-18.48 -21.37,-24.7 -9.75,-6.19 -22.69,-9.33 -38.44,-9.33 -16.95,0 -31.01,4.19 -41.79,12.44 -10.64,8.16 -18.13,17.52 -22.25,27.83 l -1.6,3.99 28.95,9.22 1.37,-3.48 c 2.49,-6.34 6.65,-11.66 12.35,-15.81 5.61,-4.09 13.12,-6.17 22.32,-6.17 11.79,0 20.75,2.79 26.63,8.28 5.8,5.43 8.73,13.89 8.73,25.15 l 0,34.2 c 0,12.97 -4.08,23.21 -12.49,31.32 -8.44,8.15 -18.78,12.11 -31.58,12.11 -8.63,0 -15.53,-2.1 -21.1,-6.42 -5.26,-4.08 -7.81,-9.53 -7.81,-16.68 0,-7.71 3,-13.05 9.16,-16.3 6.91,-3.65 15.19,-5.51 24.59,-5.51 l 5.16,0 c 6.06,0 10.88,-1.82 14.33,-5.41 3.14,-3.25 5.2,-6.66 6.14,-10.13 0.88,-3.26 1.27,-5.37 1.27,-6.85 l 0,-4 -26.59,0 c -16.56,0 -31.46,3.76 -44.28,11.19 -13.53,7.83 -20.38,20.29 -20.38,37.02 l 0,1.94 c 0,14.25 5.22,26.16 15.53,35.41 10.18,9.13 23.68,13.76 40.1,13.76 19.64,0 35.95,-7.54 48.63,-22.45 1.07,4.59 3.39,8.69 6.94,12.24 5.06,5.06 11.22,7.62 18.32,7.62 l 4,0 0,-103.37 c 0,-3.6 -0.4,-8.03 -1.17,-13.18 -0.79,-5.2 -2.01,-9.86 -3.67,-13.93 z m 290.64,6.69 c -5.89,-12.7 -14.71,-22.77 -26.19,-29.94 -11.46,-7.14 -25.47,-10.77 -41.64,-10.77 -14.69,0 -28.22,3.9 -40.23,11.6 -11.92,7.64 -21.44,17.96 -28.3,30.67 -6.85,12.68 -10.32,26.51 -10.32,41.1 0,15.26 3.59,29.43 10.67,42.12 7.09,12.72 17.03,22.94 29.52,30.37 12.51,7.44 26.61,11.21 41.89,11.21 14.4,0 27.76,-3.43 39.72,-10.2 12.06,-6.82 21.29,-16.62 27.43,-29.14 l 1.79,-3.64 -26.28,-12.46 -1.73,3.56 c -3.71,7.62 -9.16,13.56 -16.17,17.66 -7.08,4.14 -15.52,6.23 -25.08,6.23 -9.16,0 -17.61,-2.16 -25.13,-6.42 -7.54,-4.26 -13.68,-10.15 -18.25,-17.5 -4.56,-7.33 -7.07,-15.69 -7.47,-24.91 -0.21,-3.4 -0.31,-7.44 -0.31,-12.02 l 0,-0.32 c 0,-3.62 0.23,-4.84 0.3,-5.13 l 0.21,-0.42 0.09,-0.62 c 1.21,-7.98 4.09,-15.41 8.56,-22.08 4.47,-6.65 10.22,-12.05 17.08,-16.03 6.77,-3.92 14.18,-5.91 22.03,-5.91 13.43,0 23.84,3.89 31.85,11.9 7.11,7.1 11.66,16.45 13.58,27.85 l -68.16,0 0,5.77 c 0.25,4.82 1.89,9.47 4.88,13.83 3.36,4.9 9.24,7.39 17.5,7.39 l 76.08,0 0.48,-3.45 c 0.24,-1.73 0.36,-4.33 0.36,-7.97 0,-15.56 -2.95,-29.8 -8.76,-42.33 z m -515.98,-38.44 c -20.05,0 -36.34,7.39 -48.59,22.01 l 0,-73.18 c 0,-7.31 -2.62,-13.63 -7.79,-18.8 -5.17,-5.16 -11.5,-7.78 -18.79,-7.78 l -4,0 0,242.58 30.59,0 0,-91.44 c 0,-12.84 3.88,-23.3 11.86,-31.97 7.88,-8.58 17.68,-12.75 29.96,-12.75 12.67,0 22.02,3.67 28.6,11.21 6.63,7.6 9.99,18.12 9.99,31.25 l 0,67.11 c 0,7.3 2.55,13.61 7.59,18.76 5.06,5.19 11.34,7.82 18.67,7.82 l 4,0 0,-99.18 c 0,-19.43 -5.45,-35.36 -16.19,-47.36 -10.85,-12.12 -26.3,-18.27 -45.9,-18.28 z"
     id="path4"
     inkscape:connector-curvature="0"
     style="fill:#193e88" />
  <path
     d="m 115.48,298.78 c -0.15,0 0,-161.31 0,-161.31 l -115.48,0 0,412.44 115.03,0 c 114.15,0 206.68,-56.22 206.68,-125.57 0,-69.35 -92.08,-125.56 -206.23,-125.56 z"
     id="path6"
     inkscape:connector-curvature="0"
     style="fill:#fa4171" />
  <linearGradient
     id="a"
     gradientUnits="userSpaceOnUse"
     x1="540.29999"
     y1="-102.36"
     x2="540.29999"
     y2="318.12"
     gradientTransform="translate(-321.71,102.36)">
    <stop
       offset="0"
       stop-color="#45c5ff"
       id="stop9" />
    <stop
       offset="1"
       stop-color="#fa4171"
       id="stop11" />
  </linearGradient>
  <path
     d="m 115.48,0 0,298.79 c 107.84,0.14 196.26,50.46 205.42,114.56 l 0.8,7.13 0,-294.92 C 321.7,56.3 229.42,0.15 115.48,0 Z"
     id="path13"
     inkscape:connector-curvature="0"
     style="fill:url(#a)" />
</svg>
