<svg version="1" xmlns="http://www.w3.org/2000/svg" width="346.667" height="346.667" viewBox="0 0 260.000000 260.000000"><path d="M0 130v130h260V0H0v130zm124.1-60.4c6.6 2 11.9 7.2 14.4 14.1.9 2.6 1.9 9.4 2.2 15l.6 10.3H123v-6.3c0-13.7-2.1-17.7-9.3-17.7-5.6 0-8.2 2-9.6 7.4-1.4 5.8-1.5 68.6-.1 73.8 1.8 6.4 7.6 9.3 13.3 6.7 3.6-1.6 4.8-5.3 5.4-16.2l.6-9.7h18l-.6 10.2c-.8 13.7-2.9 20.1-8.7 25.8-5.3 5.4-9.9 7-19.6 7-9.7 0-14.2-1.5-19.1-6.4-7.4-7.5-7.8-10.1-7.8-54.1 0-42.2.4-45.3 6.6-52.8 6.6-8 19.3-10.8 32-7.1zm-54.3 59.6l-.3 59.3-8.7.3-8.8.3V70h18l-.2 59.2zm102.2.3v59.6l-8.7-.3-8.8-.3-.3-59.3L154 70h18v59.5zm37.8-10.3c-.5 54.4-.7 56.2-6.9 63.3-3.7 4.2-7.6 5.5-17 5.8l-7.4.2-.3-8.3-.3-8.2h3c1.7 0 4.1-.5 5.4-1.1 5.1-2.3 5.2-2.9 5.5-53.7l.3-47.2h18.1l-.4 49.2z"/></svg>