<?xml version="1.0" standalone="no"?>
<!DOCTYPE svg PUBLIC "-//W3C//DTD SVG 20010904//EN"
 "http://www.w3.org/TR/2001/REC-SVG-20010904/DTD/svg10.dtd">
<svg version="1.0" xmlns="http://www.w3.org/2000/svg"
 width="700.000000pt" height="700.000000pt" viewBox="0 0 700.000000 700.000000"
 preserveAspectRatio="xMidYMid meet">
<metadata>
Created by potrace 1.11, written by Peter Selinger 2001-2013
</metadata>
<g transform="translate(0.000000,700.000000) scale(0.100000,-0.100000)"
fill="#000000" stroke="none">
<path d="M2994 5076 c0 -1622 1 -1796 15 -1800 16 -5 90 -11 257 -21 51 -3
101 -7 111 -9 11 -3 44 -7 74 -11 61 -7 102 -13 139 -20 36 -7 91 -16 120 -20
14 -2 48 -9 75 -15 28 -6 57 -13 65 -15 263 -60 485 -138 715 -250 320 -157
485 -282 729 -550 45 -49 136 -179 136 -194 0 -6 4 -11 8 -11 9 0 7 2711 -2
3080 -9 348 -12 368 -79 510 -156 330 -460 604 -887 798 -233 106 -571 214
-770 246 -19 3 -91 15 -160 26 -68 11 -155 23 -194 26 -38 3 -73 7 -77 9 -3 3
-67 7 -141 11 l-134 6 0 -1796z"/>
<path d="M1554 2643 c0 -2002 3 -2509 13 -2513 31 -12 1655 1 1809 15 27 2 96
7 154 10 58 3 119 7 135 9 85 9 172 18 185 21 8 2 38 6 65 9 83 11 130 19 185
31 14 3 36 7 50 10 65 12 94 19 215 51 72 19 139 39 150 43 11 5 54 21 95 36
109 41 320 149 340 175 3 4 12 11 21 16 27 14 131 105 169 147 136 150 227
336 264 540 26 143 31 198 30 362 0 132 -4 176 -23 250 -114 448 -579 854
-1240 1080 -182 62 -456 128 -621 150 -25 4 -56 8 -70 10 -14 2 -54 6 -90 10
-36 3 -76 8 -90 10 -14 2 -77 7 -140 10 -258 14 -267 15 -280 49 -9 25 -12
291 -14 1283 l-1 693 -655 0 -655 0 -1 -2507z"/>
</g>
</svg>
