<svg xmlns="http://www.w3.org/2000/svg" fill="none" viewBox="0 0 829 532"><path fill="#F3F5F8" d="M718.525 528.096c-12.91 0-27.06-.488-42.449-1.463-79.6-5.053-182.706-22.622-290.325-49.467-107.619-26.846-206.894-59.764-279.537-92.687-35.386-16.039-62.545-31.221-80.72-45.125-19.245-14.719-27.662-27.55-25.02-38.133 5.147-20.619 50.722-25.13 88.048-25.283l.013 2.999c-51.26.21-81.5 8.382-85.15 23.01-4.652 18.631 33.28 47.716 104.068 79.801 72.483 32.851 171.575 65.705 279.024 92.509 107.449 26.803 210.365 44.341 289.789 49.383 77.565 4.925 124.721-2.936 129.372-21.567 3.861-15.469-21.594-38.256-71.677-64.166l1.379-2.662c36.39 18.826 78.631 45.828 73.209 67.554-2.643 10.584-16.103 17.956-40.009 21.912-13.627 2.254-30.364 3.385-50.015 3.385Z"/><path fill="#F3F5F8" d="M225.957 532c-35.593.001-68.683-1.22-98.305-3.684-38.72-3.221-69.403-8.399-91.195-15.388-23.072-7.402-35.313-16.659-36.382-27.515-2.082-21.147 39.328-40.703 74.433-53.385l1.02 2.82c-48.21 17.415-73.945 35.269-72.468 50.273 1.882 19.109 47.384 33.764 124.84 40.207 79.311 6.597 183.685 4.259 293.896-6.587 110.21-10.843 213.038-28.891 289.54-50.82 74.713-21.415 116.485-44.657 114.603-63.766-1.562-15.866-33.197-28.778-89.076-36.36l.403-2.971c40.603 5.508 89.464 16.753 91.658 39.037 1.069 10.856-9.132 22.321-30.318 34.077-20.011 11.103-49.094 22.161-86.443 32.866-76.671 21.977-179.688 40.06-290.073 50.922C352.843 528.539 285.869 532 225.957 532Z"/></svg>