<?xml version="1.0" encoding="UTF-8" standalone="no"?>
<svg
   width="551"
   height="357.21332"
   viewBox="0 0 551 357.21332"
   fill="none"
   version="1.1"
   id="svg47"
   sodipodi:docname="app-modal-alert-naming-light.svg"
   inkscape:version="1.2.2 (b0a8486541, 2022-12-01)"
   xmlns:inkscape="http://www.inkscape.org/namespaces/inkscape"
   xmlns:sodipodi="http://sodipodi.sourceforge.net/DTD/sodipodi-0.dtd"
   xmlns="http://www.w3.org/2000/svg"
   xmlns:svg="http://www.w3.org/2000/svg">
  <sodipodi:namedview
     id="namedview49"
     pagecolor="#ffffff"
     bordercolor="#000000"
     borderopacity="0.25"
     inkscape:showpageshadow="2"
     inkscape:pageopacity="0.0"
     inkscape:pagecheckerboard="0"
     inkscape:deskcolor="#d1d1d1"
     showgrid="false"
     inkscape:zoom="0.70089286"
     inkscape:cx="153.3758"
     inkscape:cy="304.61146"
     inkscape:window-width="1920"
     inkscape:window-height="1011"
     inkscape:window-x="0"
     inkscape:window-y="0"
     inkscape:window-maximized="1"
     inkscape:current-layer="svg47" />
  <g
     clip-path="url(#clip0_7653_68209)"
     id="g40"
     transform="matrix(5.1035532,0,0,5.1035532,0,-0.0348876)">
    <path
       d="m 98.4742,69.793 -3.0836,-9.3055 c 0,0 3.3918,3.3917 3.3918,6.1747 l -0.6088,-6.4356 c 0,0 1.7393,2.3481 1.5654,5.9137 -0.1739,3.5657 -1.2648,3.6527 -1.2648,3.6527 z"
       fill="#e6e6e6"
       id="path2" />
    <path
       d="M 32.2555,61.3198 29.2461,52.238 c 0,0 3.3102,3.3102 3.3102,6.0263 l -0.5941,-6.2809 c 0,0 1.6975,2.2917 1.5277,5.7716 -0.1697,3.48 -1.2344,3.5648 -1.2344,3.5648 z"
       fill="#e6e6e6"
       id="path4" />
    <path
       d="m 79.2263,65.5108 c 0.0051,5.9742 -11.8439,4.1365 -26.35,4.1491 -14.506,0.0125 -26.1758,1.8704 -26.181,-4.1038 -0.0051,-5.9742 11.8396,-7.2837 26.3456,-7.2962 14.506,-0.0126 26.1802,1.2767 26.1854,7.2509 z"
       fill="#e6e6e6"
       id="path6" />
    <path
       d="M 107.964,69.6562 H 0 v 0.2734 h 107.964 z"
       fill="#3f3d56"
       id="path8" />
    <path
       d="m 69.0607,57.4426 h -1.8965 l -0.9025,-7.3149 h 2.799 z"
       fill="#a0616a"
       id="path10" />
    <path
       d="m 65.6,56.9006 h 3.8682 v 2.3029 h -5.9604 v -0.2107 c 0,-0.5549 0.2204,-1.087 0.6128,-1.4794 0.3924,-0.3923 0.9245,-0.6128 1.4794,-0.6128 z"
       fill="#2f2e41"
       id="path12" />
    <path
       d="m 83.0002,68.239 h -1.8965 l -0.9025,-7.3149 h 2.799 z"
       fill="#a0616a"
       id="path14" />
    <path
       d="m 79.5395,67.697 h 3.8681 v 2.3029 h -5.9603 v -0.2107 c 0,-0.5549 0.2204,-1.087 0.6128,-1.4794 0.3923,-0.3924 0.9245,-0.6128 1.4794,-0.6128 z"
       fill="#2f2e41"
       id="path16" />
    <path
       d="m 91.7476,46.5078 c 0.1311,-0.159 0.2258,-0.3448 0.2773,-0.5444 0.0515,-0.1995 0.0587,-0.408 0.021,-0.6106 -0.0378,-0.2026 -0.1195,-0.3945 -0.2394,-0.5621 -0.1199,-0.1677 -0.2751,-0.3069 -0.4547,-0.4081 l -4.4046,-17.9429 -2.8163,1.2117 5.239,17.3493 c -0.15,0.3129 -0.1799,0.67 -0.0842,1.0035 0.0958,0.3335 0.3105,0.6204 0.6036,0.8062 0.2931,0.1857 0.6441,0.2575 0.9866,0.2018 0.3425,-0.0558 0.6527,-0.2352 0.8717,-0.5044 z"
       fill="#a0616a"
       id="path18" />
    <path
       d="M 88.3128,10.2447 C 88.1556,10.0804 87.9643,9.95249 87.7523,9.8701 87.5403,9.7877 87.3129,9.75278 87.086,9.7678 86.8591,9.78282 86.6382,9.8474 86.439,9.957 c -0.1993,0.1096 -0.3721,0.2616 -0.5063,0.4452 l -6.8175,0.7827 1.0371,2.6296 6.2001,-1.1604 c 0.3234,0.2049 0.7108,0.2841 1.0887,0.2226 0.3778,-0.0616 0.72,-0.2596 0.9617,-0.5566 0.2416,-0.297 0.3659,-0.6723 0.3493,-1.0548 -0.0166,-0.3825 -0.1729,-0.7457 -0.4393,-1.0206 z"
       fill="#a0616a"
       id="path20" />
    <path
       d="m 77.0781,44.6469 2.9749,22.3272 3.7027,-0.7623 c 0,0 -0.5445,-16.2604 1.3068,-18.2206 1.8514,-1.9603 -2.3812,-5.3943 -2.3812,-5.3943 z"
       fill="#2f2e41"
       id="path22" />
    <path
       d="m 78.3079,38.497 -1.3666,2.05 c 0,0 -10.5231,-4.3731 -10.5231,2.5966 0,6.9697 -0.6022,11.6996 -0.82,12.0263 -0.2178,0.3267 2.5197,1.1745 3.8266,0.9567 0,0 1.6122,-11.2363 1.5033,-11.8897 0,0 10.3226,5.0611 12.2829,4.6255 1.9602,-0.4356 2.4233,-1.9777 2.75,-2.8489 0.3267,-0.8712 -0.1366,-7.7898 -0.1366,-7.7898 l -6.5339,-1.994 z"
       fill="#2f2e41"
       id="path24" />
    <path
       d="m 78.492,26.1892 -0.3895,-0.4675 c 0,0 -4.3628,-9.8163 -2.6488,-12.4651 1.7139,-2.6488 9.193,-3.0384 9.4267,-2.8825 0.2337,0.1558 -0.5582,2.1787 -0.0129,3.1136 0,0 -5.7937,1.2561 -6.1832,1.412 -0.3896,0.1558 3.0019,5.9139 3.0019,5.9139 l -0.3895,3.5058 z"
       fill="#cccccc"
       id="path26" />
    <path
       d="m 86.1279,21.3588 c 0,0 -4.0512,0.4675 -4.207,0.4675 -0.1558,0 -0.2337,-1.0128 -0.2337,-1.0128 l -3.5837,4.9081 c 0,0 -1.7656,14.2391 -1.2982,14.0054 0.4675,-0.2338 9.0889,1.1085 9.1668,0.4853 0.0779,-0.6233 -0.0779,-3.7395 0.1558,-3.8954 0.2337,-0.1558 4.0511,-9.8162 4.0511,-9.8162 0,0 -0.3895,-2.0256 -1.7139,-2.7268 -1.3244,-0.7011 -2.3372,-2.4151 -2.3372,-2.4151 z"
       fill="#cccccc"
       id="path28" />
    <path
       d="m 88.9314,25.1763 1.2465,1.3244 c 0,0 1.852,15.2188 0.8393,15.6862 -1.0128,0.4675 -3.0066,0.41 -3.0066,0.41 l -1.9618,-7.2148 z"
       fill="#cccccc"
       id="path30" />
    <path
       d="m 82.2343,20.3951 c 1.9804,0 3.5859,-1.6054 3.5859,-3.5858 0,-1.9805 -1.6055,-3.5859 -3.5859,-3.5859 -1.9804,0 -3.5859,1.6054 -3.5859,3.5859 0,1.9804 1.6055,3.5858 3.5859,3.5858 z"
       fill="#a0616a"
       id="path32" />
    <path
       d="m 81.3929,17.3689 c -0.0485,-0.7441 -0.9872,-0.7696 -1.7328,-0.7766 -0.7456,-0.0071 -1.637,0.0195 -2.0588,-0.5953 -0.2788,-0.4063 -0.2256,-0.9703 0.0047,-1.4059 0.2304,-0.4356 0.6093,-0.7707 0.982,-1.093 0.9623,-0.8321 1.9541,-1.6576 3.1094,-2.1902 1.1553,-0.5326 2.5092,-0.7479 3.7074,-0.3203 1.4718,0.5252 3.4615,3.2288 3.6334,4.7821 0.1718,1.5533 -0.449,3.1367 -1.4954,4.2975 -1.0464,1.1607 -3.4414,0.6924 -4.9487,1.1053 0.9163,-1.2969 0.3124,-3.6534 -1.1556,-4.259 z"
       fill="#2f2e41"
       id="path34" />
    <path
       d="m 49.4345,63.7525 c 4.7542,0 8.6083,-3.854 8.6083,-8.6083 0,-4.7542 -3.8541,-8.6083 -8.6083,-8.6083 -4.7542,0 -8.6083,3.8541 -8.6083,8.6083 0,4.7543 3.8541,8.6083 8.6083,8.6083 z"
       fill="#112a5c"
       id="path36" />
    <path
       d="m 43.6851,45.9243 c -1.193,10e-5 -2.3605,-0.3456 -3.3612,-0.9953 -1.0006,-0.6497 -1.7915,-1.5755 -2.2769,-2.6654 L 24.3872,11.5019 C 23.9348,10.4829 23.6954,9.38212 23.684,8.26724 23.6726,7.15237 23.8893,6.04693 24.3208,5.01889 c 0.4315,-1.02805 1.0687,-1.95698 1.8724,-2.72971 0.8038,-0.77273 1.757,-1.372921 2.8012,-1.763688 1.0442,-0.390767 2.1573,-0.5638519 3.2709,-0.5086146 1.1136,0.0552373 2.2041,0.3376296 3.2045,0.8298176 1.0004,0.492185 1.8896,1.183775 2.6129,2.032255 0.7233,0.84847 1.2654,1.8359 1.5931,2.90161 l 9.8913,32.17214 c 0.2832,0.9209 0.3465,1.8954 0.1847,2.8451 -0.1617,0.9498 -0.544,1.8484 -1.116,2.6236 -0.572,0.7753 -1.3179,1.4055 -2.1777,1.8402 -0.8598,0.4347 -1.8095,0.6617 -2.773,0.6627 z"
       fill="#112a5c"
       id="path38" />
  </g>
  <defs
     id="defs45">
    <clipPath
       id="clip0_7653_68209">
      <rect
         width="107.964"
         height="70"
         fill="#ffffff"
         id="rect42"
         x="0"
         y="0" />
    </clipPath>
  </defs>
</svg>
