<?xml version="1.0" encoding="UTF-8" standalone="no"?>
<svg
   width="551"
   height="357.21332"
   viewBox="0 0 551 357.21332"
   fill="none"
   version="1.1"
   id="svg3080"
   sodipodi:docname="app-modal-alert-naming-dark.svg"
   inkscape:version="1.2.2 (b0a8486541, 2022-12-01)"
   xmlns:inkscape="http://www.inkscape.org/namespaces/inkscape"
   xmlns:sodipodi="http://sodipodi.sourceforge.net/DTD/sodipodi-0.dtd"
   xmlns="http://www.w3.org/2000/svg"
   xmlns:svg="http://www.w3.org/2000/svg">
  <sodipodi:namedview
     id="namedview3082"
     pagecolor="#ffffff"
     bordercolor="#000000"
     borderopacity="0.25"
     inkscape:showpageshadow="2"
     inkscape:pageopacity="0.0"
     inkscape:pagecheckerboard="0"
     inkscape:deskcolor="#d1d1d1"
     showgrid="false"
     inkscape:zoom="0.35044643"
     inkscape:cx="-646.31847"
     inkscape:cy="432.30573"
     inkscape:window-width="1920"
     inkscape:window-height="1011"
     inkscape:window-x="0"
     inkscape:window-y="0"
     inkscape:window-maximized="1"
     inkscape:current-layer="svg3080" />
  <g
     clip-path="url(#clip0_7653_68594)"
     id="g3073"
     transform="matrix(5.1035532,0,0,5.1035532,-4.9241327,-0.0348876)">
    <path
       d="m 99.439,69.793 -3.0835,-9.3055 c 0,0 3.3917,3.3917 3.3917,6.1747 l -0.6088,-6.4356 c 0,0 1.7396,2.3481 1.5656,5.9137 -0.174,3.5657 -1.265,3.6527 -1.265,3.6527 z"
       fill="#e6e6e6"
       id="path3035" />
    <path
       d="M 33.2204,61.3198 30.2109,52.238 c 0,0 3.3102,3.3102 3.3102,6.0263 L 32.927,51.9834 c 0,0 1.6975,2.2917 1.5278,5.7716 -0.1698,3.48 -1.2344,3.5648 -1.2344,3.5648 z"
       fill="#e6e6e6"
       id="path3037" />
    <path
       d="m 80.1911,65.5108 c 0.0052,5.9742 -11.8439,4.1365 -26.3499,4.1491 -14.506,0.0125 -26.1759,1.8704 -26.181,-4.1038 -0.0052,-5.9742 11.8395,-7.2837 26.3456,-7.2962 14.506,-0.0126 26.1802,1.2767 26.1853,7.2509 z"
       fill="#e6e6e6"
       id="path3039" />
    <path
       d="M 108.929,69.6562 H 0.964844 v 0.2734 H 108.929 Z"
       fill="#3f3d56"
       id="path3041" />
    <path
       d="m 70.0256,57.4426 h -1.8965 l -0.9025,-7.3149 h 2.799 z"
       fill="#a0616a"
       id="path3043" />
    <path
       d="m 66.5648,56.9006 h 3.8682 v 2.3029 h -5.9603 v -0.2107 c 0,-0.5549 0.2204,-1.087 0.6127,-1.4794 0.3924,-0.3923 0.9246,-0.6128 1.4794,-0.6128 z"
       fill="#2f2e41"
       id="path3045" />
    <path
       d="M 83.965,68.239 H 82.0685 L 81.166,60.9241 h 2.799 z"
       fill="#a0616a"
       id="path3047" />
    <path
       d="m 80.5043,67.697 h 3.8682 v 2.3029 h -5.9604 v -0.2107 c 0,-0.5549 0.2204,-1.087 0.6128,-1.4794 0.3924,-0.3924 0.9245,-0.6128 1.4794,-0.6128 z"
       fill="#2f2e41"
       id="path3049" />
    <path
       d="m 92.7124,46.5078 c 0.1312,-0.159 0.2258,-0.3448 0.2774,-0.5444 0.0515,-0.1995 0.0586,-0.408 0.0209,-0.6106 -0.0377,-0.2026 -0.1194,-0.3945 -0.2393,-0.5621 -0.1199,-0.1677 -0.2752,-0.3069 -0.4547,-0.4081 l -4.4047,-17.9429 -2.8163,1.2117 5.239,17.3493 c -0.1499,0.3129 -0.1799,0.67 -0.0841,1.0035 0.0957,0.3335 0.3105,0.6204 0.6035,0.8062 0.2931,0.1857 0.6442,0.2575 0.9867,0.2018 0.3425,-0.0558 0.6526,-0.2352 0.8716,-0.5044 z"
       fill="#a0616a"
       id="path3051" />
    <path
       d="M 89.2776,10.2447 C 89.1204,10.0804 88.9291,9.95249 88.7171,9.8701 88.5052,9.7877 88.2777,9.75278 88.0508,9.7678 87.8239,9.78282 87.603,9.8474 87.4038,9.957 c -0.1993,0.1096 -0.372,0.2616 -0.5062,0.4452 l -6.8175,0.7827 1.0371,2.6296 6.2001,-1.1604 c 0.3234,0.2049 0.7107,0.2841 1.0886,0.2226 0.3779,-0.0616 0.7201,-0.2596 0.9617,-0.5566 0.2416,-0.297 0.3659,-0.6723 0.3494,-1.0548 -0.0166,-0.3825 -0.173,-0.7457 -0.4394,-1.0206 z"
       fill="#a0616a"
       id="path3053" />
    <path
       d="m 78.043,44.6469 2.9749,22.3272 3.7026,-0.7623 c 0,0 -0.5445,-16.2604 1.3069,-18.2206 1.8513,-1.9603 -2.3812,-5.3943 -2.3812,-5.3943 z"
       fill="#2f2e41"
       id="path3055" />
    <path
       d="m 79.2727,38.497 -1.3666,2.05 c 0,0 -10.5231,-4.3731 -10.5231,2.5966 0,6.9697 -0.6022,11.6996 -0.82,12.0263 -0.2178,0.3267 2.5198,1.1745 3.8266,0.9567 0,0 1.6122,-11.2363 1.5033,-11.8897 0,0 10.3227,5.0611 12.2829,4.6255 1.9603,-0.4356 2.4234,-1.9777 2.7501,-2.8489 0.3267,-0.8712 -0.1367,-7.7898 -0.1367,-7.7898 l -6.5339,-1.994 z"
       fill="#2f2e41"
       id="path3057" />
    <path
       d="m 79.4569,26.1892 -0.3895,-0.4675 c 0,0 -4.3628,-9.8163 -2.6489,-12.4651 1.714,-2.6488 9.193,-3.0384 9.4268,-2.8825 0.2337,0.1558 -0.5583,2.1787 -0.013,3.1136 0,0 -5.7937,1.2561 -6.1832,1.412 -0.3895,0.1558 3.002,5.9139 3.002,5.9139 l -0.3896,3.5058 z"
       fill="#cccccc"
       id="path3059" />
    <path
       d="m 87.0927,21.3588 c 0,0 -4.0511,0.4675 -4.2069,0.4675 -0.1559,0 -0.2338,-1.0128 -0.2338,-1.0128 l -3.5837,4.9081 c 0,0 -1.7656,14.2391 -1.2981,14.0054 0.4674,-0.2338 9.0888,1.1085 9.1667,0.4853 0.0779,-0.6233 -0.0779,-3.7395 0.1558,-3.8954 0.2338,-0.1558 4.0512,-9.8162 4.0512,-9.8162 0,0 -0.3896,-2.0256 -1.714,-2.7268 -1.3244,-0.7011 -2.3372,-2.4151 -2.3372,-2.4151 z"
       fill="#cccccc"
       id="path3061" />
    <path
       d="m 89.8962,25.1763 1.2465,1.3244 c 0,0 1.8521,15.2188 0.8393,15.6862 -1.0128,0.4675 -3.0066,0.41 -3.0066,0.41 l -1.9617,-7.2148 z"
       fill="#cccccc"
       id="path3063" />
    <path
       d="m 83.1992,20.3951 c 1.9804,0 3.5858,-1.6054 3.5858,-3.5858 0,-1.9805 -1.6054,-3.5859 -3.5858,-3.5859 -1.9805,0 -3.5859,1.6054 -3.5859,3.5859 0,1.9804 1.6054,3.5858 3.5859,3.5858 z"
       fill="#a0616a"
       id="path3065" />
    <path
       d="m 82.3577,17.3689 c -0.0484,-0.7441 -0.9871,-0.7696 -1.7327,-0.7766 -0.7456,-0.0071 -1.637,0.0195 -2.0589,-0.5953 -0.2788,-0.4063 -0.2255,-0.9703 0.0048,-1.4059 0.2303,-0.4356 0.6092,-0.7707 0.9819,-1.093 0.9623,-0.8321 1.9541,-1.6576 3.1094,-2.1902 1.1553,-0.5326 2.5092,-0.7479 3.7074,-0.3203 1.4719,0.5252 3.4616,3.2288 3.6334,4.7821 0.1718,1.5533 -0.449,3.1367 -1.4954,4.2975 -1.0464,1.1607 -3.4414,0.6924 -4.9486,1.1053 0.9163,-1.2969 0.3123,-3.6534 -1.1556,-4.259 z"
       fill="#2f2e41"
       id="path3067" />
    <path
       d="m 50.3993,63.7525 c 4.7543,0 8.6084,-3.854 8.6084,-8.6083 0,-4.7542 -3.8541,-8.6083 -8.6084,-8.6083 -4.7542,0 -8.6083,3.8541 -8.6083,8.6083 0,4.7543 3.8541,8.6083 8.6083,8.6083 z"
       fill="#fa4070"
       id="path3069" />
    <path
       d="m 44.65,45.9243 c -1.1931,10e-5 -2.3606,-0.3456 -3.3612,-0.9953 -1.0007,-0.6497 -1.7915,-1.5755 -2.2769,-2.6654 L 25.3521,11.5019 c -0.4525,-1.019 -0.6918,-2.11978 -0.7032,-3.23466 -0.0115,-1.11487 0.2052,-2.22031 0.6368,-3.24835 0.4315,-1.02805 1.0687,-1.95698 1.8724,-2.72971 0.8037,-0.77273 1.757,-1.372921 2.8012,-1.763688 1.0442,-0.390767 2.1573,-0.5638519 3.2708,-0.5086146 1.1136,0.0552373 2.2041,0.3376296 3.2045,0.8298176 1.0004,0.492185 1.8896,1.183775 2.6129,2.032255 0.7233,0.84847 1.2655,1.8359 1.5931,2.90161 L 50.532,37.9527 c 0.2831,0.9209 0.3464,1.8954 0.1847,2.8451 -0.1618,0.9498 -0.544,1.8484 -1.116,2.6236 -0.5721,0.7753 -1.3179,1.4055 -2.1777,1.8402 -0.8598,0.4347 -1.8096,0.6617 -2.773,0.6627 z"
       fill="#fa4070"
       id="path3071" />
  </g>
  <defs
     id="defs3078">
    <clipPath
       id="clip0_7653_68594">
      <rect
         width="107.964"
         height="70"
         fill="#ffffff"
         transform="translate(0.964844)"
         id="rect3075"
         x="0"
         y="0" />
    </clipPath>
  </defs>
</svg>
