<svg width="61" height="70" viewBox="0 0 61 70" fill="none" xmlns="http://www.w3.org/2000/svg">
<path d="M16.1312 21.3301C15.7011 21.4939 15.262 21.6328 14.8159 21.7461C14.2267 21.8897 13.894 21.9562 13.3253 21.7355C13.3053 21.7278 13.2863 21.7201 13.2683 21.7126C12.1903 21.2542 11.2689 20.4924 10.6161 19.5199C9.96325 18.5473 9.60725 17.406 9.59139 16.2347C9.58854 16.1946 9.58855 16.1523 9.58855 16.1111C9.58799 15.9126 9.59748 15.7142 9.61697 15.5167C9.6419 15.2476 9.68494 14.9805 9.74582 14.7172L9.74013 14.7162C9.27969 14.2453 9.10253 13.6004 9.16127 12.9524C9.20151 12.513 9.34094 12.0886 9.56905 11.711C9.79717 11.3333 10.108 11.0124 10.4782 10.7724C11.0583 10.4076 11.7124 10.1768 12.3929 10.0965C12.5756 10.0755 12.7594 10.0648 12.9433 10.0646H14.6714C15.0283 9.98103 15.3909 9.92387 15.7562 9.89357H15.759C19.2369 9.6051 21.9797 11.9108 21.7239 14.7162C21.722 14.7192 21.7192 14.7223 21.7173 14.7254C21.6434 14.846 21.578 14.9603 21.5202 15.0695C21.4643 15.1715 21.4169 15.2694 21.3762 15.3621C21.0588 16.0792 22.5671 27.2042 22.0261 27.3732C21.7182 27.469 20.4771 19.1905 20.6997 20.7647C20.9802 22.7397 17.7335 20.7378 16.1312 21.3301Z" fill="#2F2E41"/>
<path d="M21.371 41.4409L26.1921 51.7118L7.64648 49.8335L11.5178 39.9736L21.371 41.4409Z" fill="#FFB6B6"/>
<path d="M31.0482 62.0337C27.8232 63.1072 24.4246 63.5624 21.0308 63.3755L19.555 60.9821C19.555 60.9821 19.4932 61.8735 19.401 63.2362C17.7855 63.0489 16.191 62.7109 14.6385 62.2265C11.6942 61.3058 8.93429 59.8792 6.13668 58.5637C5.57003 55.1858 5.3574 49.9771 8.49019 46.9448L25.3524 50.0347C25.3524 50.0347 28.0578 52.0583 27.3341 52.7831C26.6103 53.5068 26.4982 53.3947 26.9737 53.8703C27.4493 54.3458 28.4768 54.9816 28.4872 55.3974C28.4914 55.5597 29.6446 58.504 31.0482 62.0337Z" fill="#2F2E41"/>
<path d="M18.4266 21.5938L14.3527 21.878L11.7196 24.4223L10.7975 24.5869C9.96857 24.7347 9.22271 25.1816 8.70134 25.8427C8.17996 26.5038 7.91933 27.3333 7.96885 28.1738C8.15853 31.3875 8.58323 36.1894 9.4709 37.7473C10.8473 40.1629 11.9842 39.405 10.8473 40.1629C9.71043 40.9209 8.94716 40.3253 9.4709 41.5231C9.99465 42.7209 8.76302 44.2573 8.76302 44.2573L8.27273 44.7476L8.79274 44.9607L25.3623 47.1168C25.3623 47.1168 23.9296 40.6751 24.8256 39.0926C25.7216 37.5102 27.8941 32.7268 25.9552 30.8552L24.0594 24.1838L20.7984 23.2221L18.4266 21.5938Z" fill="#112A5C"/>
<path d="M43.0868 48.0327C42.8142 48.024 42.5467 47.9562 42.3028 47.834C42.0589 47.7118 41.8445 47.5381 41.6744 47.3249C41.5043 47.1117 41.3825 46.8641 41.3174 46.5992C41.2524 46.3343 41.2457 46.0584 41.2978 45.7906L33.5254 40.5269L34.4528 38.019L43.6385 44.3384C44.0827 44.4596 44.467 44.7395 44.7185 45.1251C44.9701 45.5107 45.0715 45.9752 45.0035 46.4306C44.9355 46.8859 44.7028 47.3005 44.3496 47.5958C43.9963 47.8911 43.547 48.0465 43.0868 48.0327Z" fill="#FFB6B6"/>
<path d="M21.1333 23.8691L20.0039 24.3163L26.0287 36.0832L38.5012 44.5849L40.299 41.5462L30.8049 33.3456L27.0039 26.0558C26.4689 25.0299 25.5729 24.2386 24.4886 23.8348C23.4044 23.4309 22.209 23.4432 21.1333 23.8691Z" fill="#112A5C"/>
<path d="M16.1786 20.5589C18.4379 20.5589 20.2693 18.7274 20.2693 16.4682C20.2693 14.2089 18.4379 12.3774 16.1786 12.3774C13.9194 12.3774 12.0879 14.2089 12.0879 16.4682C12.0879 18.7274 13.9194 20.5589 16.1786 20.5589Z" fill="#FFB6B6"/>
<path d="M19.7358 14.7387C19.6676 14.7747 19.6004 14.8079 19.5321 14.841C19.4611 14.8751 19.39 14.9093 19.318 14.9415C17.949 15.562 16.8339 15.6312 16.1575 14.7387C16.139 14.2692 16.0333 13.8072 15.8458 13.3764C15.8789 13.8579 15.752 14.3368 15.4848 14.7387H14.1224C12.7193 15.67 11.9993 16.5255 12.9732 19.5828C13.0367 19.7837 13.4716 26.9195 13.5957 27.4681C11.4716 26.6533 9.63931 18.0025 9.59289 15.7231C9.59005 15.6861 9.59005 15.6473 9.59005 15.6094C9.5895 15.4268 9.59899 15.2443 9.61848 15.0627C9.64347 14.8149 9.68653 14.5691 9.74732 14.3275L9.74163 14.3266C9.52552 14.12 9.36065 13.8658 9.26015 13.5842C9.15965 13.3026 9.12631 13.0014 9.16277 12.7046C9.51909 12.2381 9.96005 11.8428 10.4626 11.5393C10.9196 11.318 11.3959 11.1392 11.8856 11.005C11.8979 11.0022 11.9084 10.9993 11.9207 10.9965C12.0704 10.9557 12.2238 10.9188 12.3773 10.8866C12.6936 10.8202 13.0134 10.7718 13.3351 10.7416C13.3588 10.7407 13.3816 10.7388 13.4024 10.7388C13.5311 10.7389 13.6574 10.7735 13.7681 10.8392C13.7691 10.8392 13.7691 10.8401 13.771 10.8401C13.8773 10.9037 13.9655 10.9936 14.0271 11.1011C14.0886 11.2086 14.1215 11.3302 14.1224 11.4541H15.6402C15.6961 11.4541 15.752 11.456 15.8079 11.4588C17.9215 11.5431 19.6203 12.4469 19.7292 14.5246C19.7339 14.5966 19.7358 14.6667 19.7358 14.7387Z" fill="#2F2E41"/>
<path d="M10.7614 14.9032C12.2498 14.9032 13.4564 13.6966 13.4564 12.2082C13.4564 10.7198 12.2498 9.51318 10.7614 9.51318C9.27299 9.51318 8.06641 10.7198 8.06641 12.2082C8.06641 13.6966 9.27299 14.9032 10.7614 14.9032Z" fill="#2F2E41"/>
<path d="M14.462 10.9614C14.1558 12.418 12.6453 13.2891 11.2002 12.9328C10.5062 12.7616 9.90862 12.3218 9.53891 11.7101C9.16921 11.0984 9.05765 10.3649 9.22878 9.67092C9.58514 8.2258 11.339 8.64241 12.4906 7.69954C14.1198 6.36572 14.8749 8.99709 14.462 10.9614Z" fill="#2F2E41"/>
<path d="M8.47399 51.507C10.7709 42.1403 15.3219 34.0895 22.8591 27.7818C23.1508 27.3019 23.621 26.9573 24.1664 26.8237C24.7118 26.69 25.288 26.7781 25.7685 27.0687L43.6863 37.9327C44.1662 38.2244 44.5107 38.6945 44.6444 39.2399C44.7781 39.7854 44.69 40.3616 44.3993 40.8421C41.5225 50.4533 37.2137 58.7933 30.0142 64.5673C29.7225 65.0472 29.2524 65.3917 28.707 65.5254C28.1615 65.6591 27.5854 65.5709 27.1048 65.2803L9.18705 54.4164C8.70718 54.1247 8.36261 53.6545 8.22893 53.1091C8.09525 52.5637 8.18338 51.9875 8.47399 51.507Z" fill="#F2F2F2"/>
<path opacity="0.2" d="M11.6587 54.6637C11.1788 54.372 10.8343 53.9018 10.7006 53.3564C10.5669 52.811 10.6551 52.2348 10.9457 51.7543C13.2425 42.3876 17.7936 34.3368 25.3308 28.0291C25.5239 27.7149 25.7965 27.4574 26.1211 27.2825L25.7685 27.0687C25.288 26.7781 24.7118 26.69 24.1664 26.8236C23.621 26.9573 23.1508 27.3019 22.8591 27.7817C15.322 34.0894 10.7709 42.1402 8.474 51.5069C8.18339 51.9875 8.09525 52.5636 8.22893 53.1091C8.3626 53.6545 8.70717 54.1246 9.18703 54.4163L27.1048 65.2803C27.4237 65.4722 27.7877 65.5764 28.1598 65.5823C28.532 65.5881 28.8991 65.4956 29.2239 65.3138L11.6587 54.6637Z" fill="black"/>
<path d="M32.6723 49.4301L20.6451 42.1832C20.454 42.0678 20.3165 41.8812 20.2629 41.6644C20.2093 41.4477 20.2439 41.2186 20.3592 41.0273C20.4744 40.8361 20.6608 40.6984 20.8774 40.6445C21.0941 40.5907 21.3233 40.625 21.5147 40.7399L33.5419 47.9868C33.7325 48.1025 33.8695 48.289 33.9228 48.5055C33.9762 48.7221 33.9415 48.9509 33.8264 49.1419C33.7113 49.3328 33.5252 49.4704 33.3089 49.5244C33.0926 49.5785 32.8637 49.5445 32.6723 49.4301Z" fill="white"/>
<path d="M25.6751 39.8205L23.0291 38.2262C22.8374 38.1115 22.699 37.9253 22.6446 37.7086C22.5901 37.4919 22.6239 37.2624 22.7386 37.0706C22.8534 36.8789 23.0396 36.7405 23.2563 36.6861C23.473 36.6316 23.7024 36.6654 23.8942 36.7802L23.8987 36.7829L26.5447 38.3772C26.7354 38.4929 26.8724 38.6794 26.9258 38.896C26.9792 39.1125 26.9445 39.3413 26.8294 39.5324C26.7143 39.7234 26.5282 39.861 26.3118 39.915C26.0954 39.969 25.8665 39.935 25.6751 39.8205Z" fill="white"/>
<path d="M30.7593 52.6026L18.7321 45.3558C18.5408 45.2406 18.4031 45.0541 18.3491 44.8374C18.2952 44.6207 18.3296 44.3915 18.4446 44.2001C18.5596 44.0087 18.7459 43.8707 18.9625 43.8166C19.1792 43.7625 19.4085 43.7966 19.6 43.9114L19.6017 43.9125L31.6289 51.1593C31.8196 51.275 31.9565 51.4616 32.0099 51.6781C32.0632 51.8946 32.0285 52.1234 31.9134 52.3144C31.7984 52.5054 31.6123 52.643 31.3959 52.697C31.1796 52.751 30.9507 52.7171 30.7593 52.6026Z" fill="white"/>
<path d="M34.1985 35.7661C36.1386 35.7661 37.7114 34.1933 37.7114 32.2531C37.7114 30.313 36.1386 28.7402 34.1985 28.7402C32.2583 28.7402 30.6855 30.313 30.6855 32.2531C30.6855 34.1933 32.2583 35.7661 34.1985 35.7661Z" fill="#3F3D56"/>
<path d="M28.1431 69.8951C32.2898 69.8951 35.6514 66.5335 35.6514 62.3867C35.6514 58.24 32.2898 54.8784 28.1431 54.8784C23.9964 54.8784 20.6348 58.24 20.6348 62.3867C20.6348 66.5335 23.9964 69.8951 28.1431 69.8951Z" fill="white"/>
<path d="M28.1443 70.0001C26.6386 70.0001 25.1667 69.5536 23.9147 68.717C22.6628 67.8805 21.687 66.6915 21.1108 65.3004C20.5346 63.9093 20.3838 62.3786 20.6775 60.9018C20.9713 59.425 21.6963 58.0685 22.761 57.0038C23.8258 55.939 25.1823 55.214 26.6591 54.9202C28.1358 54.6265 29.6666 54.7772 31.0577 55.3534C32.4488 55.9296 33.6378 56.9054 34.4743 58.1574C35.3109 59.4093 35.7574 60.8812 35.7574 62.3869C35.7551 64.4054 34.9523 66.3405 33.5251 67.7677C32.0978 69.1949 30.1627 69.9978 28.1443 70.0001ZM28.1443 54.9834C26.68 54.9834 25.2486 55.4176 24.0311 56.2311C22.8136 57.0447 21.8646 58.2009 21.3043 59.5538C20.7439 60.9066 20.5973 62.3952 20.883 63.8314C21.1687 65.2675 21.8738 66.5867 22.9092 67.6221C23.9446 68.6575 25.2638 69.3627 26.7 69.6483C28.1361 69.934 29.6248 69.7874 30.9776 69.227C32.3304 68.6666 33.4867 67.7177 34.3002 66.5002C35.1137 65.2827 35.5479 63.8512 35.5479 62.3869C35.5457 60.4241 34.7649 58.5422 33.377 57.1543C31.989 55.7663 30.1072 54.9856 28.1443 54.9834Z" fill="#3F3D56"/>
<path d="M27.1183 66.2946C26.9887 66.2946 26.8608 66.2644 26.7448 66.2064C26.6288 66.1484 26.528 66.0642 26.4502 65.9605L24.4018 63.2292C24.3359 63.1415 24.2879 63.0416 24.2606 62.9353C24.2333 62.8291 24.2272 62.7184 24.2427 62.6098C24.2582 62.5011 24.2949 62.3966 24.3508 62.3022C24.4067 62.2077 24.4807 62.1252 24.5685 62.0594C24.6563 61.9936 24.7562 61.9457 24.8625 61.9185C24.9688 61.8913 25.0794 61.8853 25.1881 61.9008C25.2967 61.9164 25.4012 61.9532 25.4956 62.0092C25.5899 62.0652 25.6724 62.1392 25.7381 62.2271L27.0783 64.0138L30.5202 58.8509C30.581 58.7597 30.6593 58.6813 30.7504 58.6202C30.8415 58.5592 30.9438 58.5167 31.0513 58.4952C31.1589 58.4737 31.2696 58.4736 31.3772 58.4949C31.4848 58.5162 31.5872 58.5584 31.6784 58.6193C31.7697 58.6801 31.8481 58.7583 31.9091 58.8495C31.9701 58.9406 32.0126 59.0429 32.0341 59.1504C32.0556 59.258 32.0558 59.3687 32.0345 59.4763C32.0132 59.5839 31.9709 59.6863 31.9101 59.7775L27.8133 65.9227C27.7392 66.0338 27.6395 66.1256 27.5226 66.1902C27.4058 66.2549 27.2751 66.2906 27.1416 66.2943C27.1338 66.2945 27.1261 66.2946 27.1183 66.2946Z" fill="#112A5C"/>
<path d="M52.3916 24.3383C52.69 24.3127 52.9174 24.1238 52.8997 23.9162C52.882 23.7087 52.6257 23.5611 52.3273 23.5866C52.029 23.6121 51.8015 23.8011 51.8192 24.0086C51.837 24.2162 52.0932 24.3638 52.3916 24.3383Z" fill="white"/>
<path d="M55.749 23.1996C56.0474 23.1741 56.2749 22.9851 56.2571 22.7776C56.2394 22.57 55.9831 22.4224 55.6848 22.4479C55.3864 22.4735 55.1589 22.6624 55.1767 22.87C55.1944 23.0775 55.4507 23.2251 55.749 23.1996Z" fill="#3F3D56"/>
<path d="M50.7998 21.7772C51.0982 21.7517 51.3257 21.5628 51.3079 21.3552C51.2902 21.1476 51.0339 21.0001 50.7355 21.0256C50.4372 21.0511 50.2097 21.24 50.2274 21.4476C50.2452 21.6551 50.5015 21.8027 50.7998 21.7772Z" fill="#FF6584"/>
<path d="M49.3933 20.9519C49.5217 20.9229 49.592 20.7497 49.5503 20.5651C49.5086 20.3805 49.3707 20.2544 49.2423 20.2834C49.1139 20.3124 49.0436 20.4856 49.0853 20.6702C49.127 20.8548 49.2649 20.9809 49.3933 20.9519Z" fill="#E6E6E6"/>
<path d="M48.3894 18.948C48.5178 18.919 48.5881 18.7458 48.5464 18.5612C48.5047 18.3766 48.3668 18.2505 48.2384 18.2795C48.11 18.3085 48.0397 18.4817 48.0814 18.6663C48.1231 18.8509 48.261 18.977 48.3894 18.948Z" fill="#3F3D56"/>
<path d="M53.2 21.7619C53.3284 21.7329 53.3987 21.5598 53.357 21.3752C53.3153 21.1906 53.1773 21.0644 53.0489 21.0935C52.9205 21.1225 52.8502 21.2956 52.8919 21.4802C52.9336 21.6648 53.0716 21.791 53.2 21.7619Z" fill="#E6E6E6"/>
<path d="M51.7332 22.9792C51.8616 22.9502 51.9319 22.777 51.8902 22.5924C51.8485 22.4079 51.7105 22.2817 51.5821 22.3107C51.4537 22.3398 51.3834 22.5129 51.4251 22.6975C51.4668 22.8821 51.6048 23.0082 51.7332 22.9792Z" fill="#FF6584"/>
<path d="M54.4031 23.9704C54.5315 23.9414 54.6018 23.7683 54.5601 23.5837C54.5184 23.3991 54.3805 23.2729 54.252 23.302C54.1236 23.331 54.0533 23.5041 54.0951 23.6887C54.1368 23.8733 54.2747 23.9995 54.4031 23.9704Z" fill="#3F3D56"/>
<path d="M38.5325 8.81825C38.5837 8.61631 38.3898 8.39298 38.0996 8.31942C37.8093 8.24586 37.5325 8.34992 37.4813 8.55185C37.4302 8.75378 37.624 8.97711 37.9143 9.05068C38.2045 9.12424 38.4813 9.02018 38.5325 8.81825Z" fill="white"/>
<path d="M34.9876 8.79578C35.0388 8.59385 34.8449 8.37052 34.5547 8.29696C34.2644 8.22339 33.9876 8.32746 33.9364 8.52939C33.8852 8.73132 34.0791 8.95465 34.3693 9.02821C34.6596 9.10178 34.9364 8.99771 34.9876 8.79578Z" fill="#3F3D56"/>
<path d="M39.1966 11.7592C39.2477 11.5572 39.0539 11.3339 38.7636 11.2603C38.4734 11.1868 38.1966 11.2908 38.1454 11.4928C38.0942 11.6947 38.288 11.918 38.5783 11.9916C38.8686 12.0652 39.1454 11.9611 39.1966 11.7592Z" fill="#FF6584"/>
<path d="M40.0236 12.8682C40.0446 12.6801 39.9556 12.5158 39.8247 12.5011C39.6939 12.4865 39.5708 12.6271 39.5498 12.8152C39.5288 13.0033 39.6178 13.1676 39.7486 13.1822C39.8795 13.1969 40.0026 13.0562 40.0236 12.8682Z" fill="#E6E6E6"/>
<path d="M40.3146 15.0898C40.3356 14.9018 40.2466 14.7374 40.1157 14.7228C39.9849 14.7082 39.8618 14.8488 39.8408 15.0369C39.8198 15.225 39.9088 15.3893 40.0396 15.4039C40.1705 15.4185 40.2936 15.2779 40.3146 15.0898Z" fill="#3F3D56"/>
<path d="M36.6916 10.8564C36.7126 10.6684 36.6235 10.504 36.4927 10.4894C36.3619 10.4748 36.2388 10.6154 36.2177 10.8035C36.1967 10.9916 36.2858 11.1559 36.4166 11.1705C36.5474 11.1851 36.6705 11.0445 36.6916 10.8564Z" fill="#E6E6E6"/>
<path d="M38.4748 10.1865C38.4958 9.99843 38.4067 9.83411 38.2759 9.81949C38.1451 9.80487 38.022 9.94549 38.0009 10.1336C37.9799 10.3217 38.069 10.486 38.1998 10.5006C38.3306 10.5152 38.4537 10.3746 38.4748 10.1865Z" fill="#FF6584"/>
<path d="M36.2775 8.37548C36.2985 8.1874 36.2095 8.02308 36.0786 8.00846C35.9478 7.99384 35.8247 8.13445 35.8037 8.32254C35.7827 8.51062 35.8717 8.67494 36.0025 8.68956C36.1334 8.70418 36.2565 8.56356 36.2775 8.37548Z" fill="#3F3D56"/>
<path d="M9.59117 51.6061C9.32344 51.4964 9.08275 51.3298 8.88572 51.118C8.68869 50.9061 8.54004 50.6539 8.45004 50.379C8.36004 50.104 8.33085 49.8127 8.36448 49.5254C8.39811 49.238 8.49376 48.9614 8.64481 48.7146L2.87305 40.6013L4.72467 38.4531L11.5094 48.1395C11.9059 48.4247 12.184 48.8454 12.291 49.3219C12.398 49.7983 12.3265 50.2975 12.09 50.7248C11.8536 51.1521 11.4686 51.4778 11.008 51.6403C10.5475 51.8027 10.0434 51.7905 9.59117 51.6061Z" fill="#FFB6B6"/>
<path d="M9.72444 25.895C9.43244 25.7232 9.08877 25.6611 8.75511 25.7198C8.42144 25.7786 8.11964 25.9543 7.90387 26.2155L0.105469 37.122L7.33256 47.3866L10.1606 44.3491L5.76145 37.4362L11.6079 31.8698C12.0883 30.8172 12.1617 29.624 11.8139 28.5206C11.466 27.4171 10.7216 26.4817 9.72444 25.895Z" fill="#112A5C"/>
</svg>
