<svg width="81" height="98" viewBox="0 0 81 98" fill="none" xmlns="http://www.w3.org/2000/svg">
<g clip-path="url(#clip0_12105_82495)">
<path d="M15.5054 38.4342C15.4117 38.2881 14.8215 37.3669 14.3842 37.4602C13.5552 37.6371 14.0049 41.3029 12.7998 41.6685C12.5354 41.7487 12.1631 41.6785 11.3317 41.9005C11.0009 41.9888 10.8295 42.0614 10.7762 42.2075C10.7007 42.4149 10.9291 42.5892 11.2685 43.0945C11.7773 43.8524 11.6209 43.9927 12.0683 44.5359C12.4006 44.9392 12.6613 45.0737 12.6102 45.2507C12.5378 45.5011 11.9691 45.3934 11.8325 45.6805C11.6931 45.9735 12.0978 46.4798 12.4478 46.7893C13.1046 47.3701 13.7592 47.4262 14.3586 47.6166C15.0101 47.8235 15.901 48.2858 16.8232 49.4418L24.1934 59.3987C23.5991 59.1738 22.441 58.712 20.8612 57.9223C19.5287 57.2558 18.2077 56.4973 16.9347 55.667C16.3858 55.309 15.9061 54.9759 15.4751 54.6656L15.5188 54.6884L15.3083 53.928C15.2275 53.6258 15.1746 53.379 15.2867 53.1805C15.3485 53.0743 15.4651 52.9647 15.6011 52.8378C15.7569 52.6925 15.9339 52.5281 16.1063 52.2998C16.2661 52.0944 16.3025 51.9112 16.2227 51.7577C16.1956 51.7055 16.16 51.6684 16.1225 51.6412C16.1654 51.5734 16.2142 51.4935 16.2576 51.3973C16.3496 51.1931 16.3721 51.0184 16.3884 50.8882C16.4551 50.3652 16.3703 50.057 16.1351 49.972C16.0357 49.9362 15.946 49.9525 15.8709 49.9878C15.8653 49.8805 15.851 49.7542 15.8118 49.6182C15.6857 49.1813 15.5101 48.9598 15.2765 48.9416C14.95 48.9158 14.7854 49.2758 14.5951 49.6919C14.5098 49.8768 14.286 50.3692 14.1691 50.3696C14.1546 50.3695 14.1134 50.3606 14.0768 50.3526C13.9767 50.3308 13.8257 50.2981 13.59 50.2915C13.4579 50.2878 13.2584 50.282 13.1363 50.4454C13.0276 50.6019 13.0813 50.7684 13.1306 50.9014C13.147 50.9453 13.1666 50.9974 13.1862 51.0606C13.231 51.2048 13.2384 51.2825 13.2458 51.3579C13.2553 51.4559 13.2652 51.5577 13.3356 51.7252C13.3415 51.7388 13.347 51.7515 13.3525 51.764C13.2864 51.779 13.217 51.8109 13.1588 51.8755C12.9396 52.1136 13.1441 52.5078 13.2415 52.6647C13.4166 52.9455 13.6384 53.0803 13.8169 53.1888C13.8619 53.2162 13.9061 53.2431 13.9488 53.2721C14.1702 53.4226 14.3538 53.6506 14.5009 53.944C14.3269 53.8117 14.1605 53.6842 14.0043 53.5643C13.4449 53.1347 12.9189 52.716 12.4061 52.3079C11.8788 51.8882 11.3625 51.4774 10.8372 51.0767L10.8703 50.9326L10.7434 51.0061C9.91512 50.3775 9.06201 49.7736 8.10418 49.2007C8.06493 49.1772 8.01848 49.1497 7.9706 49.1217L7.925 48.957C7.84423 48.6548 7.79132 48.408 7.90336 48.2095C7.96518 48.1033 8.08185 47.9937 8.21776 47.8668C8.3736 47.7216 8.5506 47.5572 8.72299 47.3288C8.8828 47.1234 8.91918 46.9403 8.83934 46.7868C8.81229 46.7345 8.77672 46.6975 8.73921 46.6702C8.78206 46.6025 8.83088 46.5225 8.87428 46.4263C8.96626 46.2221 8.98879 46.0474 9.00505 45.9173C9.07184 45.3942 8.98695 45.086 8.75182 45.001C8.65244 44.9652 8.5627 44.9816 8.48758 45.0168C8.48201 44.9095 8.46769 44.7832 8.42849 44.6472C8.30236 44.2103 8.12682 43.9889 7.89319 43.9706C7.56674 43.9448 7.40206 44.3049 7.21177 44.7209C7.12646 44.9058 6.90264 45.3982 6.78577 45.3986C6.7713 45.3985 6.73007 45.3896 6.69354 45.3816C6.59341 45.3599 6.44241 45.3271 6.20673 45.3206C6.07459 45.3168 5.87509 45.3111 5.75304 45.4744C5.6443 45.6309 5.69794 45.7974 5.74734 45.9304C5.76371 45.9743 5.78326 46.0264 5.80289 46.0897C5.84766 46.2338 5.85513 46.3116 5.8625 46.3869C5.872 46.4849 5.8819 46.5867 5.95229 46.7542C5.95825 46.7678 5.96368 46.7805 5.96922 46.793C5.90308 46.8081 5.83375 46.8399 5.77549 46.9045C5.55629 47.1426 5.76078 47.5369 5.85816 47.6937C6.03326 47.9745 6.25511 48.1093 6.43356 48.2178C6.47857 48.2453 6.52279 48.2721 6.56551 48.3012C6.69065 48.3862 6.80321 48.4971 6.90508 48.6284C6.58016 48.519 6.20501 48.4289 5.78198 48.3903C5.27642 48.3441 4.76422 48.3782 4.25365 48.4892C4.25007 48.4508 4.24655 48.4131 4.24263 48.3713C4.19923 47.9026 4.16747 47.7081 4.00563 47.5259C3.92706 47.4369 3.80671 47.339 3.46263 47.2272C2.98572 47.0722 2.57723 47.0487 2.46307 47.0452C1.89294 47.029 1.4005 47.015 0.953414 47.3583C0.868106 47.4233 0.609036 47.6203 0.466831 47.9678C0.394038 48.1436 0.380913 48.2864 0.370378 48.4011C0.359262 48.521 0.35226 48.6004 0.284781 48.7114C0.242188 48.7822 0.190948 48.8399 0.150226 48.8864C0.0715841 48.9795 -0.0762329 49.1499 0.0476522 49.3348C0.0774232 49.3796 0.11505 49.411 0.157815 49.4322C0.135121 49.5891 0.148959 49.7514 0.226829 49.8984C0.296598 50.0306 0.416855 50.1191 0.740844 50.2771C1.23659 50.5189 1.63612 50.6367 1.71547 50.659C2.22969 50.8045 2.48754 50.8774 2.76394 50.8669C3.35213 50.8435 3.77942 50.6615 4.03387 50.3255C4.0467 50.3091 4.05858 50.2924 4.06994 50.2756C4.24829 50.0118 4.26761 49.7356 4.29843 49.296C4.30425 49.2111 4.30252 49.1132 4.29507 48.9885C4.77737 48.8766 5.26068 48.8385 5.73641 48.882C6.76619 48.9761 7.49794 49.4138 7.84938 49.6242C8.72464 50.1478 9.51377 50.7004 10.279 51.2753L10.1867 51.3287C9.91435 51.4834 9.68859 51.597 9.46774 51.5392C9.3492 51.5065 9.21334 51.4217 9.05586 51.3226C8.87558 51.209 8.67135 51.0798 8.40633 50.9713C8.16675 50.8692 7.97998 50.8805 7.85145 50.9965C7.80768 51.0359 7.7808 51.0796 7.76388 51.1228C7.68736 51.0986 7.59746 51.0717 7.49328 51.0542C7.27204 51.0172 7.09694 51.0398 6.9667 51.0571C6.44281 51.1253 6.16568 51.2854 6.14293 51.534C6.13344 51.639 6.17206 51.7215 6.22527 51.785C6.12268 51.8176 6.00393 51.8635 5.88201 51.9358C5.4906 52.1684 5.32051 52.3941 5.36207 52.6243C5.41989 52.946 5.81059 53.0136 6.26212 53.0918C6.46291 53.1273 6.99692 53.2184 7.02697 53.3311C7.0305 53.3452 7.03238 53.3872 7.03387 53.4245C7.03819 53.5267 7.04478 53.6808 7.0982 53.91C7.1281 54.0385 7.1731 54.2325 7.36235 54.3089C7.54167 54.3742 7.68936 54.2802 7.80575 54.1988C7.84414 54.1719 7.88971 54.1398 7.94601 54.1048C8.07438 54.025 8.14784 53.998 8.219 53.9718C8.3116 53.9378 8.40773 53.9024 8.55222 53.792C8.5639 53.7828 8.5748 53.7743 8.58546 53.7658C8.61688 53.8258 8.66534 53.8847 8.74273 53.9245C9.02909 54.0758 9.35928 53.7783 9.48664 53.6445C9.71435 53.4043 9.78874 53.1559 9.84866 52.9561C9.8638 52.9057 9.87861 52.8562 9.89594 52.8076C10.0048 52.5018 10.2321 52.2189 10.5718 51.9667L10.6452 51.9122L10.7154 51.6067C11.1765 51.9617 11.633 52.324 12.0979 52.6941C12.6124 53.1039 13.1408 53.5242 13.7025 53.9556C14.4473 54.5275 15.3739 55.2391 16.6644 56.0807C17.9529 56.9209 19.2902 57.6889 20.6398 58.3637C21.8418 58.9646 22.8044 59.3787 23.4649 59.6445C21.5402 59.773 18.8778 59.9255 17.6745 59.9471C17.2066 59.9555 16.7246 59.9483 16.3809 59.6252C16.0501 59.3142 15.8875 58.7478 15.4061 58.1565C15.3499 58.0875 15.191 57.8973 15.0503 57.9309C14.934 57.9587 14.9361 58.1142 14.8279 58.1417C14.6827 58.1787 14.5612 57.929 14.2608 57.6941C14.049 57.5285 13.856 57.4544 13.69 57.3907C13.6399 57.3715 12.8899 57.0891 12.7522 57.2945C12.6487 57.4489 12.9804 57.7449 12.8819 57.8753C12.7838 58.0054 12.4204 57.7568 11.8719 57.7773C11.773 57.781 11.1497 57.8043 11.0694 58.0455C10.9172 58.5026 12.8497 59.34 12.6817 60.0358C12.6449 60.1885 12.503 60.3506 12.3722 60.8219C12.3202 61.0094 12.3064 61.1143 12.3629 61.1826C12.4431 61.2794 12.5948 61.2178 12.9412 61.1974C13.4607 61.1668 13.4845 61.2839 13.8808 61.2215C14.175 61.1751 14.3163 61.0862 14.3886 61.1623C14.4909 61.2699 14.2739 61.5175 14.3756 61.6672C14.4795 61.82 14.8452 61.7679 15.0984 61.6858C15.5736 61.5316 15.79 61.2271 16.0566 60.9884C16.3463 60.729 16.8307 60.426 17.6653 60.3078L23.5726 59.6875C23.918 59.8249 24.1725 59.9188 24.3207 59.9734C24.3996 60.0024 24.4503 60.0205 24.4713 60.03L24.5496 59.8798L24.6372 59.9982C24.61 59.9596 24.5802 59.917 24.5515 59.8761L24.5848 59.8121L24.811 59.7119C24.7806 59.6428 24.7472 59.6126 24.657 59.5736L25.1111 59.5259C24.9738 59.5371 24.8085 59.5497 24.6318 59.5628C24.5946 59.5477 24.5489 59.5309 24.4919 59.5098C24.4253 59.4854 24.3352 59.4521 24.2272 59.4114C22.4355 56.8331 18.7504 51.3706 17.3787 49.1347C16.9495 48.4351 16.5312 47.7002 16.7155 46.8933C16.8929 46.1165 17.6073 45.3666 18.076 44.1128C18.1307 43.9664 18.2778 43.5569 18.1016 43.3742C17.9559 43.2232 17.7219 43.3648 17.5837 43.2258C17.3984 43.0394 17.669 42.6333 17.758 41.9703C17.8208 41.5028 17.7613 41.1452 17.7102 40.8377C17.6947 40.745 17.4557 39.3601 17.0214 39.3349C16.6951 39.3159 16.5413 40.0806 16.2557 40.0479C15.9711 40.0154 16.0247 39.2448 15.5054 38.4342Z" fill="#F2F2F2"/>
<path d="M75.8791 70.6297L23.1215 63.352C21.3557 63.1086 19.8984 61.8458 19.4085 60.1352L7.29148 17.8081C6.8809 16.3735 7.18742 14.888 8.13247 13.7322C9.07751 12.5763 10.4738 11.979 11.9647 12.0925L65.1181 16.1569C67.041 16.3039 68.6553 17.6554 69.1352 19.5197L80.8564 65.0602C81.2304 66.5134 80.8564 68.0496 79.8557 69.1693C78.994 70.1336 77.7721 70.6722 76.4984 70.6722C76.293 70.6722 76.086 70.6582 75.8791 70.6297Z" fill="#E6E6E6"/>
<path d="M62.5375 61.1605L45.804 58.8522C45.2439 58.775 44.7817 58.3745 44.6263 57.8319L40.7831 44.4068C40.6529 43.9518 40.7501 43.4806 41.0498 43.114C41.3496 42.7474 41.7924 42.5579 42.2653 42.5939L59.1243 43.8831C59.7342 43.9297 60.2462 44.3584 60.3985 44.9497L64.1162 59.394C64.2348 59.855 64.1162 60.3422 63.7987 60.6973C63.5254 61.0032 63.1379 61.174 62.7339 61.174C62.6687 61.174 62.6031 61.1696 62.5375 61.1605Z" fill="white"/>
<path d="M61.0442 23.9137L29.981 21.06C29.1979 20.988 28.5884 20.6288 28.6225 20.2593C28.6565 19.8897 29.3215 19.6477 30.1046 19.7197L61.1678 22.5735C61.9509 22.6454 62.5601 23.0045 62.526 23.374C62.4919 23.7435 61.8273 23.9857 61.0442 23.9137Z" fill="white"/>
<path d="M62.7356 32.0624L31.6724 29.2087C30.8893 29.1367 30.2798 28.7775 30.3139 28.408C30.3479 28.0384 31.0129 27.7964 31.796 27.8684L62.8592 30.7221C63.6423 30.7941 64.2515 31.1531 64.2174 31.5227C64.1833 31.8922 63.5187 32.1344 62.7356 32.0624Z" fill="white"/>
<path d="M63.3332 39.1645L32.27 36.3107C31.4869 36.2388 30.8774 35.8795 30.9115 35.51C30.9456 35.1405 31.6105 34.8985 32.3937 34.9704L63.4568 37.8242C64.24 37.8961 64.8492 38.2552 64.8151 38.6247C64.781 38.9943 64.1163 39.2364 63.3332 39.1645Z" fill="white"/>
<path d="M44.6189 35.7341C45.3986 34.8863 46.4689 34.6005 47.0094 35.0959C47.5499 35.5912 47.356 36.6798 46.5759 37.5278C46.2689 37.8708 45.8841 38.1355 45.4537 38.2997L42.1047 41.8502L40.4688 40.2462L43.944 36.9162C44.0711 36.474 44.3026 36.0687 44.6189 35.7341Z" fill="#FFB6B6"/>
<path d="M25.5257 36.5242C25.5257 36.5242 27.4828 34.7376 29.8246 36.2974C32.1665 37.8572 37.62 41.847 37.62 41.847L41.4413 37.1168L44.4525 39.8409C44.4525 39.8409 39.141 49.1783 35.7093 47.1233C32.2777 45.0682 24.6167 39.2017 24.9646 37.9879C25.3124 36.7741 25.5257 36.5242 25.5257 36.5242Z" fill="#112A5C"/>
<path d="M40.0142 80.1028L36.8962 85.9015L34.3281 82.7998L37.2823 78.8157L40.0142 80.1028Z" fill="#FFB6B6"/>
<path d="M37.998 85.0999L36.6788 92.2144C36.6788 92.2144 35.7933 94.6818 34.3699 92.1755C32.9466 89.6693 30.3693 84.484 31.851 83.5338C33.3327 82.5835 35.1222 81.8157 35.1222 81.8157L37.998 85.0999Z" fill="#2F2E41"/>
<path d="M41.8543 86.4177L45.144 92.3275L41.0319 92.82L39.2227 88.0593L41.8543 86.4177Z" fill="#FFB6B6"/>
<path d="M24.4205 32.9014C24.4205 32.9014 24.0915 36.1846 23.5981 36.5129C23.1046 36.8412 29.3575 36.5129 29.3575 36.5129L27.5456 32.9014H24.4205Z" fill="#FFB6B6"/>
<path d="M31.1613 37.5005L28.8598 35.6921H23.2325L19.4844 38.8112L21.8693 49.892L20.718 55.3093L35.3567 55.8018L32.7251 50.877C32.7251 50.877 35.8502 47.5938 34.8633 45.4597C33.8764 43.3256 31.1613 37.5005 31.1613 37.5005Z" fill="#112A5C"/>
<path d="M33.8768 54.4885L36.015 55.6376C36.015 55.6376 47.5287 66.4722 46.5418 69.7554C45.5549 73.0387 38.9757 82.3958 38.9757 82.3958L35.8506 80.7542L40.456 70.7404L31.6563 61.9578L36.38 70.2685L43.0877 87.8131L39.1402 89.4547L28.9424 68.9346C28.9424 68.9346 20.5539 63.189 20.0604 59.5775C19.567 55.966 20.7184 55.3093 20.7184 55.3093L33.8768 54.4885Z" fill="#2F2E41"/>
<path d="M45.0629 90.9321L50.4908 96.0211C50.4908 96.0211 52.1356 98.1552 49.1749 97.991C46.2143 97.8269 40.293 97.1702 40.293 95.3645C40.293 93.5587 40.6219 91.5888 40.6219 91.5888L45.0629 90.9321Z" fill="#2F2E41"/>
<path d="M26.0643 33.7223C28.1536 33.7223 29.8474 32.0318 29.8474 29.9466C29.8474 27.8613 28.1536 26.1709 26.0643 26.1709C23.975 26.1709 22.2812 27.8613 22.2812 29.9466C22.2812 32.0318 23.975 33.7223 26.0643 33.7223Z" fill="#FFB6B6"/>
<path d="M42.4752 45.012L39.3574 54.4884C39.2743 54.741 39.0584 54.9273 38.796 54.9728L32.8336 56.0077C32.2989 56.1006 31.8571 55.5927 32.0241 55.0774L35.1377 45.4722C35.2218 45.2129 35.4453 45.0233 35.7152 44.9823L41.6818 44.0761C42.213 43.9954 42.6428 44.5024 42.4752 45.012Z" fill="white"/>
<path d="M32.7074 56.1828C32.4536 56.1828 32.2126 56.0746 32.0418 55.8782C31.8366 55.6424 31.7716 55.324 31.8679 55.0269L34.9816 45.4216C35.0855 45.1012 35.3573 44.8706 35.6909 44.8201L41.6573 43.9139C41.9634 43.8672 42.2662 43.9806 42.4665 44.2167C42.6666 44.4529 42.7284 44.7693 42.6318 45.0632L39.514 54.5396C39.4118 54.8504 39.1476 55.0784 38.8246 55.1347L32.8621 56.1695C32.8103 56.1785 32.7586 56.1828 32.7074 56.1828ZM41.792 44.2319C41.7638 44.2319 41.7353 44.234 41.7068 44.2384L35.7403 45.1446C35.5306 45.1763 35.3598 45.3213 35.2946 45.5226L32.1891 55.1029C32.1321 55.2787 32.1507 55.4763 32.2602 55.6253C32.3881 55.7995 32.5963 55.8817 32.8057 55.846L35.1983 55.4307C37.598 55.0142 39.572 53.3111 40.3318 51.0015L42.3133 44.9787C42.3632 44.827 42.357 44.6579 42.2782 44.519C42.1745 44.3362 41.9896 44.2319 41.792 44.2319Z" fill="#3F3D56"/>
<path d="M33.3735 52.3946C34.5257 52.4371 35.4377 53.065 35.4104 53.7969C35.3832 54.5288 34.427 55.0873 33.2744 55.0446C32.8137 55.0338 32.3623 54.9131 31.958 54.6925L27.0781 54.4506L27.2407 52.1675L32.0341 52.6484C32.4538 52.4582 32.9131 52.3712 33.3735 52.3946Z" fill="#FFB6B6"/>
<path d="M20.3897 38.4009C20.3897 38.4009 23.0214 38.7292 23.3504 41.5199C23.6793 44.3107 24.1728 51.0412 24.1728 51.0412L30.2586 50.8771L30.1336 54.9313C30.1336 54.9313 19.5673 56.951 18.9094 53.0112C18.2515 49.0713 17.7581 39.4466 18.9094 38.9237C20.0608 38.4009 20.3897 38.4009 20.3897 38.4009Z" fill="#112A5C"/>
<path d="M54.5607 12.0517L53.207 11.4117C53.7622 12.1851 54.2407 13.3928 54.4968 14.3539C54.9304 13.4587 55.6295 12.3633 56.3215 11.709L54.8908 12.0763C55.7724 7.76415 59.0882 4.66845 62.8853 4.66845L62.939 4.5127C58.9729 4.5127 55.4608 7.56548 54.5607 12.0517Z" fill="#3F3D56"/>
<path d="M60.7929 18.6221H52.24C51.8772 18.6221 51.582 18.3275 51.582 17.9655C51.582 17.6034 51.8772 17.3088 52.24 17.3088H60.7929C61.1557 17.3088 61.4509 17.6034 61.4509 17.9655C61.4509 18.3275 61.1557 18.6221 60.7929 18.6221Z" fill="#112A5C"/>
<path d="M41.3526 46.4771L35.7438 46.9488C35.6024 46.9607 35.4777 46.8556 35.4658 46.7144C35.4538 46.5733 35.5592 46.4489 35.7006 46.437L41.3094 45.9653C41.4508 45.9534 41.5754 46.0585 41.5874 46.1996C41.5993 46.3407 41.494 46.4652 41.3526 46.4771Z" fill="#3F3D56"/>
<path d="M40.8565 48.1187L35.2477 48.5904C35.1063 48.6023 34.9816 48.4972 34.9697 48.356C34.9578 48.2149 35.0631 48.0905 35.2045 48.0786L40.8133 47.6069C40.9547 47.595 41.0794 47.7001 41.0913 47.8412C41.1032 47.9823 40.9979 48.1068 40.8565 48.1187Z" fill="#3F3D56"/>
<path d="M40.3643 49.7603L34.7555 50.232C34.6141 50.2439 34.4894 50.1388 34.4775 49.9976C34.4656 49.8565 34.5709 49.7321 34.7123 49.7202L40.3211 49.2485C40.4625 49.2366 40.5872 49.3417 40.5991 49.4828C40.611 49.6239 40.5057 49.7484 40.3643 49.7603Z" fill="#3F3D56"/>
<path d="M25.0527 31.3043L27.6993 28.2714L27.2581 26.9921L28.6788 28.3396L29.4122 28.1408C29.4122 28.1408 29.4058 25.5436 27.3279 25.4262C25.25 25.3089 23.7594 25.5274 23.7594 25.5274C23.7594 25.5274 20.7883 26.4566 20.6722 27.1688C20.556 27.8809 18.8915 28.8272 18.8915 28.8272C18.8915 28.8272 17.4474 29.8994 18.1225 31.6965C18.7976 33.4936 20.3381 35.7368 19.2717 36.8303C18.2053 37.9239 16.6984 38.7656 17.4327 39.1853C18.1669 39.605 19.4913 37.6371 20.6974 38.4239C21.9036 39.2108 23.9417 42.371 25.8535 40.7389C27.7653 39.1067 28.1188 37.2164 28.1188 37.2164L25.0677 34.207C25.0677 34.207 23.2193 31.0602 25.0527 31.3043Z" fill="#2F2E41"/>
<path d="M67.112 0.758737H58.7981C58.5885 0.758737 58.418 0.588521 58.418 0.379328C58.418 0.170136 58.5885 0 58.7981 0H67.112C67.3216 0 67.4921 0.170137 67.4921 0.37933C67.4921 0.588523 67.3216 0.758737 67.112 0.758737Z" fill="#3F3D56"/>
<path d="M71.5737 4.80634H54.3372C54.1276 4.80634 53.957 4.63613 53.957 4.42694C53.957 4.21774 54.1276 4.04761 54.3372 4.04761H71.5737C71.7833 4.04761 71.9538 4.21774 71.9538 4.42694C71.9538 4.63613 71.7833 4.80634 71.5737 4.80634Z" fill="#3F3D56"/>
</g>
<defs>
<clipPath id="clip0_12105_82495">
<rect width="81" height="98" fill="white"/>
</clipPath>
</defs>
</svg>
