<svg width="89" height="70" viewBox="0 0 89 70" fill="none" xmlns="http://www.w3.org/2000/svg">
<g clip-path="url(#clip0_7653_68526)">
<path d="M74.9661 67.0219C75.3119 67.0434 75.5028 66.6138 75.2412 66.3635L75.2151 66.2601C75.2185 66.2518 75.2219 66.2436 75.2254 66.2353C75.4316 65.7433 75.9995 65.5103 76.4925 65.7142C78.0513 66.3586 76.4055 67.8396 76.5293 68.8417C76.5726 69.1875 77.9275 69.2065 77.8508 69.546C78.5713 67.9708 78.9501 66.2509 78.9495 64.5215C78.9493 64.0869 78.9254 63.6524 78.8766 63.219C78.8365 62.8644 78.7812 62.5121 78.7098 62.163C78.3232 60.2758 77.487 58.4785 76.2813 56.9775C75.7018 56.661 76.0552 56.1658 75.7632 55.5725C75.6583 55.3585 74.7226 55.3537 74.6836 55.1191C74.7255 55.1246 75.3303 54.4964 75.1305 54.1858C74.9991 53.9815 75.04 53.7212 75.2089 53.5465C75.2254 53.5294 75.241 53.5113 75.2554 53.4919C75.7543 52.815 76.4419 52.9329 76.8012 53.8524C77.5682 54.2391 77.5759 54.881 77.1055 55.4985C76.8063 55.8914 76.7654 56.4228 76.5028 56.8434C76.5299 56.878 76.558 56.9115 76.585 56.946C77.0808 57.5815 77.5096 58.2645 77.8712 58.9821C77.7688 58.1845 77.9192 57.2235 78.176 56.6039C78.4705 55.8929 79.0245 55.2948 79.5097 54.6799C80.0892 53.9454 81.2686 54.2787 81.3711 55.2087C81.3721 55.2176 81.3731 55.2265 81.374 55.2354C81.3023 55.276 81.232 55.319 81.1633 55.3645C80.7719 55.6235 80.9075 56.2304 81.3715 56.3018L81.382 56.3034C81.3561 56.5617 80.4393 57.3756 80.3746 57.6275C80.9946 60.0221 80.5307 60.3382 78.623 60.3783L78.5228 60.5209C78.7036 61.0407 78.8491 61.5729 78.9584 62.112C79.0612 62.6125 79.1328 63.1183 79.1729 63.6264C79.2229 64.2673 79.2188 64.9116 79.1649 65.5515L79.1682 65.5288C79.3052 64.824 79.6876 64.1656 80.2431 63.7092C81.0705 63.029 82.2398 62.7783 83.1325 62.2314C83.5622 61.9682 84.1131 62.308 84.0383 62.8063L84.0346 62.8302C83.9017 62.8843 83.772 62.947 83.6467 63.0173C83.5748 63.0579 83.5045 63.101 83.4357 63.1465C83.0443 63.4056 83.18 64.0126 83.6441 64.0837L83.6546 64.0853C83.6622 64.0864 83.6687 64.0874 83.6762 64.0885C83.4483 64.6301 81.2771 65.3942 80.8795 65.8277C80.4928 67.9193 80.6828 67.8571 78.9029 67.2486H78.9018C78.7075 68.0962 78.4235 68.9243 78.0584 69.7135L75.0426 69.7145C75.0318 69.681 75.0221 69.6464 75.0123 69.6129C75.2912 69.6301 75.5723 69.6138 75.8468 69.5629C75.6229 69.2884 75.3991 69.0118 75.1753 68.7373C75.1699 68.7319 75.1655 68.7265 75.1612 68.7211L75.1578 68.7169L74.8473 67.6948C74.8718 67.4681 74.9119 67.2432 74.9661 67.0219Z" fill="#F2F2F2"/>
<path d="M43.095 69.6904L16.409 69.6996C15.0683 69.7001 13.8674 69.0073 13.1967 67.8465C12.8613 67.266 12.6936 66.6292 12.6934 65.9923C12.6931 65.3555 12.8605 64.7186 13.1954 64.1379L26.53 39.8632C27.2 38.7018 28.4004 38.0083 29.741 38.0078C31.0817 38.0073 32.2826 38.7001 32.9534 39.8609L46.3064 64.1295C46.6409 64.7084 46.8083 65.3445 46.8083 65.9809C46.8083 66.6174 46.641 67.2543 46.306 67.835C45.6361 68.9963 44.4357 69.6899 43.095 69.6904ZM13.0288 65.9919C13.0288 66.5716 15.9735 65.3224 16.2785 65.8505C16.8888 66.9065 15.1892 69.3653 16.4089 69.3649C16.4089 69.3649 45.4066 68.7242 46.0161 67.6678C46.3208 67.1395 46.4731 66.56 46.4729 65.9807C46.4727 65.4013 46.32 64.822 46.0149 64.2939L32.6618 40.0254C32.0533 38.9723 30.9609 38.3421 29.7412 38.3425C28.522 38.3429 13.0289 65.4121 13.0288 65.9919Z" fill="#3F3D56"/>
<path d="M43.392 69.3553C43.0575 70.0249 58.7241 69.8191 58.9093 69.819C58.9093 69.819 63.3127 69.7218 63.4053 69.5613C63.4516 69.4811 63.4747 69.3931 63.4747 69.3051C63.4746 69.2172 63.4514 69.1292 63.4051 69.049L61.3774 65.3637C61.285 65.2038 61.1191 65.1081 60.9339 65.1082C60.9262 65.1082 60.9148 65.115 60.9001 65.1281C58.1951 67.5454 54.8615 69.1434 51.2341 69.1973C47.3771 69.2547 43.4133 69.3128 43.392 69.3553Z" fill="#3F3D56"/>
<path d="M0.964844 69.801C0.964882 69.9114 1.05362 70.0001 1.16408 70.0001L88.5722 69.9698C88.6827 69.9698 88.7714 69.8811 88.7713 69.7706C88.7713 69.6602 88.6826 69.5715 88.5721 69.5715L1.16394 69.6018C1.05348 69.6018 0.964805 69.6905 0.964844 69.801Z" fill="#CCCCCC"/>
<path d="M68.5561 68.8342L67.0424 68.8345L66.3203 62.9962L68.5544 62.9956L68.5561 68.8342Z" fill="#A0616A"/>
<path d="M63.3707 68.8016C63.3236 68.8809 63.2988 69.1371 63.2988 69.2295C63.2989 69.5132 63.529 69.7431 63.8128 69.743L68.5005 69.7414C68.694 69.7413 68.8509 69.5844 68.8508 69.3908L68.8508 69.1956C68.8508 69.1956 69.0825 68.609 68.6048 67.8862C68.6048 67.8862 68.0116 68.4525 67.1246 67.5661L66.863 67.0925L64.9708 68.4774L63.9217 68.6069C63.6922 68.6352 63.4887 68.6027 63.3707 68.8016Z" fill="#2F2E41"/>
<path d="M62.7514 63.8408L61.3176 64.3259L58.7637 59.0264L60.8799 58.3103L62.7514 63.8408Z" fill="#A0616A"/>
<path d="M57.828 65.4709C57.8088 65.5612 57.8674 65.8118 57.897 65.8993C57.9879 66.168 58.2796 66.3121 58.5483 66.2212L62.9886 64.7183C63.1719 64.6562 63.2703 64.4573 63.2082 64.2739L63.1456 64.0891C63.1456 64.0891 63.1772 63.4591 62.4932 62.9274C62.4932 62.9274 62.1126 63.6538 60.9885 63.0982L60.589 62.7334L59.24 64.6513L58.2877 65.11C58.0793 65.2104 57.8761 65.2447 57.828 65.4709Z" fill="#2F2E41"/>
<path d="M60.4137 29.9717L57.4777 39.6952L54.0117 48.4414L59.4991 60.9317L61.5337 60.0266L59.0991 48.5527L64.2047 40.7668L66.5872 65.0722L68.6221 64.9585L71.3817 35.6205L71.7752 29.2329L60.4137 29.9717Z" fill="#2F2E41"/>
<path d="M69.2813 8.43213L64.9856 9.22498L64.6471 11.147L62.0474 12.3915L60.6956 26.5234C60.6956 26.5234 58.4356 29.4636 60.2448 30.3674L71.7757 29.2328C71.7757 29.2328 72.3402 27.1425 71.7749 26.9442C71.2096 26.7459 71.2078 21.7529 71.2078 21.7529L73.8045 11.483L69.9602 10.1277L69.2813 8.43213Z" fill="#E6E6E6"/>
<path d="M66.7482 8.39528C68.664 8.39528 70.2171 6.84221 70.2171 4.9264C70.2171 3.01059 68.664 1.45752 66.7482 1.45752C64.8324 1.45752 63.2793 3.01059 63.2793 4.9264C63.2793 6.84221 64.8324 8.39528 66.7482 8.39528Z" fill="#A0616A"/>
<path d="M69.0446 5.44111C68.7678 5.59265 69.0304 6.31616 68.8574 6.37871C68.6574 6.45101 67.9283 5.62107 67.9193 4.69147C67.9166 4.41012 67.9813 4.27503 67.919 3.94144C67.8376 3.5051 67.5876 2.99044 67.3562 3.0041C67.219 3.0122 67.085 3.20614 67.075 3.37921C67.061 3.62178 67.2967 3.71725 67.2627 3.84792C67.1981 4.09679 66.2087 4.26862 65.8564 3.8484C65.5803 3.51897 65.792 2.94055 65.6686 2.91093C65.5776 2.8891 65.4799 3.20756 65.1063 3.5674C64.9655 3.70298 64.7562 3.90461 64.6376 3.84883C64.4662 3.76822 64.5908 3.20012 64.5436 3.19258C64.5046 3.18635 64.4801 3.58565 64.2626 3.94271C63.9832 4.40144 63.4068 4.75501 63.1378 4.59937C62.973 4.50402 62.96 4.23855 62.9501 4.03692C62.9293 3.61214 62.312 2.63507 62.4717 2.18067C62.7967 1.25581 63.3537 1.90775 63.6055 1.5991C63.9465 1.18126 64.2525 1.40591 64.8241 0.942403C65.3825 0.489599 65.3874 0.0344923 65.7613 0.00454237C66.0981 -0.0224287 66.2178 0.33679 66.6052 0.285511C66.9333 0.24207 67.0048 -0.0365418 67.2614 0.0040219C67.4963 0.0411581 67.5118 0.2866 67.824 0.378842C68.0234 0.437731 68.0671 0.352495 68.2928 0.378679C68.7623 0.433164 69.0777 0.860802 69.1368 0.940909C69.3645 1.24972 69.2761 1.37995 69.512 1.69081C69.7155 1.95888 70.1663 1.84504 70.3358 1.97893C70.8896 2.41641 71.1275 3.22321 71.1324 4.14277C71.1357 4.78594 71.0519 5.1109 70.8647 5.92271C70.7226 6.53914 70.0645 7.33575 69.7016 7.69097C69.6042 7.78632 69.3312 8.05363 69.1392 7.97243C68.9573 7.89548 68.9518 7.54941 68.9515 7.50372C68.9507 7.34657 68.9926 7.15212 69.3263 6.65981C69.6768 6.14267 69.816 6.08365 69.7948 5.90962C69.7572 5.60199 69.2652 5.32032 69.0446 5.44111Z" fill="#2F2E41"/>
<path d="M56.9442 37.7824C56.8362 38.6865 57.2151 39.4752 57.7905 39.5439C58.3658 39.6126 58.9198 38.9353 59.0278 38.0312C59.075 37.6354 59.029 37.2618 58.914 36.9609L59.3234 33.124L57.5188 32.9702L57.3067 36.769C57.1241 37.0343 56.9914 37.3866 56.9442 37.7824Z" fill="#A0616A"/>
<path d="M62.1314 12.3003C62.1314 12.3003 61.1964 12.3136 60.5774 13.5226C60.2484 14.1651 58.4884 26.1793 58.4884 26.1793L56.8672 36.0213L59.6289 36.0352L61.7809 26.7146L63.5913 21.3089L62.1314 12.3003Z" fill="#E6E6E6"/>
<path d="M69.9035 36.3381C69.6391 37.2095 69.8742 38.0523 70.4287 38.2205C70.9832 38.3888 71.647 37.8189 71.9115 36.9476C72.0273 36.5662 72.0473 36.1902 71.9867 35.8739L73.061 32.1678L71.311 31.7007L70.4378 35.4038C70.2116 35.6331 70.0193 35.9567 69.9035 36.3381Z" fill="#A0616A"/>
<path d="M71.8258 11.6533C71.8258 11.6533 73.1821 10.6354 74.3131 12.2177C75.4442 13.8001 75.9009 26.8009 75.9009 26.8009L72.7382 34.8287L70.3639 34.0381L72.6215 24.2018L68.6621 16.7418L71.8258 11.6533Z" fill="#E6E6E6"/>
<path d="M37.5295 64.3368C44.2767 64.3368 49.7464 58.867 49.7464 52.1198C49.7464 45.3726 44.2767 39.9028 37.5295 39.9028C30.7822 39.9028 25.3125 45.3726 25.3125 52.1198C25.3125 58.867 30.7822 64.3368 37.5295 64.3368Z" fill="#FA4070"/>
<path d="M37.5319 59.6087C38.1514 59.6087 38.6536 59.1065 38.6536 58.487C38.6536 57.8674 38.1514 57.3652 37.5319 57.3652C36.9124 57.3652 36.4102 57.8674 36.4102 58.487C36.4102 59.1065 36.9124 59.6087 37.5319 59.6087Z" fill="white"/>
<path d="M37.5266 44.6304C37.4236 45.3151 37.6082 45.4584 37.6092 48.4102C37.6102 51.362 38.2227 55.3196 37.5303 55.3198C36.8379 55.32 36.5847 47.1524 34.1804 46.4295C31.3536 45.5796 37.8602 42.414 37.5266 44.6304Z" fill="white"/>
<path d="M21.132 58.3574L20.0283 60.6895C21.3626 59.7327 23.4469 58.9079 25.1054 58.4661C23.5601 57.7196 21.6691 56.5161 20.5394 55.3245L21.1742 57.7887C13.7313 56.2727 8.38635 50.5629 8.38409 44.0222L8.11523 43.9297C8.1176 50.7616 13.3886 56.8096 21.132 58.3574Z" fill="#3F3D56"/>
</g>
<defs>
<clipPath id="clip0_7653_68526">
<rect width="87.8065" height="70" fill="white" transform="translate(0.964844)"/>
</clipPath>
</defs>
</svg>
