<svg width="82" height="98" viewBox="0 0 82 98" fill="none" xmlns="http://www.w3.org/2000/svg">
<g clip-path="url(#clip0_12105_82529)">
<path d="M16.4702 38.4342C16.3765 38.2881 15.7863 37.3669 15.349 37.4602C14.5201 37.6371 14.9697 41.3029 13.7647 41.6685C13.5002 41.7487 13.128 41.6785 12.2965 41.9005C11.9658 41.9888 11.7943 42.0614 11.7411 42.2075C11.6655 42.4149 11.894 42.5892 12.2333 43.0945C12.7422 43.8524 12.5857 43.9927 13.0332 44.5359C13.3654 44.9392 13.6261 45.0737 13.575 45.2507C13.5027 45.5011 12.9339 45.3934 12.7973 45.6805C12.658 45.9735 13.0626 46.4798 13.4126 46.7893C14.0694 47.3701 14.724 47.4262 15.3235 47.6166C15.9749 47.8235 16.8658 48.2858 17.788 49.4418L25.1583 59.3987C24.5639 59.1738 23.4058 58.712 21.8261 57.9223C20.4936 57.2558 19.1726 56.4973 17.8996 55.667C17.3506 55.309 16.8709 54.9759 16.4399 54.6656L16.4837 54.6884L16.2732 53.928C16.1924 53.6258 16.1395 53.379 16.2515 53.1805C16.3133 53.0743 16.43 52.9647 16.5659 52.8378C16.7218 52.6925 16.8988 52.5281 17.0711 52.2998C17.231 52.0944 17.2673 51.9112 17.1875 51.7577C17.1604 51.7055 17.1249 51.6684 17.0873 51.6412C17.1302 51.5734 17.179 51.4935 17.2224 51.3973C17.3144 51.1931 17.3369 51.0184 17.3532 50.8882C17.42 50.3652 17.3351 50.057 17.1 49.972C17.0006 49.9362 16.9108 49.9525 16.8357 49.9878C16.8301 49.8805 16.8158 49.7542 16.7766 49.6182C16.6505 49.1813 16.475 48.9598 16.2413 48.9416C15.9149 48.9158 15.7502 49.2758 15.5599 49.6919C15.4746 49.8768 15.2508 50.3692 15.1339 50.3696C15.1195 50.3695 15.0782 50.3606 15.0417 50.3526C14.9415 50.3308 14.7906 50.2981 14.5549 50.2915C14.4227 50.2878 14.2232 50.282 14.1012 50.4454C13.9925 50.6019 14.0461 50.7684 14.0955 50.9014C14.1118 50.9453 14.1314 50.9974 14.151 51.0606C14.1958 51.2048 14.2033 51.2825 14.2106 51.3579C14.2202 51.4559 14.2301 51.5577 14.3004 51.7252C14.3064 51.7388 14.3118 51.7515 14.3174 51.764C14.2512 51.779 14.1819 51.8109 14.1237 51.8755C13.9044 52.1136 14.1089 52.5078 14.2063 52.6647C14.3814 52.9455 14.6033 53.0803 14.7817 53.1888C14.8267 53.2162 14.8709 53.2431 14.9137 53.2721C15.135 53.4226 15.3187 53.6506 15.4658 53.944C15.2918 53.8117 15.1253 53.6842 14.9692 53.5643C14.4097 53.1347 13.8837 52.716 13.3709 52.3079C12.8437 51.8882 12.3273 51.4774 11.8021 51.0767L11.8352 50.9326L11.7083 51.0061C10.88 50.3775 10.0268 49.7736 9.06903 49.2007C9.02977 49.1772 8.98332 49.1497 8.93544 49.1217L8.88985 48.957C8.80907 48.6548 8.75616 48.408 8.8682 48.2095C8.93003 48.1033 9.0467 47.9937 9.18261 47.8668C9.33845 47.7216 9.51545 47.5572 9.68783 47.3288C9.84764 47.1234 9.88403 46.9403 9.80419 46.7868C9.77713 46.7345 9.74156 46.6975 9.70405 46.6702C9.7469 46.6025 9.79572 46.5225 9.83912 46.4263C9.9311 46.2221 9.95364 46.0474 9.96989 45.9173C10.0367 45.3942 9.9518 45.086 9.71666 45.001C9.61728 44.9652 9.52754 44.9816 9.45242 45.0168C9.44685 44.9095 9.43254 44.7832 9.39333 44.6472C9.2672 44.2103 9.09166 43.9889 8.85804 43.9706C8.53158 43.9448 8.3669 44.3049 8.17661 44.7209C8.09131 44.9058 7.86748 45.3982 7.75061 45.3986C7.73614 45.3985 7.69491 45.3896 7.65838 45.3816C7.55825 45.3599 7.40725 45.3271 7.17157 45.3206C7.03944 45.3168 6.83993 45.3111 6.71788 45.4744C6.60914 45.6309 6.66278 45.7974 6.71218 45.9304C6.72855 45.9743 6.7481 46.0264 6.76773 46.0897C6.8125 46.2338 6.81998 46.3116 6.82735 46.3869C6.83685 46.4849 6.84674 46.5867 6.91713 46.7542C6.92309 46.7678 6.92852 46.7805 6.93407 46.793C6.86792 46.8081 6.7986 46.8399 6.74034 46.9045C6.52114 47.1426 6.72562 47.5369 6.823 47.6937C6.99811 47.9745 7.21996 48.1093 7.3984 48.2178C7.44342 48.2453 7.48764 48.2721 7.53035 48.3012C7.65549 48.3862 7.76806 48.4971 7.86992 48.6284C7.54501 48.519 7.16986 48.4289 6.74683 48.3903C6.24126 48.3441 5.72906 48.3782 5.21849 48.4892C5.21491 48.4508 5.2114 48.4131 5.20748 48.3713C5.16408 47.9026 5.13232 47.7081 4.97048 47.5259C4.8919 47.4369 4.77155 47.339 4.42747 47.2272C3.95056 47.0722 3.54207 47.0487 3.42792 47.0452C2.85778 47.029 2.36534 47.015 1.91826 47.3583C1.83295 47.4233 1.57388 47.6203 1.43167 47.9678C1.35888 48.1436 1.34576 48.2864 1.33522 48.4011C1.32411 48.521 1.3171 48.6004 1.24962 48.7114C1.20703 48.7822 1.15579 48.8399 1.11507 48.8864C1.03643 48.9795 0.888611 49.1499 1.0125 49.3348C1.04227 49.3796 1.07989 49.411 1.12266 49.4322C1.09997 49.5891 1.1138 49.7514 1.19167 49.8984C1.26144 50.0306 1.3817 50.1191 1.70569 50.2771C2.20143 50.5189 2.60096 50.6367 2.68031 50.659C3.19453 50.8045 3.45238 50.8774 3.72879 50.8669C4.31697 50.8435 4.74427 50.6615 4.99872 50.3255C5.01155 50.3091 5.02343 50.2924 5.03478 50.2756C5.21313 50.0118 5.23245 49.7356 5.26327 49.296C5.2691 49.2111 5.26736 49.1132 5.25991 48.9885C5.74221 48.8766 6.22552 48.8385 6.70125 48.882C7.73103 48.9761 8.46279 49.4138 8.81423 49.6242C9.68949 50.1478 10.4786 50.7004 11.2438 51.2753L11.1516 51.3287C10.8792 51.4834 10.6534 51.597 10.4326 51.5392C10.314 51.5065 10.1782 51.4217 10.0207 51.3226C9.84043 51.209 9.63619 51.0798 9.37117 50.9713C9.13159 50.8692 8.94483 50.8805 8.81629 50.9965C8.77253 51.0359 8.74564 51.0796 8.72872 51.1228C8.6522 51.0986 8.56231 51.0717 8.45812 51.0542C8.23688 51.0172 8.06178 51.0398 7.93155 51.0571C7.40765 51.1253 7.13052 51.2854 7.10777 51.534C7.09829 51.639 7.1369 51.7215 7.19011 51.785C7.08752 51.8176 6.96878 51.8635 6.84686 51.9358C6.45545 52.1684 6.28535 52.3941 6.32691 52.6243C6.38473 52.946 6.77544 53.0136 7.22696 53.0918C7.42775 53.1273 7.96176 53.2184 7.99181 53.3311C7.99535 53.3452 7.99722 53.3872 7.99871 53.4245C8.00304 53.5267 8.00963 53.6808 8.06305 53.91C8.09294 54.0385 8.13795 54.2325 8.32719 54.3089C8.50651 54.3742 8.6542 54.2802 8.7706 54.1988C8.80898 54.1719 8.85455 54.1398 8.91086 54.1048C9.03922 54.025 9.11268 53.998 9.18384 53.9718C9.27644 53.9378 9.37257 53.9024 9.51707 53.792C9.52874 53.7828 9.53964 53.7743 9.55031 53.7658C9.58172 53.8258 9.63018 53.8847 9.70757 53.9245C9.99393 54.0758 10.3241 53.7783 10.4515 53.6445C10.6792 53.4043 10.7536 53.1559 10.8135 52.9561C10.8286 52.9057 10.8434 52.8562 10.8608 52.8076C10.9697 52.5018 11.197 52.2189 11.5366 51.9667L11.6101 51.9122L11.6802 51.6067C12.1413 51.9617 12.5978 52.324 13.0627 52.6941C13.5773 53.1039 14.1056 53.5242 14.6674 53.9556C15.4122 54.5275 16.3388 55.2391 17.6293 56.0807C18.9178 56.9209 20.2551 57.6889 21.6047 58.3637C22.8066 58.9646 23.7692 59.3787 24.4298 59.6445C22.505 59.773 19.8426 59.9255 18.6394 59.9471C18.1715 59.9555 17.6894 59.9483 17.3458 59.6252C17.0149 59.3142 16.8523 58.7478 16.371 58.1565C16.3147 58.0875 16.1558 57.8973 16.0151 57.9309C15.8988 57.9587 15.9009 58.1142 15.7927 58.1417C15.6476 58.1787 15.526 57.929 15.2256 57.6941C15.0138 57.5285 14.8208 57.4544 14.6548 57.3907C14.6048 57.3715 13.8548 57.0891 13.7171 57.2945C13.6136 57.4489 13.9453 57.7449 13.8468 57.8753C13.7487 58.0054 13.3852 57.7568 12.8367 57.7773C12.7378 57.781 12.1146 57.8043 12.0343 58.0455C11.8821 58.5026 13.8145 59.34 13.6466 60.0358C13.6097 60.1885 13.4678 60.3506 13.3371 60.8219C13.2851 61.0094 13.2713 61.1143 13.3278 61.1826C13.408 61.2794 13.5596 61.2178 13.906 61.1974C14.4255 61.1668 14.4494 61.2839 14.8456 61.2215C15.1398 61.1751 15.2812 61.0862 15.3534 61.1623C15.4557 61.2699 15.2387 61.5175 15.3405 61.6672C15.4443 61.82 15.81 61.7679 16.0633 61.6858C16.5384 61.5316 16.7548 61.2271 17.0214 60.9884C17.3111 60.729 17.7955 60.426 18.6301 60.3078L24.5375 59.6875C24.8829 59.8249 25.1373 59.9188 25.2856 59.9734C25.3645 60.0024 25.4152 60.0205 25.4361 60.03L25.5144 59.8798L25.6021 59.9982C25.5749 59.9596 25.5451 59.917 25.5163 59.8761L25.5496 59.8121L25.7759 59.7119C25.7455 59.6428 25.7121 59.6126 25.6218 59.5736L26.076 59.5259C25.9386 59.5371 25.7733 59.5497 25.5967 59.5628C25.5595 59.5477 25.5138 59.5309 25.4567 59.5098C25.3902 59.4854 25.3 59.4521 25.192 59.4114C23.4004 56.8331 19.7152 51.3706 18.3435 49.1347C17.9143 48.4351 17.4961 47.7002 17.6803 46.8933C17.8577 46.1165 18.5722 45.3666 19.0408 44.1128C19.0955 43.9664 19.2427 43.5569 19.0664 43.3742C18.9207 43.2232 18.6867 43.3648 18.5486 43.2258C18.3632 43.0394 18.6339 42.6333 18.7229 41.9703C18.7856 41.5028 18.7262 41.1452 18.675 40.8377C18.6596 40.745 18.4205 39.3601 17.9862 39.3349C17.66 39.3159 17.5062 40.0806 17.2205 40.0479C16.9359 40.0154 16.9896 39.2448 16.4702 38.4342Z" fill="#F2F2F2"/>
<path d="M76.8439 70.6297L24.0863 63.352C22.3206 63.1086 20.8632 61.8458 20.3733 60.1352L8.25632 17.8081C7.84574 16.3735 8.15226 14.888 9.09731 13.7322C10.0424 12.5763 11.4386 11.979 12.9296 12.0925L66.0829 16.1569C68.0059 16.3039 69.6201 17.6554 70.1 19.5197L81.8213 65.0602C82.1953 66.5134 81.8213 68.0496 80.8206 69.1693C79.9589 70.1336 78.737 70.6722 77.4633 70.6722C77.2578 70.6722 77.0508 70.6582 76.8439 70.6297Z" fill="#E6E6E6"/>
<path d="M63.5023 61.1605L46.7688 58.8522C46.2088 58.775 45.7465 58.3745 45.5912 57.8319L41.7479 44.4068C41.6177 43.9518 41.7149 43.4806 42.0147 43.114C42.3144 42.7474 42.7573 42.5579 43.2302 42.5939L60.0892 43.8831C60.6991 43.9297 61.2111 44.3584 61.3633 44.9497L65.081 59.394C65.1996 59.855 65.081 60.3422 64.7636 60.6973C64.4903 61.0032 64.1027 61.174 63.6987 61.174C63.6336 61.174 63.5679 61.1696 63.5023 61.1605Z" fill="white"/>
<path d="M62.009 23.9137L30.9458 21.06C30.1627 20.988 29.5532 20.6288 29.5873 20.2593C29.6214 19.8897 30.2863 19.6477 31.0694 19.7197L62.1326 22.5735C62.9157 22.6454 63.5249 23.0045 63.4909 23.374C63.4568 23.7435 62.7921 23.9857 62.009 23.9137Z" fill="white"/>
<path d="M63.7004 32.0624L32.6372 29.2087C31.8541 29.1367 31.2446 28.7775 31.2787 28.408C31.3128 28.0384 31.9777 27.7964 32.7608 27.8684L63.824 30.7221C64.6071 30.7941 65.2163 31.1531 65.1823 31.5227C65.1482 31.8922 64.4835 32.1344 63.7004 32.0624Z" fill="white"/>
<path d="M64.2981 39.1645L33.2349 36.3107C32.4518 36.2388 31.8423 35.8795 31.8764 35.51C31.9104 35.1405 32.5754 34.8985 33.3585 34.9704L64.4217 37.8242C65.2048 37.8961 65.814 38.2552 65.7799 38.6247C65.7458 38.9943 65.0812 39.2364 64.2981 39.1645Z" fill="white"/>
<path d="M45.5838 35.7341C46.3634 34.8863 47.4337 34.6005 47.9743 35.0959C48.5148 35.5912 48.3208 36.6798 47.5407 37.5278C47.2338 37.8708 46.849 38.1355 46.4185 38.2997L43.0695 41.8502L41.4336 40.2462L44.9088 36.9162C45.036 36.474 45.2674 36.0687 45.5838 35.7341Z" fill="#FFB6B6"/>
<path d="M26.4906 36.5242C26.4906 36.5242 28.4476 34.7376 30.7895 36.2974C33.1313 37.8572 38.5849 41.847 38.5849 41.847L42.4061 37.1168L45.4173 39.8409C45.4173 39.8409 40.1058 49.1783 36.6742 47.1233C33.2425 45.0682 25.5816 39.2017 25.9294 37.9879C26.2773 36.7741 26.4906 36.5242 26.4906 36.5242Z" fill="#112A5C"/>
<path d="M40.979 80.1028L37.861 85.9015L35.293 82.7998L38.2471 78.8157L40.979 80.1028Z" fill="#FFB6B6"/>
<path d="M38.9629 85.0999L37.6436 92.2144C37.6436 92.2144 36.7581 94.6818 35.3348 92.1755C33.9114 89.6693 31.3342 84.484 32.8158 83.5338C34.2975 82.5835 36.087 81.8157 36.087 81.8157L38.9629 85.0999Z" fill="#2F2E41"/>
<path d="M42.8192 86.4177L46.1088 92.3275L41.9968 92.82L40.1875 88.0593L42.8192 86.4177Z" fill="#FFB6B6"/>
<path d="M25.3853 32.9014C25.3853 32.9014 25.0563 36.1846 24.5629 36.5129C24.0695 36.8412 30.3223 36.5129 30.3223 36.5129L28.5104 32.9014H25.3853Z" fill="#FFB6B6"/>
<path d="M32.1261 37.5005L29.8246 35.6921H24.1973L20.4492 38.8112L22.8342 49.892L21.6828 55.3093L36.3216 55.8018L33.6899 50.877C33.6899 50.877 36.815 47.5938 35.8282 45.4597C34.8413 43.3256 32.1261 37.5005 32.1261 37.5005Z" fill="#112A5C"/>
<path d="M34.8416 54.4885L36.9799 55.6376C36.9799 55.6376 48.4935 66.4722 47.5066 69.7554C46.5198 73.0387 39.9405 82.3958 39.9405 82.3958L36.8154 80.7542L41.4209 70.7404L32.6212 61.9578L37.3449 70.2685L44.0526 87.8131L40.105 89.4547L29.9072 68.9346C29.9072 68.9346 21.5187 63.189 21.0253 59.5775C20.5318 55.966 21.6832 55.3093 21.6832 55.3093L34.8416 54.4885Z" fill="#2F2E41"/>
<path d="M46.0278 90.9321L51.4556 96.0211C51.4556 96.0211 53.1004 98.1552 50.1398 97.991C47.1791 97.8269 41.2578 97.1702 41.2578 95.3645C41.2578 93.5587 41.5868 91.5888 41.5868 91.5888L46.0278 90.9321Z" fill="#2F2E41"/>
<path d="M27.0291 33.7223C29.1185 33.7223 30.8122 32.0318 30.8122 29.9466C30.8122 27.8613 29.1185 26.1709 27.0291 26.1709C24.9398 26.1709 23.2461 27.8613 23.2461 29.9466C23.2461 32.0318 24.9398 33.7223 27.0291 33.7223Z" fill="#FFB6B6"/>
<path d="M43.44 45.012L40.3223 54.4884C40.2392 54.741 40.0233 54.9273 39.7608 54.9728L33.7984 56.0077C33.2637 56.1006 32.8219 55.5927 32.989 55.0774L36.1026 45.4722C36.1866 45.2129 36.4102 45.0233 36.6801 44.9823L42.6466 44.0761C43.1779 43.9954 43.6077 44.5024 43.44 45.012Z" fill="white"/>
<path d="M33.6723 56.1828C33.4185 56.1828 33.1775 56.0746 33.0066 55.8782C32.8014 55.6424 32.7365 55.324 32.8328 55.0269L35.9464 45.4216C36.0503 45.1012 36.3221 44.8706 36.6557 44.8201L42.6222 43.9139C42.9282 43.8672 43.231 43.9806 43.4313 44.2167C43.6315 44.4529 43.6933 44.7693 43.5966 45.0632L40.4789 54.5396C40.3766 54.8504 40.1125 55.0784 39.7895 55.1347L33.827 56.1695C33.7752 56.1785 33.7234 56.1828 33.6723 56.1828ZM42.7568 44.2319C42.7287 44.2319 42.7001 44.234 42.6716 44.2384L36.7051 45.1446C36.4954 45.1763 36.3247 45.3213 36.2595 45.5226L33.1539 55.1029C33.0969 55.2787 33.1156 55.4763 33.225 55.6253C33.3529 55.7995 33.5611 55.8817 33.7706 55.846L36.1632 55.4307C38.5628 55.0142 40.5368 53.3111 41.2967 51.0015L43.2782 44.9787C43.3281 44.827 43.3219 44.6579 43.243 44.519C43.1393 44.3362 42.9544 44.2319 42.7568 44.2319Z" fill="#3F3D56"/>
<path d="M34.3383 52.3946C35.4906 52.4371 36.4025 53.065 36.3753 53.7969C36.348 54.5288 35.3919 55.0873 34.2392 55.0446C33.7786 55.0338 33.3272 54.9131 32.9228 54.6925L28.043 54.4506L28.2055 52.1675L32.999 52.6484C33.4187 52.4582 33.878 52.3712 34.3383 52.3946Z" fill="#FFB6B6"/>
<path d="M21.3546 38.4009C21.3546 38.4009 23.9863 38.7292 24.3152 41.5199C24.6442 44.3107 25.1376 51.0412 25.1376 51.0412L31.2234 50.8771L31.0984 54.9313C31.0984 54.9313 20.5322 56.951 19.8743 53.0112C19.2163 49.0713 18.7229 39.4466 19.8743 38.9237C21.0256 38.4009 21.3546 38.4009 21.3546 38.4009Z" fill="#112A5C"/>
<path d="M55.5255 12.0517L54.1719 11.4117C54.7271 12.1851 55.2055 13.3928 55.4616 14.3539C55.8953 13.4587 56.5944 12.3633 57.2863 11.709L55.8557 12.0763C56.7372 7.76415 60.0531 4.66845 63.8501 4.66845L63.9039 4.5127C59.9377 4.5127 56.4257 7.56548 55.5255 12.0517Z" fill="#3F3D56"/>
<path d="M61.7578 18.6221H53.2048C52.842 18.6221 52.5469 18.3275 52.5469 17.9655C52.5469 17.6034 52.842 17.3088 53.2048 17.3088H61.7578C62.1206 17.3088 62.4157 17.6034 62.4157 17.9655C62.4157 18.3275 62.1206 18.6221 61.7578 18.6221Z" fill="#112A5C"/>
<path d="M42.3174 46.4771L36.7087 46.9488C36.5673 46.9607 36.4425 46.8556 36.4306 46.7144C36.4187 46.5733 36.5241 46.4489 36.6655 46.437L42.2742 45.9653C42.4156 45.9534 42.5403 46.0585 42.5522 46.1996C42.5641 46.3407 42.4588 46.4652 42.3174 46.4771Z" fill="#3F3D56"/>
<path d="M41.8213 48.1187L36.2126 48.5904C36.0712 48.6023 35.9464 48.4972 35.9345 48.356C35.9226 48.2149 36.028 48.0905 36.1694 48.0786L41.7781 47.6069C41.9195 47.595 42.0442 47.7001 42.0561 47.8412C42.068 47.9823 41.9627 48.1068 41.8213 48.1187Z" fill="#3F3D56"/>
<path d="M41.3291 49.7603L35.7204 50.232C35.579 50.2439 35.4542 50.1388 35.4423 49.9976C35.4304 49.8565 35.5358 49.7321 35.6772 49.7202L41.2859 49.2485C41.4273 49.2366 41.552 49.3417 41.5639 49.4828C41.5758 49.6239 41.4705 49.7484 41.3291 49.7603Z" fill="#3F3D56"/>
<path d="M26.0175 31.3043L28.6641 28.2714L28.2229 26.9921L29.6437 28.3396L30.377 28.1408C30.377 28.1408 30.3707 25.5436 28.2927 25.4262C26.2148 25.3089 24.7243 25.5274 24.7243 25.5274C24.7243 25.5274 21.7532 26.4566 21.637 27.1688C21.5208 27.8809 19.8564 28.8272 19.8564 28.8272C19.8564 28.8272 18.4122 29.8994 19.0873 31.6965C19.7624 33.4936 21.3029 35.7368 20.2366 36.8303C19.1702 37.9239 17.6633 38.7656 18.3975 39.1853C19.1317 39.605 20.4561 37.6371 21.6623 38.4239C22.8684 39.2108 24.9065 42.371 26.8183 40.7389C28.7301 39.1067 29.0836 37.2164 29.0836 37.2164L26.0326 34.207C26.0326 34.207 24.1841 31.0602 26.0175 31.3043Z" fill="#2F2E41"/>
<path d="M68.0769 0.758737H59.763C59.5534 0.758737 59.3828 0.588521 59.3828 0.379328C59.3828 0.170136 59.5534 0 59.763 0H68.0769C68.2865 0 68.4569 0.170137 68.4569 0.37933C68.4569 0.588523 68.2865 0.758737 68.0769 0.758737Z" fill="#3F3D56"/>
<path d="M72.5386 4.80634H55.302C55.0924 4.80634 54.9219 4.63613 54.9219 4.42694C54.9219 4.21774 55.0924 4.04761 55.302 4.04761H72.5386C72.7482 4.04761 72.9187 4.21774 72.9187 4.42694C72.9187 4.63613 72.7482 4.80634 72.5386 4.80634Z" fill="#3F3D56"/>
</g>
<defs>
<clipPath id="clip0_12105_82529">
<rect width="81" height="98" fill="white" transform="translate(0.964844)"/>
</clipPath>
</defs>
</svg>
