<svg width="105" height="70" viewBox="0 0 105 70" fill="none" xmlns="http://www.w3.org/2000/svg">
<g clip-path="url(#clip0_7653_68167)">
<path d="M18.5116 54.0288C18.3638 53.7796 17.7246 54.0464 17.6071 53.8203C17.49 53.595 18.0839 53.2517 18.4232 52.4676C18.4844 52.3262 18.87 51.435 18.5845 51.16C18.0435 50.6388 15.5676 52.7897 14.7012 52.0859C14.511 51.9314 14.3782 51.623 13.8027 51.1224C13.5737 50.9232 13.4353 50.8332 13.3013 50.8667C13.1112 50.9142 13.0961 51.1686 12.8923 51.6689C12.5865 52.4192 12.4057 52.3739 12.2276 52.9725C12.0954 53.4168 12.1256 53.6752 11.97 53.7255C11.7498 53.7967 11.5471 53.3254 11.268 53.3676C10.9833 53.4107 10.8111 53.9595 10.7567 54.3703C10.6547 55.1414 10.9379 55.6502 11.0948 56.1852C11.2654 56.7666 11.3666 57.6508 10.9727 58.9025L7.07422 69.8866C7.93489 67.6327 10.4269 61.4541 11.4741 59.1582C11.7764 58.4954 12.1102 57.8231 12.7955 57.5577C13.4553 57.3023 14.3615 57.4548 15.5168 57.1765C15.6517 57.144 16.0261 57.0487 16.0733 56.8285C16.1122 56.6464 15.892 56.5448 15.9258 56.3743C15.9712 56.1456 16.4043 56.1428 16.9365 55.8789C17.3118 55.6928 17.5456 55.4715 17.7466 55.2812C17.8072 55.2238 18.7083 54.3604 18.5116 54.0288Z" fill="#F2F2F2"/>
<path d="M3.17359 59.8111C3.00868 59.8117 2.95518 60.2024 2.8103 60.1948C2.66594 60.1873 2.66882 59.7968 2.38185 59.404C2.3301 59.3332 2.00397 58.8868 1.78665 58.9476C1.37473 59.0627 1.71604 60.8985 1.12057 61.1207C0.989893 61.1694 0.800206 61.1457 0.388427 61.2837C0.22461 61.3386 0.14053 61.3806 0.118291 61.456C0.0867388 61.563 0.20727 61.6438 0.393992 61.8882C0.674019 62.2547 0.599609 62.3304 0.842006 62.5905C1.02195 62.7836 1.15747 62.8434 1.13727 62.9343C1.1087 63.0629 0.818887 63.0264 0.759085 63.1755C0.698064 63.3277 0.917737 63.5705 1.10371 63.7158C1.45271 63.9883 1.78413 63.9961 2.092 64.0735C2.42657 64.1575 2.88975 64.363 3.39045 64.9174L7.65664 70.0001C6.79875 68.9274 4.48533 65.9215 3.66058 64.7451C3.4225 64.4055 3.18884 64.0477 3.25636 63.6348C3.32136 63.2372 3.65768 62.8365 3.85442 62.1892C3.8774 62.1136 3.93867 61.9023 3.84419 61.8156C3.76607 61.744 3.65265 61.8228 3.57872 61.7569C3.47955 61.6687 3.60314 61.4553 3.62717 61.1179C3.64412 60.8801 3.60297 60.7015 3.56758 60.5479C3.55691 60.5016 3.39311 59.8102 3.17359 59.8111Z" fill="#F2F2F2"/>
<path d="M6.46264 60.5497L6.36328 59.6628L6.40868 59.5955C6.61874 59.2846 6.7258 58.981 6.72709 58.6928C6.7273 58.6469 6.72516 58.6011 6.72302 58.5544C6.71445 58.3694 6.70375 58.1394 6.82366 57.8714C6.8909 57.7219 7.07976 57.3759 7.3637 57.4187C7.44014 57.4294 7.49796 57.4645 7.54185 57.5056C7.54828 57.4953 7.55492 57.4851 7.56198 57.4739C7.65042 57.339 7.72044 57.2812 7.78789 57.2255C7.83971 57.1827 7.89324 57.1386 7.97718 57.0341C8.01401 56.9883 8.0427 56.948 8.0669 56.9142C8.14035 56.8118 8.23628 56.6898 8.40544 56.6919C8.58616 56.7005 8.68081 56.85 8.74355 56.9489C8.85554 57.1253 8.90629 57.2525 8.93991 57.3369C8.95211 57.3677 8.96603 57.4024 8.9731 57.4131C9.03134 57.4988 9.50479 57.4187 9.68315 57.3896C10.0838 57.3227 10.4305 57.2649 10.5733 57.5176C10.6757 57.6983 10.5996 57.9373 10.3405 58.2469C10.2598 58.3433 10.1739 58.4165 10.0977 58.4739C10.1609 58.5116 10.2174 58.5694 10.2403 58.6602C10.2943 58.8752 10.1095 59.0906 9.69129 59.3013C9.58744 59.354 9.44761 59.4242 9.25168 59.4581C9.15939 59.4739 9.07631 59.4778 9.00522 59.4799C9.00372 59.521 8.99409 59.5656 8.96903 59.6114C8.89558 59.7463 8.7427 59.8105 8.51229 59.7951C8.25876 59.7818 8.04999 59.7334 7.86583 59.691C7.70503 59.6542 7.56648 59.6229 7.4577 59.6302C7.256 59.6465 7.10053 59.8079 6.9181 60.0174L6.46264 60.5497Z" fill="#F2F2F2"/>
<path d="M6.92481 55.2689L6.09209 55.59L6.01554 55.5631C5.66151 55.4388 5.34065 55.4122 5.06153 55.4841C5.01715 55.4955 4.97337 55.5092 4.92876 55.5231C4.75198 55.5783 4.53223 55.647 4.2425 55.599C4.08087 55.5719 3.69825 55.477 3.66765 55.1915C3.65862 55.1148 3.67792 55.05 3.70656 54.9971C3.69498 54.9935 3.68336 54.9897 3.6708 54.9857C3.51787 54.9343 3.44419 54.8813 3.37323 54.8302C3.31866 54.7909 3.26241 54.7503 3.14004 54.6956C3.08637 54.6716 3.04016 54.6541 3.00129 54.6392C2.88366 54.5942 2.74126 54.5323 2.70043 54.3682C2.66287 54.1912 2.78344 54.0617 2.86322 53.9759C3.00548 53.8228 3.11564 53.7415 3.18873 53.6876C3.21545 53.6679 3.24548 53.6457 3.25405 53.6361C3.32212 53.5581 3.12457 53.1204 3.05116 52.9553C2.88491 52.5847 2.74105 52.264 2.94924 52.0618C3.09809 51.9169 3.34853 51.9298 3.71375 52.1019C3.82744 52.1556 3.92005 52.22 3.9949 52.2792C4.01534 52.2086 4.05692 52.1392 4.13893 52.094C4.3332 51.9873 4.58844 52.1114 4.89833 52.4625C4.97563 52.5496 5.07904 52.667 5.16146 52.848C5.20019 52.9332 5.225 53.0126 5.2451 53.0808C5.28525 53.0718 5.33078 53.0699 5.38146 53.0825C5.53058 53.1193 5.6315 53.2509 5.67502 53.4777C5.72649 53.7263 5.73263 53.9405 5.73833 54.1294C5.7435 54.2943 5.7484 54.4362 5.78304 54.5396C5.84994 54.7306 6.04554 54.84 6.29439 54.9634L6.92481 55.2689Z" fill="#F2F2F2"/>
<path d="M6.46264 52.6559L6.36328 51.769L6.40868 51.7017C6.61874 51.3908 6.7258 51.0872 6.72709 50.799C6.7273 50.7531 6.72516 50.7073 6.72302 50.6606C6.71445 50.4756 6.70375 50.2456 6.82366 49.9776C6.8909 49.8281 7.07976 49.4821 7.3637 49.5249C7.44014 49.5356 7.49796 49.5707 7.54185 49.6118C7.54828 49.6015 7.55492 49.5913 7.56198 49.5801C7.65042 49.4452 7.72044 49.3874 7.78789 49.3317C7.83971 49.2889 7.89324 49.2448 7.97718 49.1403C8.01401 49.0945 8.0427 49.0542 8.0669 49.0204C8.14035 48.918 8.23628 48.796 8.40544 48.7981C8.58616 48.8067 8.68081 48.9562 8.74355 49.0551C8.85554 49.2315 8.90629 49.3587 8.93991 49.4431C8.95211 49.4739 8.96603 49.5086 8.9731 49.5193C9.03134 49.605 9.50479 49.5249 9.68315 49.4958C10.0838 49.4289 10.4305 49.3711 10.5733 49.6238C10.6757 49.8045 10.5996 50.0435 10.3405 50.3531C10.2598 50.4495 10.1739 50.5227 10.0977 50.5801C10.1609 50.6178 10.2174 50.6756 10.2403 50.7664C10.2943 50.9814 10.1095 51.1968 9.69129 51.4075C9.58744 51.4602 9.44761 51.5304 9.25168 51.5643C9.15939 51.5801 9.07631 51.584 9.00522 51.5861C9.00372 51.6272 8.99409 51.6718 8.96903 51.7176C8.89558 51.8525 8.7427 51.9167 8.51229 51.9013C8.25876 51.888 8.04999 51.8396 7.86583 51.7972C7.70503 51.7604 7.56648 51.7291 7.4577 51.7364C7.256 51.7527 7.10053 51.9141 6.9181 52.1236L6.46264 52.6559Z" fill="#F2F2F2"/>
<path d="M7.3711 69.8721L7.18523 69.7556L6.96854 69.7804C6.96511 69.7603 6.95333 69.714 6.93556 69.6417C6.83856 69.2451 6.54285 68.0383 6.29617 66.1376C6.124 64.8109 6.02658 63.4469 6.00645 62.0829C5.98632 60.7167 6.05099 59.6825 6.10281 58.8512C6.14199 58.2243 6.18953 57.6273 6.23621 57.0457C6.36041 55.492 6.47754 54.0243 6.39038 52.3995C6.37111 52.0368 6.33064 51.2817 5.88953 50.4783C5.63365 50.0124 5.28119 49.5987 4.8418 49.2492L5.11503 48.9058C5.60003 49.2921 5.98996 49.7503 6.27411 50.2676C6.76319 51.1584 6.8073 51.9811 6.82849 52.3764C6.91714 54.0299 6.79873 55.5117 6.67325 57.0804C6.627 57.6598 6.57946 58.2543 6.54049 58.8787C6.4891 59.7022 6.42507 60.7274 6.44499 62.076C6.46469 63.4238 6.56104 64.7711 6.73085 66.0811C6.97453 67.9578 7.26596 69.1466 7.36168 69.5372C7.41264 69.7457 7.42335 69.7894 7.3711 69.8721Z" fill="#F2F2F2"/>
<path d="M4.0375 49.9459C4.01952 49.9459 4.00132 49.9455 3.9829 49.9442C3.60946 49.9241 3.26364 49.7005 2.95487 49.28C2.81012 49.0821 2.73603 48.8564 2.58827 48.4063C2.56536 48.3369 2.45401 47.9849 2.38635 47.5006C2.34202 47.1841 2.34759 47.0517 2.41033 46.9348C2.47992 46.8046 2.59256 46.7138 2.71932 46.6526C2.71376 46.6106 2.71825 46.5674 2.73645 46.5233C2.81118 46.3404 3.0099 46.3644 3.11739 46.3759C3.17178 46.3828 3.23966 46.3918 3.31289 46.3879C3.42809 46.3824 3.48998 46.3481 3.58377 46.2967C3.67349 46.2475 3.78505 46.1862 3.95057 46.1524C4.27691 46.0843 4.55035 46.1768 4.6405 46.2072C5.11479 46.3652 5.34862 46.734 5.61928 47.1609C5.67324 47.2466 5.85846 47.5584 5.98073 47.9858C6.06895 48.2941 6.05653 48.4312 6.02998 48.5331C5.97602 48.7425 5.84861 48.8624 5.52506 49.1271C5.18717 49.4042 5.01758 49.5429 4.87197 49.6273C4.533 49.823 4.32015 49.9459 4.0375 49.9459Z" fill="#F2F2F2"/>
<path d="M102.032 69.6724C102.032 69.7536 101.966 69.8194 101.885 69.8194H0V69.5254H101.885C101.966 69.5254 102.032 69.5912 102.032 69.6724Z" fill="#E6E6E6"/>
<path d="M72.6194 23.2041C72.6194 23.2041 67.1351 23.8637 68.0602 19.5275C68.9853 15.1913 74.2305 7.18213 74.2305 7.18213L77.207 8.85136L73.7897 16.9289L75.2608 18.0895L72.6194 23.2041Z" fill="#A0616A"/>
<path d="M90.591 17.9252L89.8182 24.2812L70.4531 24.1864L74.3424 17.427L90.591 17.9252Z" fill="#112A5C"/>
<path d="M79.0829 7.52001C80.268 5.86492 80.3631 3.9034 79.2953 3.13883C78.2275 2.37426 76.4012 3.09616 75.2161 4.75124C74.031 6.40633 73.9359 8.36786 75.0037 9.13243C76.0715 9.897 77.8979 9.17509 79.0829 7.52001Z" fill="#A0616A"/>
<path d="M88.7305 42.1575V69.7417H89.9194V42.1575H88.7305Z" fill="#3F3D56"/>
<path d="M83.0215 42.1575V69.7417H84.2105V42.1575H83.0215Z" fill="#3F3D56"/>
<path d="M51.0391 24.7985V69.7417H52.228V24.7985H51.0391Z" fill="#E6E6E6"/>
<path d="M70.1816 42.1575V69.7417H71.3706V42.1575H70.1816Z" fill="#3F3D56"/>
<path d="M65.6309 42.1575V69.7417H66.8198V42.1575H65.6309Z" fill="#3F3D56"/>
<path d="M87.6596 41.5632H64.6994L60.2949 47.8107L83.1415 49.1727L87.6596 41.5632Z" fill="#3F3D56"/>
<path d="M45.6169 20.1881L45.7212 15.6575L31.8638 16.7233L31.793 19.7934L45.6169 20.1881Z" fill="#A0616A"/>
<path d="M36.2382 16.1822L35.5754 17.7767L34.6236 17.8071C34.6236 17.8071 35.738 18.1484 36.0476 20.1735L35.1331 20.4476C35.1331 20.4476 34.2548 21.2671 32.6129 21.1876L28.2108 20.8194L28.1939 19.2847L31.2364 18.9331C31.2364 18.9331 31.9143 18.4871 28.5583 16.6534C28.5583 16.6534 27.4466 15.9736 28.4464 12.6165C28.5838 12.1551 28.999 11.8236 29.4803 11.8132C29.7459 11.8075 29.9948 11.9029 30.0942 12.2329C30.3471 13.0727 30.0912 13.91 30.7863 14.4342C31.4814 14.9585 36.2382 16.1822 36.2382 16.1822Z" fill="#2F2E41"/>
<path d="M85.9406 37.5094C85.9406 37.5094 81.1593 45.6415 70.3402 44.176C67.7656 43.8272 65.5004 42.2965 64.21 40.0415C61.7157 35.683 57.9281 28.0514 59.156 23.73L40.8577 20.2377L39.416 15.7938L59.2194 13.2213C60.9711 12.9937 62.687 13.8456 63.5647 15.3784L73.2114 32.2253L76.0872 32.5393L85.9406 37.5094Z" fill="#2F2E41"/>
<path d="M45.9775 22.0429L45.717 17.5186L31.9902 19.6958L32.1666 22.7617L45.9775 22.0429Z" fill="#A0616A"/>
<path d="M36.3078 18.8045L35.7755 20.4471L34.8292 20.554C34.8292 20.554 35.9675 20.8045 36.439 22.7982L35.5495 23.145C35.5495 23.145 34.7399 24.0325 33.097 24.0853L28.6795 24.0724L28.5392 22.5441L31.5436 21.9489C31.5436 21.9489 32.1834 21.4498 28.6907 19.892C28.6907 19.892 27.5279 19.3038 28.2545 15.8772C28.3543 15.4062 28.7414 15.0425 29.2204 14.9934C29.4847 14.9663 29.7404 15.0414 29.866 15.3622C30.1857 16.179 29.998 17.0342 30.733 17.5008C31.468 17.9674 36.3078 18.8045 36.3078 18.8045Z" fill="#2F2E41"/>
<path d="M87.5662 36.0638C87.5662 36.0638 83.4546 44.5542 72.5527 43.9638C69.9584 43.8233 67.5774 42.4798 66.1097 40.336C63.2728 36.1922 58.8835 28.8901 59.7598 24.484L41.2399 22.4751L39.4453 18.1615L58.9775 14.0042C60.7052 13.6364 62.4841 14.3475 63.4823 15.8048L74.4531 31.821L77.3449 31.9026L87.5662 36.0638Z" fill="#2F2E41"/>
<path d="M75.0313 0.211182L74.0801 0.924565L79.0738 7.8206L80.0249 7.58281L75.0313 0.211182Z" fill="#3F3D56"/>
<path d="M88.0164 15.5247L93.4857 15.2869L95.8636 25.9876C95.8636 25.9876 90.87 44.7734 84.9251 44.06C84.9251 44.06 81.2393 41.3254 81.2393 40.3742C81.2393 39.423 76.2456 37.0451 76.2456 37.0451L75.0566 33.0026L78.6236 27.5333C78.6236 27.5333 80.0503 23.253 84.8062 20.875L88.0164 15.5247Z" fill="#112A5C"/>
<path d="M56.7462 23.8474H8.11719V25.0364H31.8966V69.7417H33.0856V25.0364H56.7462V23.8474Z" fill="#E6E6E6"/>
<path d="M90.8697 14.5736C94.4156 14.5736 97.2901 11.699 97.2901 8.15312C97.2901 4.6072 94.4156 1.73267 90.8697 1.73267C87.3238 1.73267 84.4492 4.6072 84.4492 8.15312C84.4492 11.699 87.3238 14.5736 90.8697 14.5736Z" fill="#A0616A"/>
<path d="M68.4824 16.3569L63.998 18.1404L72.7964 29.7923L75.8878 27.4144L68.4824 16.3569Z" fill="#E6E6E6"/>
<path d="M85.9963 38.7095C85.9963 38.7095 84.3317 43.9766 80.7648 41.3431C77.1979 38.7095 72.0703 30.6245 72.0703 30.6245L74.8199 28.6033L80.7648 35.0518L82.4293 34.1914L85.9963 38.7095Z" fill="#A0616A"/>
<path d="M88.6109 20.1616L94.0802 23.4907L85.9951 41.0875L80.7637 33.9537L88.6109 20.1616Z" fill="#112A5C"/>
<path d="M74.1651 30.7253C75.3024 30.0687 75.3994 28.1072 74.3815 26.3443C73.3637 24.5814 71.6166 23.6847 70.4793 24.3413C69.3419 24.998 69.245 26.9594 70.2628 28.7223C71.2806 30.4852 73.0277 31.382 74.1651 30.7253Z" fill="#A0616A"/>
<path d="M91.5725 27.5923C93.2202 22.1904 94.9885 20.4808 96.8477 21.5511C98.2627 22.3658 98.6887 24.2202 97.8594 25.6268C95.7455 29.212 91.3897 37.4266 92.2971 42.8711C92.2971 42.8711 93.7238 50.4805 82.3097 50.4805C70.8956 50.4805 59.957 47.8648 59.957 47.8648L65.9019 46.9136L79.4212 47.8793C82.51 48.0999 85.1133 45.457 84.7007 42.3879C84.6871 42.2866 84.6709 42.1841 84.6521 42.0806C83.9743 38.353 91.5725 27.5923 91.5725 27.5923Z" fill="#3F3D56"/>
<path d="M88.4636 5.49143C87.9392 6.95999 89.0916 8.4849 90.6476 8.38118L90.6846 8.3787C91.7306 9.68614 91.7595 11.5356 90.7549 12.8751C90.6723 14.6015 90.9428 16.3266 91.5497 17.9449L93.2548 22.4919L95.8798 21.2669L97.1255 24.5919L104.455 20.8162L100.013 10.8218L98.6572 5.39953C97.6928 1.54185 93.7577 -0.78016 89.9146 0.240674L86.966 1.02388C84.6366 1.64263 83.2959 4.08149 84.0217 6.37981L88.4636 5.49143Z" fill="#2F2E41"/>
</g>
<defs>
<clipPath id="clip0_7653_68167">
<rect width="104.454" height="70" fill="white"/>
</clipPath>
</defs>
</svg>
