<svg width="62" height="70" viewBox="0 0 62 70" fill="none" xmlns="http://www.w3.org/2000/svg">
<path d="M17.096 21.3301C16.666 21.4939 16.2268 21.6328 15.7807 21.7461C15.1915 21.8897 14.8588 21.9562 14.2901 21.7355C14.2702 21.7278 14.2511 21.7201 14.2331 21.7126C13.1552 21.2542 12.2337 20.4924 11.5809 19.5199C10.9281 18.5473 10.5721 17.406 10.5562 16.2347C10.5534 16.1946 10.5534 16.1523 10.5534 16.1111C10.5528 15.9126 10.5623 15.7142 10.5818 15.5167C10.6067 15.2476 10.6498 14.9805 10.7107 14.7172L10.705 14.7162C10.2445 14.2453 10.0674 13.6004 10.1261 12.9524C10.1664 12.513 10.3058 12.0886 10.5339 11.711C10.762 11.3333 11.0729 11.0124 11.443 10.7724C12.0231 10.4076 12.6772 10.1768 13.3577 10.0965C13.5404 10.0755 13.7242 10.0648 13.9082 10.0646H15.6362C15.9931 9.98103 16.3557 9.92387 16.721 9.89357H16.7239C20.2018 9.6051 22.9445 11.9108 22.6887 14.7162C22.6868 14.7192 22.684 14.7223 22.6821 14.7254C22.6082 14.846 22.5428 14.9603 22.485 15.0695C22.4291 15.1715 22.3818 15.2694 22.341 15.3621C22.0236 16.0792 23.5319 27.2042 22.991 27.3732C22.683 27.469 21.4419 19.1905 21.6646 20.7647C21.945 22.7397 18.6983 20.7378 17.096 21.3301Z" fill="#2F2E41"/>
<path d="M22.3359 41.4409L27.157 51.7118L8.61133 49.8335L12.4826 39.9736L22.3359 41.4409Z" fill="#FFB6B6"/>
<path d="M32.013 62.0337C28.788 63.1072 25.3894 63.5624 21.9956 63.3755L20.5198 60.9821C20.5198 60.9821 20.458 61.8735 20.3659 63.2362C18.7503 63.0489 17.1558 62.7109 15.6033 62.2265C12.659 61.3058 9.89914 59.8792 7.10152 58.5637C6.53487 55.1858 6.32225 49.9771 9.45504 46.9448L26.3172 50.0347C26.3172 50.0347 29.0227 52.0583 28.2989 52.7831C27.5751 53.5068 27.4631 53.3947 27.9386 53.8703C28.4141 54.3458 29.4416 54.9816 29.4521 55.3974C29.4563 55.5597 30.6095 58.504 32.013 62.0337Z" fill="#2F2E41"/>
<path d="M19.3914 21.5938L15.3176 21.878L12.6845 24.4223L11.7623 24.5869C10.9334 24.7347 10.1876 25.1816 9.66618 25.8427C9.14481 26.5038 8.88417 27.3333 8.93369 28.1738C9.12337 31.3875 9.54808 36.1894 10.4357 37.7473C11.8122 40.1629 12.949 39.405 11.8122 40.1629C10.6753 40.9209 9.912 40.3253 10.4357 41.5231C10.9595 42.7209 9.72787 44.2573 9.72787 44.2573L9.23758 44.7476L9.75759 44.9607L26.3272 47.1168C26.3272 47.1168 24.8944 40.6751 25.7904 39.0926C26.6864 37.5102 28.8589 32.7268 26.92 30.8552L25.0242 24.1838L21.7633 23.2221L19.3914 21.5938Z" fill="#112A5C"/>
<path d="M44.0516 48.0327C43.779 48.024 43.5115 47.9562 43.2676 47.834C43.0238 47.7118 42.8094 47.5381 42.6392 47.3249C42.4691 47.1117 42.3473 46.8641 42.2823 46.5992C42.2173 46.3343 42.2106 46.0584 42.2627 45.7906L34.4902 40.5269L35.4176 38.019L44.6033 44.3384C45.0475 44.4596 45.4318 44.7395 45.6834 45.1251C45.935 45.5107 46.0364 45.9752 45.9683 46.4306C45.9003 46.8859 45.6677 47.3005 45.3144 47.5958C44.9611 47.8911 44.5118 48.0465 44.0516 48.0327Z" fill="#FFB6B6"/>
<path d="M22.0982 23.8691L20.9688 24.3163L26.9936 36.0832L39.466 44.5849L41.2639 41.5462L31.7697 33.3456L27.9687 26.0558C27.4338 25.0299 26.5377 24.2386 25.4535 23.8348C24.3693 23.4309 23.1739 23.4432 22.0982 23.8691Z" fill="#112A5C"/>
<path d="M17.1435 20.5589C19.4027 20.5589 21.2342 18.7274 21.2342 16.4682C21.2342 14.2089 19.4027 12.3774 17.1435 12.3774C14.8842 12.3774 13.0527 14.2089 13.0527 16.4682C13.0527 18.7274 14.8842 20.5589 17.1435 20.5589Z" fill="#FFB6B6"/>
<path d="M20.7007 14.7387C20.6325 14.7747 20.5652 14.8079 20.497 14.841C20.4259 14.8751 20.3549 14.9093 20.2829 14.9415C18.9139 15.562 17.7988 15.6312 17.1223 14.7387C17.1038 14.2692 16.9981 13.8072 16.8106 13.3764C16.8438 13.8579 16.7169 14.3368 16.4497 14.7387H15.0873C13.6842 15.67 12.9642 16.5255 13.9381 19.5828C14.0016 19.7837 14.4364 26.9195 14.5605 27.4681C12.4364 26.6533 10.6042 18.0025 10.5577 15.7231C10.5549 15.6861 10.5549 15.6473 10.5549 15.6094C10.5543 15.4268 10.5638 15.2443 10.5833 15.0627C10.6083 14.8149 10.6514 14.5691 10.7122 14.3275L10.7065 14.3266C10.4904 14.12 10.3255 13.8658 10.225 13.5842C10.1245 13.3026 10.0911 13.0014 10.1276 12.7046C10.4839 12.2381 10.9249 11.8428 11.4275 11.5393C11.8844 11.318 12.3608 11.1392 12.8505 11.005C12.8628 11.0022 12.8732 10.9993 12.8855 10.9965C13.0352 10.9557 13.1887 10.9188 13.3422 10.8866C13.6585 10.8202 13.9782 10.7718 14.3 10.7416C14.3237 10.7407 14.3464 10.7388 14.3673 10.7388C14.496 10.7389 14.6223 10.7735 14.733 10.8392C14.7339 10.8392 14.7339 10.8401 14.7358 10.8401C14.8422 10.9037 14.9304 10.9936 14.9919 11.1011C15.0535 11.2086 15.0863 11.3302 15.0873 11.4541H16.605C16.6609 11.4541 16.7168 11.456 16.7727 11.4588C18.8864 11.5431 20.5851 12.4469 20.694 14.5246C20.6988 14.5966 20.7007 14.6667 20.7007 14.7387Z" fill="#2F2E41"/>
<path d="M11.7262 14.9032C13.2146 14.9032 14.4212 13.6966 14.4212 12.2082C14.4212 10.7198 13.2146 9.51318 11.7262 9.51318C10.2378 9.51318 9.03125 10.7198 9.03125 12.2082C9.03125 13.6966 10.2378 14.9032 11.7262 14.9032Z" fill="#2F2E41"/>
<path d="M15.4268 10.9614C15.1207 12.418 13.6101 13.2891 12.165 12.9328C11.471 12.7616 10.8735 12.3218 10.5038 11.7101C10.1341 11.0984 10.0225 10.3649 10.1936 9.67092C10.55 8.2258 12.3038 8.64241 13.4555 7.69954C15.0847 6.36572 15.8397 8.99709 15.4268 10.9614Z" fill="#2F2E41"/>
<path d="M9.43883 51.507C11.7357 42.1403 16.2868 34.0895 23.824 27.7818C24.1157 27.3019 24.5858 26.9573 25.1312 26.8237C25.6767 26.69 26.2528 26.7781 26.7334 27.0687L44.6512 37.9327C45.131 38.2244 45.4756 38.6945 45.6093 39.2399C45.7429 39.7854 45.6548 40.3616 45.3642 40.8421C42.4873 50.4533 38.1785 58.7933 30.9791 64.5673C30.6874 65.0472 30.2172 65.3917 29.6718 65.5254C29.1264 65.6591 28.5502 65.5709 28.0697 65.2803L10.1519 54.4164C9.67202 54.1247 9.32745 53.6545 9.19378 53.1091C9.0601 52.5637 9.14823 51.9875 9.43883 51.507Z" fill="#BFC1C4"/>
<path opacity="0.2" d="M12.6235 54.6637C12.1437 54.372 11.7991 53.9018 11.6654 53.3564C11.5318 52.811 11.6199 52.2348 11.9105 51.7543C14.2074 42.3876 18.7585 34.3368 26.2956 28.0291C26.4887 27.7149 26.7614 27.4574 27.0859 27.2825L26.7334 27.0687C26.2528 26.7781 25.6767 26.69 25.1312 26.8236C24.5858 26.9573 24.1157 27.3019 23.824 27.7817C16.2868 34.0894 11.7357 42.1402 9.43885 51.5069C9.14823 51.9875 9.0601 52.5636 9.19377 53.1091C9.32744 53.6545 9.67201 54.1246 10.1519 54.4163L28.0696 65.2803C28.3885 65.4722 28.7525 65.5764 29.1247 65.5823C29.4968 65.5881 29.8639 65.4956 30.1887 65.3138L12.6235 54.6637Z" fill="black"/>
<path d="M33.6371 49.4301L21.6099 42.1832C21.4188 42.0678 21.2814 41.8812 21.2278 41.6644C21.1742 41.4477 21.2088 41.2186 21.324 41.0273C21.4392 40.8361 21.6256 40.6984 21.8423 40.6445C22.0589 40.5907 22.2881 40.625 22.4795 40.7399L34.5068 47.9868C34.6974 48.1025 34.8344 48.289 34.8877 48.5055C34.941 48.7221 34.9063 48.9509 34.7913 49.1419C34.6762 49.3328 34.4901 49.4704 34.2738 49.5244C34.0574 49.5785 33.8285 49.5445 33.6371 49.4301Z" fill="white"/>
<path d="M26.6399 39.8205L23.994 38.2262C23.8022 38.1115 23.6639 37.9253 23.6094 37.7086C23.5549 37.4919 23.5888 37.2624 23.7035 37.0706C23.8182 36.8789 24.0044 36.7405 24.2211 36.6861C24.4378 36.6316 24.6673 36.6654 24.859 36.7802L24.8636 36.7829L27.5096 38.3772C27.7002 38.4929 27.8373 38.6794 27.8906 38.896C27.944 39.1125 27.9093 39.3413 27.7942 39.5324C27.6791 39.7234 27.493 39.861 27.2766 39.915C27.0603 39.969 26.8313 39.935 26.6399 39.8205Z" fill="white"/>
<path d="M31.7242 52.6026L19.6969 45.3558C19.5056 45.2406 19.3679 45.0541 19.314 44.8374C19.2601 44.6207 19.2944 44.3915 19.4094 44.2001C19.5244 44.0087 19.7107 43.8707 19.9274 43.8166C20.144 43.7625 20.3733 43.7966 20.5648 43.9114L20.5665 43.9125L32.5938 51.1593C32.7844 51.275 32.9214 51.4616 32.9747 51.6781C33.028 51.8946 32.9934 52.1234 32.8783 52.3144C32.7632 52.5054 32.5771 52.643 32.3608 52.697C32.1444 52.751 31.9155 52.7171 31.7242 52.6026Z" fill="white"/>
<path d="M35.1633 35.7661C37.1034 35.7661 38.6762 34.1933 38.6762 32.2531C38.6762 30.313 37.1034 28.7402 35.1633 28.7402C33.2232 28.7402 31.6504 30.313 31.6504 32.2531C31.6504 34.1933 33.2232 35.7661 35.1633 35.7661Z" fill="#3F3D56"/>
<path d="M29.1079 69.8951C33.2547 69.8951 36.6163 66.5335 36.6163 62.3867C36.6163 58.24 33.2547 54.8784 29.1079 54.8784C24.9612 54.8784 21.5996 58.24 21.5996 62.3867C21.5996 66.5335 24.9612 69.8951 29.1079 69.8951Z" fill="white"/>
<path d="M29.1092 70.0001C27.6034 70.0001 26.1315 69.5536 24.8796 68.717C23.6276 67.8805 22.6518 66.6915 22.0756 65.3004C21.4994 63.9093 21.3486 62.3786 21.6424 60.9018C21.9361 59.425 22.6612 58.0685 23.7259 57.0038C24.7906 55.939 26.1471 55.214 27.6239 54.9202C29.1007 54.6265 30.6314 54.7772 32.0225 55.3534C33.4136 55.9296 34.6026 56.9054 35.4392 58.1574C36.2757 59.4093 36.7222 60.8812 36.7222 62.3869C36.72 64.4054 35.9171 66.3405 34.4899 67.7677C33.0627 69.1949 31.1276 69.9978 29.1092 70.0001ZM29.1092 54.9834C27.6449 54.9834 26.2135 55.4176 24.9959 56.2311C23.7784 57.0447 22.8295 58.2009 22.2691 59.5538C21.7088 60.9066 21.5622 62.3952 21.8478 63.8314C22.1335 65.2675 22.8386 66.5867 23.8741 67.6221C24.9095 68.6575 26.2287 69.3627 27.6648 69.6483C29.101 69.934 30.5896 69.7874 31.9424 69.227C33.2953 68.6666 34.4515 67.7177 35.265 66.5002C36.0786 65.2827 36.5128 63.8512 36.5128 62.3869C36.5105 60.4241 35.7298 58.5422 34.3418 57.1543C32.9539 55.7663 31.072 54.9856 29.1092 54.9834Z" fill="#3F3D56"/>
<path d="M28.0832 66.2946C27.9535 66.2946 27.8256 66.2644 27.7097 66.2064C27.5937 66.1484 27.4928 66.0642 27.4151 65.9605L25.3667 63.2292C25.3008 63.1415 25.2528 63.0416 25.2255 62.9353C25.1982 62.8291 25.1921 62.7184 25.2076 62.6098C25.223 62.5011 25.2598 62.3966 25.3157 62.3022C25.3716 62.2077 25.4455 62.1252 25.5333 62.0594C25.6211 61.9936 25.721 61.9457 25.8273 61.9185C25.9336 61.8913 26.0443 61.8853 26.1529 61.9008C26.2615 61.9164 26.366 61.9532 26.4604 62.0092C26.5548 62.0652 26.6372 62.1392 26.703 62.2271L28.0431 64.0138L31.4851 58.8509C31.5459 58.7597 31.6241 58.6813 31.7152 58.6202C31.8064 58.5592 31.9086 58.5167 32.0162 58.4952C32.1237 58.4737 32.2345 58.4736 32.3421 58.4949C32.4497 58.5162 32.552 58.5584 32.6433 58.6193C32.7345 58.6801 32.8129 58.7583 32.874 58.8495C32.935 58.9406 32.9775 59.0429 32.999 59.1504C33.0205 59.258 33.0206 59.3687 32.9993 59.4763C32.978 59.5839 32.9358 59.6863 32.8749 59.7775L28.7782 65.9227C28.704 66.0338 28.6044 66.1256 28.4875 66.1902C28.3706 66.2549 28.2399 66.2906 28.1064 66.2943C28.0986 66.2945 28.0909 66.2946 28.0832 66.2946Z" fill="#112A5C"/>
<path d="M53.3564 24.3383C53.6548 24.3127 53.8823 24.1238 53.8645 23.9162C53.8468 23.7087 53.5905 23.5611 53.2922 23.5866C52.9938 23.6121 52.7663 23.8011 52.7841 24.0086C52.8018 24.2162 53.0581 24.3638 53.3564 24.3383Z" fill="white"/>
<path d="M56.7139 23.1996C57.0122 23.1741 57.2397 22.9851 57.222 22.7776C57.2042 22.57 56.948 22.4224 56.6496 22.4479C56.3512 22.4735 56.1238 22.6624 56.1415 22.87C56.1593 23.0775 56.4155 23.2251 56.7139 23.1996Z" fill="#3F3D56"/>
<path d="M51.7647 21.7772C52.063 21.7517 52.2905 21.5628 52.2727 21.3552C52.255 21.1476 51.9987 21.0001 51.7004 21.0256C51.402 21.0511 51.1745 21.24 51.1923 21.4476C51.21 21.6551 51.4663 21.8027 51.7647 21.7772Z" fill="#FF6584"/>
<path d="M50.3582 20.9519C50.4866 20.9229 50.5569 20.7497 50.5152 20.5651C50.4735 20.3805 50.3355 20.2544 50.2071 20.2834C50.0787 20.3124 50.0084 20.4856 50.0501 20.6702C50.0918 20.8548 50.2298 20.9809 50.3582 20.9519Z" fill="#E6E6E6"/>
<path d="M49.3543 18.948C49.4827 18.919 49.553 18.7458 49.5113 18.5612C49.4696 18.3766 49.3316 18.2505 49.2032 18.2795C49.0748 18.3085 49.0045 18.4817 49.0462 18.6663C49.0879 18.8509 49.2258 18.977 49.3543 18.948Z" fill="#3F3D56"/>
<path d="M54.1648 21.7619C54.2932 21.7329 54.3635 21.5598 54.3218 21.3752C54.2801 21.1906 54.1422 21.0644 54.0138 21.0935C53.8853 21.1225 53.8151 21.2956 53.8568 21.4802C53.8985 21.6648 54.0364 21.791 54.1648 21.7619Z" fill="#E6E6E6"/>
<path d="M52.698 22.9792C52.8264 22.9502 52.8967 22.777 52.855 22.5924C52.8133 22.4079 52.6754 22.2817 52.547 22.3107C52.4186 22.3398 52.3483 22.5129 52.39 22.6975C52.4317 22.8821 52.5696 23.0082 52.698 22.9792Z" fill="#FF6584"/>
<path d="M55.3679 23.9704C55.4964 23.9414 55.5666 23.7683 55.5249 23.5837C55.4832 23.3991 55.3453 23.2729 55.2169 23.302C55.0885 23.331 55.0182 23.5041 55.0599 23.6887C55.1016 23.8733 55.2395 23.9995 55.3679 23.9704Z" fill="#3F3D56"/>
<path d="M39.4973 8.81825C39.5485 8.61631 39.3547 8.39298 39.0644 8.31942C38.7741 8.24586 38.4973 8.34992 38.4462 8.55185C38.395 8.75378 38.5888 8.97711 38.8791 9.05068C39.1694 9.12424 39.4462 9.02018 39.4973 8.81825Z" fill="white"/>
<path d="M35.9524 8.79578C36.0036 8.59385 35.8098 8.37052 35.5195 8.29696C35.2292 8.22339 34.9524 8.32746 34.9013 8.52939C34.8501 8.73132 35.0439 8.95465 35.3342 9.02821C35.6245 9.10178 35.9013 8.99771 35.9524 8.79578Z" fill="#3F3D56"/>
<path d="M40.1614 11.7592C40.2126 11.5572 40.0188 11.3339 39.7285 11.2603C39.4382 11.1868 39.1614 11.2908 39.1102 11.4928C39.0591 11.6947 39.2529 11.918 39.5432 11.9916C39.8334 12.0652 40.1102 11.9611 40.1614 11.7592Z" fill="#FF6584"/>
<path d="M40.9884 12.8682C41.0094 12.6801 40.9204 12.5158 40.7896 12.5011C40.6587 12.4865 40.5356 12.6271 40.5146 12.8152C40.4936 13.0033 40.5826 13.1676 40.7135 13.1822C40.8443 13.1969 40.9674 13.0562 40.9884 12.8682Z" fill="#E6E6E6"/>
<path d="M41.2794 15.0898C41.3005 14.9018 41.2114 14.7374 41.0806 14.7228C40.9497 14.7082 40.8266 14.8488 40.8056 15.0369C40.7846 15.225 40.8736 15.3893 41.0045 15.4039C41.1353 15.4185 41.2584 15.2779 41.2794 15.0898Z" fill="#3F3D56"/>
<path d="M37.6564 10.8564C37.6774 10.6684 37.5884 10.504 37.4575 10.4894C37.3267 10.4748 37.2036 10.6154 37.1826 10.8035C37.1616 10.9916 37.2506 11.1559 37.3814 11.1705C37.5123 11.1851 37.6354 11.0445 37.6564 10.8564Z" fill="#E6E6E6"/>
<path d="M39.4396 10.1865C39.4606 9.99843 39.3716 9.83411 39.2407 9.81949C39.1099 9.80487 38.9868 9.94549 38.9658 10.1336C38.9448 10.3217 39.0338 10.486 39.1646 10.5006C39.2955 10.5152 39.4186 10.3746 39.4396 10.1865Z" fill="#FF6584"/>
<path d="M37.2423 8.37548C37.2633 8.1874 37.1743 8.02308 37.0435 8.00846C36.9126 7.99384 36.7895 8.13445 36.7685 8.32254C36.7475 8.51062 36.8365 8.67494 36.9674 8.68956C37.0982 8.70418 37.2213 8.56356 37.2423 8.37548Z" fill="#3F3D56"/>
<path d="M10.556 51.6061C10.2883 51.4964 10.0476 51.3298 9.85056 51.118C9.65353 50.9061 9.50488 50.6539 9.41488 50.379C9.32489 50.104 9.29569 49.8127 9.32932 49.5254C9.36295 49.238 9.4586 48.9614 9.60965 48.7146L3.83789 40.6013L5.68951 38.4531L12.4743 48.1395C12.8707 48.4247 13.1488 48.8454 13.2558 49.3219C13.3628 49.7983 13.2913 50.2975 13.0549 50.7248C12.8184 51.1521 12.4334 51.4778 11.9729 51.6403C11.5123 51.8027 11.0082 51.7905 10.556 51.6061Z" fill="#FFB6B6"/>
<path d="M10.6893 25.895C10.3973 25.7232 10.0536 25.6611 9.71995 25.7198C9.38629 25.7786 9.08449 25.9543 8.86872 26.2155L1.07031 37.122L8.29741 47.3866L11.1254 44.3491L6.7263 37.4362L12.5727 31.8698C13.0532 30.8172 13.1266 29.624 12.7787 28.5206C12.4309 27.4171 11.6865 26.4817 10.6893 25.895Z" fill="#112A5C"/>
</svg>
