<svg width="106" height="70" viewBox="0 0 106 70" fill="none" xmlns="http://www.w3.org/2000/svg">
<g clip-path="url(#clip0_7653_68552)">
<path d="M19.4764 54.0288C19.3287 53.7796 18.6895 54.0464 18.572 53.8203C18.4549 53.595 19.0487 53.2517 19.388 52.4676C19.4492 52.3262 19.8348 51.435 19.5494 51.16C19.0083 50.6388 16.5324 52.7897 15.666 52.0859C15.4758 51.9314 15.343 51.623 14.7675 51.1224C14.5386 50.9232 14.4001 50.8332 14.2661 50.8667C14.076 50.9142 14.061 51.1686 13.8571 51.6689C13.5514 52.4192 13.3706 52.3739 13.1924 52.9725C13.0602 53.4168 13.0904 53.6752 12.9348 53.7255C12.7146 53.7967 12.5119 53.3254 12.2329 53.3676C11.9481 53.4107 11.776 53.9595 11.7216 54.3703C11.6195 55.1414 11.9027 55.6502 12.0597 56.1852C12.2302 56.7666 12.3314 57.6508 11.9376 58.9025L8.03906 69.8866C8.89973 67.6327 11.3918 61.4541 12.4389 59.1582C12.7412 58.4954 13.075 57.8231 13.7603 57.5577C14.4202 57.3023 15.3264 57.4548 16.4816 57.1765C16.6166 57.144 16.991 57.0487 17.0381 56.8285C17.0771 56.6464 16.8568 56.5448 16.8907 56.3743C16.9361 56.1456 17.3691 56.1428 17.9013 55.8789C18.2766 55.6928 18.5104 55.4715 18.7115 55.2812C18.7721 55.2238 19.6731 54.3604 19.4764 54.0288Z" fill="#F2F2F2"/>
<path d="M4.13843 59.8111C3.97352 59.8117 3.92002 60.2024 3.77514 60.1948C3.63078 60.1873 3.63366 59.7968 3.34669 59.404C3.29494 59.3332 2.96882 58.8868 2.75149 58.9476C2.33957 59.0627 2.68088 60.8985 2.08541 61.1207C1.95474 61.1694 1.76505 61.1457 1.35327 61.2837C1.18945 61.3386 1.10537 61.3806 1.08313 61.456C1.05158 61.563 1.17211 61.6438 1.35884 61.8882C1.63886 62.2547 1.56445 62.3304 1.80685 62.5905C1.98679 62.7836 2.12231 62.8434 2.10211 62.9343C2.07354 63.0629 1.78373 63.0264 1.72393 63.1755C1.66291 63.3277 1.88258 63.5705 2.06855 63.7158C2.41755 63.9883 2.74897 63.9961 3.05684 64.0735C3.39141 64.1575 3.85459 64.363 4.35529 64.9174L8.62149 70.0001C7.76359 68.9274 5.45017 65.9215 4.62543 64.7451C4.38734 64.4055 4.15368 64.0477 4.22121 63.6348C4.28621 63.2372 4.62253 62.8365 4.81926 62.1892C4.84224 62.1136 4.90352 61.9023 4.80903 61.8156C4.73091 61.744 4.61749 61.8228 4.54356 61.7569C4.4444 61.6687 4.56798 61.4553 4.59202 61.1179C4.60897 60.8801 4.56781 60.7015 4.53242 60.5479C4.52175 60.5016 4.35795 59.8102 4.13843 59.8111Z" fill="#F2F2F2"/>
<path d="M7.42748 60.5497L7.32812 59.6628L7.37352 59.5955C7.58358 59.2846 7.69065 58.981 7.69193 58.6928C7.69214 58.6469 7.69 58.6011 7.68786 58.5544C7.67929 58.3694 7.66859 58.1394 7.7885 57.8714C7.85574 57.7219 8.0446 57.3759 8.32854 57.4187C8.40499 57.4294 8.4628 57.4645 8.5067 57.5056C8.51312 57.4953 8.51976 57.4851 8.52683 57.4739C8.61526 57.339 8.68528 57.2812 8.75273 57.2255C8.80455 57.1827 8.85808 57.1386 8.94202 57.0341C8.97885 56.9883 9.00754 56.948 9.03174 56.9142C9.10519 56.8118 9.20112 56.6898 9.37028 56.6919C9.55101 56.7005 9.64565 56.85 9.70839 56.9489C9.82038 57.1253 9.87113 57.2525 9.90475 57.3369C9.91696 57.3677 9.93088 57.4024 9.93794 57.4131C9.99618 57.4988 10.4696 57.4187 10.648 57.3896C11.0486 57.3227 11.3953 57.2649 11.5381 57.5176C11.6405 57.6983 11.5645 57.9373 11.3054 58.2469C11.2246 58.3433 11.1388 58.4165 11.0626 58.4739C11.1257 58.5116 11.1822 58.5694 11.2052 58.6602C11.2591 58.8752 11.0743 59.0906 10.6561 59.3013C10.5523 59.354 10.4125 59.4242 10.2165 59.4581C10.1242 59.4739 10.0412 59.4778 9.97006 59.4799C9.96856 59.521 9.95893 59.5656 9.93388 59.6114C9.86043 59.7463 9.70754 59.8105 9.47714 59.7951C9.2236 59.7818 9.01483 59.7334 8.83068 59.691C8.66987 59.6542 8.53132 59.6229 8.42255 59.6302C8.22084 59.6465 8.06538 59.8079 7.88294 60.0174L7.42748 60.5497Z" fill="#F2F2F2"/>
<path d="M7.88966 55.2689L7.05694 55.59L6.98039 55.5631C6.62636 55.4388 6.30549 55.4122 6.02638 55.4841C5.982 55.4955 5.93821 55.5092 5.8936 55.5231C5.71682 55.5783 5.49708 55.647 5.20734 55.599C5.04571 55.5719 4.66309 55.477 4.63249 55.1915C4.62346 55.1148 4.64277 55.05 4.6714 54.9971C4.65983 54.9935 4.6482 54.9897 4.63564 54.9857C4.48272 54.9343 4.40903 54.8813 4.33807 54.8302C4.2835 54.7909 4.22725 54.7503 4.10488 54.6956C4.05122 54.6716 4.005 54.6541 3.96614 54.6392C3.8485 54.5942 3.7061 54.5323 3.66527 54.3682C3.62772 54.1912 3.74828 54.0617 3.82806 53.9759C3.97033 53.8228 4.08049 53.7415 4.15357 53.6876C4.1803 53.6679 4.21032 53.6457 4.21889 53.6361C4.28697 53.5581 4.08941 53.1204 4.016 52.9553C3.84976 52.5847 3.7059 52.264 3.91408 52.0618C4.06293 51.9169 4.31337 51.9298 4.6786 52.1019C4.79228 52.1556 4.8849 52.22 4.95975 52.2792C4.98018 52.2086 5.02176 52.1392 5.10378 52.094C5.29805 51.9873 5.55329 52.1114 5.86318 52.4625C5.94047 52.5496 6.04388 52.667 6.1263 52.848C6.16504 52.9332 6.18984 53.0126 6.20995 53.0808C6.2501 53.0718 6.29562 53.0699 6.3463 53.0825C6.49542 53.1193 6.59634 53.2509 6.63987 53.4777C6.69133 53.7263 6.69748 53.9405 6.70318 54.1294C6.70834 54.2943 6.71324 54.4362 6.74788 54.5396C6.81478 54.7306 7.01039 54.84 7.25924 54.9634L7.88966 55.2689Z" fill="#F2F2F2"/>
<path d="M7.42748 52.6559L7.32812 51.769L7.37352 51.7017C7.58358 51.3908 7.69065 51.0872 7.69193 50.799C7.69214 50.7531 7.69 50.7073 7.68786 50.6606C7.67929 50.4756 7.66859 50.2456 7.7885 49.9776C7.85574 49.8281 8.0446 49.4821 8.32854 49.5249C8.40499 49.5356 8.4628 49.5707 8.5067 49.6118C8.51312 49.6015 8.51976 49.5913 8.52683 49.5801C8.61526 49.4452 8.68528 49.3874 8.75273 49.3317C8.80455 49.2889 8.85808 49.2448 8.94202 49.1403C8.97885 49.0945 9.00754 49.0542 9.03174 49.0204C9.10519 48.918 9.20112 48.796 9.37028 48.7981C9.55101 48.8067 9.64565 48.9562 9.70839 49.0551C9.82038 49.2315 9.87113 49.3587 9.90475 49.4431C9.91696 49.4739 9.93088 49.5086 9.93794 49.5193C9.99618 49.605 10.4696 49.5249 10.648 49.4958C11.0486 49.4289 11.3953 49.3711 11.5381 49.6238C11.6405 49.8045 11.5645 50.0435 11.3054 50.3531C11.2246 50.4495 11.1388 50.5227 11.0626 50.5801C11.1257 50.6178 11.1822 50.6756 11.2052 50.7664C11.2591 50.9814 11.0743 51.1968 10.6561 51.4075C10.5523 51.4602 10.4125 51.5304 10.2165 51.5643C10.1242 51.5801 10.0412 51.584 9.97006 51.5861C9.96856 51.6272 9.95893 51.6718 9.93388 51.7176C9.86043 51.8525 9.70754 51.9167 9.47714 51.9013C9.2236 51.888 9.01483 51.8396 8.83068 51.7972C8.66987 51.7604 8.53132 51.7291 8.42255 51.7364C8.22084 51.7527 8.06538 51.9141 7.88294 52.1236L7.42748 52.6559Z" fill="#F2F2F2"/>
<path d="M8.33594 69.8721L8.15008 69.7556L7.93338 69.7804C7.92995 69.7603 7.91818 69.714 7.90041 69.6417C7.80341 69.2451 7.50769 68.0383 7.26101 66.1376C7.08885 64.8109 6.99142 63.4469 6.97129 62.0829C6.95116 60.7167 7.01583 59.6825 7.06765 58.8512C7.10684 58.2243 7.15438 57.6273 7.20106 57.0457C7.32525 55.492 7.44238 54.0243 7.35523 52.3995C7.33596 52.0368 7.29548 51.2817 6.85438 50.4783C6.59849 50.0124 6.24603 49.5987 5.80664 49.2492L6.07987 48.9058C6.56487 49.2921 6.9548 49.7503 7.23896 50.2676C7.72803 51.1584 7.77214 51.9811 7.79334 52.3764C7.88199 54.0299 7.76358 55.5117 7.63809 57.0804C7.59184 57.6598 7.5443 58.2543 7.50533 58.8787C7.45394 59.7022 7.38992 60.7274 7.40983 62.076C7.42953 63.4238 7.52589 64.7711 7.69569 66.0811C7.93937 67.9578 8.23081 69.1466 8.32652 69.5372C8.37749 69.7457 8.38819 69.7894 8.33594 69.8721Z" fill="#F2F2F2"/>
<path d="M5.00235 49.9459C4.98436 49.9459 4.96616 49.9455 4.94775 49.9442C4.5743 49.9241 4.22848 49.7005 3.91971 49.28C3.77496 49.0821 3.70087 48.8564 3.55312 48.4063C3.53021 48.3369 3.41886 47.9849 3.35119 47.5006C3.30686 47.1841 3.31243 47.0517 3.37518 46.9348C3.44477 46.8046 3.5574 46.7138 3.68416 46.6526C3.6786 46.6106 3.68309 46.5674 3.7013 46.5233C3.77603 46.3404 3.97474 46.3644 4.08223 46.3759C4.13662 46.3828 4.2045 46.3918 4.27774 46.3879C4.39294 46.3824 4.45482 46.3481 4.54861 46.2967C4.63833 46.2475 4.74989 46.1862 4.91541 46.1524C5.24175 46.0843 5.51519 46.1768 5.60534 46.2072C6.07964 46.3652 6.31347 46.734 6.58413 47.1609C6.63809 47.2466 6.82331 47.5584 6.94557 47.9858C7.03379 48.2941 7.02138 48.4312 6.99482 48.5331C6.94086 48.7425 6.81346 48.8624 6.48991 49.1271C6.15201 49.4042 5.98242 49.5429 5.83681 49.6273C5.49785 49.823 5.285 49.9459 5.00235 49.9459Z" fill="#F2F2F2"/>
<path d="M102.997 69.6724C102.997 69.7536 102.931 69.8194 102.849 69.8194H0.964844V69.5254H102.849C102.931 69.5254 102.997 69.5912 102.997 69.6724Z" fill="#E6E6E6"/>
<path d="M73.5843 23.2041C73.5843 23.2041 68.1 23.8637 69.0251 19.5275C69.9501 15.1913 75.1953 7.18213 75.1953 7.18213L78.1718 8.85136L74.7546 16.9289L76.2256 18.0895L73.5843 23.2041Z" fill="#A0616A"/>
<path d="M91.5558 17.9252L90.783 24.2812L71.418 24.1864L75.3073 17.427L91.5558 17.9252Z" fill="#112A5C"/>
<path d="M80.0478 7.52001C81.2329 5.86492 81.328 3.9034 80.2602 3.13883C79.1924 2.37426 77.366 3.09616 76.1809 4.75124C74.9959 6.40633 74.9008 8.36786 75.9686 9.13243C77.0364 9.897 78.8627 9.17509 80.0478 7.52001Z" fill="#A0616A"/>
<path d="M89.6953 42.1575V69.7417H90.8843V42.1575H89.6953Z" fill="#3F3D56"/>
<path d="M83.9863 42.1575V69.7417H85.1753V42.1575H83.9863Z" fill="#3F3D56"/>
<path d="M52.0039 24.7985V69.7417H53.1929V24.7985H52.0039Z" fill="#E6E6E6"/>
<path d="M71.1465 42.1575V69.7417H72.3355V42.1575H71.1465Z" fill="#3F3D56"/>
<path d="M66.5957 42.1575V69.7417H67.7847V42.1575H66.5957Z" fill="#3F3D56"/>
<path d="M88.6245 41.5632H65.6642L61.2598 47.8107L84.1064 49.1727L88.6245 41.5632Z" fill="#3F3D56"/>
<path d="M46.5818 20.1881L46.6861 15.6575L32.8287 16.7233L32.7578 19.7934L46.5818 20.1881Z" fill="#A0616A"/>
<path d="M37.203 16.1822L36.5403 17.7767L35.5884 17.8071C35.5884 17.8071 36.7029 18.1484 37.0125 20.1735L36.0979 20.4476C36.0979 20.4476 35.2196 21.2671 33.5778 21.1876L29.1756 20.8194L29.1587 19.2847L32.2012 18.9331C32.2012 18.9331 32.8792 18.4871 29.5231 16.6534C29.5231 16.6534 28.4114 15.9736 29.4113 12.6165C29.5487 12.1551 29.9638 11.8236 30.4451 11.8132C30.7108 11.8075 30.9597 11.9029 31.059 12.2329C31.312 13.0727 31.056 13.91 31.7511 14.4342C32.4462 14.9585 37.203 16.1822 37.203 16.1822Z" fill="#2F2E41"/>
<path d="M86.9055 37.5094C86.9055 37.5094 82.1241 45.6415 71.3051 44.176C68.7305 43.8272 66.4653 42.2965 65.1748 40.0415C62.6805 35.683 58.893 28.0514 60.1209 23.73L41.8226 20.2377L40.3809 15.7938L60.1842 13.2213C61.9359 12.9937 63.6518 13.8456 64.5296 15.3784L74.1763 32.2253L77.0521 32.5393L86.9055 37.5094Z" fill="#2F2E41"/>
<path d="M46.9423 22.0429L46.6818 17.5186L32.9551 19.6958L33.1314 22.7617L46.9423 22.0429Z" fill="#A0616A"/>
<path d="M37.2727 18.8045L36.7403 20.4471L35.794 20.554C35.794 20.554 36.9323 20.8045 37.4038 22.7982L36.5143 23.145C36.5143 23.145 35.7048 24.0325 34.0619 24.0853L29.6444 24.0724L29.504 22.5441L32.5084 21.9489C32.5084 21.9489 33.1483 21.4498 29.6556 19.892C29.6556 19.892 28.4928 19.3038 29.2193 15.8772C29.3192 15.4062 29.7063 15.0425 30.1852 14.9934C30.4495 14.9663 30.7053 15.0414 30.8309 15.3622C31.1505 16.179 30.9628 17.0342 31.6978 17.5008C32.4328 17.9674 37.2727 18.8045 37.2727 18.8045Z" fill="#2F2E41"/>
<path d="M88.531 36.0638C88.531 36.0638 84.4194 44.5542 73.5175 43.9638C70.9232 43.8233 68.5422 42.4798 67.0745 40.336C64.2377 36.1922 59.8484 28.8901 60.7247 24.484L42.2047 22.4751L40.4102 18.1615L59.9424 14.0042C61.6701 13.6364 63.4489 14.3475 64.4472 15.8048L75.418 31.821L78.3097 31.9026L88.531 36.0638Z" fill="#2F2E41"/>
<path d="M75.9961 0.211182L75.0449 0.924565L80.0386 7.8206L80.9898 7.58281L75.9961 0.211182Z" fill="#3F3D56"/>
<path d="M88.9813 15.5247L94.4506 15.2869L96.8285 25.9876C96.8285 25.9876 91.8348 44.7734 85.89 44.06C85.89 44.06 82.2041 41.3254 82.2041 40.3742C82.2041 39.423 77.2105 37.0451 77.2105 37.0451L76.0215 33.0026L79.5884 27.5333C79.5884 27.5333 81.0152 23.253 85.7711 20.875L88.9813 15.5247Z" fill="#112A5C"/>
<path d="M57.711 23.8474H9.08203V25.0364H32.8615V69.7417H34.0504V25.0364H57.711V23.8474Z" fill="#E6E6E6"/>
<path d="M91.8345 14.5736C95.3804 14.5736 98.255 11.699 98.255 8.15312C98.255 4.6072 95.3804 1.73267 91.8345 1.73267C88.2886 1.73267 85.4141 4.6072 85.4141 8.15312C85.4141 11.699 88.2886 14.5736 91.8345 14.5736Z" fill="#A0616A"/>
<path d="M69.4473 16.3569L64.9629 18.1404L73.7613 29.7923L76.8526 27.4144L69.4473 16.3569Z" fill="#E6E6E6"/>
<path d="M86.9611 38.7095C86.9611 38.7095 85.2965 43.9766 81.7296 41.3431C78.1627 38.7095 73.0352 30.6245 73.0352 30.6245L75.7848 28.6033L81.7296 35.0518L83.3942 34.1914L86.9611 38.7095Z" fill="#A0616A"/>
<path d="M89.5757 20.1616L95.045 23.4907L86.96 41.0875L81.7285 33.9537L89.5757 20.1616Z" fill="#112A5C"/>
<path d="M75.1299 30.7253C76.2673 30.0687 76.3642 28.1072 75.3464 26.3443C74.3286 24.5814 72.5815 23.6847 71.4441 24.3413C70.3068 24.998 70.2099 26.9594 71.2277 28.7223C72.2455 30.4852 73.9926 31.382 75.1299 30.7253Z" fill="#A0616A"/>
<path d="M92.5373 27.5923C94.185 22.1904 95.9534 20.4808 97.8125 21.5511C99.2276 22.3658 99.6535 24.2202 98.8242 25.6268C96.7103 29.212 92.3545 37.4266 93.2619 42.8711C93.2619 42.8711 94.6887 50.4805 83.2746 50.4805C71.8604 50.4805 60.9219 47.8648 60.9219 47.8648L66.8667 46.9136L80.3861 47.8793C83.4749 48.0999 86.0782 45.457 85.6655 42.3879C85.6519 42.2866 85.6358 42.1841 85.6169 42.0806C84.9391 38.353 92.5373 27.5923 92.5373 27.5923Z" fill="#3F3D56"/>
<path d="M89.4285 5.49143C88.904 6.95999 90.0565 8.4849 91.6124 8.38118L91.6495 8.3787C92.6954 9.68614 92.7243 11.5356 91.7197 12.8751C91.6372 14.6015 91.9076 16.3266 92.5145 17.9449L94.2196 22.4919L96.8446 21.2669L98.0903 24.5919L105.42 20.8162L100.978 10.8218L99.622 5.39953C98.6576 1.54185 94.7226 -0.78016 90.8794 0.240674L87.9309 1.02388C85.6015 1.64263 84.2607 4.08149 84.9865 6.37981L89.4285 5.49143Z" fill="#2F2E41"/>
</g>
<defs>
<clipPath id="clip0_7653_68552">
<rect width="104.454" height="70" fill="white" transform="translate(0.964844)"/>
</clipPath>
</defs>
</svg>
