<svg width="329" height="219" viewBox="0 0 329 219" fill="none" xmlns="http://www.w3.org/2000/svg">
<g clip-path="url(#clip0_12467_86924)">
<path d="M208.959 121.625C210.11 121.385 211.121 120.701 211.773 119.722C212.426 118.744 212.667 117.548 212.445 116.393C212.395 116.138 212.323 115.887 212.229 115.645L224.19 105.338L216.37 103.127L206.211 113.253C205.144 113.762 204.32 114.67 203.917 115.782C203.515 116.893 203.566 118.118 204.059 119.192C204.479 120.093 205.192 120.825 206.083 121.267C206.973 121.709 207.987 121.835 208.959 121.625Z" fill="#FFB6B6"/>
<path d="M286.628 194.717L287.063 184.946C291.595 182.525 296.65 181.246 301.788 181.22C294.716 187 295.6 198.142 290.805 205.914C289.291 208.327 287.253 210.368 284.843 211.887C282.432 213.405 279.711 214.362 276.88 214.686L270.962 218.309C270.15 213.783 270.329 209.135 271.487 204.686C272.644 200.236 274.754 196.09 277.669 192.533C279.324 190.554 281.222 188.791 283.317 187.287C284.735 191.023 286.628 194.717 286.628 194.717Z" fill="#F2F2F2"/>
<path d="M271.379 213.28L266.02 213.28L263.471 192.617L271.38 192.618L271.379 213.28Z" fill="#FFB6B6"/>
<path d="M272.745 218.473L255.466 218.472V218.254C255.466 216.471 256.175 214.761 257.436 213.5C258.697 212.239 260.408 211.531 262.191 211.531H262.192L265.348 209.137L271.237 211.531L272.745 211.531L272.745 218.473Z" fill="#2F2E41"/>
<path d="M246.482 213.28L241.124 213.28L238.574 192.617L246.484 192.618L246.482 213.28Z" fill="#FFB6B6"/>
<path d="M247.849 218.473L230.569 218.472V218.254C230.569 216.471 231.278 214.761 232.539 213.5C233.801 212.239 235.511 211.531 237.295 211.531H237.295L240.452 209.137L246.341 211.531L247.849 211.531L247.849 218.473Z" fill="#2F2E41"/>
<path d="M244.163 100.316L279.019 101.187C285.639 104.781 285.74 112.561 283.571 121.797C283.571 121.797 284.303 127.287 282.839 128.751C281.374 130.215 280.642 130.215 281.374 132.777C282.106 135.339 278.237 139.524 278.707 139.993C279.177 140.463 280.276 143.025 280.276 143.025L276.614 163.887C276.614 163.887 274.052 200.12 273.319 200.852C272.587 201.584 271.855 200.852 272.587 202.682C273.319 204.512 274.052 203.78 273.319 204.512C272.671 205.211 272.06 205.944 271.489 206.708H262.637C262.637 206.708 261.969 203.048 261.969 202.682C261.969 202.316 261.237 200.12 261.237 199.754C261.237 199.388 261.884 198.741 261.884 198.741C262.108 197.997 262.259 197.233 262.336 196.46C262.336 195.728 264.532 167.547 264.532 167.547L260.139 130.947L249.521 166.815C249.521 166.815 249.521 198.29 248.789 199.022C248.057 199.754 248.057 199.388 248.423 200.852C248.789 202.316 250.253 201.95 249.155 203.048C248.057 204.146 247.691 202.316 248.057 204.146L248.423 205.976L237.439 206.133C237.439 206.133 235.975 203.048 236.707 201.95C237.439 200.852 237.395 201.152 236.502 199.355C235.608 197.558 235.242 197.192 235.608 196.826C235.975 196.46 235.975 194.513 235.975 194.513L237.805 159.495C237.805 159.495 238.171 122.529 238.171 121.432C238.199 120.867 238.095 120.303 237.867 119.785V118.295L239.27 113.014L244.163 100.316Z" fill="#2F2E41"/>
<path d="M208.557 109.737L214.447 114.486L246.562 89.6012L244.662 46.2908C242.855 47.7352 241.354 49.5232 240.243 51.5515C239.133 53.5797 238.436 55.8079 238.192 58.1072L232.69 82.5728L208.557 109.737Z" fill="#E6E6E6"/>
<path d="M238.96 111.256C250.328 112.709 260.801 108.309 270.694 104.988C275.161 103.489 279.66 105.054 283.806 102.518C282.013 84.8649 283.754 64.9797 287.563 43.7886C287.78 42.589 287.553 41.3513 286.925 40.3064C286.296 39.2616 285.309 38.481 284.147 38.1103L271.875 34.5906L268.097 30.4238L258.338 32.9002L254.922 39.0724L243.183 47.0013C242.498 47.4638 241.961 48.1143 241.637 48.8746C241.313 49.6349 241.215 50.4726 241.356 51.287C244.883 71.2163 244.065 91.6718 238.96 111.256Z" fill="#E6E6E6"/>
<path d="M275.241 116.72C276.283 116.175 277.069 115.241 277.429 114.122C277.789 113.002 277.695 111.786 277.166 110.735C277.049 110.504 276.911 110.282 276.755 110.075L285.448 96.8967L277.322 96.9022L270.312 109.415C269.424 110.196 268.88 111.295 268.796 112.473C268.712 113.652 269.095 114.817 269.863 115.716C270.512 116.468 271.398 116.977 272.376 117.16C273.353 117.343 274.363 117.188 275.241 116.72Z" fill="#FFB6B6"/>
<path d="M272.785 104.418L278.106 111.256L296.728 83.5226L295.118 55.3467C294.913 51.7581 293.803 48.2797 291.892 45.235C289.98 42.1903 287.33 39.6783 284.187 37.9327L284.567 81.2431L272.785 104.418Z" fill="#E6E6E6"/>
<path d="M259.415 28.8118C265.992 28.8118 271.324 23.4818 271.324 16.9069C271.324 10.3321 265.992 5.00208 259.415 5.00208C252.838 5.00208 247.506 10.3321 247.506 16.9069C247.506 23.4818 252.838 28.8118 259.415 28.8118Z" fill="#FFB6B6"/>
<path d="M251.827 9.92026C252.287 9.92385 252.746 9.98402 253.192 10.0994C254.072 10.3108 254.965 10.4605 255.865 10.5475C258.622 10.8068 261.213 11.9821 263.223 13.8858C265.233 15.7895 266.548 18.3117 266.956 21.0496C267.648 20.4465 269.222 19.3371 270.513 20.3682C270.533 20.3845 270.544 20.3929 270.59 20.3714C271.447 19.965 272.968 14.9618 273.014 10.5566C273.039 8.21846 272.671 5.23278 270.779 4.28729L270.679 4.23748L270.653 4.1292C270.527 3.60325 269.115 2.70547 266.661 2.00669C262.201 0.736837 255.553 -1.73687 251.809 1.90362C251.526 3.13091 250.604 5.75733 249.673 6.05503C248.642 6.38454 247.752 6.66891 247.611 7.93316C247.494 9.73227 247.503 11.5374 247.637 13.3353C247.986 12.2351 248.672 11.2722 249.597 10.5821C250.256 10.1392 251.033 9.90823 251.827 9.92026Z" fill="#2F2E41"/>
<path d="M329 218.548C329 218.607 328.989 218.666 328.966 218.721C328.943 218.776 328.91 218.826 328.868 218.868C328.826 218.91 328.776 218.943 328.721 218.966C328.666 218.989 328.607 219 328.548 219H0.452263C0.332316 219 0.217285 218.952 0.13247 218.868C0.0476541 218.783 0 218.668 0 218.548C0 218.428 0.0476541 218.313 0.13247 218.228C0.217285 218.143 0.332316 218.096 0.452263 218.096H328.548C328.607 218.096 328.666 218.107 328.721 218.13C328.776 218.153 328.826 218.186 328.868 218.228C328.91 218.27 328.943 218.32 328.966 218.375C328.989 218.43 329 218.489 329 218.548Z" fill="#CCCCCC"/>
<path d="M135.784 38.418L91.0799 48.4718C89.8822 48.7427 88.8408 49.4773 88.1843 50.5147C87.5277 51.5521 87.3096 52.8074 87.5777 54.0053L99.836 108.472L152.36 96.6592C152.792 96.5636 153.187 96.3457 153.498 96.0317L141.319 41.919C141.048 40.7217 140.313 39.6807 139.276 39.0243C138.238 38.368 136.982 38.15 135.784 38.418Z" fill="#E6E6E6"/>
<path d="M119.546 45.9179L95.0468 51.4276C93.9562 51.674 93.0078 52.3428 92.4097 53.2872C91.8116 54.2317 91.6127 55.3747 91.8565 56.4656L103.382 107.674L150.031 97.1832L141.638 59.8899C140.556 55.1115 137.623 50.957 133.482 48.3376C129.34 45.7183 124.328 44.848 119.546 45.9179Z" fill="white"/>
<path d="M141.059 94.4226L110.305 101.339C110.173 101.369 110.048 101.424 109.938 101.501C109.827 101.579 109.733 101.678 109.661 101.792C109.588 101.906 109.539 102.033 109.516 102.166C109.493 102.299 109.496 102.435 109.526 102.567C109.556 102.699 109.611 102.823 109.689 102.934C109.767 103.044 109.866 103.138 109.98 103.21C110.094 103.282 110.221 103.331 110.355 103.354C110.488 103.377 110.624 103.373 110.756 103.343L141.51 96.4267C141.642 96.3974 141.767 96.3423 141.878 96.2647C141.988 96.1871 142.083 96.0884 142.155 95.9744C142.227 95.8603 142.277 95.733 142.3 95.5999C142.323 95.4668 142.32 95.3304 142.29 95.1986C142.26 95.0668 142.205 94.9421 142.127 94.8317C142.049 94.7213 141.95 94.6274 141.836 94.5553C141.721 94.4833 141.594 94.4344 141.461 94.4117C141.327 94.3889 141.191 94.3926 141.059 94.4226Z" fill="#E4E4E4"/>
<path d="M140.167 90.4596L109.413 97.3762C109.147 97.436 108.916 97.5991 108.77 97.8296C108.624 98.06 108.576 98.3389 108.635 98.6049C108.695 98.8709 108.858 99.1023 109.089 99.2481C109.319 99.3938 109.598 99.4421 109.865 99.3823L140.619 92.4656C140.751 92.436 140.875 92.3807 140.986 92.3029C141.096 92.2251 141.19 92.1264 141.262 92.0123C141.335 91.8982 141.384 91.771 141.407 91.638C141.43 91.5049 141.426 91.3687 141.397 91.2369C141.367 91.1052 141.312 90.9806 141.234 90.8703C141.156 90.7599 141.057 90.666 140.943 90.5938C140.829 90.5216 140.702 90.4726 140.569 90.4496C140.436 90.4265 140.299 90.43 140.167 90.4596Z" fill="#E4E4E4"/>
<path d="M121.853 90.417L108.522 93.4152C108.256 93.475 108.025 93.6379 107.879 93.8681C107.733 94.0983 107.685 94.3769 107.745 94.6426C107.805 94.9084 107.968 95.1395 108.198 95.2851C108.428 95.4308 108.707 95.479 108.973 95.4192L122.304 92.421C122.436 92.3917 122.561 92.3367 122.672 92.259C122.782 92.1814 122.877 92.0827 122.949 91.9687C123.021 91.8546 123.071 91.7273 123.094 91.5942C123.117 91.4611 123.113 91.3247 123.084 91.1929C123.054 91.0611 122.999 90.9364 122.921 90.8261C122.843 90.7157 122.744 90.6217 122.63 90.5497C122.515 90.4776 122.388 90.4288 122.255 90.406C122.121 90.3832 121.985 90.3869 121.853 90.417Z" fill="#E4E4E4"/>
<path d="M137.409 78.2003L106.654 85.1169C106.523 85.1466 106.398 85.2018 106.287 85.2796C106.177 85.3574 106.083 85.4562 106.011 85.5703C105.865 85.8007 105.817 86.0796 105.877 86.3456C105.937 86.6117 106.1 86.843 106.33 86.9888C106.561 87.1346 106.84 87.1828 107.106 87.123L137.86 80.2064C137.992 80.1767 138.117 80.1214 138.227 80.0437C138.337 79.9659 138.431 79.8671 138.504 79.753C138.576 79.6389 138.625 79.5117 138.648 79.3787C138.671 79.2457 138.667 79.1094 138.638 78.9777C138.608 78.8459 138.553 78.7214 138.475 78.611C138.397 78.5006 138.298 78.4067 138.184 78.3345C138.07 78.2623 137.943 78.2133 137.81 78.1903C137.677 78.1673 137.54 78.1707 137.409 78.2003Z" fill="#E4E4E4"/>
<path d="M136.517 74.2392L105.763 81.1559C105.631 81.1853 105.506 81.2404 105.396 81.318C105.285 81.3956 105.191 81.4943 105.119 81.6084C105.046 81.7224 104.997 81.8496 104.974 81.9826C104.951 82.1157 104.954 82.252 104.984 82.3838C105.014 82.5155 105.069 82.6401 105.147 82.7504C105.225 82.8608 105.324 82.9547 105.438 83.0268C105.552 83.0989 105.679 83.1477 105.813 83.1706C105.946 83.1934 106.082 83.1898 106.214 83.1599L136.968 76.2433C137.1 76.2138 137.225 76.1586 137.335 76.0809C137.445 76.0033 137.539 75.9046 137.612 75.7906C137.684 75.6766 137.733 75.5494 137.756 75.4165C137.779 75.2835 137.776 75.1473 137.746 75.0156C137.716 74.8839 137.661 74.7594 137.583 74.6491C137.506 74.5388 137.407 74.445 137.293 74.3729C137.178 74.3008 137.051 74.2518 136.918 74.2289C136.785 74.206 136.649 74.2095 136.517 74.2392Z" fill="#E4E4E4"/>
<path d="M118.203 74.1946L104.871 77.1928C104.739 77.2224 104.615 77.2777 104.504 77.3555C104.394 77.4333 104.3 77.5321 104.228 77.6462C104.155 77.7603 104.106 77.8875 104.083 78.0205C104.06 78.1535 104.064 78.2898 104.093 78.4215C104.123 78.5532 104.178 78.6778 104.256 78.7882C104.334 78.8985 104.433 78.9925 104.547 79.0647C104.661 79.1369 104.788 79.1859 104.921 79.2089C105.054 79.2319 105.191 79.2285 105.323 79.1989L118.654 76.2006C118.786 76.171 118.911 76.1157 119.021 76.0379C119.131 75.9601 119.225 75.8614 119.298 75.7473C119.37 75.6332 119.419 75.506 119.442 75.373C119.465 75.2399 119.461 75.1037 119.432 74.9719C119.402 74.8402 119.347 74.7156 119.269 74.6053C119.191 74.4949 119.092 74.401 118.978 74.3288C118.864 74.2566 118.737 74.2076 118.604 74.1846C118.471 74.1615 118.334 74.1649 118.203 74.1946Z" fill="#E4E4E4"/>
<path d="M133.757 61.9779L103.003 68.8945C102.737 68.9544 102.505 69.1174 102.36 69.3479C102.214 69.5783 102.165 69.8572 102.225 70.1232C102.285 70.3892 102.448 70.6206 102.679 70.7664C102.909 70.9122 103.188 70.9604 103.454 70.9006L134.209 63.984C134.341 63.9543 134.465 63.899 134.576 63.8212C134.686 63.7435 134.78 63.6447 134.852 63.5306C134.924 63.4165 134.973 63.2893 134.996 63.1563C135.02 63.0232 135.016 62.887 134.986 62.7553C134.957 62.6235 134.902 62.4989 134.824 62.3886C134.746 62.2782 134.647 62.1843 134.533 62.1121C134.419 62.0399 134.292 61.9909 134.158 61.9679C134.025 61.9449 133.889 61.9483 133.757 61.9779Z" fill="#E6E6E6"/>
<path d="M132.866 58.0169L102.111 64.9335C101.98 64.9632 101.855 65.0184 101.745 65.0962C101.634 65.174 101.54 65.2728 101.468 65.3869C101.322 65.6173 101.274 65.8962 101.334 66.1622C101.394 66.4282 101.557 66.6596 101.787 66.8054C102.018 66.9512 102.297 66.9994 102.563 66.9396L133.317 60.023C133.449 59.9933 133.574 59.938 133.684 59.8603C133.794 59.7825 133.888 59.6837 133.961 59.5696C134.033 59.4555 134.082 59.3283 134.105 59.1953C134.128 59.0622 134.125 58.926 134.095 58.7943C134.065 58.6625 134.01 58.538 133.932 58.4276C133.854 58.3172 133.755 58.2233 133.641 58.1511C133.527 58.0789 133.4 58.0299 133.267 58.0069C133.134 57.9839 132.997 57.9873 132.866 58.0169Z" fill="#E6E6E6"/>
<path d="M114.551 57.9722L101.22 60.9705C100.954 61.0303 100.722 61.1934 100.576 61.4238C100.431 61.6542 100.382 61.9331 100.442 62.1992C100.502 62.4652 100.665 62.6965 100.896 62.8423C101.126 62.9881 101.405 63.0364 101.671 62.9765L115.003 59.9783C115.135 59.9486 115.259 59.8933 115.37 59.8156C115.48 59.7378 115.574 59.639 115.646 59.5249C115.718 59.4108 115.767 59.2836 115.79 59.1506C115.813 59.0176 115.81 58.8813 115.78 58.7496C115.751 58.6179 115.695 58.4933 115.618 58.3829C115.54 58.2726 115.441 58.1786 115.327 58.1064C115.213 58.0342 115.086 57.9852 114.952 57.9622C114.819 57.9392 114.683 57.9426 114.551 57.9722Z" fill="#E6E6E6"/>
<path d="M46.6001 101.613C46.3087 101.614 46.0293 101.73 45.8233 101.936C45.6172 102.142 45.5013 102.421 45.501 102.712V216.325C45.5013 216.616 45.6172 216.896 45.8233 217.102C46.0293 217.308 46.3087 217.424 46.6001 217.424H189.099C189.391 217.424 189.67 217.308 189.876 217.102C190.082 216.896 190.198 216.616 190.198 216.325V120.949C190.198 120.658 190.082 120.379 189.876 120.173C189.67 119.967 189.391 119.851 189.099 119.85H107.314C106.484 119.851 105.683 119.542 105.069 118.983L86.6827 102.283C86.2084 101.852 85.59 101.613 84.9487 101.613H46.6001Z" fill="#3F3D56"/>
<path d="M216.66 71.8977L140.359 39.1067C138.313 38.2303 136.003 38.2008 133.936 39.0248C131.868 39.8488 130.212 41.459 129.33 43.5021L89.3496 136.466L178.998 174.993C179.733 175.312 180.545 175.412 181.335 175.282L221.057 82.9224C221.933 80.8772 221.963 78.568 221.138 76.5012C220.314 74.4344 218.703 72.7789 216.66 71.8977Z" fill="#E6E6E6"/>
<path d="M184.848 65.6329L143.034 47.6626C141.171 46.8642 139.067 46.8369 137.185 47.5868C135.302 48.3366 133.793 49.8024 132.99 51.6625L95.4004 139.066L175.021 173.284L202.396 109.632C205.895 101.47 206.013 92.2538 202.723 84.0053C199.433 75.7568 193.005 69.1495 184.848 65.6329Z" fill="white"/>
<path d="M164.794 159.692L112.303 137.133C112.078 137.036 111.836 136.984 111.591 136.981C111.347 136.977 111.104 137.022 110.876 137.112C110.649 137.203 110.441 137.337 110.266 137.508C110.09 137.679 109.95 137.882 109.854 138.107C109.757 138.332 109.705 138.573 109.702 138.818C109.699 139.063 109.744 139.306 109.835 139.533C109.926 139.76 110.061 139.967 110.232 140.142C110.403 140.318 110.607 140.457 110.832 140.554L163.323 163.113C163.548 163.21 163.79 163.261 164.035 163.265C164.279 163.268 164.522 163.224 164.75 163.133C164.977 163.043 165.185 162.908 165.36 162.738C165.536 162.567 165.676 162.364 165.773 162.139C165.869 161.914 165.921 161.672 165.924 161.428C165.927 161.183 165.882 160.94 165.791 160.713C165.7 160.485 165.565 160.278 165.394 160.103C165.223 159.928 165.019 159.788 164.794 159.692Z" fill="#E4E4E4"/>
<path d="M167.704 152.928L115.212 130.369C114.758 130.174 114.245 130.167 113.786 130.35C113.327 130.533 112.959 130.891 112.764 131.345C112.569 131.799 112.562 132.312 112.745 132.771C112.928 133.23 113.285 133.598 113.74 133.793L166.231 156.352C166.456 156.449 166.698 156.5 166.943 156.503C167.187 156.506 167.43 156.462 167.658 156.371C167.885 156.28 168.093 156.146 168.268 155.975C168.443 155.804 168.583 155.601 168.68 155.376C168.777 155.151 168.828 154.909 168.831 154.665C168.835 154.42 168.79 154.177 168.699 153.95C168.608 153.722 168.474 153.515 168.303 153.34C168.132 153.165 167.929 153.025 167.704 152.928Z" fill="#E4E4E4"/>
<path d="M140.874 133.387L118.12 123.608C117.895 123.512 117.653 123.46 117.409 123.457C117.164 123.453 116.921 123.498 116.694 123.588C116.467 123.679 116.259 123.813 116.084 123.984C115.909 124.154 115.769 124.358 115.672 124.583C115.575 124.807 115.524 125.049 115.521 125.294C115.517 125.538 115.562 125.781 115.653 126.008C115.744 126.235 115.879 126.442 116.049 126.617C116.22 126.793 116.424 126.932 116.649 127.029L139.403 136.808C139.628 136.905 139.869 136.956 140.114 136.96C140.359 136.963 140.602 136.918 140.829 136.828C141.056 136.737 141.264 136.603 141.439 136.432C141.614 136.262 141.754 136.058 141.851 135.833C141.948 135.609 141.999 135.367 142.002 135.123C142.005 134.878 141.96 134.635 141.87 134.408C141.779 134.181 141.644 133.974 141.473 133.799C141.303 133.623 141.099 133.484 140.874 133.387Z" fill="#E4E4E4"/>
<path d="M176.703 132.004L124.211 109.445C123.757 109.25 123.244 109.244 122.785 109.427C122.326 109.61 121.959 109.968 121.764 110.422C121.569 110.875 121.562 111.388 121.744 111.847C121.927 112.306 122.285 112.673 122.738 112.869L175.23 135.428C175.455 135.525 175.697 135.576 175.942 135.58C176.187 135.584 176.43 135.539 176.658 135.448C176.886 135.358 177.093 135.223 177.269 135.052C177.444 134.881 177.585 134.678 177.681 134.453C177.778 134.228 177.83 133.986 177.833 133.741C177.836 133.496 177.791 133.253 177.7 133.025C177.609 132.798 177.474 132.591 177.303 132.415C177.132 132.24 176.928 132.1 176.703 132.004Z" fill="#E4E4E4"/>
<path d="M179.611 125.243L127.119 102.684C126.894 102.587 126.653 102.535 126.408 102.532C126.163 102.528 125.92 102.573 125.693 102.663C125.465 102.754 125.258 102.888 125.082 103.059C124.907 103.229 124.767 103.433 124.67 103.658C124.573 103.883 124.522 104.124 124.519 104.369C124.516 104.614 124.561 104.857 124.652 105.084C124.742 105.311 124.877 105.518 125.048 105.693C125.219 105.869 125.423 106.008 125.648 106.105L178.14 128.663C178.365 128.76 178.606 128.812 178.851 128.816C179.096 128.819 179.339 128.775 179.566 128.684C179.794 128.594 180.001 128.459 180.177 128.289C180.352 128.118 180.492 127.915 180.589 127.69C180.686 127.465 180.737 127.223 180.74 126.978C180.743 126.734 180.698 126.491 180.607 126.264C180.516 126.036 180.382 125.829 180.211 125.654C180.04 125.479 179.836 125.339 179.611 125.243Z" fill="#E4E4E4"/>
<path d="M152.782 105.699L130.027 95.9199C129.573 95.725 129.06 95.7183 128.601 95.9014C128.142 96.0844 127.775 96.4423 127.579 96.8962C127.384 97.3501 127.377 97.863 127.56 98.322C127.743 98.781 128.101 99.1486 128.555 99.3439L151.309 109.123C151.534 109.22 151.776 109.271 152.021 109.274C152.266 109.278 152.509 109.233 152.736 109.142C152.964 109.052 153.171 108.917 153.347 108.746C153.522 108.576 153.662 108.372 153.759 108.147C153.856 107.922 153.907 107.681 153.91 107.436C153.913 107.191 153.868 106.948 153.778 106.721C153.687 106.493 153.552 106.286 153.381 106.111C153.211 105.935 153.007 105.795 152.782 105.699Z" fill="#E4E4E4"/>
<path d="M188.611 104.315L136.119 81.7564C135.665 81.562 135.153 81.5558 134.694 81.7389C134.235 81.9221 133.868 82.2798 133.673 82.7334C133.478 83.1871 133.471 83.6995 133.654 84.1583C133.836 84.6171 134.193 84.9847 134.647 85.1804L187.139 107.739C187.364 107.836 187.605 107.888 187.85 107.891C188.095 107.894 188.338 107.849 188.566 107.759C188.793 107.668 189 107.534 189.176 107.363C189.351 107.192 189.491 106.988 189.588 106.764C189.685 106.539 189.736 106.297 189.74 106.052C189.743 105.807 189.698 105.564 189.607 105.337C189.516 105.11 189.382 104.903 189.211 104.727C189.04 104.552 188.836 104.412 188.611 104.315Z" fill="#112A5C"/>
<path d="M191.518 97.5547L139.026 74.9958C138.572 74.8012 138.059 74.7948 137.601 74.978C137.142 75.1611 136.774 75.5188 136.579 75.9726C136.384 76.4263 136.377 76.9389 136.56 77.3977C136.743 77.8566 137.1 78.2242 137.554 78.4197L190.045 100.979C190.27 101.076 190.513 101.128 190.758 101.132C191.003 101.136 191.247 101.091 191.475 101.001C191.703 100.91 191.91 100.776 192.086 100.605C192.262 100.434 192.402 100.23 192.499 100.005C192.596 99.7796 192.648 99.5375 192.651 99.2923C192.654 99.0472 192.609 98.8038 192.517 98.5762C192.426 98.3486 192.291 98.1412 192.119 97.9659C191.948 97.7906 191.744 97.6509 191.518 97.5547Z" fill="#112A5C"/>
<path d="M164.69 78.0105L141.936 68.2316C141.482 68.0366 140.968 68.0299 140.509 68.213C140.05 68.3961 139.683 68.7539 139.488 69.2079C139.292 69.6618 139.285 70.1746 139.468 70.6336C139.651 71.0926 140.009 71.4602 140.463 71.6556L163.217 81.4345C163.442 81.5312 163.684 81.5828 163.929 81.5861C164.174 81.5894 164.417 81.5445 164.644 81.4539C164.872 81.3633 165.079 81.2288 165.255 81.058C165.43 80.8873 165.57 80.6837 165.667 80.4588C165.764 80.2339 165.815 79.9922 165.818 79.7474C165.822 79.5027 165.777 79.2597 165.686 79.0323C165.595 78.805 165.46 78.5977 165.29 78.4224C165.119 78.247 164.915 78.1071 164.69 78.0105Z" fill="#112A5C"/>
<path d="M108.04 105.663L63.3368 115.717C62.139 115.988 61.0977 116.722 60.4411 117.76C59.7846 118.797 59.5664 120.053 59.8346 121.25L72.0928 175.717L124.617 163.904C125.049 163.809 125.444 163.591 125.755 163.277L113.576 109.164C113.305 107.967 112.57 106.926 111.532 106.269C110.495 105.613 109.239 105.395 108.04 105.663Z" fill="#E6E6E6"/>
<path d="M91.8015 113.163L67.3027 118.673C66.212 118.919 65.2636 119.588 64.6656 120.532C64.0675 121.477 63.8685 122.62 64.1124 123.711L75.6375 174.92L122.287 164.428L113.893 127.135C112.812 122.357 109.879 118.202 105.737 115.583C101.596 112.963 96.5841 112.093 91.8015 113.163Z" fill="white"/>
<path d="M113.316 161.668L82.5616 168.584C82.4298 168.614 82.305 168.669 82.1945 168.747C82.084 168.824 81.9899 168.923 81.9175 169.037C81.8452 169.151 81.7961 169.278 81.773 169.411C81.7498 169.544 81.7532 169.681 81.7829 169.812C81.8125 169.944 81.8679 170.069 81.9458 170.179C82.0236 170.289 82.1225 170.383 82.2368 170.455C82.351 170.527 82.4783 170.576 82.6114 170.599C82.7446 170.622 82.8809 170.618 83.0127 170.588L113.767 163.672C113.899 163.642 114.024 163.587 114.135 163.51C114.245 163.432 114.339 163.334 114.412 163.219C114.484 163.105 114.533 162.978 114.557 162.845C114.58 162.712 114.576 162.576 114.547 162.444C114.517 162.312 114.462 162.187 114.384 162.077C114.306 161.966 114.207 161.873 114.092 161.8C113.978 161.728 113.851 161.68 113.717 161.657C113.584 161.634 113.448 161.638 113.316 161.668Z" fill="#E4E4E4"/>
<path d="M112.424 157.705L81.6699 164.621C81.4038 164.681 81.1724 164.844 81.0265 165.075C80.8807 165.305 80.8324 165.584 80.8923 165.85C80.9521 166.116 81.1153 166.347 81.3458 166.493C81.5763 166.639 81.8553 166.687 82.1214 166.627L112.876 159.711C113.142 159.651 113.373 159.488 113.519 159.257C113.665 159.027 113.713 158.748 113.653 158.482C113.594 158.216 113.43 157.985 113.2 157.839C112.969 157.693 112.69 157.645 112.424 157.705Z" fill="#E4E4E4"/>
<path d="M94.11 157.662L80.7785 160.66C80.6468 160.69 80.5223 160.745 80.4121 160.823C80.3018 160.901 80.2079 160.999 80.1357 161.113C80.0636 161.227 80.0146 161.354 79.9916 161.487C79.9686 161.62 79.972 161.756 80.0016 161.888C80.0312 162.019 80.0865 162.144 80.1642 162.254C80.242 162.364 80.3406 162.458 80.4547 162.53C80.5687 162.602 80.6958 162.651 80.8287 162.674C80.9617 162.697 81.0979 162.694 81.2295 162.664L94.561 159.666C94.693 159.637 94.8178 159.582 94.9285 159.504C95.0391 159.426 95.1333 159.328 95.2058 159.214C95.2782 159.1 95.3274 158.972 95.3505 158.839C95.3737 158.706 95.3703 158.57 95.3406 158.438C95.311 158.306 95.2556 158.181 95.1776 158.071C95.0997 157.961 95.0007 157.867 94.8864 157.795C94.7721 157.723 94.6447 157.674 94.5114 157.651C94.3782 157.628 94.2418 157.632 94.11 157.662Z" fill="#E4E4E4"/>
<path d="M109.665 145.445L78.9102 152.362C78.7784 152.392 78.6537 152.447 78.5434 152.525C78.433 152.602 78.339 152.701 78.2668 152.815C78.1209 153.046 78.0726 153.325 78.1325 153.591C78.1924 153.857 78.3555 154.088 78.586 154.234C78.8165 154.38 79.0955 154.428 79.3616 154.368L110.116 147.451C110.382 147.392 110.614 147.229 110.759 146.998C110.905 146.768 110.954 146.489 110.894 146.223C110.834 145.957 110.671 145.725 110.44 145.58C110.21 145.434 109.931 145.386 109.665 145.445Z" fill="#E4E4E4"/>
<path d="M108.773 141.484L78.0187 148.401C77.8868 148.43 77.7621 148.485 77.6515 148.563C77.541 148.641 77.4469 148.739 77.3746 148.853C77.3022 148.968 77.2531 149.095 77.23 149.228C77.2069 149.361 77.2102 149.497 77.2399 149.629C77.2696 149.761 77.3249 149.885 77.4028 149.996C77.4807 150.106 77.5796 150.2 77.6938 150.272C77.808 150.344 77.9353 150.393 78.0685 150.416C78.2016 150.439 78.338 150.435 78.4697 150.405L109.224 143.488C109.356 143.459 109.48 143.404 109.591 143.326C109.701 143.248 109.795 143.15 109.868 143.036C109.94 142.922 109.989 142.795 110.012 142.662C110.035 142.529 110.032 142.392 110.002 142.261C109.972 142.129 109.917 142.005 109.839 141.894C109.761 141.784 109.663 141.69 109.548 141.618C109.434 141.546 109.307 141.497 109.174 141.474C109.041 141.451 108.905 141.455 108.773 141.484Z" fill="#E4E4E4"/>
<path d="M90.4585 141.44L77.1269 144.438C76.8608 144.498 76.6294 144.661 76.4836 144.891C76.3377 145.122 76.2894 145.401 76.3493 145.667C76.4092 145.933 76.5723 146.164 76.8028 146.31C77.0333 146.456 77.3123 146.504 77.5785 146.444L90.91 143.446C91.1761 143.386 91.4075 143.223 91.5534 142.992C91.6992 142.762 91.7475 142.483 91.6876 142.217C91.6278 141.951 91.4646 141.72 91.2341 141.574C91.0036 141.428 90.7246 141.38 90.4585 141.44Z" fill="#E4E4E4"/>
<path d="M106.014 129.223L75.2598 136.14C75.128 136.169 75.0034 136.225 74.893 136.302C74.7826 136.38 74.6886 136.479 74.6164 136.593C74.4705 136.823 74.4222 137.102 74.4821 137.368C74.542 137.634 74.7051 137.866 74.9356 138.011C75.1661 138.157 75.4451 138.206 75.7113 138.146L106.466 131.229C106.597 131.199 106.722 131.144 106.832 131.066C106.943 130.989 107.037 130.89 107.109 130.776C107.181 130.662 107.23 130.534 107.253 130.401C107.276 130.268 107.273 130.132 107.243 130C107.214 129.869 107.158 129.744 107.081 129.634C107.003 129.523 106.904 129.429 106.79 129.357C106.676 129.285 106.548 129.236 106.415 129.213C106.282 129.19 106.146 129.193 106.014 129.223Z" fill="#E6E6E6"/>
<path d="M105.123 125.262L74.3682 132.179C74.2364 132.208 74.1118 132.264 74.0014 132.341C73.891 132.419 73.797 132.518 73.7248 132.632C73.5789 132.862 73.5306 133.141 73.5905 133.407C73.6504 133.673 73.8135 133.905 74.044 134.05C74.2745 134.196 74.5535 134.245 74.8197 134.185L105.574 127.268C105.84 127.208 106.072 127.045 106.217 126.815C106.363 126.584 106.412 126.305 106.352 126.039C106.292 125.773 106.129 125.542 105.898 125.396C105.668 125.25 105.389 125.202 105.123 125.262Z" fill="#E6E6E6"/>
<path d="M86.8071 125.217L73.4756 128.216C73.2095 128.275 72.978 128.438 72.8322 128.669C72.6864 128.899 72.6381 129.178 72.6979 129.444C72.7578 129.71 72.921 129.942 73.1515 130.087C73.382 130.233 73.661 130.281 73.9271 130.222L87.2586 127.223C87.3904 127.194 87.515 127.138 87.6254 127.061C87.7358 126.983 87.8298 126.884 87.902 126.77C87.9742 126.656 88.0232 126.529 88.0463 126.396C88.0693 126.263 88.0659 126.126 88.0363 125.995C88.0066 125.863 87.9513 125.738 87.8735 125.628C87.7957 125.518 87.6969 125.424 87.5828 125.352C87.4686 125.279 87.3414 125.23 87.2083 125.207C87.0752 125.184 86.9389 125.188 86.8071 125.217Z" fill="#E6E6E6"/>
<path d="M45.6558 131.454C45.5115 131.454 45.3686 131.483 45.2353 131.538C45.1019 131.593 44.9807 131.674 44.8787 131.776C44.7766 131.878 44.6956 131.999 44.6404 132.132C44.5851 132.266 44.5567 132.408 44.5566 132.553C44.5566 132.594 44.5905 217.208 44.5905 217.208C44.6206 217.477 44.7486 217.724 44.9501 217.904C45.1517 218.085 45.4125 218.184 45.6827 218.184H198.757C199.028 218.184 199.289 218.085 199.49 217.905C199.692 217.725 199.82 217.477 199.85 217.208L209.378 132.676C209.395 132.522 209.38 132.367 209.333 132.219C209.286 132.072 209.208 131.936 209.105 131.821C209.003 131.705 208.877 131.612 208.735 131.549C208.594 131.486 208.441 131.453 208.286 131.454L45.6558 131.454Z" fill="#3F3D56"/>
<path d="M56.4576 136.139C54.9046 136.143 53.4158 136.758 52.3128 137.851C51.2099 138.944 50.5815 140.427 50.5635 141.979L50.7546 207.556C50.7478 208.334 50.8952 209.106 51.1884 209.826C51.4816 210.547 51.9147 211.203 52.4627 211.756C53.0107 212.308 53.6628 212.747 54.3813 213.046C55.0998 213.345 55.8705 213.499 56.649 213.499H153.82C164.964 213.507 175.721 209.407 184.03 201.983C192.34 194.559 197.621 184.334 198.861 173.262L202.307 142.691C202.4 141.866 202.318 141.032 202.066 140.242C201.814 139.451 201.398 138.723 200.845 138.105C200.292 137.486 199.615 136.991 198.857 136.652C198.1 136.314 197.279 136.139 196.45 136.139H56.4576ZM205.366 136.139L205.349 135.759H205.366V136.139Z" fill="#112A5C"/>
<path d="M98.9023 185.268H61.2596C60.8706 185.268 60.4976 185.114 60.2225 184.839C59.9475 184.564 59.793 184.191 59.793 183.802C59.793 183.413 59.9475 183.04 60.2225 182.766C60.4976 182.491 60.8706 182.336 61.2596 182.336H98.9023C100.794 182.31 100.813 185.295 98.9023 185.268Z" fill="#E4E4E4"/>
<path d="M149.611 192.937H61.2596C60.8706 192.937 60.4976 192.783 60.2225 192.508C59.9475 192.233 59.793 191.86 59.793 191.471C59.793 191.082 59.9475 190.709 60.2225 190.435C60.4976 190.16 60.8706 190.005 61.2596 190.005H149.611C151.503 189.979 151.522 192.964 149.611 192.937Z" fill="#E4E4E4"/>
</g>
<defs>
<clipPath id="clip0_12467_86924">
<rect width="329" height="219" fill="white"/>
</clipPath>
</defs>
</svg>
