<svg width="88" height="70" viewBox="0 0 88 70" fill="none" xmlns="http://www.w3.org/2000/svg">
<g clip-path="url(#clip0_7294_63910)">
<path d="M74.0013 67.0221C74.347 67.0437 74.538 66.614 74.2763 66.3638L74.2503 66.2603C74.2537 66.2521 74.2571 66.2438 74.2606 66.2356C74.4668 65.7435 75.0346 65.5106 75.5277 65.7144C77.0864 66.3589 75.4407 67.8398 75.5644 68.8419C75.6078 69.1878 76.9626 69.2068 76.886 69.5462C77.6064 67.9711 77.9852 66.2512 77.9846 64.5217C77.9845 64.0872 77.9606 63.6526 77.9118 63.2192C77.8716 62.8647 77.8164 62.5123 77.7449 62.1632C77.3584 60.276 76.5222 58.4787 75.3165 56.9777C74.737 56.6612 75.0904 56.166 74.7983 55.5727C74.6934 55.3587 73.7577 55.3539 73.7188 55.1194C73.7606 55.1248 74.3655 54.4966 74.1657 54.1861C74.0342 53.9817 74.0751 53.7214 74.244 53.5468C74.2606 53.5296 74.2762 53.5116 74.2905 53.4921C74.7894 52.8153 75.4771 52.9332 75.8364 53.8526C76.6034 54.2394 76.611 54.8813 76.1407 55.4987C75.8415 55.8916 75.8005 56.4231 75.538 56.8436C75.565 56.8782 75.5932 56.9117 75.6202 56.9463C76.116 57.5817 76.5448 58.2647 76.9064 58.9823C76.804 58.1847 76.9544 57.2237 77.2112 56.6042C77.5056 55.8932 78.0596 55.2951 78.5448 54.6801C79.1243 53.9457 80.3038 54.279 80.4063 55.2089C80.4073 55.2178 80.4082 55.2267 80.4092 55.2357C80.3374 55.2762 80.2671 55.3192 80.1984 55.3647C79.807 55.6238 79.9427 56.2307 80.4066 56.302L80.4171 56.3036C80.3913 56.562 79.4745 57.3758 79.4097 57.6277C80.0298 60.0223 79.5658 60.3385 77.6581 60.3786L77.558 60.5212C77.7388 61.0409 77.8843 61.5732 77.9935 62.1123C78.0964 62.6127 78.1679 63.1186 78.2081 63.6266C78.258 64.2676 78.2539 64.9118 78.2001 65.5517L78.2033 65.529C78.3404 64.8242 78.7228 64.1658 79.2782 63.7095C80.1057 63.0293 81.2749 62.7785 82.1677 62.2317C82.5974 61.9685 83.1483 62.3082 83.0734 62.8066L83.0698 62.8304C82.9369 62.8845 82.8072 62.9473 82.6818 63.0176C82.61 63.0581 82.5396 63.1012 82.4709 63.1467C82.0794 63.4059 82.2152 64.0128 82.6793 64.0839L82.6898 64.0855C82.6973 64.0866 82.7038 64.0877 82.7114 64.0888C82.4835 64.6304 80.3122 65.3944 79.9146 65.828C79.528 67.9196 79.7179 67.8573 77.938 67.2489H77.9369C77.7427 68.0964 77.4587 68.9245 77.0936 69.7137L74.0778 69.7147C74.067 69.6812 74.0572 69.6466 74.0475 69.6131C74.3264 69.6303 74.6074 69.614 74.882 69.5631C74.6581 69.2886 74.4343 69.012 74.2104 68.7375C74.205 68.7321 74.2007 68.7267 74.1964 68.7213L74.1929 68.7171L73.8824 67.695C73.907 67.4683 73.947 67.2434 74.0013 67.0221Z" fill="#F2F2F2"/>
<path d="M42.1302 69.6901L15.4441 69.6994C14.1035 69.6998 12.9026 69.007 12.2319 67.8462C11.8965 67.2658 11.7287 66.629 11.7285 65.9921C11.7283 65.3553 11.8957 64.7183 12.2306 64.1377L25.5651 39.8629C26.2351 38.7016 27.4356 38.008 28.7762 38.0076C30.1168 38.0071 31.3177 38.6998 31.9886 39.8607L45.3416 64.1293C45.6761 64.7082 45.8434 65.3442 45.8435 65.9807C45.8435 66.6172 45.6762 67.2541 45.3412 67.8348C44.6712 68.996 43.4708 69.6897 42.1302 69.6901ZM12.064 65.9916C12.0639 66.5713 15.0086 65.3222 15.3137 65.8502C15.9239 66.9063 14.2243 69.3651 15.444 69.3646C15.444 69.3646 44.4418 68.724 45.0513 67.6675C45.356 67.1393 45.5082 66.5598 45.508 65.9804C45.5078 65.401 45.3552 64.8217 45.05 64.2937L31.697 40.0251C31.0885 38.9721 29.996 38.3419 28.7763 38.3423C27.5572 38.3427 12.064 65.4119 12.064 65.9916Z" fill="#3F3D56"/>
<path d="M42.4272 69.3555C42.0927 70.025 57.7592 69.8192 57.9445 69.8192C57.9445 69.8192 62.3479 69.7219 62.4405 69.5615C62.4867 69.4812 62.5098 69.3932 62.5098 69.3053C62.5098 69.2173 62.4866 69.1293 62.4403 69.0491L60.4125 65.3638C60.3201 65.2039 60.1542 65.1082 59.969 65.1083C59.9613 65.1083 59.95 65.1151 59.9353 65.1282C57.2303 67.5455 53.8966 69.1435 50.2693 69.1974C46.4123 69.2548 42.4484 69.3129 42.4272 69.3555Z" fill="#3F3D56"/>
<path d="M1.25268e-08 69.8009C3.85043e-05 69.9113 0.0887721 70 0.199232 70L87.6074 69.9697C87.7178 69.9697 87.8065 69.881 87.8065 69.7705C87.8064 69.66 87.7177 69.5714 87.6073 69.5714L0.199095 69.6016C0.0886349 69.6017 -3.84793e-05 69.6904 1.25268e-08 69.8009Z" fill="#CCCCCC"/>
<path d="M67.5912 68.8343L66.0776 68.8347L65.3555 62.9963L67.5895 62.9957L67.5912 68.8343Z" fill="#A0616A"/>
<path d="M62.4058 68.8018C62.3587 68.8812 62.334 69.1374 62.334 69.2297C62.3341 69.5134 62.5642 69.7434 62.8479 69.7433L67.5356 69.7416C67.7292 69.7416 67.8861 69.5846 67.886 69.391L67.8859 69.1959C67.8859 69.1959 68.1176 68.6092 67.6399 67.8864C67.6399 67.8864 67.0467 68.4527 66.1598 67.5664L65.8981 67.0928L64.0059 68.4777L62.9569 68.6071C62.7273 68.6355 62.5238 68.6029 62.4058 68.8018Z" fill="#2F2E41"/>
<path d="M61.7866 63.8408L60.3527 64.3259L57.7988 59.0264L59.915 58.3103L61.7866 63.8408Z" fill="#A0616A"/>
<path d="M56.8632 65.4709C56.844 65.5612 56.9025 65.8118 56.9321 65.8993C57.0231 66.168 57.3147 66.3121 57.5835 66.2212L62.0237 64.7183C62.2071 64.6562 62.3054 64.4573 62.2434 64.2739L62.1808 64.0891C62.1808 64.0891 62.2124 63.4591 61.5284 62.9274C61.5284 62.9274 61.1478 63.6538 60.0237 63.0982L59.6241 62.7334L58.2751 64.6513L57.3228 65.11C57.1145 65.2104 56.9112 65.2447 56.8632 65.4709Z" fill="#2F2E41"/>
<path d="M59.4489 29.9717L56.5129 39.6952L53.0469 48.4414L58.5342 60.9317L60.5688 60.0266L58.1343 48.5527L63.2399 40.7668L65.6224 65.0722L67.6573 64.9585L70.4169 35.6205L70.8104 29.2329L59.4489 29.9717Z" fill="#2F2E41"/>
<path d="M68.3165 8.43213L64.0208 9.22498L63.6823 11.147L61.0825 12.3915L59.7308 26.5234C59.7308 26.5234 57.4708 29.4636 59.2799 30.3674L70.8108 29.2328C70.8108 29.2328 71.3754 27.1425 70.81 26.9442C70.2447 26.7459 70.243 21.7529 70.243 21.7529L72.8396 11.483L68.9954 10.1277L68.3165 8.43213Z" fill="#E6E6E6"/>
<path d="M65.7833 8.39504C67.6991 8.39504 69.2522 6.84197 69.2522 4.92616C69.2522 3.01035 67.6991 1.45728 65.7833 1.45728C63.8675 1.45728 62.3145 3.01035 62.3145 4.92616C62.3145 6.84197 63.8675 8.39504 65.7833 8.39504Z" fill="#A0616A"/>
<path d="M68.0797 5.44111C67.8029 5.59265 68.0656 6.31616 67.8926 6.37871C67.6926 6.45101 66.9635 5.62107 66.9544 4.69147C66.9517 4.41012 67.0164 4.27503 66.9542 3.94144C66.8727 3.5051 66.6227 2.99044 66.3913 3.0041C66.2542 3.0122 66.1202 3.20614 66.1102 3.37921C66.0962 3.62178 66.3318 3.71725 66.2979 3.84792C66.2332 4.09679 65.2438 4.26862 64.8916 3.8484C64.6154 3.51897 64.8272 2.94055 64.7037 2.91093C64.6127 2.8891 64.515 3.20756 64.1414 3.5674C64.0007 3.70298 63.7914 3.90461 63.6728 3.84883C63.5014 3.76822 63.6259 3.20012 63.5788 3.19258C63.5398 3.18635 63.5153 3.58565 63.2978 3.94271C63.0184 4.40144 62.4419 4.75501 62.173 4.59937C62.0082 4.50402 61.9952 4.23855 61.9853 4.03692C61.9644 3.61214 61.3471 2.63507 61.5068 2.18067C61.8319 1.25581 62.3888 1.90775 62.6407 1.5991C62.9817 1.18126 63.2876 1.40591 63.8593 0.942403C64.4177 0.489599 64.4225 0.0344923 64.7965 0.00454237C65.1332 -0.0224287 65.253 0.33679 65.6404 0.285511C65.9685 0.24207 66.0399 -0.0365418 66.2965 0.0040219C66.5315 0.0411581 66.547 0.2866 66.8592 0.378842C67.0585 0.437731 67.1023 0.352495 67.328 0.378679C67.7975 0.433164 68.1129 0.860802 68.1719 0.940909C68.3997 1.24972 68.3113 1.37995 68.5472 1.69081C68.7506 1.95888 69.2014 1.84504 69.3709 1.97893C69.9247 2.41641 70.1627 3.22321 70.1675 4.14277C70.1709 4.78594 70.087 5.1109 69.8999 5.92271C69.7578 6.53914 69.0996 7.33575 68.7368 7.69097C68.6394 7.78632 68.3663 8.05363 68.1744 7.97243C67.9924 7.89548 67.9869 7.54941 67.9867 7.50372C67.9859 7.34657 68.0277 7.15212 68.3614 6.65981C68.7119 6.14267 68.8512 6.08365 68.8299 5.90962C68.7924 5.60199 68.3004 5.32032 68.0797 5.44111Z" fill="#2F2E41"/>
<path d="M55.9793 37.7821C55.8713 38.6863 56.2503 39.475 56.8256 39.5437C57.401 39.6124 57.955 38.9351 58.0629 38.0309C58.1102 37.6352 58.0641 37.2615 57.9492 36.9607L58.3586 33.1238L56.5539 32.97L56.3419 36.7688C56.1593 37.0341 56.0266 37.3863 55.9793 37.7821Z" fill="#A0616A"/>
<path d="M61.1665 12.3003C61.1665 12.3003 60.2316 12.3136 59.6125 13.5226C59.2836 14.1651 57.5236 26.1793 57.5236 26.1793L55.9023 36.0213L58.6641 36.0352L60.8161 26.7146L62.6264 21.3089L61.1665 12.3003Z" fill="#E6E6E6"/>
<path d="M68.9387 36.3379C68.6742 37.2092 68.9093 38.052 69.4638 38.2203C70.0183 38.3886 70.6822 37.8187 70.9467 36.9473C71.0624 36.5659 71.0824 36.19 71.0219 35.8737L72.0961 32.1675L70.3462 31.7004L69.4729 35.4036C69.2468 35.6328 69.0544 35.9565 68.9387 36.3379Z" fill="#A0616A"/>
<path d="M70.861 11.6533C70.861 11.6533 72.2172 10.6354 73.3483 12.2177C74.4794 13.8001 74.9361 26.8009 74.9361 26.8009L71.7734 34.8287L69.399 34.0381L71.6567 24.2018L67.6973 16.7418L70.861 11.6533Z" fill="#E6E6E6"/>
<path d="M36.5646 64.3368C43.3119 64.3368 48.7816 58.867 48.7816 52.1198C48.7816 45.3726 43.3119 39.9028 36.5646 39.9028C29.8174 39.9028 24.3477 45.3726 24.3477 52.1198C24.3477 58.867 29.8174 64.3368 36.5646 64.3368Z" fill="#DC3545"/>
<path d="M36.567 59.609C37.1865 59.609 37.6888 59.1068 37.6888 58.4873C37.6888 57.8678 37.1865 57.3656 36.567 57.3656C35.9475 57.3656 35.4453 57.8678 35.4453 58.4873C35.4453 59.1068 35.9475 59.609 36.567 59.609Z" fill="white"/>
<path d="M36.5618 44.6307C36.4587 45.3154 36.6434 45.4586 36.6444 48.4104C36.6454 51.3622 37.2579 55.3198 36.5655 55.32C35.8731 55.3203 35.6198 47.1526 33.2155 46.4298C30.3888 45.5798 36.8953 42.4142 36.5618 44.6307Z" fill="white"/>
<path d="M20.1672 58.3572L19.0634 60.6893C20.3978 59.7325 22.482 58.9076 24.1406 58.4659C22.5952 57.7194 20.7042 56.5159 19.5745 55.3243L20.2094 57.7885C12.7664 56.2725 7.42151 50.5626 7.41924 44.0219L7.15039 43.9294C7.15275 50.7614 12.4237 56.8093 20.1672 58.3572Z" fill="#3F3D56"/>
</g>
<defs>
<clipPath id="clip0_7294_63910">
<rect width="87.8065" height="70" fill="white"/>
</clipPath>
</defs>
</svg>
