<svg width="263" height="219" viewBox="0 0 263 219" fill="none" xmlns="http://www.w3.org/2000/svg">
<g clip-path="url(#clip0_9169_68146)">
<path d="M179.489 -2.67882e-05L0.5 106.199L5.88297 115.295L184.872 9.09598L179.489 -2.67882e-05Z" fill="#C2C2C2"/>
<path d="M218.392 8.90352L39.4028 115.103L44.7858 124.199L223.775 17.9995L218.392 8.90352Z" fill="#C2C2C2"/>
<path d="M252.849 18.6418L73.8596 124.841L79.2426 133.937L258.232 27.7378L252.849 18.6418Z" fill="#C2C2C2"/>
<path d="M117.085 124.491C148.035 124.491 173.124 99.369 173.124 68.3792C173.124 37.3895 148.035 12.2673 117.085 12.2673C86.1353 12.2673 61.0456 37.3895 61.0456 68.3792C61.0456 99.369 86.1353 124.491 117.085 124.491Z" fill="#C2C2C2"/>
<path d="M60.6288 68.3793C60.6288 37.2089 85.9549 11.85 117.085 11.85C148.215 11.85 173.541 37.2089 173.541 68.3793C173.541 99.5496 148.215 124.909 117.085 124.909C85.9549 124.909 60.6288 99.5496 60.6288 68.3793ZM61.4625 68.3793C61.4625 99.0893 86.4146 124.074 117.085 124.074C147.755 124.074 172.708 99.0893 172.708 68.3793C172.708 37.6692 147.755 12.6847 117.085 12.6847C86.4146 12.6847 61.4625 37.6692 61.4625 68.3793Z" fill="#3F3D56"/>
<path d="M107.095 68.6232C107.095 66.6449 107.681 64.711 108.779 63.0661C109.877 61.4211 111.437 60.1391 113.262 59.382C115.087 58.6249 117.096 58.4269 119.034 58.8128C120.972 59.1988 122.752 60.1514 124.149 61.5503C125.546 62.9492 126.497 64.7315 126.883 66.6718C127.268 68.6121 127.07 70.6233 126.314 72.451C125.558 74.2787 124.278 75.8409 122.635 76.94C120.992 78.0391 119.061 78.6258 117.085 78.6258C114.436 78.6257 111.895 77.5719 110.021 75.6961C108.148 73.8202 107.095 71.276 107.095 68.6232ZM117.085 59.1086C114.566 59.1114 112.15 60.1147 110.369 61.8985C108.588 63.6822 107.585 66.1006 107.583 68.6232C107.583 70.505 108.14 72.3446 109.184 73.9093C110.228 75.4739 111.712 76.6934 113.449 77.4136C115.185 78.1337 117.096 78.3221 118.939 77.955C120.782 77.5879 122.475 76.6817 123.804 75.3511C125.133 74.0204 126.038 72.3251 126.405 70.4794C126.771 68.6337 126.583 66.7207 125.864 64.9821C125.145 63.2435 123.927 61.7575 122.364 60.7121C120.802 59.6666 118.964 59.1086 117.085 59.1086Z" fill="#3F3D56"/>
<path d="M98.0804 68.6231C98.0804 64.8595 99.195 61.1804 101.283 58.051C103.371 54.9217 106.34 52.4827 109.812 51.0424C113.285 49.6021 117.106 49.2253 120.793 49.9595C124.479 50.6938 127.865 52.5061 130.523 55.1674C133.181 57.8287 134.991 61.2194 135.724 64.9107C136.458 68.602 136.081 72.4282 134.643 75.9053C133.205 79.3825 130.769 82.3545 127.643 84.4454C124.518 86.5364 120.844 87.6524 117.085 87.6524C114.589 87.6524 112.118 87.1602 109.812 86.2039C107.506 85.2476 105.411 83.8459 103.647 82.0789C101.882 80.3118 100.482 78.2141 99.527 75.9053C98.5719 73.5966 98.0803 71.1221 98.0804 68.6231ZM117.085 50.0818C113.423 50.0818 109.842 51.1692 106.797 53.2066C103.752 55.2439 101.379 58.1397 99.9772 61.5277C98.5757 64.9157 98.209 68.6437 98.9234 72.2404C99.6379 75.837 101.402 79.1408 103.991 81.7339C106.581 84.3269 109.88 86.0928 113.472 86.8082C117.064 87.5236 120.788 87.1565 124.171 85.7531C127.555 84.3498 130.447 81.9733 132.482 78.9242C134.516 75.8751 135.602 72.2903 135.602 68.6232C135.597 63.7074 133.644 58.9945 130.173 55.5185C126.701 52.0426 121.994 50.0873 117.085 50.0818Z" fill="#CCCCCC"/>
<path d="M80.0503 68.6232C80.0503 61.2889 82.2223 54.1193 86.2918 48.0211C90.3612 41.9229 96.1452 37.1699 102.912 34.3632C109.68 31.5565 117.126 30.8222 124.31 32.253C131.494 33.6839 138.093 37.2156 143.273 42.4018C148.452 47.5879 151.979 54.1954 153.408 61.3887C154.837 68.582 154.104 76.0381 151.301 82.8141C148.498 89.5901 143.751 95.3816 137.66 99.4563C131.57 103.531 124.41 105.706 117.085 105.706C107.266 105.695 97.8527 101.784 90.9097 94.8323C83.9668 87.8804 80.0614 78.4547 80.0503 68.6232ZM117.085 32.0284C109.857 32.0284 102.791 34.1747 96.7803 38.1958C90.7702 42.2168 86.0858 47.9322 83.3196 54.619C80.5534 61.3058 79.8296 68.6638 81.2398 75.7625C82.65 82.8612 86.1308 89.3817 91.2421 94.4996C96.3533 99.6174 102.865 103.103 109.955 104.515C117.044 105.927 124.393 105.202 131.071 102.432C137.749 99.6626 143.457 94.9721 147.473 88.9541C151.489 82.9362 153.632 75.8609 153.632 68.6232C153.621 58.921 149.767 49.6194 142.916 42.7589C136.064 35.8984 126.775 32.0394 117.085 32.0284Z" fill="#CCCCCC"/>
<path d="M117.085 73.0146C119.642 73.0146 121.714 70.9393 121.714 68.3792C121.714 65.8192 119.642 63.7439 117.085 63.7439C114.528 63.7439 112.456 65.8192 112.456 68.3792C112.456 70.9393 114.528 73.0146 117.085 73.0146Z" fill="#FA4070"/>
<path d="M105.146 86.4327C107.703 86.4327 109.776 84.3573 109.776 81.7973C109.776 79.2373 107.703 77.162 105.146 77.162C102.589 77.162 100.517 79.2373 100.517 81.7973C100.517 84.3573 102.589 86.4327 105.146 86.4327Z" fill="#FA4070"/>
<path d="M151.723 84.4809C154.28 84.4809 156.353 82.4056 156.353 79.8455C156.353 77.2855 154.28 75.2102 151.723 75.2102C149.167 75.2102 147.094 77.2855 147.094 79.8455C147.094 82.4056 149.167 84.4809 151.723 84.4809Z" fill="#FA4070"/>
<path d="M117.085 70.575C118.296 70.575 119.278 69.5919 119.278 68.3793C119.278 67.1666 118.296 66.1836 117.085 66.1836C115.874 66.1836 114.892 67.1666 114.892 68.3793C114.892 69.5919 115.874 70.575 117.085 70.575Z" fill="#2F2E41"/>
<path d="M151.723 82.0413C152.934 82.0413 153.916 81.0582 153.916 79.8456C153.916 78.6329 152.934 77.6499 151.723 77.6499C150.512 77.6499 149.531 78.6329 149.531 79.8456C149.531 81.0582 150.512 82.0413 151.723 82.0413Z" fill="#2F2E41"/>
<path d="M105.146 84.2369C106.357 84.2369 107.339 83.2539 107.339 82.0413C107.339 80.8286 106.357 79.8456 105.146 79.8456C103.935 79.8456 102.953 80.8286 102.953 82.0413C102.953 83.2539 103.935 84.2369 105.146 84.2369Z" fill="#2F2E41"/>
<path d="M14.7522 45.9345C15.9633 45.9345 16.9451 44.9514 16.9451 43.7388C16.9451 42.5261 15.9633 41.5431 14.7522 41.5431C13.5411 41.5431 12.5594 42.5261 12.5594 43.7388C12.5594 44.9514 13.5411 45.9345 14.7522 45.9345Z" fill="#FA4070"/>
<path d="M116.963 43.8609H20.7214V43.3729H117.451V68.501H116.963V43.8609Z" fill="#2F2E41"/>
<path d="M8.4173 43.7387C8.4173 42.4842 8.78883 41.2578 9.48492 40.2147C10.181 39.1716 11.1704 38.3586 12.3279 37.8785C13.4855 37.3984 14.7592 37.2728 15.9881 37.5175C17.2169 37.7623 18.3457 38.3664 19.2316 39.2535C20.1176 40.1406 20.7209 41.2708 20.9654 42.5012C21.2098 43.7317 21.0843 45.0071 20.6049 46.1661C20.1254 47.3252 19.3134 48.3158 18.2717 49.0128C17.2299 49.7098 16.0051 50.0818 14.7522 50.0818C13.9203 50.0818 13.0965 49.9178 12.3279 49.599C11.5594 49.2802 10.861 48.813 10.2727 48.224C9.6845 47.635 9.21787 46.9357 8.89951 46.1661C8.58115 45.3966 8.4173 44.5717 8.4173 43.7387ZM14.7522 37.8836C13.5957 37.8836 12.4651 38.227 11.5035 38.8703C10.5418 39.5137 9.79232 40.4282 9.34973 41.4981C8.90713 42.568 8.79133 43.7452 9.01696 44.881C9.24259 46.0168 9.79952 47.0601 10.6173 47.879C11.4351 48.6978 12.4771 49.2555 13.6114 49.4814C14.7457 49.7073 15.9215 49.5914 16.99 49.1482C18.0585 48.705 18.9717 47.9546 19.6143 46.9917C20.2568 46.0288 20.5998 44.8968 20.5998 43.7387C20.598 42.1864 19.9814 40.6982 18.8851 39.6005C17.7889 38.5028 16.3025 37.8854 14.7522 37.8836Z" fill="#2F2E41"/>
<path d="M29.3712 109.121C30.5823 109.121 31.564 108.138 31.564 106.926C31.564 105.713 30.5823 104.73 29.3712 104.73C28.1601 104.73 27.1784 105.713 27.1784 106.926C27.1784 108.138 28.1601 109.121 29.3712 109.121Z" fill="#FA4070"/>
<path d="M23.0363 106.926C23.0363 105.671 23.4078 104.445 24.1039 103.402C24.8 102.359 25.7894 101.546 26.9469 101.065C28.1045 100.585 29.3782 100.46 30.6071 100.705C31.8359 100.949 32.9647 101.553 33.8506 102.44C34.7366 103.328 35.3399 104.458 35.5843 105.688C35.8288 106.919 35.7033 108.194 35.2239 109.353C34.7444 110.512 33.9324 111.503 32.8907 112.2C31.8489 112.897 30.6241 113.269 29.3712 113.269C27.6911 113.269 26.0798 112.601 24.8917 111.411C23.7037 110.221 23.0363 108.608 23.0363 106.926ZM29.3712 101.071C28.2146 101.071 27.0841 101.414 26.1224 102.057C25.1608 102.701 24.4113 103.615 23.9687 104.685C23.5261 105.755 23.4103 106.932 23.6359 108.068C23.8616 109.204 24.4185 110.247 25.2363 111.066C26.0541 111.885 27.096 112.442 28.2304 112.668C29.3647 112.894 30.5404 112.778 31.6089 112.335C32.6775 111.892 33.5907 111.142 34.2333 110.179C34.8758 109.216 35.2188 108.084 35.2188 106.926C35.217 105.373 34.6003 103.885 33.5041 102.787C32.4078 101.69 30.9215 101.072 29.3712 101.071Z" fill="#2F2E41"/>
<path d="M219.702 56.1809C220.913 56.1809 221.894 55.1979 221.894 53.9852C221.894 52.7726 220.913 51.7896 219.702 51.7896C218.491 51.7896 217.509 52.7726 217.509 53.9852C217.509 55.1979 218.491 56.1809 219.702 56.1809Z" fill="#FA4070"/>
<path d="M213.367 53.9853C213.367 52.7308 213.738 51.5044 214.434 50.4613C215.13 49.4182 216.12 48.6051 217.277 48.1251C218.435 47.645 219.709 47.5193 220.937 47.7641C222.166 48.0088 223.295 48.613 224.181 49.5001C225.067 50.3872 225.67 51.5174 225.915 52.7478C226.159 53.9783 226.034 55.2537 225.554 56.4127C225.075 57.5718 224.263 58.5624 223.221 59.2594C222.179 59.9564 220.955 60.3284 219.702 60.3284C218.87 60.3284 218.046 60.1643 217.277 59.8456C216.509 59.5268 215.81 59.0596 215.222 58.4706C214.634 57.8815 214.167 57.1823 213.849 56.4127C213.531 55.6431 213.367 54.8183 213.367 53.9853ZM219.702 48.1302C218.151 48.1319 216.665 48.7494 215.569 49.8471C214.472 50.9447 213.856 52.433 213.854 53.9853C213.854 55.1433 214.197 56.2754 214.84 57.2383C215.482 58.2011 216.395 58.9516 217.464 59.3948C218.532 59.8379 219.708 59.9539 220.842 59.728C221.977 59.502 223.019 58.9444 223.836 58.1255C224.654 57.3067 225.211 56.2634 225.437 55.1276C225.662 53.9918 225.547 52.8145 225.104 51.7446C224.661 50.6747 223.912 49.7603 222.95 49.1169C221.989 48.4735 220.858 48.1302 219.702 48.1302Z" fill="#2F2E41"/>
<path d="M151.48 54.721L213.606 53.7415L213.614 54.2291L151.967 55.2013V79.8457H151.48V54.721Z" fill="#2F2E41"/>
<path d="M35.4626 106.682H104.902V82.0414H105.39V107.169H35.4626V106.682Z" fill="#2F2E41"/>
<path d="M28.153 55.2051H1.3515V56.9128H28.153V55.2051Z" fill="#CCCCCC"/>
<path d="M28.153 60.0845H1.3515V61.7922H28.153V60.0845Z" fill="#CCCCCC"/>
<path d="M28.153 64.9637H1.3515V66.6715H28.153V64.9637Z" fill="#CCCCCC"/>
<path d="M42.7719 118.392H15.9705V120.1H42.7719V118.392Z" fill="#CCCCCC"/>
<path d="M42.7719 123.271H15.9705V124.979H42.7719V123.271Z" fill="#CCCCCC"/>
<path d="M42.7719 128.151H15.9705V129.858H42.7719V128.151Z" fill="#CCCCCC"/>
<path d="M233.102 65.6956H206.301V67.4033H233.102V65.6956Z" fill="#CCCCCC"/>
<path d="M233.102 70.575H206.301V72.2827H233.102V70.575Z" fill="#CCCCCC"/>
<path d="M233.102 75.4542H206.301V77.162H233.102V75.4542Z" fill="#CCCCCC"/>
<path d="M245.861 211.197L242.05 212.561L234.982 198.49L240.607 196.477L245.861 211.197Z" fill="#FFB8B8"/>
<path d="M235.864 218.947L235.808 218.791C235.356 217.521 235.426 216.123 236.003 214.904C236.579 213.685 237.615 212.745 238.882 212.29L246.389 209.603L248.154 214.549L235.864 218.947Z" fill="#2F2E41"/>
<path d="M221.076 214.972L217.028 214.972L215.103 199.339L221.077 199.34L221.076 214.972Z" fill="#FFB8B8"/>
<path d="M222.108 218.901L209.057 218.9V218.735C209.057 218.067 209.188 217.406 209.443 216.789C209.699 216.171 210.073 215.611 210.545 215.138C211.016 214.666 211.576 214.291 212.193 214.036C212.809 213.78 213.47 213.649 214.137 213.649L222.108 213.649L222.108 218.901Z" fill="#2F2E41"/>
<path d="M230.301 115.1L228.54 111.617C228.54 111.617 221.982 113.262 221.386 117.067L230.301 115.1Z" fill="#FA4070"/>
<path d="M237.564 154.923L232.777 181.672L245.488 204.18L237.894 207.156L225.018 185.337L223.367 179.387L222.377 210.462L215.528 210.253L212.388 181.237L217.424 154.262L237.564 154.923Z" fill="#2F2E41"/>
<path d="M214.699 159.749C214.551 159.086 214.125 138.865 214.125 138.865C214.125 138.865 221.165 115.721 221.23 115.531L221.255 115.456L226.6 113.45C226.675 113.416 228.456 112.621 229.914 113.283C230.288 113.465 230.617 113.727 230.88 114.05C231.142 114.373 231.331 114.749 231.433 115.152C232.039 115.605 236.408 120.505 236.408 127.153L236.573 142.838L240.236 159.844L240.074 159.878C239.974 159.9 235.509 161.247 228.477 161.247C224.569 161.247 214.699 159.749 214.699 159.749Z" fill="#3F3D56"/>
<path d="M223.073 110.52C227.063 110.52 230.297 107.281 230.297 103.286C230.297 99.2906 227.063 96.0518 223.073 96.0518C219.083 96.0518 215.848 99.2906 215.848 103.286C215.848 107.281 219.083 110.52 223.073 110.52Z" fill="#FFB8B8"/>
<path opacity="0.2" d="M233.365 135.156L220.726 152.815L218.859 144.568L233.365 135.156Z" fill="black"/>
<path d="M210.932 153.196C211.385 153.178 211.829 153.06 212.231 152.852C212.634 152.644 212.986 152.35 213.263 151.991C213.54 151.632 213.735 151.216 213.835 150.773C213.934 150.33 213.935 149.871 213.837 149.428L223.229 143.659L218.043 141.23L209.92 147.08C209.187 147.293 208.557 147.768 208.151 148.414C207.744 149.061 207.588 149.834 207.713 150.588C207.838 151.342 208.235 152.024 208.828 152.504C209.421 152.985 210.17 153.231 210.932 153.196Z" fill="#FFB8B8"/>
<path d="M217.424 141.369L214.208 143.626L216.936 148.477L220.726 145.336L217.424 141.369Z" fill="#FA4070"/>
<path d="M215.74 141.512L223.307 132.73L220.408 120.618C220.108 119.366 220.274 118.048 220.874 116.91C221.473 115.771 222.467 114.89 223.668 114.431C224.869 113.972 226.195 113.967 227.4 114.416C228.605 114.865 229.606 115.737 230.215 116.871L230.281 116.993L232.952 134.98L219.53 148.755L215.74 141.512Z" fill="#3F3D56"/>
<path d="M229.227 109.567L223.23 109.782C222.864 109.796 221.872 105.846 221.743 105.026C221.64 104.493 221.347 104.015 220.918 103.682C220.489 103.349 219.954 103.184 219.413 103.217C218.964 103.26 217.832 102.42 216.664 101.425C214.446 99.5378 214.562 95.9924 216.998 94.3973C217.064 94.3537 217.13 94.3138 217.194 94.2778C218.73 93.4166 220.528 93.1274 222.289 93.1053C223.885 93.0853 225.527 93.2865 226.933 94.0431C229.455 95.3994 230.796 98.3634 230.914 101.227C231.032 104.09 230.115 106.89 229.075 109.56" fill="#2F2E41"/>
<path d="M262.17 219H189.205C189.118 219 189.034 218.965 188.972 218.903C188.91 218.841 188.875 218.757 188.875 218.669C188.875 218.582 188.91 218.498 188.972 218.436C189.034 218.374 189.118 218.339 189.205 218.339H262.17C262.257 218.339 262.341 218.374 262.403 218.436C262.465 218.498 262.5 218.582 262.5 218.669C262.5 218.757 262.465 218.841 262.403 218.903C262.341 218.965 262.257 219 262.17 219Z" fill="#3F3D56"/>
</g>
<defs>
<clipPath id="clip0_9169_68146">
<rect width="262" height="219" fill="white" transform="translate(0.5)"/>
</clipPath>
</defs>
</svg>
