<svg width="213" height="219" viewBox="0 0 213 219" fill="none" xmlns="http://www.w3.org/2000/svg">
<g clip-path="url(#clip0_12439_85993)">
<path d="M54.2584 113.083C54.6492 112.585 54.9256 112.007 55.0681 111.39C55.2107 110.773 55.2158 110.133 55.0833 109.514C54.9507 108.895 54.6836 108.313 54.3009 107.808C53.9181 107.303 53.429 106.888 52.8679 106.592L52.5005 67.7213L45.2129 71.0553L46.8158 108.649C46.3795 109.622 46.3162 110.72 46.6379 111.736C46.9596 112.752 47.644 113.615 48.5614 114.162C49.4788 114.708 50.5655 114.9 51.6154 114.702C52.6654 114.503 53.6058 113.927 54.2584 113.083Z" fill="#9E616A"/>
<path d="M54.0633 57.88C54.0633 57.88 46.974 54.4518 45.9936 60.9197C45.0132 67.3876 40.9805 84.2212 40.9805 84.2212L53.2177 83.3584L54.0633 57.88Z" fill="#9E616A"/>
<path d="M54.2584 113.083C54.6492 112.585 54.9256 112.007 55.0681 111.39C55.2107 110.773 55.2158 110.133 55.0833 109.514C54.9507 108.895 54.6836 108.313 54.3009 107.808C53.9181 107.303 53.429 106.888 52.8679 106.592L52.5005 67.7213L45.2129 71.0553L46.8158 108.649C46.3795 109.622 46.3162 110.72 46.6379 111.736C46.9596 112.752 47.644 113.615 48.5614 114.162C49.4788 114.708 50.5655 114.9 51.6154 114.702C52.6654 114.503 53.6058 113.927 54.2584 113.083Z" fill="#9E616A"/>
<path d="M54.0633 57.88C54.0633 57.88 46.974 54.4518 45.9936 60.9197C45.0132 67.3876 40.9805 84.2212 40.9805 84.2212L53.2177 83.3584L54.0633 57.88Z" fill="#112A5C"/>
<path d="M33.536 207.615C33.2497 207.628 32.9663 207.553 32.7242 207.401C32.4821 207.248 32.293 207.025 32.1825 206.761C32.0719 206.497 32.0453 206.206 32.1062 205.927C32.1672 205.648 32.3127 205.394 32.5231 205.201C32.5584 205.061 32.5836 204.961 32.6189 204.821C32.6063 204.791 32.5936 204.76 32.5808 204.73C32.2925 204.051 31.8093 203.472 31.1919 203.066C30.5746 202.66 29.8506 202.445 29.1109 202.447C28.3713 202.45 27.649 202.671 27.0347 203.081C26.4204 203.492 25.9415 204.074 25.6582 204.756C24.5259 207.474 23.0844 210.197 22.7295 213.072C22.5731 214.342 22.6391 215.63 22.9244 216.878C20.2651 211.095 18.8842 204.81 18.8753 198.448C18.8747 196.852 18.9637 195.257 19.1418 193.67C19.2889 192.37 19.4931 191.078 19.7543 189.796C21.1796 182.84 24.2399 176.32 28.6837 170.771C30.8346 169.601 32.574 167.802 33.6675 165.617C34.0637 164.831 34.3437 163.992 34.4988 163.127C34.2562 163.158 34.0096 163.178 33.767 163.194C33.6914 163.198 33.6119 163.202 33.5363 163.206L33.5078 163.207C33.2411 163.219 32.9767 163.154 32.7463 163.019C32.516 162.885 32.3295 162.687 32.2093 162.45C32.0892 162.212 32.0405 161.945 32.0691 161.68C32.0977 161.416 32.2024 161.165 32.3706 160.958C32.4754 160.83 32.5802 160.701 32.6851 160.573C32.8442 160.375 33.0073 160.18 33.1664 159.982C33.1847 159.963 33.202 159.943 33.2181 159.923C33.4011 159.697 33.584 159.475 33.767 159.249C33.433 158.732 32.9838 158.299 32.4544 157.984C30.6208 156.913 28.0911 157.655 26.7666 159.308C25.4381 160.962 25.1875 163.281 25.6489 165.347C26.1026 167.105 26.8532 168.773 27.8684 170.28C27.7689 170.407 27.6655 170.529 27.5661 170.656C25.7483 172.986 24.1641 175.489 22.8359 178.127C23.1589 175.171 22.7734 172.181 21.7112 169.403C20.6346 166.814 18.6168 164.634 16.8398 162.396C14.7053 159.707 10.3285 160.88 9.95246 164.288C9.94882 164.321 9.94527 164.354 9.9418 164.387C10.2057 164.536 10.4641 164.693 10.7169 164.86C11.0345 165.072 11.2805 165.374 11.4229 165.727C11.5652 166.08 11.5971 166.468 11.5145 166.84C11.4319 167.212 11.2386 167.55 10.9599 167.81C10.6812 168.071 10.3301 168.241 9.95263 168.299L9.91397 168.305C10.008 169.253 10.1742 170.193 10.4112 171.116C11.0977 173.694 12.311 176.102 13.9749 178.19C15.6388 180.277 17.7174 182 20.0804 183.25C20.2356 183.329 20.3867 183.408 20.5419 183.484C19.2075 187.253 18.3705 191.18 18.0519 195.165C17.8716 197.516 17.8822 199.878 18.0838 202.227L18.0718 202.144C17.5627 199.531 16.1648 197.174 14.1142 195.47C11.0686 192.976 6.76574 192.058 3.48008 190.053C3.13089 189.829 2.72488 189.71 2.30991 189.709C1.89495 189.708 1.48835 189.825 1.13807 190.047C0.787798 190.269 0.508457 190.586 0.332989 190.961C0.157522 191.336 0.0932523 191.753 0.147759 192.163C0.152165 192.192 0.15664 192.221 0.161191 192.251C0.650984 192.449 1.12787 192.678 1.58909 192.936C1.85303 193.085 2.1114 193.243 2.36419 193.409C2.68176 193.621 2.92784 193.923 3.07017 194.276C3.2125 194.63 3.24445 195.017 3.16183 195.389C3.07922 195.761 2.8859 196.099 2.60719 196.359C2.32849 196.62 1.9774 196.79 1.59993 196.848L1.56125 196.854C1.5334 196.858 1.50954 196.862 1.48174 196.866C2.31862 198.858 3.49321 200.692 4.95406 202.286C6.7587 204.217 8.93985 205.759 11.3638 206.82C13.7877 207.88 16.4033 208.435 19.0503 208.452H19.0543C19.7728 211.565 20.8139 214.595 22.1607 217.493H33.2579C33.2977 217.37 33.3335 217.243 33.3693 217.12C32.3421 217.184 31.3109 217.123 30.2986 216.938C31.122 215.93 31.9453 214.915 32.7686 213.908C32.787 213.889 32.8043 213.869 32.8203 213.849C33.238 213.333 33.6596 212.822 34.0772 212.306L34.0775 212.306C34.0997 210.726 33.9178 209.149 33.5363 207.615L33.536 207.615Z" fill="#F2F2F2"/>
<path d="M197.141 207.615C196.855 207.628 196.572 207.553 196.33 207.401C196.088 207.248 195.898 207.025 195.788 206.761C195.677 206.497 195.651 206.206 195.712 205.927C195.773 205.648 195.918 205.394 196.129 205.201C196.164 205.061 196.189 204.961 196.224 204.821C196.212 204.791 196.199 204.76 196.186 204.73C195.898 204.051 195.415 203.472 194.797 203.066C194.18 202.66 193.456 202.445 192.716 202.447C191.977 202.45 191.254 202.671 190.64 203.081C190.026 203.492 189.547 204.074 189.264 204.756C188.131 207.474 186.69 210.197 186.335 213.072C186.179 214.342 186.245 215.63 186.53 216.878C183.871 211.095 182.49 204.81 182.481 198.448C182.48 196.852 182.569 195.257 182.747 193.67C182.894 192.37 183.099 191.078 183.36 189.796C184.785 182.84 187.845 176.32 192.289 170.771C194.44 169.601 196.179 167.802 197.273 165.617C197.669 164.831 197.949 163.992 198.104 163.127C197.862 163.158 197.615 163.178 197.372 163.194C197.297 163.198 197.217 163.202 197.142 163.206L197.113 163.207C196.847 163.219 196.582 163.154 196.352 163.019C196.121 162.885 195.935 162.687 195.815 162.45C195.695 162.212 195.646 161.945 195.675 161.68C195.703 161.416 195.808 161.165 195.976 160.958C196.081 160.83 196.186 160.701 196.291 160.573C196.45 160.375 196.613 160.18 196.772 159.982C196.79 159.963 196.807 159.943 196.824 159.923C197.007 159.697 197.189 159.475 197.372 159.249C197.038 158.732 196.589 158.299 196.06 157.984C194.226 156.913 191.697 157.655 190.372 159.308C189.044 160.962 188.793 163.281 189.254 165.347C189.708 167.105 190.459 168.773 191.474 170.28C191.374 170.407 191.271 170.529 191.172 170.656C189.354 172.986 187.77 175.489 186.441 178.127C186.764 175.171 186.379 172.181 185.317 169.403C184.24 166.814 182.222 164.634 180.445 162.396C178.311 159.707 173.934 160.88 173.558 164.288C173.554 164.321 173.551 164.354 173.547 164.387C173.811 164.536 174.07 164.693 174.322 164.86C174.64 165.072 174.886 165.374 175.028 165.727C175.171 166.08 175.203 166.468 175.12 166.84C175.037 167.212 174.844 167.55 174.565 167.81C174.287 168.071 173.936 168.241 173.558 168.299L173.519 168.305C173.613 169.253 173.78 170.193 174.017 171.116C174.703 173.694 175.916 176.102 177.58 178.19C179.244 180.277 181.323 182 183.686 183.25C183.841 183.329 183.992 183.408 184.147 183.484C182.813 187.253 181.976 191.18 181.657 195.165C181.477 197.516 181.488 199.878 181.689 202.227L181.677 202.144C181.168 199.531 179.77 197.174 177.72 195.47C174.674 192.976 170.371 192.058 167.086 190.053C166.736 189.829 166.33 189.71 165.915 189.709C165.5 189.708 165.094 189.825 164.744 190.047C164.393 190.269 164.114 190.586 163.938 190.961C163.763 191.336 163.699 191.753 163.753 192.163C163.758 192.192 163.762 192.221 163.767 192.251C164.256 192.449 164.733 192.678 165.195 192.936C165.459 193.085 165.717 193.243 165.97 193.409C166.287 193.621 166.533 193.923 166.676 194.276C166.818 194.63 166.85 195.017 166.767 195.389C166.685 195.761 166.491 196.099 166.213 196.359C165.934 196.62 165.583 196.79 165.205 196.848L165.167 196.854C165.139 196.858 165.115 196.862 165.087 196.866C165.924 198.858 167.099 200.692 168.56 202.286C170.364 204.217 172.545 205.759 174.969 206.82C177.393 207.88 180.009 208.435 182.656 208.452H182.66C183.378 211.565 184.419 214.595 185.766 217.493H196.863C196.903 217.37 196.939 217.243 196.975 217.12C195.948 217.184 194.916 217.123 193.904 216.938C194.727 215.93 195.551 214.915 196.374 213.908C196.392 213.889 196.41 213.869 196.426 213.849C196.843 213.333 197.265 212.822 197.683 212.306L197.683 212.306C197.705 210.726 197.523 209.149 197.142 207.615L197.141 207.615Z" fill="#F2F2F2"/>
<path d="M154.407 217.42C154.375 217.42 154.343 217.42 154.312 217.419C153.499 217.373 152.737 217.016 152.182 216.423C151.627 215.83 151.323 215.047 151.333 214.236C151.333 209.303 147.798 206.425 144.294 205.761C140.791 205.098 136.444 206.483 134.629 211.073L132.98 215.201C131.553 216.62 129.621 217.417 127.606 217.417C125.591 217.417 123.659 216.62 122.232 215.201L122.135 215.104L122.195 214.98L151.333 155.551V154.094C151.292 153.645 151.292 153.194 151.333 152.745L151.333 3.064C151.333 2.65371 151.415 2.2476 151.576 1.86976C151.736 1.49191 151.971 1.15003 152.266 0.864403C152.562 0.57877 152.912 0.355208 153.296 0.206971C153.679 0.0587335 154.089 -0.01116 154.5 0.00144666C155.312 0.0477177 156.075 0.404405 156.63 0.997267C157.185 1.59013 157.489 2.37349 157.48 3.18431V152.762C157.52 153.211 157.52 153.663 157.479 154.111L157.48 155.55L186.677 215.104L186.58 215.201C185.153 216.62 183.221 217.417 181.206 217.417C179.191 217.417 177.259 216.62 175.833 215.201L175.789 215.136L174.183 211.073C172.368 206.483 168.022 205.099 164.518 205.761C161.015 206.425 157.48 209.303 157.48 214.236V214.356C157.48 215.169 157.156 215.948 156.58 216.523C156.004 217.097 155.222 217.42 154.407 217.42Z" fill="#E6E6E6"/>
<path d="M207.743 108.341H101.07C99.8297 108.339 98.6409 107.847 97.7641 106.973C96.8872 106.099 96.394 104.914 96.3926 103.678V29.3288C96.394 28.0926 96.8872 26.9075 97.764 26.0334C98.6408 25.1593 99.8297 24.6676 101.07 24.6662H207.743C208.983 24.6676 210.172 25.1593 211.049 26.0334C211.925 26.9075 212.419 28.0927 212.42 29.3288V103.678C212.419 104.914 211.925 106.099 211.049 106.973C210.172 107.847 208.983 108.339 207.743 108.341Z" fill="#BBBCC4"/>
<path d="M207.743 108.919H101.07C99.676 108.917 98.3398 108.365 97.3542 107.382C96.3686 106.4 95.8142 105.068 95.8125 103.678V29.3288C95.8141 27.9393 96.3685 26.6072 97.3541 25.6247C98.3397 24.6422 99.676 24.0895 101.07 24.088H207.743C209.137 24.0895 210.473 24.6422 211.459 25.6247C212.444 26.6072 212.999 27.9393 213 29.3288V103.678C212.999 105.068 212.444 106.4 211.459 107.382C210.473 108.365 209.137 108.917 207.743 108.919ZM101.07 25.2447C99.9836 25.2459 98.9423 25.6765 98.1742 26.4422C97.4061 27.2078 96.9741 28.2459 96.9728 29.3288V103.678C96.9741 104.761 97.4062 105.799 98.1743 106.565C98.9423 107.33 99.9837 107.761 101.07 107.762H207.743C208.829 107.761 209.871 107.33 210.639 106.565C211.407 105.799 211.839 104.761 211.84 103.678V29.3288C211.839 28.246 211.407 27.2079 210.639 26.4422C209.871 25.6765 208.829 25.2459 207.743 25.2447H101.07Z" fill="#F2F2F2"/>
<path d="M170.179 29.3148H138.635C136.635 29.3125 134.718 28.5196 133.304 27.1098C131.89 25.7001 131.094 23.7887 131.092 21.795V21.6583H177.722V21.795C177.72 23.7887 176.924 25.7001 175.51 27.1098C174.096 28.5196 172.179 29.3125 170.179 29.3148Z" fill="#E6E6E6"/>
<path d="M170.316 112.989H138.772C136.772 112.987 134.854 112.194 133.44 110.784C132.026 109.374 131.231 107.463 131.229 105.469V105.333H177.859V105.469C177.857 107.463 177.061 109.374 175.647 110.784C174.233 112.194 172.316 112.987 170.316 112.989Z" fill="#E6E6E6"/>
<path d="M212.598 217.803C212.598 217.864 212.586 217.923 212.563 217.979C212.54 218.035 212.506 218.086 212.463 218.128C212.42 218.171 212.37 218.205 212.314 218.228C212.258 218.251 212.198 218.262 212.137 218.262H0.460261C0.338192 218.262 0.221134 218.214 0.134818 218.128C0.0485027 218.042 0 217.925 0 217.803C0 217.682 0.0485027 217.565 0.134818 217.479C0.221134 217.393 0.338192 217.345 0.460261 217.345H212.137C212.198 217.344 212.258 217.356 212.314 217.379C212.37 217.402 212.42 217.436 212.463 217.479C212.506 217.521 212.54 217.572 212.563 217.628C212.586 217.683 212.598 217.743 212.598 217.803Z" fill="#CCCCCC"/>
<path d="M71.2844 207.123H76.8601L79.5126 185.682L71.2832 185.683L71.2844 207.123Z" fill="#9E616A"/>
<path d="M69.3966 204.38L78.2108 203.856V207.621L86.5907 213.39C87.0046 213.675 87.3163 214.084 87.4803 214.558C87.6444 215.032 87.6521 215.546 87.5024 216.025C87.3527 216.504 87.0534 216.922 86.6483 217.219C86.2431 217.517 85.7533 217.677 85.2503 217.677H74.7566L72.9479 213.953L72.2417 217.677H68.2852L69.3966 204.38Z" fill="#2F2E41"/>
<path d="M52.3212 87.869L51.7751 90.4639L51.3105 100.036L69.97 97.5172L71.403 86.4335L69.4224 83.1893L52.3212 87.869Z" fill="#9E616A"/>
<path d="M43.0656 207.123H48.6413L51.2938 185.682L43.0645 185.683L43.0656 207.123Z" fill="#9E616A"/>
<path d="M40.0408 169.244L40.0406 169.186L42.1278 159.473L43.4148 154.638L39.8374 126.325C38.9951 105.755 50.9657 95.8676 51.06 95.7704L51.3195 95.5013L70.5173 95.033C80.8466 101.203 79.6773 134.947 81.5688 157.896C81.7037 159.533 83.3987 161.948 82.982 163.505C79.6767 175.854 80.6449 189.208 78.1269 189.602L70.4064 189.495L66.419 171.455L70.0997 157.695C68.4673 157.395 67.3392 149.439 67.3392 149.439C66.6279 148.597 64.1722 141.437 64.1722 141.437L60.898 121.614L55.6375 155.708L56.9044 163.707L55.8559 166.457L51.3662 189.162L51.3185 189.528L42.8538 188.685L40.0408 169.244Z" fill="#2F2E41"/>
<path d="M41.1778 204.38L49.992 203.856V207.621L58.3719 213.39C58.7858 213.675 59.0976 214.084 59.2616 214.558C59.4256 215.032 59.4334 215.546 59.2837 216.025C59.134 216.504 58.8347 216.922 58.4295 217.219C58.0244 217.517 57.5345 217.677 57.0315 217.677H46.5379L44.7291 213.953L44.0229 217.677H40.0664L41.1778 204.38Z" fill="#2F2E41"/>
<path d="M67.7149 50.4354L72.4211 55.6483L78.0739 66.2698L75.2971 79.367L76.5112 85.513L78.3039 92.269C71.3963 96.0782 63.1911 90.8175 55.6531 88.4811L48.2363 91.7477L48.6285 82.7554L48.8296 60.099C48.8374 59.2288 49.0244 58.3695 49.3792 57.5744C49.734 56.7793 50.2489 56.0654 50.892 55.4769C51.5351 54.8885 52.2927 54.4381 53.1177 54.1537C53.9427 53.8693 54.8175 53.757 55.6879 53.8238L60.6555 50.1747L67.7149 50.4354Z" fill="#112A5C"/>
<path d="M66.3982 47.7066C71.8788 47.7066 76.3217 43.2775 76.3217 37.8139C76.3217 32.3503 71.8788 27.9211 66.3982 27.9211C60.9175 27.9211 56.4746 32.3503 56.4746 37.8139C56.4746 43.2775 60.9175 47.7066 66.3982 47.7066Z" fill="#9E616A"/>
<path d="M78.0748 34.2437C77.9 35.213 73.7225 35.6808 73.8482 33.9563C73.0354 35.5799 71.8208 37.9362 73.3679 40.6352C72.7619 41.2932 72.3802 42.1253 72.2773 43.0127C72.1743 43.9 72.3555 44.7971 72.7949 45.5756C73.2351 46.2889 73.6039 47.0438 73.896 47.8291C73.9549 48.0197 73.997 48.2151 74.0218 48.4131C74.0467 48.612 74.0175 48.814 73.9371 48.9978C73.8568 49.1816 73.7283 49.3404 73.5652 49.4577C73.4021 49.575 73.2104 49.6463 73.0101 49.6642C72.8098 49.6822 72.6083 49.6461 72.4268 49.5597C68.2186 47.505 60.88 47.8532 56.2761 49.1069C56.3068 48.2141 56.2945 47.3232 56.2393 46.4345C56.0712 47.5459 55.6215 48.5962 54.9326 49.4861C54.1443 49.7184 53.3714 49.96 52.623 50.1985C52.5089 50.2354 52.3869 50.2407 52.2699 50.2139C52.153 50.1871 52.0456 50.1293 51.959 50.0464C51.8725 49.9636 51.8101 49.8589 51.7785 49.7436C51.7469 49.6282 51.7472 49.5064 51.7795 49.3913C51.9254 48.8635 51.9526 48.3102 51.8593 47.7707C51.6691 46.6516 51.1047 45.6395 50.706 44.5784C50.3073 43.5174 50.0803 42.2974 50.568 41.2731C51.3256 39.6831 53.4604 39.1969 54.402 37.7078C55.4602 36.0352 54.6382 33.8551 54.8038 31.8828C55.0369 29.0942 57.3281 26.8285 59.9108 25.7338C64.3828 23.838 69.9774 25.3733 73.3299 28.8774C73.8001 28.5609 74.3491 28.3805 74.916 28.3562C75.4829 28.3319 76.0455 28.4647 76.5412 28.7398C77.532 29.2688 78.2435 29.544 78.6883 30.5744C79.0779 31.4795 78.2528 33.2713 78.0748 34.2437Z" fill="#2F2E41"/>
<path d="M73.8117 150.579L50.4644 127.304C50.1933 127.033 50.041 126.666 50.041 126.283C50.041 125.901 50.1932 125.534 50.4643 125.263L66.7877 108.99C67.0594 108.72 67.4275 108.568 67.8113 108.568C68.1952 108.568 68.5633 108.72 68.835 108.99L92.1824 132.265C92.4535 132.536 92.6057 132.903 92.6057 133.286C92.6057 133.668 92.4535 134.035 92.1824 134.306L75.859 150.579C75.5873 150.849 75.2192 151.001 74.8354 151.001C74.4516 151.001 74.0834 150.849 73.8117 150.579Z" fill="white"/>
<path d="M74.8355 151.386C74.5946 151.387 74.3559 151.34 74.1333 151.248C73.9106 151.157 73.7084 151.022 73.5385 150.851L50.191 127.577C49.8473 127.234 49.6543 126.769 49.6543 126.284C49.6543 125.799 49.8473 125.334 50.191 124.991L66.5144 108.718C66.8586 108.375 67.3252 108.183 67.8116 108.183C68.298 108.183 68.7645 108.375 69.1087 108.718L92.456 131.993C92.7996 132.336 92.9927 132.801 92.9927 133.286C92.9927 133.771 92.7996 134.236 92.456 134.579L76.1326 150.851C75.9626 151.022 75.7604 151.157 75.5378 151.248C75.3151 151.34 75.0765 151.387 74.8355 151.386ZM67.8115 108.954C67.6722 108.953 67.5341 108.98 67.4054 109.033C67.2766 109.087 67.1598 109.165 67.0615 109.263L50.7379 125.536C50.5393 125.734 50.4278 126.003 50.4278 126.284C50.4278 126.564 50.5393 126.833 50.7379 127.031L74.0854 150.306C74.2877 150.498 74.5563 150.605 74.8355 150.605C75.1147 150.605 75.3833 150.498 75.5856 150.306L91.909 134.033C92.1076 133.835 92.2191 133.566 92.2191 133.286C92.2191 133.005 92.1076 132.736 91.909 132.538L68.5616 109.263C68.4633 109.165 68.3464 109.087 68.2176 109.034C68.0888 108.98 67.9508 108.953 67.8115 108.954Z" fill="#E6E6E6"/>
<path d="M65.0144 111.155C64.6236 110.657 64.3471 110.079 64.2046 109.462C64.0621 108.845 64.0569 108.205 64.1895 107.586C64.3221 106.967 64.5891 106.385 64.9719 105.88C65.3546 105.375 65.8438 104.96 66.4048 104.664L66.7722 65.7934L74.0599 69.1274L72.4569 106.721C72.8933 107.694 72.9566 108.792 72.6349 109.808C72.3131 110.824 71.6287 111.687 70.7113 112.234C69.7939 112.78 68.7073 112.972 67.6573 112.774C66.6073 112.575 65.667 111.999 65.0144 111.155Z" fill="#9E616A"/>
<path d="M65.2109 55.9521C65.2109 55.9521 72.3002 52.5239 73.2806 58.9919C74.2611 65.4598 78.2938 82.2933 78.2938 82.2933L66.0566 81.4305L65.2109 55.9521Z" fill="#9E616A"/>
<path d="M65.0144 111.155C64.6236 110.657 64.3471 110.079 64.2046 109.462C64.0621 108.845 64.0569 108.205 64.1895 107.586C64.3221 106.967 64.5891 106.385 64.9719 105.88C65.3546 105.375 65.8438 104.96 66.4048 104.664L66.7722 65.7934L74.0599 69.1274L72.4569 106.721C72.8933 107.694 72.9566 108.792 72.6349 109.808C72.3131 110.824 71.6287 111.687 70.7113 112.234C69.7939 112.78 68.7073 112.972 67.6573 112.774C66.6073 112.575 65.667 111.999 65.0144 111.155Z" fill="#9E616A"/>
<path d="M65.2109 55.9521C65.2109 55.9521 72.3002 52.5239 73.2806 58.9919C74.2611 65.4598 78.2938 82.2933 78.2938 82.2933L66.0566 81.4305L65.2109 55.9521Z" fill="#112A5C"/>
</g>
<defs>
<clipPath id="clip0_12439_85993">
<rect width="213" height="219" fill="white"/>
</clipPath>
</defs>
</svg>
