<svg width="220" height="219" viewBox="0 0 220 219" fill="none" xmlns="http://www.w3.org/2000/svg">
<g clip-path="url(#clip0_12467_92391)">
<path d="M145.113 58.0213H109.004C108.213 58.0237 107.433 57.8457 106.721 57.5008C106.01 57.156 105.386 56.6534 104.898 56.0312C104.402 55.4032 104.055 54.6702 103.884 53.8878C103.713 53.1054 103.723 52.2943 103.913 51.5164C107.241 37.5732 107.241 23.0423 103.913 9.09921C103.723 8.32126 103.713 7.51026 103.884 6.72793C104.055 5.94561 104.402 5.21256 104.898 4.58456C105.386 3.96239 106.01 3.45976 106.721 3.11491C107.432 2.77006 108.213 2.59207 109.004 2.59451H145.113C146.36 2.59809 147.565 3.04421 148.513 3.85341C149.462 4.66261 150.093 5.78234 150.293 7.01318C152.669 22.452 152.669 38.1638 150.293 53.6026C150.093 54.8334 149.462 55.9532 148.513 56.7624C147.565 57.5716 146.36 58.0177 145.113 58.0213Z" fill="#E6E6E6"/>
<path d="M109.004 5.31215C108.625 5.31087 108.25 5.39623 107.908 5.56171C107.566 5.7272 107.267 5.96846 107.032 6.26714C106.791 6.57317 106.622 6.93023 106.54 7.31118C106.457 7.69213 106.462 8.08692 106.555 8.46553C109.983 22.8253 109.983 37.7904 106.555 52.1502C106.463 52.5287 106.457 52.9234 106.54 53.3043C106.622 53.6852 106.791 54.0422 107.032 54.3481C107.267 54.6469 107.566 54.8884 107.908 55.0539C108.25 55.2195 108.625 55.3048 109.004 55.3035H145.113C145.712 55.3037 146.292 55.0914 146.748 54.7043C147.205 54.3172 147.51 53.7804 147.608 53.1896C149.942 38.0245 149.942 22.5912 147.608 7.42604C147.51 6.83527 147.205 6.29854 146.748 5.91142C146.292 5.52431 145.712 5.31194 145.113 5.31214L109.004 5.31215Z" fill="#A6A6A6"/>
<path d="M137.234 18.38H118.285C117.565 18.3792 116.874 18.0927 116.365 17.5832C115.856 17.0737 115.569 16.383 115.568 15.6624V14.6005C115.569 13.8799 115.856 13.1892 116.365 12.6797C116.874 12.1702 117.565 11.8837 118.285 11.8829H137.234C137.954 11.8837 138.645 12.1702 139.154 12.6797C139.663 13.1892 139.95 13.8799 139.951 14.6005V15.6625C139.95 16.383 139.663 17.0737 139.154 17.5832C138.645 18.0927 137.954 18.3792 137.234 18.38Z" fill="#E6E6E6"/>
<path d="M137.234 31.799H118.285C117.565 31.7982 116.874 31.5116 116.365 31.0021C115.856 30.4927 115.569 29.8019 115.568 29.0814V28.0194C115.569 27.2989 115.856 26.6081 116.365 26.0986C116.874 25.5892 117.565 25.3026 118.285 25.3018H137.234C137.954 25.3026 138.645 25.5892 139.154 26.0986C139.663 26.6081 139.95 27.2989 139.951 28.0194V29.0814C139.95 29.8019 139.663 30.4927 139.154 31.0021C138.645 31.5116 137.954 31.7982 137.234 31.799Z" fill="#E6E6E6"/>
<path d="M137.234 45.2178H118.285C117.565 45.2171 116.874 44.9305 116.365 44.421C115.856 43.9115 115.569 43.2208 115.568 42.5003V41.4383C115.569 40.7178 115.856 40.027 116.365 39.5175C116.874 39.008 117.565 38.7215 118.285 38.7207H137.234C137.954 38.7215 138.645 39.008 139.154 39.5175C139.663 40.027 139.95 40.7178 139.951 41.4383V42.5003C139.95 43.2208 139.663 43.9115 139.154 44.421C138.645 44.9305 137.954 45.2171 137.234 45.2178Z" fill="#E6E6E6"/>
<path d="M213.038 92.4452H176.928C176.138 92.4476 175.357 92.2696 174.646 91.9248C173.935 91.5799 173.311 91.0773 172.823 90.4552C172.326 89.8272 171.979 89.0941 171.809 88.3117C171.638 87.5293 171.648 86.7183 171.838 85.9403C175.166 71.9972 175.166 57.4663 171.837 43.5232C171.648 42.7452 171.638 41.9342 171.809 41.1519C171.98 40.3696 172.326 39.6365 172.823 39.0085C173.311 38.3863 173.934 37.8837 174.646 37.5389C175.357 37.194 176.138 37.016 176.928 37.0185H213.038C214.285 37.022 215.489 37.4682 216.438 38.2774C217.387 39.0866 218.017 40.2063 218.218 41.4371C220.594 56.876 220.594 72.5877 218.218 88.0266C218.017 89.2574 217.387 90.3771 216.438 91.1863C215.489 91.9955 214.285 92.4417 213.038 92.4452Z" fill="#E6E6E6"/>
<path d="M176.928 39.7362C176.548 39.7349 176.173 39.8202 175.832 39.9857C175.49 40.1512 175.191 40.3925 174.956 40.6912C174.715 40.9972 174.546 41.3542 174.464 41.7352C174.381 42.1161 174.386 42.5109 174.479 42.8895C177.907 57.2493 177.907 72.2144 174.479 86.5742C174.386 86.9527 174.381 87.3474 174.464 87.7283C174.546 88.1092 174.715 88.4662 174.956 88.7721C175.19 89.0709 175.49 89.3124 175.832 89.4779C176.173 89.6435 176.548 89.7288 176.928 89.7276H213.037C213.636 89.7278 214.215 89.5154 214.672 89.1283C215.129 88.7412 215.434 88.2044 215.532 87.6137C217.866 72.4485 217.866 57.0153 215.532 41.8501C215.434 41.2593 215.129 40.7226 214.672 40.3354C214.215 39.9483 213.636 39.7359 213.037 39.7361L176.928 39.7362Z" fill="#A6A6A6"/>
<path d="M141.038 131.625H104.928C104.104 131.628 103.289 131.442 102.547 131.082C101.805 130.722 101.155 130.198 100.645 129.549C100.127 128.894 99.7655 128.13 99.5874 127.314C99.4093 126.498 99.4196 125.652 99.6175 124.841C102.937 110.933 102.937 96.4378 99.6173 82.5295C99.4195 81.7183 99.4092 80.8726 99.5874 80.0568C99.7655 79.241 100.127 78.4766 100.645 77.8218C101.154 77.1727 101.805 76.6483 102.547 76.2885C103.289 75.9287 104.104 75.743 104.928 75.7454H141.038C142.338 75.7493 143.596 76.2149 144.585 77.0593C145.575 77.9036 146.233 79.0719 146.441 80.3561C148.821 95.8178 148.821 111.553 146.441 127.015C146.233 128.299 145.575 129.467 144.585 130.311C143.596 131.156 142.338 131.621 141.038 131.625Z" fill="#A6A6A6"/>
<path d="M205.158 59.5982H186.209C185.489 59.5974 184.798 59.3109 184.289 58.8014C183.779 58.2919 183.493 57.6011 183.492 56.8806V55.8186C183.493 55.0981 183.779 54.4074 184.289 53.8979C184.798 53.3884 185.489 53.1019 186.209 53.1011H205.158C205.878 53.1019 206.569 53.3884 207.078 53.8979C207.587 54.4074 207.874 55.0981 207.875 55.8186V56.8807C207.874 57.6012 207.587 58.2919 207.078 58.8014C206.569 59.3109 205.878 59.5974 205.158 59.5982Z" fill="#E6E6E6"/>
<path d="M205.158 73.0172H186.209C185.489 73.0164 184.798 72.7298 184.289 72.2203C183.779 71.7109 183.493 71.0201 183.492 70.2996V69.2376C183.493 68.5171 183.779 67.8263 184.289 67.3168C184.798 66.8074 185.489 66.5208 186.209 66.52H205.158C205.878 66.5208 206.569 66.8074 207.078 67.3168C207.587 67.8263 207.874 68.5171 207.875 69.2376V70.2996C207.874 71.0201 207.587 71.7109 207.078 72.2203C206.569 72.7298 205.878 73.0164 205.158 73.0172Z" fill="#E6E6E6"/>
<path d="M123.084 113.916C128.836 113.916 133.499 109.252 133.499 103.498C133.499 97.7449 128.836 93.0807 123.084 93.0807C117.332 93.0807 112.669 97.7449 112.669 103.498C112.669 109.252 117.332 113.916 123.084 113.916Z" fill="#A6A6A6"/>
<path d="M128.065 102.14H124.442V98.516C124.442 98.1556 124.299 97.81 124.044 97.5552C123.79 97.3003 123.444 97.1572 123.084 97.1572C122.723 97.1572 122.378 97.3003 122.123 97.5552C121.868 97.81 121.725 98.1556 121.725 98.516V102.14H118.103C117.742 102.14 117.397 102.283 117.142 102.538C116.887 102.792 116.744 103.138 116.744 103.498C116.744 103.859 116.887 104.204 117.142 104.459C117.397 104.714 117.742 104.857 118.103 104.857H121.725V108.481C121.725 108.841 121.868 109.187 122.123 109.442C122.378 109.697 122.723 109.84 123.084 109.84C123.444 109.84 123.79 109.697 124.044 109.442C124.299 109.187 124.442 108.841 124.442 108.481V104.857H128.065C128.425 104.857 128.771 104.714 129.025 104.459C129.28 104.204 129.423 103.859 129.423 103.498C129.423 103.138 129.28 102.792 129.025 102.538C128.771 102.283 128.425 102.14 128.065 102.14Z" fill="#E6E6E6"/>
<path d="M136.216 7.7001H117.197C116.657 7.69949 116.139 7.48455 115.757 7.10244C115.375 6.72032 115.16 6.20223 115.159 5.66184V2.03826C115.16 1.49787 115.375 0.979782 115.757 0.597666C116.139 0.215549 116.657 0.000609014 117.197 0H136.216C136.756 0.000609014 137.274 0.215549 137.656 0.597666C138.038 0.979782 138.253 1.49787 138.253 2.03826V5.66184C138.253 6.20223 138.038 6.72032 137.656 7.10244C137.274 7.48455 136.756 7.69949 136.216 7.7001Z" fill="#CCCCCC"/>
<path d="M205.047 42.5771H186.028C185.488 42.5764 184.97 42.3615 184.588 41.9794C184.206 41.5973 183.991 41.0792 183.99 40.5388V36.9152C183.991 36.3748 184.206 35.8567 184.588 35.4746C184.97 35.0925 185.488 34.8776 186.028 34.877H205.047C205.587 34.8776 206.105 35.0925 206.487 35.4746C206.869 35.8567 207.084 36.3748 207.085 36.9152V40.5388C207.084 41.0792 206.869 41.5973 206.487 41.9794C206.105 42.3615 205.587 42.5764 205.047 42.5771Z" fill="#CCCCCC"/>
<path d="M40.1191 213.366H45.6708L47.4065 191.947H40.1182L40.1191 213.366Z" fill="#FFB8B8"/>
<path d="M38.7031 211.553L49.6362 211.552H49.6366C50.5516 211.552 51.4576 211.733 52.3029 212.083C53.1483 212.433 53.9164 212.946 54.5634 213.594C55.2104 214.241 55.7236 215.009 56.0737 215.855C56.4239 216.7 56.6041 217.606 56.6041 218.522V218.748L38.7035 218.749L38.7031 211.553Z" fill="#2F2E41"/>
<path d="M10.2324 213.366H15.784L18.4254 191.947H10.2314L10.2324 213.366Z" fill="#FFB8B8"/>
<path d="M8.81641 211.553L19.7494 211.552H19.7499C20.6649 211.552 21.5709 211.733 22.4162 212.083C23.2616 212.433 24.0297 212.946 24.6766 213.594C25.3236 214.241 25.8368 215.009 26.187 215.855C26.5371 216.7 26.7174 217.606 26.7173 218.522V218.748L8.81675 218.749L8.81641 211.553Z" fill="#2F2E41"/>
<path d="M11.2168 206.599C10.6505 206.599 10.105 206.386 9.68852 206.002C9.46499 205.798 9.28494 205.551 9.15922 205.276C9.03349 205.001 8.96467 204.703 8.95688 204.4L6.73047 124.585L38.343 132.49L48.0968 161.758C49.3546 165.523 49.8991 169.49 49.7023 173.455L48.4911 201.826C48.4635 202.408 48.2131 202.956 47.792 203.357C47.3708 203.759 46.8113 203.982 46.2295 203.982H40.9274C40.3801 203.98 39.8519 203.78 39.4398 203.42C39.0277 203.06 38.7593 202.563 38.6837 202.021L34.894 170.703C34.5628 168.26 33.7084 165.917 32.389 163.835L24.9312 152.024C24.8813 151.945 24.8083 151.883 24.7221 151.847C24.6359 151.811 24.5408 151.803 24.4497 151.824C24.3587 151.844 24.2761 151.892 24.2133 151.961C24.1505 152.03 24.1106 152.117 24.099 152.209L18.2464 204.338C18.1835 204.867 17.9363 205.357 17.548 205.721C17.1598 206.085 16.6555 206.301 16.124 206.33L11.3457 206.595C11.3027 206.598 11.2598 206.599 11.2168 206.599Z" fill="#2F2E41"/>
<path d="M33.0829 72.9096C39.2254 72.9096 44.2049 67.9289 44.2049 61.7848C44.2049 55.6407 39.2254 50.6599 33.0829 50.6599C26.9404 50.6599 21.9609 55.6407 21.9609 61.7848C21.9609 67.9289 26.9404 72.9096 33.0829 72.9096Z" fill="#FFB8B8"/>
<path d="M38.1922 135.736C38.0009 135.735 37.8103 135.711 37.6249 135.664L6.25959 127.619C5.69882 127.476 5.21438 127.123 4.90587 126.633C4.59737 126.143 4.48823 125.553 4.60094 124.985L11.8042 86.1719C12.2529 83.9283 13.2394 81.8272 14.6788 80.0489C16.1182 78.2707 17.9676 76.8685 20.0682 75.9626C22.1149 75.0566 24.3532 74.6683 26.5854 74.8323C28.8176 74.9962 30.9752 75.7072 32.8677 76.9026C33.3068 77.1766 33.7492 77.4754 34.1821 77.7908C35.925 79.0768 37.3463 80.7493 38.3346 82.6769C39.3228 84.6046 39.8512 86.7351 39.8782 88.9013L40.451 133.439C40.4548 133.738 40.3993 134.036 40.2876 134.314C40.1759 134.592 40.0103 134.845 39.8003 135.058C39.5902 135.272 39.34 135.442 39.064 135.558C38.788 135.674 38.4917 135.735 38.1922 135.736Z" fill="#112A5C"/>
<path d="M9.4865 136.192C9.11234 135.641 8.86346 135.015 8.75739 134.358C8.65132 133.701 8.69064 133.028 8.87258 132.387C9.05451 131.747 9.37463 131.154 9.81039 130.651C10.2462 130.147 10.787 129.746 11.3947 129.474L9.99965 113.348L17.3926 117.356L17.5839 132.055C17.9726 133.106 17.9621 134.264 17.5545 135.308C17.1469 136.353 16.3705 137.211 15.3724 137.721C14.3743 138.231 13.2238 138.357 12.139 138.075C11.0542 137.794 10.1104 137.124 9.4865 136.192Z" fill="#FFB8B8"/>
<path d="M12.1272 127.341C11.9186 127.341 11.7109 127.315 11.5088 127.263C11.0741 127.152 10.6775 126.926 10.3609 126.608C10.0443 126.29 9.81945 125.892 9.71017 125.457L6.07703 111.016C4.80735 105.972 5.41261 100.638 7.78023 96.0074L15.3918 81.1136C15.8729 79.3304 17.0355 77.8078 18.6287 76.8742C20.222 75.9405 22.1183 75.6707 23.9086 76.1228C24.801 76.3482 25.6397 76.7485 26.3763 77.3006C27.1128 77.8527 27.7324 78.5456 28.1991 79.339C28.6755 80.1438 28.9871 81.0353 29.1157 81.9617C29.2443 82.8881 29.1873 83.8308 28.9481 84.735L18.1131 108.97L18.2417 123.481C18.2451 123.993 18.0912 124.493 17.8009 124.915C17.5106 125.336 17.0979 125.659 16.6186 125.838L12.9926 127.185C12.7158 127.288 12.4227 127.341 12.1272 127.341Z" fill="#112A5C"/>
<path d="M63.9925 130.261C63.3312 130.185 62.6944 129.965 62.1271 129.617C61.5598 129.269 61.0757 128.8 60.7091 128.244C60.3424 127.688 60.102 127.059 60.0048 126.4C59.9077 125.742 59.9561 125.069 60.1467 124.431L47.0176 114.97L54.8771 111.979L66.1398 121.423C67.1901 121.814 68.0604 122.577 68.5858 123.568C69.1113 124.558 69.2553 125.706 68.9906 126.796C68.7259 127.885 68.0709 128.84 67.1498 129.478C66.2286 130.117 65.1052 130.395 63.9925 130.261Z" fill="#FFB8B8"/>
<path d="M57.1194 123.351C56.7323 123.351 56.3506 123.261 56.0043 123.088L42.6915 116.422C38.0415 114.094 34.395 110.156 32.43 105.34L26.1098 89.8538C25.0726 88.3257 24.6773 86.451 25.0092 84.634C25.341 82.8171 26.3734 81.2033 27.8838 80.1407C28.6385 79.6099 29.4912 79.2347 30.3923 79.0369C31.2934 78.8391 32.2248 78.8227 33.1323 78.9886C34.0504 79.1538 34.9267 79.4995 35.7103 80.0058C36.4939 80.5122 37.1692 81.169 37.6972 81.9383L48.993 105.962L60.0719 115.331C60.462 115.662 60.741 116.105 60.8711 116.6C61.0012 117.095 60.9762 117.618 60.7994 118.099L59.4547 121.726C59.2791 122.202 58.9619 122.612 58.5459 122.902C58.1277 123.195 57.6297 123.351 57.1194 123.351Z" fill="#112A5C"/>
<path d="M30.7473 73.0799C31.3383 73.3385 32.5484 68.6287 32.0063 67.6866C31.2002 66.2857 31.2478 66.2958 30.7127 65.3689C30.1775 64.442 30.0578 63.1734 30.7508 62.3579C31.4438 61.5424 33.0475 61.6505 33.3638 62.673C33.1603 60.7309 35.0809 59.1697 36.9833 58.731C38.8856 58.2923 40.8923 58.5647 42.8051 58.1742C45.0251 57.7212 47.3349 55.8598 46.4492 53.418C46.2972 53.0114 46.0696 52.6374 45.7785 52.3155C44.7551 51.1646 43.3236 50.6731 41.924 50.1979C39.0123 49.2094 36.0209 48.2084 32.948 48.3176C30.416 48.45 27.9776 49.3178 25.931 50.8149C23.8845 52.3119 22.3186 54.3732 21.4251 56.7466C21.2133 57.3403 21.0493 57.95 20.9345 58.5699C19.8797 64.2427 23.1731 69.8382 28.5222 71.9984L30.7473 73.0799Z" fill="#2F2E41"/>
<path opacity="0.2" d="M17.6152 123.81L17.8675 108.895L25.7662 93.0095L19.4266 109.316L17.6152 123.81Z" fill="black"/>
<path d="M89.2428 161.241L55.8972 147.383C55.1663 147.082 54.5137 146.618 53.989 146.027C53.4643 145.435 53.0815 144.732 52.8695 143.97C52.6516 143.199 52.6124 142.389 52.7548 141.601C52.8972 140.813 53.2175 140.068 53.6912 139.422C62.1129 127.824 67.6866 114.405 69.9616 100.252C70.0848 99.4603 70.3868 98.7076 70.8446 98.0507C71.3024 97.3938 71.904 96.85 72.6036 96.4607C73.2928 96.0734 74.0613 95.8485 74.8505 95.803C75.6398 95.7576 76.429 95.8929 77.1581 96.1985L110.504 110.057C111.654 110.538 112.595 111.413 113.161 112.524C113.726 113.635 113.879 114.912 113.592 116.125C109.865 131.294 103.838 145.804 95.7213 159.149C95.0641 160.209 94.0522 161.001 92.8658 161.384C91.6794 161.767 90.3955 161.716 89.2428 161.241Z" fill="#E6E6E6"/>
<path d="M76.1149 98.7081C75.7648 98.5613 75.3858 98.4962 75.0068 98.5179C74.6278 98.5396 74.2587 98.6474 73.9277 98.8333C73.5873 99.0232 73.2948 99.2883 73.0723 99.6084C72.8498 99.9284 72.7033 100.295 72.6438 100.68C70.3008 115.256 64.5605 129.076 55.8872 141.022C55.6562 141.335 55.4999 141.698 55.4301 142.081C55.3603 142.465 55.3789 142.859 55.4844 143.234C55.5863 143.6 55.7703 143.938 56.0224 144.222C56.2744 144.506 56.5879 144.729 56.939 144.873L90.2846 158.732C90.8375 158.962 91.4539 158.988 92.0243 158.806C92.5946 158.623 93.0818 158.245 93.3991 157.737C101.372 144.628 107.292 130.376 110.953 115.476C111.089 114.893 111.014 114.28 110.74 113.747C110.467 113.214 110.014 112.796 109.461 112.566L76.1149 98.7081Z" fill="#A6A6A6"/>
<path d="M93.8702 129.557L76.3718 122.285C75.7069 122.008 75.1791 121.478 74.9042 120.812C74.6292 120.146 74.6296 119.398 74.9053 118.733L75.3126 117.752C75.5897 117.087 76.1193 116.559 76.785 116.284C77.4508 116.009 78.1985 116.009 78.864 116.285L96.3624 123.557C97.0273 123.834 97.5551 124.364 97.8301 125.03C98.105 125.696 98.1046 126.444 97.8289 127.11L97.4216 128.09C97.1445 128.755 96.6149 129.283 95.9491 129.558C95.2834 129.833 94.5357 129.833 93.8702 129.557Z" fill="#112A5C"/>
<path d="M88.7228 141.949L71.2243 134.677C70.5594 134.4 70.0316 133.87 69.7567 133.204C69.4818 132.538 69.4822 131.79 69.7578 131.125L70.1652 130.144C70.4423 129.479 70.9718 128.951 71.6376 128.676C72.3034 128.401 73.051 128.401 73.7165 128.677L91.215 135.949C91.8799 136.226 92.4077 136.756 92.6826 137.422C92.9575 138.088 92.9571 138.836 92.6815 139.501L92.2741 140.482C91.997 141.147 91.4675 141.675 90.8017 141.95C90.1359 142.225 89.3883 142.225 88.7228 141.949Z" fill="#112A5C"/>
<path d="M100.882 112.142C100.621 112.141 100.361 112.091 100.118 111.992L82.4861 104.861C81.9855 104.658 81.5859 104.265 81.3749 103.767C81.1639 103.27 81.1588 102.709 81.3607 102.208L82.7186 98.8482C82.9213 98.3471 83.3146 97.947 83.8121 97.7359C84.3096 97.5248 84.8706 97.5201 85.3716 97.7227L103.004 104.853C103.505 105.056 103.904 105.45 104.115 105.947C104.326 106.445 104.331 107.006 104.129 107.507L102.771 110.866C102.619 111.243 102.358 111.565 102.021 111.792C101.685 112.019 101.288 112.141 100.882 112.142Z" fill="#CCCCCC"/>
<path d="M63.849 219H0.45283C0.332732 219 0.217559 218.952 0.132637 218.867C0.0477153 218.782 0 218.667 0 218.547C0 218.427 0.0477153 218.312 0.132637 218.227C0.217559 218.142 0.332732 218.094 0.45283 218.094H63.849C63.9691 218.094 64.0843 218.142 64.1692 218.227C64.2541 218.312 64.3018 218.427 64.3018 218.547C64.3018 218.667 64.2541 218.782 64.1692 218.867C64.0843 218.952 63.9691 219 63.849 219Z" fill="#CCCCCC"/>
</g>
<defs>
<clipPath id="clip0_12467_92391">
<rect width="220" height="219" fill="white"/>
</clipPath>
</defs>
</svg>
