<svg width="347" height="219" viewBox="0 0 347 219" fill="none" xmlns="http://www.w3.org/2000/svg">
<g clip-path="url(#clip0_12467_92245)">
<path d="M347 0.102661H220.306V66.6359H347V0.102661Z" fill="#F2F2F2"/>
<path d="M346.922 -0.000366211H220.229V7.7128H346.922V-0.000366211Z" fill="#E6E6E6"/>
<path d="M344.629 10.3948H222.978V63.2479H344.629V10.3948Z" fill="white"/>
<path d="M232.234 5.11253C232.939 5.11253 233.51 4.54127 233.51 3.8366C233.51 3.13192 232.939 2.56067 232.234 2.56067C231.53 2.56067 230.958 3.13192 230.958 3.8366C230.958 4.54127 231.53 5.11253 232.234 5.11253Z" fill="white"/>
<path d="M237.076 5.11253C237.781 5.11253 238.352 4.54127 238.352 3.8366C238.352 3.13192 237.781 2.56067 237.076 2.56067C236.371 2.56067 235.8 3.13192 235.8 3.8366C235.8 4.54127 236.371 5.11253 237.076 5.11253Z" fill="white"/>
<path d="M227.379 5.11253C228.084 5.11253 228.655 4.54127 228.655 3.8366C228.655 3.13192 228.084 2.56067 227.379 2.56067C226.675 2.56067 226.104 3.13192 226.104 3.8366C226.104 4.54127 226.675 5.11253 227.379 5.11253Z" fill="white"/>
<path d="M328.03 26.0817H245.185V29.7746H328.03V26.0817Z" fill="#F2F2F2"/>
<path d="M274.723 35.3137H245.185V39.0066H274.723V35.3137Z" fill="#F2F2F2"/>
<path d="M304.03 44.5457H245.185V48.2387H304.03V44.5457Z" fill="#F2F2F2"/>
<path d="M134.711 6.94373H0.0820312V77.6439H134.711V6.94373Z" fill="#F2F2F2"/>
<path d="M134.629 6.83466H0V15.0306H134.629V6.83466Z" fill="#E6E6E6"/>
<path d="M132.191 18.3539H3.12646V73.9175H132.191V18.3539Z" fill="white"/>
<path d="M12.7575 12.2677C13.5063 12.2677 14.1132 11.6606 14.1132 10.9118C14.1132 10.163 13.5063 9.55591 12.7575 9.55591C12.0088 9.55591 11.4019 10.163 11.4019 10.9118C11.4019 11.6606 12.0088 12.2677 12.7575 12.2677Z" fill="white"/>
<path d="M17.9035 12.2677C18.6523 12.2677 19.2592 11.6606 19.2592 10.9118C19.2592 10.163 18.6523 9.55591 17.9035 9.55591C17.1548 9.55591 16.5479 10.163 16.5479 10.9118C16.5479 11.6606 17.1548 12.2677 17.9035 12.2677Z" fill="white"/>
<path d="M7.59836 12.2677C8.34709 12.2677 8.95405 11.6606 8.95405 10.9118C8.95405 10.163 8.34709 9.55591 7.59836 9.55591C6.84964 9.55591 6.24268 10.163 6.24268 10.9118C6.24268 11.6606 6.84964 12.2677 7.59836 12.2677Z" fill="white"/>
<path d="M106.285 34.6368H32.0684V37.9448H106.285V34.6368Z" fill="#F2F2F2"/>
<path d="M58.53 42.9069H32.0684V46.215H58.53V42.9069Z" fill="#F2F2F2"/>
<path d="M84.785 51.1774H32.0684V54.4855H84.785V51.1774Z" fill="#F2F2F2"/>
<path d="M248.272 30.4024H97.9912V109.322H248.272V30.4024Z" fill="#E6E6E6"/>
<path d="M248.18 30.2804H97.8994V39.4294H248.18V30.2804Z" fill="#112A5C"/>
<path d="M244.657 42.2394H101.365V104.918H244.657V42.2394Z" fill="white"/>
<path d="M112.14 36.3446C112.976 36.3446 113.653 35.667 113.653 34.8312C113.653 33.9953 112.976 33.3177 112.14 33.3177C111.304 33.3177 110.627 33.9953 110.627 34.8312C110.627 35.667 111.304 36.3446 112.14 36.3446Z" fill="white"/>
<path d="M117.884 36.3446C118.72 36.3446 119.397 35.667 119.397 34.8312C119.397 33.9953 118.72 33.3177 117.884 33.3177C117.048 33.3177 116.371 33.9953 116.371 34.8312C116.371 35.667 117.048 36.3446 117.884 36.3446Z" fill="white"/>
<path d="M106.381 36.3446C107.217 36.3446 107.895 35.667 107.895 34.8312C107.895 33.9953 107.217 33.3177 106.381 33.3177C105.546 33.3177 104.868 33.9953 104.868 34.8312C104.868 35.667 105.546 36.3446 106.381 36.3446Z" fill="white"/>
<path d="M228.02 58.3783H118.152V63.2757H228.02V58.3783Z" fill="#E6E6E6"/>
<path d="M157.325 70.6219H118.152V75.5193H157.325V70.6219Z" fill="#E6E6E6"/>
<path d="M196.192 82.8652H118.152V87.7626H196.192V82.8652Z" fill="#E6E6E6"/>
<path d="M176.606 34.5198L169.542 38.4333L177.075 35.7765L176.606 34.5198Z" fill="white"/>
<path d="M179.789 38.3715C180.824 38.0353 181.114 36.0719 180.437 33.9862C179.759 31.9004 178.371 30.4822 177.336 30.8184C176.301 31.1547 176.011 33.1181 176.688 35.2038C177.366 37.2895 178.754 38.7078 179.789 38.3715Z" fill="#3F3D56"/>
<path d="M179.017 32.3013L183.702 30.61L184.698 33.3686L180.164 36.4317L179.017 32.3013Z" fill="#3F3D56"/>
<path d="M268.498 211.64H139.433C139.344 211.64 139.257 211.605 139.194 211.541C139.13 211.478 139.095 211.392 139.095 211.302C139.095 211.212 139.13 211.126 139.194 211.062C139.257 210.999 139.344 210.963 139.433 210.963H268.498C268.588 210.963 268.674 210.999 268.738 211.062C268.801 211.126 268.837 211.212 268.837 211.302C268.837 211.392 268.801 211.478 268.738 211.541C268.674 211.605 268.588 211.64 268.498 211.64Z" fill="#D6D6E3"/>
<path d="M207.027 88.6313C213.871 88.6313 219.419 83.0825 219.419 76.2376C219.419 69.3927 213.871 63.8439 207.027 63.8439C200.183 63.8439 194.635 69.3927 194.635 76.2376C194.635 83.0825 200.183 88.6313 207.027 88.6313Z" fill="#112A5C"/>
<path d="M209.092 86.5659C215.936 86.5659 221.484 81.0171 221.484 74.1722C221.484 67.3274 215.936 61.7785 209.092 61.7785C202.248 61.7785 196.7 67.3274 196.7 74.1722C196.7 81.0171 202.248 86.5659 209.092 86.5659Z" stroke="#3F3D56" stroke-miterlimit="10"/>
<path d="M224.995 97.1006H191.124V100.406H224.995V97.1006Z" fill="#F2F2F2"/>
<path d="M178.147 47.99L180.214 43.4456C180.214 43.4456 185.171 30.2256 180.627 32.7056C176.083 35.1856 174.431 41.7943 174.431 41.7943L173.191 45.9256L178.147 47.99Z" fill="#9F616A"/>
<path d="M234.737 116.569C234.737 116.569 227.715 130.202 225.649 130.615C223.584 131.029 223.583 118.222 223.583 118.222C223.583 118.222 227.714 114.504 229.366 114.917C231.018 115.33 234.737 116.569 234.737 116.569Z" fill="#9F616A"/>
<path d="M224.41 202.499C224.41 202.499 228.128 204.566 226.477 209.109C224.826 213.652 223.998 212.414 223.172 216.132C222.346 219.85 214.911 219.437 214.498 217.785C214.085 216.132 213.259 209.522 215.324 207.045C217.389 204.567 224.41 202.499 224.41 202.499Z" fill="#090814"/>
<path d="M187.647 202.499C187.647 202.499 183.93 204.566 185.581 209.109C187.232 213.652 188.059 212.414 188.886 216.132C189.712 219.85 197.147 219.437 197.56 217.785C197.973 216.132 198.799 209.522 196.734 207.045C194.668 204.567 187.647 202.499 187.647 202.499Z" fill="#090814"/>
<path d="M222.343 119.874C222.343 119.874 225.648 121.94 226.474 134.747C227.3 147.554 226.061 162.013 225.648 165.318C225.235 168.623 226.061 173.581 226.887 176.058C227.713 178.536 224.821 197.541 224.821 197.541C225.43 198.833 225.746 200.244 225.746 201.672C225.746 203.101 225.43 204.511 224.821 205.803C222.754 210.348 216.56 214.892 214.907 210.348C214.821 208.762 214.494 193.41 214.494 193.41C214.494 193.41 212.842 177.711 213.255 173.579C213.668 169.448 208.298 145.074 207.472 140.943C206.646 136.812 207.059 133.506 206.646 134.746C206.233 135.985 198.8 170.275 198.8 170.275C198.8 170.275 199.626 192.171 199.213 195.063C198.8 197.954 195.909 215.306 191.365 210.761C186.821 206.217 187.647 204.564 187.234 202.499C186.821 200.433 187.234 197.954 187.234 194.649C187.234 191.344 183.93 172.753 185.582 169.862C187.234 166.97 186.408 163.252 185.995 156.642C185.581 150.032 185.168 118.222 189.299 112.437C193.43 106.653 222.343 119.874 222.343 119.874Z" fill="#090814"/>
<path d="M212.225 42.4129C217.7 42.4129 222.139 37.9738 222.139 32.4979C222.139 27.0219 217.7 22.5828 212.225 22.5828C206.75 22.5828 202.312 27.0219 202.312 32.4979C202.312 37.9738 206.75 42.4129 212.225 42.4129Z" fill="#A0616A"/>
<path d="M218.627 36.4222C218.627 36.4222 218.214 51.2956 220.28 53.7736C222.345 56.2516 202.518 51.7069 202.518 51.7069C202.518 51.7069 207.062 42.2049 204.17 36.0082C201.279 29.8115 218.627 36.4222 218.627 36.4222Z" fill="#9F616A"/>
<path d="M222.345 52.1213C222.345 52.1213 221.518 48.8163 216.562 47.99C211.605 47.1636 205.743 46.3376 203.924 47.99C202.105 49.6423 201.278 51.708 200.039 51.708H194.256L185.169 67.8201C185.169 67.8201 189.713 73.1908 188.473 83.1058C187.234 93.0209 185.169 118.222 185.169 118.222C188.481 122.631 226.475 132.681 224.823 118.222C224.823 118.222 222.757 114.504 223.584 111.199C224.411 107.894 226.889 85.5852 226.889 85.5852L236.389 60.3844C236.389 60.3844 223.171 53.7737 222.345 52.1213Z" fill="#D6D6E3"/>
<path d="M237.045 61.7915C239.826 69.1275 237.064 87.2741 237.064 87.2741C237.064 87.2741 238.795 91.5826 238.445 95.3842C238.095 99.1858 237.442 109.5 237.442 109.5C237.442 109.5 237.276 124.143 229.276 116.687C229.276 116.687 226.762 115.103 227.886 108.035C229.009 100.967 227.968 88.5149 227.499 85.2698C227.029 82.0247 225.197 71.7529 225.197 71.7529C225.197 71.7529 234.266 54.4558 237.045 61.7915Z" fill="#D6D6E3"/>
<path d="M196.322 52.9472L194.256 51.7079C194.256 51.7079 191.364 50.4685 187.234 51.7079C183.103 52.9472 181.038 52.5342 179.386 52.1209C177.733 51.7075 178.974 47.5752 178.974 47.5752C178.974 47.5752 175.669 41.7915 172.365 45.0965C169.06 48.4015 169.06 55.0115 169.06 55.0115C169.06 55.0115 166.994 59.1429 174.43 61.6216C181.866 64.1002 185.168 67.8186 185.168 67.8186H193.43L196.322 52.9472Z" fill="#D6D6E3"/>
<path d="M211.552 44.3326C211.54 43.964 211.421 43.607 211.21 43.3043C210.999 43.0016 210.706 42.7662 210.365 42.6264C209.909 42.471 209.434 42.3773 208.953 42.3475C207.547 42.1663 206.099 41.6503 205.28 40.5756C204.189 39.1445 204.488 37.1428 203.613 35.5894C203.206 34.9779 202.761 34.3928 202.28 33.8378C200.756 31.7955 200.485 29.1878 200.346 26.7074C200.278 26.2041 200.337 25.6918 200.516 25.2167C200.778 24.7894 201.095 24.3984 201.458 24.0536C202.075 23.3374 202.407 22.4201 202.393 21.4753C202.348 19.5539 205.097 18.2631 207.043 17.5994C208.99 16.9357 211.101 16.8303 213.175 16.8022C214.367 16.7859 215.597 16.8001 216.693 17.2355C217.324 17.5093 217.916 17.8623 218.457 18.2858C220.754 19.9673 222.911 22.0343 223.682 24.6505C223.985 25.8448 224.125 27.0742 224.101 28.3059C224.137 28.6885 224.081 29.0743 223.937 29.4307C223.661 29.985 223.012 30.2852 222.592 30.7551C221.807 31.6329 221.948 32.9034 221.846 34.0394C221.719 35.211 221.319 36.3363 220.677 37.3246C220.035 38.3129 219.17 39.1366 218.152 39.7293C217.729 39.9363 217.34 40.2056 216.996 40.5282C216.738 40.8706 216.524 41.2444 216.359 41.6408C215.533 43.227 213.451 44.2767 211.552 44.3326Z" fill="#090814"/>
</g>
<defs>
<clipPath id="clip0_12467_92245">
<rect width="347" height="219" fill="white"/>
</clipPath>
</defs>
</svg>
