<svg xmlns="http://www.w3.org/2000/svg" width="561.54772" height="636.42312" viewBox="0 0 561.54772 636.42312" xmlns:xlink="http://www.w3.org/1999/xlink" role="img" artist="Katerina Limpitsouni" source="https://undraw.co/"><path d="M592.15781,398.761h81.43311a1,1,0,0,0,0-2H592.15781a1,1,0,0,0,0,2Z" transform="translate(-318.51013 -131.91264)" fill="#3f3d56"/><path d="M629.67393,303.58269a7.74427,7.74427,0,0,0-3.48552,10.22377,7.42858,7.42858,0,0,0,.63322,1.05238L611.4891,337.10406l8.55036,11.75148,17.709-32.744a7.72281,7.72281,0,0,0,1.98883-9.21623,7.3907,7.3907,0,0,0-9.88217-3.40406Q629.76392,303.53572,629.67393,303.58269Z" transform="translate(-318.51013 -131.91264)" fill="#ffb6b6"/><path d="M538.715,308.06663l0,0a13.37258,13.37258,0,0,0-3.88835,19.86063l19.03209,24.27643,42.13954,31.149s29.67783-25.92733,29.91566-33.98608-2.93811-9.76563.23782-8.05875,6.06774.42724,4.97753-.47355-.70564-1.00066-.04449-2.5387,2.9847-8.7907,2.9847-8.7907l-11.57268-9.44641s-10.802,6.55251-11.51336,9.63373,3.17594,1.70688-.71137,3.08123-9.63622-2.63463-5.03173,1.71655,4.45878,6.44526.64432,6.77257-9.83589,10.94532-9.83589,10.94532l-41.158-41.90195A13.37259,13.37259,0,0,0,538.715,308.06663Z" transform="translate(-318.51013 -131.91264)" fill="#e6e6e6"/><path d="M534.57908,767.36337H408.20115a9.82225,9.82225,0,0,1-9.811-9.81055V651.17391a9.82224,9.82224,0,0,1,9.811-9.81054H534.57908a9.82223,9.82223,0,0,1,9.811,9.81054V757.55282A9.82224,9.82224,0,0,1,534.57908,767.36337Z" transform="translate(-318.51013 -131.91264)" fill="#f2f2f2"/><polygon points="22.874 487.734 22.824 498.75 66.241 504.189 66.314 487.929 22.874 487.734" fill="#ffb6b6"/><path d="M346.50068,616.79417l1.01461,18.40311-7.88255-.03578L327.473,652.59828a4.9238,4.9238,0,0,1-8.96283-2.83857l.09942-21.90366,7.81419-3.74-7.79036-1.5095.03748-8.25856Z" transform="translate(-318.51013 -131.91264)" fill="#2f2e41"/><path d="M703.96339,390.03562c-26.6619-6.63657-49.55269-19.682-67.44794-41.21723a6.04124,6.04124,0,0,1-2.00248-8.29565l31.12817-50.93817a6.0412,6.0412,0,0,1,8.29563-2.00246l67.44794,41.21724a6.04122,6.04122,0,0,1,2.00251,8.29562l-31.12817,50.93817A6.04122,6.04122,0,0,1,703.96339,390.03562Z" transform="translate(-318.51013 -131.91264)" fill="#e6e6e6"/><path d="M685.979,373.679c-14.03813-1.53249-28.62794-12.75237-43.36166-26.49818a5.65768,5.65768,0,0,1-1.87538-7.76914l26.752-43.77706a5.65793,5.65793,0,0,1,7.76928-1.87564l60.01949,36.67774a5.65791,5.65791,0,0,1,1.87524,7.76937l-16.57233,27.119A25.202,25.202,0,0,1,685.979,373.679Z" transform="translate(-318.51013 -131.91264)" fill="#fff"/><path d="M698.28789,321.07823,677.523,355.27068a2.40023,2.40023,0,1,1-4.10309-2.4918l20.76493-34.19245a2.40023,2.40023,0,1,1,4.10309,2.4918Z" transform="translate(-318.51013 -131.91264)" fill="#112A5C"/><path d="M707.307,326.55551,686.5421,360.748a2.40023,2.40023,0,0,1-4.10309-2.49179l20.76493-34.19245a2.40023,2.40023,0,0,1,4.10309,2.49179Z" transform="translate(-318.51013 -131.91264)" fill="#112A5C"/><path d="M566.89011,435.86337s-4.38,67.54-8,78c-3.93,11.32-3.42,28.5-9.32,44.95-1.82,5.07995-3.68,10.23-5.54,15.34-.37,1.03-.75,2.06-1.12,3.09-2.43,6.65-4.86,13.19-7.18,19.37-.33.87-.66,1.73-.98,2.57995-.01.02-.01.04-.02.05005-7.66,20.15-14.22,36-16.84,38.62-2.8,2.8-21.72,3.96-45.1,4.28-43.33.58-101.99-1.71-101.99-1.71l.09-23.57s.52-.15,1.49-.44c1.79-.52,5.12-1.49,9.47-2.78,18.17-5.36,54.18-16.15,70.67-22.11,4.66-1.68,7.76-2.98,8.46-3.67,4.1-4,5.91,0,8.51,4,2.6,4,3.4,0,6.8-2.94,3.4-2.94,11.06,1.1,11.06,1.1s.07-2.66.18-6.9c.16-6.26.4-16,.64-25.75-.01-.01-.01-.01,0-.01.09-3.67005.18-7.34.26-10.82.07-2.7.13-5.29.19-7.69.16-7.19.27-12.63.27-13.99,0-4.44,0-.99,3.51-3.67005a15.67285,15.67285,0,0,0,1.49-1.32995,17.32066,17.32066,0,0,0,2.06-2.2c.26-.56-1.35.2-3.44-.22a6.3166,6.3166,0,0,1-3.03-1.55c-4.41-3.97.35-16.15.35-16.15-10.02-20.04-9.3-36.48-4.61-49.14a63.00711,63.00711,0,0,1,16.26-23.83,59.50548,59.50548,0,0,1,8.9-6.98l.31-1.65,3.39-18.32995a38.51174,38.51174,0,0,1,24.38-4.43006,56.3,56.3,0,0,1,17.99,5.83,66.76979,66.76979,0,0,1,12.85,8.44Z" transform="translate(-318.51013 -131.91264)" fill="#2f2e41"/><polygon points="156.242 609.949 167.212 610.969 176.454 568.2 160.264 566.695 156.242 609.949" fill="#ffb6b6"/><path d="M506.35014,758.62338l-16.3-13.65.73-7.85-3.79-.13-11.75-.38-2.88-.1-4.88995,27.51,8.23.76,2.19-7.63,3.03,8.12,21.81,2.03a4.9262,4.9262,0,0,0,3.62-8.68Z" transform="translate(-318.51013 -131.91264)" fill="#2f2e41"/><path d="M535.73014,596.61337c-4.17,22.72-21.84,75.97-32.52,107.14-4.87,14.24-8.27,23.87994-8.27,23.87994l-5.55-1.75-9.36-2.96-3.42005-1.08-4.13995-1.31s.97-51.22.32-78.39c-.22-8.76-.6-15.01995-1.23-16.26-2.6-5.1,1.75-5.63995,6.34-6.93,4.6-1.29,1.01-3.23-.78-7.37-1.21-2.76,1.17005-6.43,2.86005-8.53a20.69953,20.69953,0,0,1,1.49-1.69s-11.7-3.98005-24.93-8.47c-.01.01-.01,0-.01,0-1.33-.45-2.67005-.9-4.01-1.36,4.66-1.68,7.76-2.98,8.46-3.67,4.1-4,5.91,0,8.51,4,2.6,4,3.4,0,6.8-2.94,3.4-2.94,11.06,1.1,11.06,1.1s.07-2.66.18-6.9c.16-6.26.4-16,.64-25.75-.01-.01-.01-.01,0-.01.09-3.67005.18-7.34.26-10.82,7.05,5.4,13.89,10.7,20.09,15.6.01.01.03.02.03.04,14.91,11.78,26.1,21.24,27.67,24.24C536.93009,587.78335,536.6901,591.39333,535.73014,596.61337Z" transform="translate(-318.51013 -131.91264)" fill="#2f2e41"/><path d="M494.79119,424.73488c-4.688-1.43009-9.61695,3.398-9.47423,8.29717s4.05481,9.04669,8.56137,10.97369,75.94495,13.95811,81.23128,11.23991,9.12727-9.238,6.793-14.70476c-1.50322-3.52041-4.744-19.88885-7.6186-22.41669-9.67617-8.50906-.79647-19.608,5.17825-31.02442,5.28468-10.09792,16.67872-17.8219,16.56534-29.21852-.08149-8.1913-6.2772-14.8653-12.07846-20.64885L565.50446,318.844l-17.51011-17.45667c-3.74175-3.73034-19.79406-5.70364-22.66812-3.97019-6.00633,3.62263-20.86818,63.98136-22.99181,69.48638-.68188,1.76763,3.74927,24.3886,5.55569,24.95982,4.99161,15.81755-3.78642,18.87019-13.32841,32.43712" transform="translate(-318.51013 -131.91264)" fill="#e6e6e6"/><path d="M638.09128,333.36345a7.74429,7.74429,0,0,0-5.68285,9.18583,7.42941,7.42941,0,0,0,.38194,1.16731l-19.91744,18.25464,5.70691,13.36552,24.58082-27.95648a7.72278,7.72278,0,0,0,3.99879-8.53837,7.39068,7.39068,0,0,0-8.87109-5.52708Q638.1895,333.33779,638.09128,333.36345Z" transform="translate(-318.51013 -131.91264)" fill="#ffb6b6"/><path d="M548.43192,317.4l0,0a13.37258,13.37258,0,0,0-8.22982,18.48875L553.3255,363.8054l34.1097,39.781s34.72283-18.63666,36.75618-26.43829-.68064-10.1753,2.03334-7.80164,5.81867,1.77288,4.95742.65117-.46408-1.13308.52417-2.48439,4.87433-7.901,4.87433-7.901l-9.168-11.79443s-11.99343,3.97189-13.37561,6.81611,2.714,2.37366-1.38219,2.84421-8.80337-4.72214-5.28812.54827,2.9051,7.27891-.886,6.74521-12.03381,8.4695-12.03381,8.4695l-30.74913-50.04242A13.37257,13.37257,0,0,0,548.43192,317.4Z" transform="translate(-318.51013 -131.91264)" fill="#e6e6e6"/><circle cx="218.48235" cy="128.05389" r="29.89763" fill="#ffb6b6"/><path d="M513.89011,237.86337c.30768-2.69066,2.15182-6.01618,3.43459-8.40131s3.75986-4.33293,6.46294-4.16671a6.89389,6.89389,0,0,1,5.28144,3.58917,14.45722,14.45722,0,0,1,1.64289,6.38285,33.42934,33.42934,0,0,1-10.87013,26.61787c-2.0954,1.87931-4.61715,3.5518-7.43113,3.61545a9.58515,9.58515,0,0,1-6.78842-3.05324c-4.55482-4.5616-5.24355-12.06085-2.811-18.03054s3.51812-8.29263,9.07879-11.55354" transform="translate(-318.51013 -131.91264)" fill="#2f2e41"/><path d="M555.89011,280.86337c-.5,2.66,4.1,15.31,2.63,17.59,0,0-15.22142,5.28689-21.04143,5.66689-7.11.46-12.82857-2.45687-19.47859-6.84688a14.93,14.93,0,0,0-2.01-6.76,9.04542,9.04542,0,0,1-.94,4.62c-9.74-7.75994-13.3961-29.09914-3.7661-39.00912l10-23c-3,1,6.05614-14.45084,15.60612-3.26083,11.95-12.17005,35.09981,5.34987,38.0002,21-2.791-3.53247-4.24463-3.116-4.96045-.67993a13.77522,13.77522,0,0,0-3.79976-5.31007,11.5133,11.5133,0,0,1,1.24,5.31c-18.85,1.17-15.34159,13.8868.1086,32.93685-5.71338-3.55664-1.85791,11.76978-4.90869,15.43311C562.4201,295.99327,556.43009,283.35336,555.89011,280.86337Z" transform="translate(-318.51013 -131.91264)" fill="#2f2e41"/><path d="M750.457,590.86337h81.4331a1,1,0,0,0,0-2H750.457a1,1,0,0,0,0,2Z" transform="translate(-318.51013 -131.91264)" fill="#3f3d56"/><path d="M715.457,251.86337h81.4331a1,1,0,0,0,0-2H715.457a1,1,0,0,0,0,2Z" transform="translate(-318.51013 -131.91264)" fill="#3f3d56"/><path d="M779.05683,234.39054c-16.51077-21.96122-26.0537-46.51942-26.36641-74.51776a6.04125,6.04125,0,0,1,3.67595-7.70164l56.27746-19.91249a6.04122,6.04122,0,0,1,7.70161,3.676l26.3664,74.51777a6.04121,6.04121,0,0,1-3.67591,7.70162l-56.27746,19.91249A6.04121,6.04121,0,0,1,779.05683,234.39054Z" transform="translate(-318.51013 -131.91264)" fill="#e6e6e6"/><path d="M775.4099,210.35566c-9.93022-10.04034-14.1809-27.94788-16.95072-47.90679a5.65769,5.65769,0,0,1,3.44264-7.21282l48.36574-17.1131a5.65791,5.65791,0,0,1,7.21308,3.44253l23.46251,66.31068a5.65791,5.65791,0,0,1-3.4429,7.21291l-29.96157,10.60122A25.202,25.202,0,0,1,775.4099,210.35566Z" transform="translate(-318.51013 -131.91264)" fill="#fff"/><path d="M818.12805,177.28736l-37.67558,13.44829a2.40023,2.40023,0,0,1-1.6138-4.52107l37.67559-13.44829a2.40023,2.40023,0,0,1,1.61379,4.52107Z" transform="translate(-318.51013 -131.91264)" fill="#112A5C"/><path d="M784.316,175.38008l-8.28863,2.95862a2.40023,2.40023,0,1,1-1.61379-4.52107l8.28863-2.95862a2.40023,2.40023,0,0,1,1.61379,4.52107Z" transform="translate(-318.51013 -131.91264)" fill="#112A5C"/><path d="M825.22271,197.16317l-37.67558,13.44829a2.40023,2.40023,0,0,1-1.61379-4.52107l37.67558-13.44829a2.40023,2.40023,0,0,1,1.61379,4.52107Z" transform="translate(-318.51013 -131.91264)" fill="#112A5C"/><path d="M821.67538,187.22527,783.9998,200.67355a2.40023,2.40023,0,0,1-1.6138-4.52107l37.67559-13.44828a2.40023,2.40023,0,1,1,1.61379,4.52107Z" transform="translate(-318.51013 -131.91264)" fill="#112A5C"/><circle cx="437.37998" cy="25.95072" r="10" fill="#112A5C"/><path d="M812.05683,572.39054c-16.51077-21.96122-26.0537-46.51942-26.36641-74.51776a6.04125,6.04125,0,0,1,3.67595-7.70164l56.27746-19.91249a6.04122,6.04122,0,0,1,7.70161,3.676l26.3664,74.51777a6.04121,6.04121,0,0,1-3.67591,7.70162l-56.27746,19.91249A6.04121,6.04121,0,0,1,812.05683,572.39054Z" transform="translate(-318.51013 -131.91264)" fill="#e6e6e6"/><path d="M808.4099,548.35566c-9.93022-10.04034-14.1809-27.94788-16.95072-47.90679a5.65769,5.65769,0,0,1,3.44264-7.21282l48.36574-17.1131a5.65791,5.65791,0,0,1,7.21308,3.44253l23.46251,66.31068a5.65791,5.65791,0,0,1-3.4429,7.21291l-29.96157,10.60122A25.202,25.202,0,0,1,808.4099,548.35566Z" transform="translate(-318.51013 -131.91264)" fill="#fff"/><path d="M851.12805,515.28736l-37.67558,13.44829a2.40023,2.40023,0,0,1-1.6138-4.52107l37.67559-13.44829a2.40023,2.40023,0,0,1,1.61379,4.52107Z" transform="translate(-318.51013 -131.91264)" fill="#112A5C"/><path d="M817.316,513.38008l-8.28863,2.95862a2.40023,2.40023,0,0,1-1.61379-4.52107l8.28863-2.95862a2.40023,2.40023,0,1,1,1.61379,4.52107Z" transform="translate(-318.51013 -131.91264)" fill="#112A5C"/><path d="M854.67538,525.22527,816.9998,538.67355a2.40023,2.40023,0,0,1-1.6138-4.52107l37.67559-13.44828a2.40023,2.40023,0,1,1,1.61379,4.52107Z" transform="translate(-318.51013 -131.91264)" fill="#112A5C"/><circle cx="472.37998" cy="362.95072" r="10" fill="#112A5C"/><circle cx="314.08079" cy="172.84836" r="10" fill="#112A5C"/><path d="M528.68773,256.37037a1.00011,1.00011,0,0,1-.273-1.96191c.26221-.43262.15479-2.25342.06836-3.72461-.32519-5.52393-.86963-14.769,8.106-21.00977a.99976.99976,0,0,1,1.1416,1.6416c-8.05469,5.60108-7.57129,13.81543-7.251,19.25049.18262,3.10742.31494,5.352-1.56982,5.7793A.99351.99351,0,0,1,528.68773,256.37037Z" transform="translate(-318.51013 -131.91264)" fill="#112A5C"/><path d="M332.77144,767.14576a1.18647,1.18647,0,0,0,1.19006,1.19h253.29a1.19,1.19,0,0,0,0-2.38h-253.29A1.1865,1.1865,0,0,0,332.77144,767.14576Z" transform="translate(-318.51013 -131.91264)" fill="#ccc"/><path d="M529.15379,234.51435a56.40248,56.40248,0,0,0-19.20647-4.25648c-5.2367-.22192-11.48451.94577-13.6133,5.7354-1.29144,2.90564-.60343,6.31148.57791,9.26361s2.83917,5.74133,3.52323,8.84659c1.47365,6.68966-2.00452,13.77909-7.34264,18.07184s-12.2271,6.18709-19.02279,7.04834c5.10568,1.89432,10.28959,3.80662,15.71637,4.261s11.22244-.72533,15.27427-4.36389c4.3847-3.93747,6.0695-10.053,6.81534-15.89878s.78443-11.86628,2.766-17.41629,6.53338-10.71869,12.40595-11.21089" transform="translate(-318.51013 -131.91264)" fill="#2f2e41"/></svg>