<svg width="344" height="219" viewBox="0 0 344 219" fill="none" xmlns="http://www.w3.org/2000/svg">
<g clip-path="url(#clip0_12467_87530)">
<path d="M118.491 205.008L107.96 211.117L118.342 208.614C118.262 209.47 118.153 210.312 118.008 211.135C117.968 211.364 117.925 211.589 117.877 211.814C117.523 213.704 116.88 215.53 115.971 217.226C115.796 217.538 115.622 217.843 115.441 218.137C115.266 218.434 115.085 218.721 114.9 219H86.9837C86.7512 218.721 86.5297 218.43 86.3263 218.137C84.3358 215.338 83.5295 211.868 84.0821 208.48C84.1836 207.79 84.3291 207.108 84.5178 206.437C84.7008 205.752 84.9227 205.077 85.1824 204.417C85.6359 203.25 86.1711 202.116 86.784 201.025C88.0623 198.725 90.056 196.65 92.4057 194.807C93.5432 193.92 94.7289 193.097 95.9573 192.34C96.1897 192.191 96.4258 192.046 96.6655 191.905C97.0322 191.687 97.3991 191.473 97.7695 191.266C98.5066 190.846 99.251 190.446 99.9956 190.069C100.192 189.968 100.384 189.87 100.577 189.775C102.193 188.97 103.801 188.248 105.334 187.613C105.526 187.533 105.723 187.454 105.915 187.377C108.964 186.132 112.082 185.065 115.255 184.181C115.255 184.181 115.266 184.21 115.285 184.272C115.332 184.439 115.452 184.842 115.615 185.437C116.069 187.087 116.868 190.236 117.511 194.038C117.547 194.245 117.58 194.455 117.616 194.665C118.153 197.881 118.45 201.132 118.506 204.391C118.509 204.594 118.509 204.794 118.509 204.997L118.491 205.008Z" fill="#F2F2F2"/>
<path d="M116.025 183.811C116.022 183.822 115.985 184 115.902 184.327C115.833 184.599 115.738 184.972 115.615 185.437C115.19 187.058 114.434 189.775 113.36 193.048C113.298 193.236 113.232 193.432 113.167 193.628C112.419 195.866 111.529 198.34 110.502 200.883C110.244 201.522 109.986 202.149 109.721 202.762C109.641 202.955 109.561 203.143 109.477 203.328C108.352 205.933 107.193 208.316 106.002 210.479L105.701 211.019C104.316 213.527 102.713 215.909 100.911 218.137C100.667 218.434 100.42 218.721 100.17 219H99.3271C99.5814 218.721 99.8357 218.43 100.083 218.137C101.989 215.832 103.675 213.354 105.12 210.736C105.221 210.558 105.323 210.381 105.421 210.199C106.703 207.874 107.869 205.443 108.911 203.035C108.994 202.85 109.074 202.661 109.154 202.469C110.516 199.284 111.66 196.153 112.582 193.396C112.648 193.2 112.713 193.004 112.775 192.812C114.119 188.741 114.961 185.549 115.284 184.272C115.328 184.083 115.364 183.935 115.39 183.833C115.415 183.739 115.426 183.684 115.43 183.674L115.724 183.743H115.727L116.025 183.811Z" fill="white"/>
<path d="M118.066 194.085C117.881 194.074 117.695 194.056 117.51 194.038C116.089 193.89 114.694 193.557 113.359 193.047C113.167 192.971 112.971 192.895 112.775 192.812C112.244 192.584 111.725 192.328 111.22 192.046C109.134 190.893 107.323 189.3 105.915 187.377C105.867 187.316 105.82 187.25 105.777 187.189C105.588 187.269 105.395 187.348 105.199 187.428C105.243 187.49 105.286 187.552 105.333 187.613C106.803 189.664 108.713 191.362 110.922 192.583C111.461 192.883 112.015 193.154 112.582 193.396C112.775 193.476 112.971 193.555 113.167 193.628C114.596 194.172 116.093 194.521 117.616 194.665C117.797 194.684 117.982 194.698 118.164 194.709C118.131 194.495 118.099 194.288 118.066 194.085Z" fill="white"/>
<path d="M118.505 204.391C115.483 204.667 112.443 204.103 109.72 202.762C109.528 202.672 109.339 202.574 109.154 202.469C109.095 202.442 109.038 202.412 108.983 202.378C106.678 201.098 104.713 199.287 103.25 197.095C101.788 194.902 100.871 192.393 100.576 189.775C100.569 189.714 100.562 189.648 100.554 189.587C100.358 189.688 100.162 189.786 99.9697 189.888C99.9768 189.949 99.9841 190.007 99.9951 190.069C100.331 192.742 101.292 195.298 102.802 197.53C104.312 199.762 106.328 201.607 108.685 202.915C108.758 202.955 108.834 202.998 108.911 203.034C109.099 203.136 109.288 203.234 109.477 203.328C112.272 204.698 115.389 205.279 118.491 205.008C118.654 204.993 118.818 204.975 118.981 204.957C118.981 204.75 118.985 204.547 118.985 204.34C118.825 204.359 118.665 204.377 118.505 204.391Z" fill="white"/>
<path d="M118.008 211.135C114.738 212.207 111.215 212.234 107.93 211.211C107.272 211.008 106.628 210.764 106.002 210.479C105.806 210.391 105.613 210.297 105.421 210.199C105.214 210.098 105.01 209.989 104.81 209.88C102.094 208.369 99.8577 206.127 98.3559 203.408C96.854 200.689 96.1473 197.603 96.3163 194.502C96.3607 193.628 96.4773 192.76 96.6649 191.905C96.6758 191.847 96.6867 191.789 96.7013 191.731C96.4616 191.879 96.2218 192.028 95.9858 192.18C95.975 192.235 95.964 192.286 95.9567 192.34C95.7439 193.511 95.655 194.702 95.6916 195.892C95.7719 198.869 96.6272 201.774 98.1734 204.32C99.7196 206.866 101.903 208.966 104.509 210.413C104.712 210.526 104.916 210.635 105.119 210.736C105.312 210.834 105.508 210.928 105.7 211.019C109.524 212.768 113.858 213.051 117.877 211.814C118.011 211.777 118.146 211.734 118.28 211.69C118.334 211.458 118.382 211.226 118.425 210.994C118.287 211.044 118.149 211.092 118.008 211.135Z" fill="white"/>
<path d="M93.0584 89.4298H72.7217V109.745H93.0584V89.4298Z" fill="#9E616A"/>
<path d="M60.0388 210.846L64.0459 210.846L65.9517 195.408L60.0381 195.408L60.0388 210.846Z" fill="#9E616A"/>
<path d="M71.0372 215.358L65.0162 211.204V208.494L64.3334 208.534L60.0409 208.792L58.6826 208.871L57.9091 218.137L57.8838 218.445H60.7273L60.7853 218.137L61.2357 215.764L62.3869 218.137L62.5358 218.445H70.0749C70.5238 218.444 70.9541 218.266 71.2719 217.949C71.5896 217.632 71.769 217.203 71.7708 216.754C71.7711 216.48 71.7044 216.209 71.5766 215.966C71.4488 215.722 71.2637 215.514 71.0372 215.358Z" fill="#2F2E41"/>
<path d="M83.4727 208.305L87.3236 209.411L93.4275 195.101L87.7441 193.468L83.4727 208.305Z" fill="#9E616A"/>
<path d="M92.7938 215.681L88.1563 210.025L88.9079 207.42L88.2398 207.272L84.5174 206.437L84.0417 206.332L82.7162 206.035L79.2988 215.013L82.0298 215.8L83.2609 213.363L83.7657 216.297L85.487 216.791L90.1682 218.137L91.0143 218.38C91.3617 218.48 91.7321 218.467 92.0715 218.342C92.4108 218.217 92.7012 217.987 92.9001 217.685C93.099 217.384 93.196 217.026 93.1769 216.666C93.1577 216.305 93.0235 215.96 92.7938 215.681Z" fill="#2F2E41"/>
<path d="M342.813 0H130.563C130.247 0.00096021 129.945 0.126746 129.723 0.349788C129.5 0.572831 129.375 0.874933 129.375 1.18988V8.17318C129.375 8.48814 129.5 8.79025 129.723 9.01329C129.945 9.23633 130.247 9.36211 130.563 9.36307H342.813C343.128 9.36214 343.43 9.23637 343.653 9.01332C343.876 8.79027 344.001 8.48814 344 8.17318V1.18988C344.001 0.874923 343.876 0.572804 343.653 0.349755C343.43 0.126706 343.128 0.000927686 342.813 0Z" fill="#E4E4E4"/>
<path d="M136.274 6.02654C137.206 6.02654 137.962 5.27165 137.962 4.34045C137.962 3.40925 137.206 2.65436 136.274 2.65436C135.342 2.65436 134.586 3.40925 134.586 4.34045C134.586 5.27165 135.342 6.02654 136.274 6.02654Z" fill="white"/>
<path d="M142.681 6.02654C143.613 6.02654 144.369 5.27165 144.369 4.34045C144.369 3.40925 143.613 2.65436 142.681 2.65436C141.749 2.65436 140.993 3.40925 140.993 4.34045C140.993 5.27165 141.749 6.02654 142.681 6.02654Z" fill="white"/>
<path d="M149.087 6.02654C150.02 6.02654 150.775 5.27165 150.775 4.34045C150.775 3.40925 150.02 2.65436 149.087 2.65436C148.155 2.65436 147.399 3.40925 147.399 4.34045C147.399 5.27165 148.155 6.02654 149.087 6.02654Z" fill="white"/>
<path d="M336.534 2.08954H329.158C329.013 2.08954 328.874 2.14706 328.771 2.24945C328.669 2.35184 328.611 2.49071 328.611 2.63551C328.611 2.78031 328.669 2.91918 328.771 3.02156C328.874 3.12395 329.013 3.18148 329.158 3.18148H336.534C336.679 3.18148 336.818 3.12395 336.92 3.02156C337.023 2.91918 337.08 2.78031 337.08 2.63551C337.08 2.49071 337.023 2.35184 336.92 2.24945C336.818 2.14706 336.679 2.08954 336.534 2.08954Z" fill="white"/>
<path d="M336.534 4.13556H329.158C329.086 4.13556 329.015 4.14968 328.949 4.17712C328.882 4.20456 328.822 4.24477 328.771 4.29547C328.721 4.34617 328.68 4.40635 328.653 4.47259C328.625 4.53883 328.611 4.60983 328.611 4.68153C328.611 4.75323 328.625 4.82422 328.653 4.89046C328.68 4.9567 328.721 5.01689 328.771 5.06758C328.822 5.11828 328.882 5.1585 328.949 5.18594C329.015 5.21337 329.086 5.2275 329.158 5.2275H336.534C336.605 5.2275 336.676 5.21337 336.743 5.18594C336.809 5.1585 336.869 5.11828 336.92 5.06758C336.971 5.01689 337.011 4.9567 337.039 4.89046C337.066 4.82422 337.08 4.75323 337.08 4.68153C337.08 4.60983 337.066 4.53883 337.039 4.47259C337.011 4.40635 336.971 4.34617 336.92 4.29547C336.869 4.24477 336.809 4.20456 336.743 4.17712C336.676 4.14968 336.605 4.13556 336.534 4.13556Z" fill="white"/>
<path d="M336.534 6.18158H329.158C329.013 6.18158 328.874 6.2391 328.771 6.34149C328.669 6.44388 328.611 6.58274 328.611 6.72754C328.611 6.87234 328.669 7.01121 328.771 7.1136C328.874 7.21599 329.013 7.27351 329.158 7.27351H336.534C336.679 7.27351 336.818 7.21599 336.92 7.1136C337.023 7.01121 337.08 6.87234 337.08 6.72754C337.08 6.58274 337.023 6.44388 336.92 6.34149C336.818 6.2391 336.679 6.18158 336.534 6.18158Z" fill="white"/>
<path d="M335.695 29.5621H280.702C280.319 29.563 279.952 29.7155 279.681 29.986C279.41 30.2566 279.258 30.6233 279.257 31.0059V53.298C279.258 53.6807 279.41 54.0474 279.681 54.3179C279.952 54.5885 280.319 54.7409 280.702 54.7419H335.695C336.078 54.7415 336.445 54.5893 336.716 54.3186C336.987 54.0479 337.14 53.6809 337.14 53.298V31.0059C337.14 30.6231 336.987 30.2561 336.716 29.9854C336.445 29.7147 336.078 29.5624 335.695 29.5621Z" fill="#E4E4E4"/>
<path d="M330.457 61.9682H285.938C285.478 61.9682 285.037 62.1507 284.712 62.4755C284.387 62.8004 284.204 63.241 284.204 63.7004C284.204 64.1598 284.387 64.6004 284.712 64.9253C285.037 65.2501 285.478 65.4326 285.938 65.4326H330.457C332.716 65.4653 332.695 61.9355 330.457 61.9682Z" fill="#E4E4E4"/>
<path d="M330.457 69.9092H285.938C285.478 69.9092 285.037 70.0917 284.712 70.4166C284.387 70.7414 284.204 71.182 284.204 71.6415C284.204 72.1009 284.387 72.5415 284.712 72.8663C285.037 73.1912 285.478 73.3737 285.938 73.3737H330.457C332.716 73.4063 332.695 69.8766 330.457 69.9092Z" fill="#E4E4E4"/>
<path d="M330.457 77.8502H285.938C285.478 77.8502 285.037 78.0327 284.712 78.3576C284.387 78.6824 284.204 79.123 284.204 79.5824C284.204 80.0418 284.387 80.4824 284.712 80.8073C285.037 81.1321 285.478 81.3146 285.938 81.3146H330.457C332.716 81.3473 332.695 77.8176 330.457 77.8502Z" fill="#E4E4E4"/>
<path d="M263.426 29.5621H208.434C208.051 29.563 207.684 29.7155 207.413 29.986C207.142 30.2566 206.989 30.6233 206.988 31.0059V53.298C206.989 53.6807 207.142 54.0474 207.413 54.3179C207.684 54.5885 208.051 54.7409 208.434 54.7419H263.426C263.81 54.7415 264.177 54.5893 264.448 54.3186C264.719 54.0479 264.871 53.6809 264.872 53.298V31.0059C264.871 30.6231 264.719 30.2561 264.448 29.9854C264.177 29.7147 263.81 29.5624 263.426 29.5621Z" fill="#E4E4E4"/>
<path d="M258.19 61.9682H213.671C213.211 61.9682 212.77 62.1507 212.444 62.4755C212.119 62.8004 211.937 63.241 211.937 63.7004C211.937 64.1598 212.119 64.6004 212.444 64.9253C212.77 65.2501 213.211 65.4326 213.671 65.4326H258.19C260.449 65.4653 260.427 61.9355 258.19 61.9682Z" fill="#E4E4E4"/>
<path d="M258.19 69.9092H213.671C213.211 69.9092 212.77 70.0917 212.444 70.4166C212.119 70.7414 211.937 71.182 211.937 71.6415C211.937 72.1009 212.119 72.5415 212.444 72.8663C212.77 73.1912 213.211 73.3737 213.671 73.3737H258.19C260.449 73.4063 260.427 69.8766 258.19 69.9092Z" fill="#E4E4E4"/>
<path d="M258.19 77.8502H213.671C213.211 77.8502 212.77 78.0327 212.444 78.3576C212.119 78.6824 211.937 79.123 211.937 79.5824C211.937 80.0418 212.119 80.4824 212.444 80.8073C212.77 81.1321 213.211 81.3146 213.671 81.3146H258.19C260.449 81.3473 260.427 77.8176 258.19 77.8502Z" fill="#E4E4E4"/>
<path d="M125.532 71.722C125.462 71.9283 125.41 72.1405 125.378 72.356L102.861 68.3801L83.4656 57.9326C82.2455 57.2753 80.8213 57.1047 79.4802 57.4551C78.1392 57.8055 76.981 58.6509 76.2394 59.8208C75.4977 60.9906 75.2278 62.3979 75.484 63.7588C75.7402 65.1196 76.5035 66.3328 77.62 67.1535C81.2377 69.8135 85.2487 71.8937 89.5082 73.319L103.57 78.0239L128.199 76.4468C128.883 76.5942 129.595 76.5411 130.25 76.2937C130.904 76.0464 131.473 75.6154 131.888 75.0527C132.303 74.49 132.546 73.8194 132.589 73.1218C132.631 72.4241 132.471 71.7291 132.127 71.1203C131.783 70.5115 131.271 70.0149 130.651 69.6902C130.032 69.3655 129.331 69.2266 128.635 69.2902C127.938 69.3537 127.274 69.6171 126.724 70.0485C126.173 70.48 125.759 71.0611 125.532 71.722Z" fill="#9E616A"/>
<path d="M180.917 71.792H110.82C110.331 71.7927 109.863 71.987 109.517 72.3325C109.171 72.678 108.976 73.1463 108.976 73.6349V102.043C108.976 102.532 109.171 103 109.517 103.346C109.863 103.691 110.331 103.885 110.82 103.886H180.917C181.405 103.885 181.873 103.69 182.219 103.345C182.564 102.999 182.758 102.531 182.758 102.043V73.6349C182.758 73.1469 182.564 72.679 182.219 72.3336C181.873 71.9882 181.405 71.7934 180.917 71.792Z" fill="#112A5C"/>
<path d="M174.243 113.097H117.496C116.909 113.097 116.347 113.33 115.932 113.744C115.517 114.158 115.284 114.72 115.284 115.306C115.284 115.892 115.517 116.454 115.932 116.868C116.347 117.283 116.909 117.515 117.496 117.515H174.243C177.122 117.555 177.093 113.057 174.243 113.097Z" fill="#112A5C"/>
<path d="M174.243 123.218H117.496C116.909 123.218 116.347 123.451 115.932 123.865C115.517 124.279 115.284 124.841 115.284 125.427C115.284 126.013 115.517 126.575 115.932 126.99C116.347 127.404 116.909 127.637 117.496 127.637H174.243C177.122 127.677 177.093 123.178 174.243 123.218Z" fill="#112A5C"/>
<path d="M174.243 133.343H117.496C117.206 133.343 116.918 133.4 116.65 133.511C116.382 133.622 116.139 133.785 115.933 133.99C115.728 134.195 115.565 134.438 115.454 134.706C115.343 134.974 115.286 135.261 115.286 135.55C115.286 135.84 115.343 136.127 115.454 136.395C115.565 136.663 115.728 136.906 115.933 137.111C116.139 137.316 116.382 137.479 116.65 137.59C116.918 137.701 117.206 137.758 117.496 137.758H174.243C177.123 137.798 177.094 133.303 174.243 133.343Z" fill="#112A5C"/>
<path d="M93.4636 47.8482C96.3236 42.6219 94.4008 36.0692 89.169 33.2122C83.9371 30.3553 77.3773 32.276 74.5173 37.5023C71.6574 42.7286 73.5801 49.2813 78.812 52.1383C84.0439 54.9952 90.6036 53.0745 93.4636 47.8482Z" fill="#9E616A"/>
<path d="M85.7954 29.5729H78.8213C74.2492 29.5729 70.5428 33.7382 70.5428 38.8764C67.0928 42.3368 68.1282 46.672 70.8656 51.3391C75.8058 51.953 80.6377 53.244 85.2251 55.1756L85.8761 52.3988L87.1601 56.0558C88.302 56.6085 89.4343 57.2129 90.5569 57.8689C89.2466 51.7196 88.7074 45.5845 89.6069 40.8188H91.9691V38.2365L92.7709 40.8188H97.0533C97.0533 39.3419 96.7621 37.8796 96.1963 36.5152C95.6306 35.1508 94.8013 33.911 93.7559 32.8667C92.7105 31.8225 91.4695 30.9941 90.1036 30.429C88.7377 29.8638 87.2738 29.5729 85.7954 29.5729Z" fill="#2F2E41"/>
<path d="M85.069 56.4178L72.0116 55.8523L71.6604 57.185C68.7715 68.1487 68.3254 79.6119 70.3534 90.7665C70.7412 91.1312 71.0245 91.5926 71.1742 92.1032C71.3238 92.6138 71.3344 93.155 71.2049 93.671L71.0173 94.418L71.0346 94.4453C71.6503 95.4157 71.8591 96.5891 71.6162 97.712L72.2693 101.304L93.4216 91.9692L98.1426 75.6446L85.069 56.4178Z" fill="#CACACA"/>
<path d="M117.429 90.8243C117.283 90.9855 117.151 91.1597 117.036 91.3445L97.9687 78.7358L84.3466 61.4337C83.4897 60.3453 82.2515 59.6219 80.8817 59.4095C79.512 59.1972 78.1125 59.5116 76.9657 60.2894C75.8188 61.0672 75.0099 62.2505 74.7022 63.6007C74.3944 64.9508 74.6106 66.3673 75.3072 67.5645C77.5644 71.4441 80.4135 74.9484 83.7518 77.951L94.7721 87.863L117.991 96.2195C118.56 96.6269 119.234 96.8615 119.933 96.8951C120.632 96.9287 121.326 96.7599 121.931 96.4089C122.536 96.0579 123.026 95.5398 123.344 94.9168C123.661 94.2938 123.791 93.5925 123.719 92.8973C123.646 92.2022 123.374 91.5427 122.935 90.9983C122.497 90.4539 121.91 90.0477 121.245 89.8287C120.581 89.6097 119.867 89.5871 119.19 89.7637C118.513 89.9404 117.902 90.3087 117.429 90.8243Z" fill="#9E616A"/>
<path d="M158.893 54.6566C156.83 54.6566 154.812 54.0452 153.096 52.8997C151.38 51.7543 150.042 50.1262 149.252 48.2215C148.463 46.3167 148.256 44.2207 148.659 42.1986C149.061 40.1764 150.055 38.319 151.514 36.8611C152.974 35.4033 154.833 34.4105 156.858 34.0082C158.882 33.606 160.98 33.8124 162.887 34.6014C164.794 35.3904 166.424 36.7265 167.57 38.4408C168.717 40.1551 169.329 42.1705 169.329 44.2322C169.329 46.9969 168.229 49.6484 166.272 51.6033C164.315 53.5583 161.661 54.6566 158.893 54.6566Z" fill="#E4E4E4"/>
<path d="M163.011 43.204H159.923V40.1191C159.923 39.8463 159.814 39.5848 159.621 39.3919C159.428 39.1991 159.166 39.0908 158.893 39.0908C158.62 39.0908 158.358 39.1991 158.165 39.3919C157.972 39.5848 157.864 39.8463 157.864 40.1191V43.204H154.776C154.503 43.2045 154.242 43.313 154.049 43.5058C153.856 43.6986 153.748 43.9599 153.748 44.2322C153.748 44.5046 153.856 44.7659 154.049 44.9587C154.242 45.1515 154.503 45.26 154.776 45.2605H157.864V48.3454C157.864 48.6182 157.972 48.8797 158.165 49.0725C158.358 49.2654 158.62 49.3737 158.893 49.3737C159.166 49.3737 159.428 49.2654 159.621 49.0725C159.814 48.8797 159.923 48.6182 159.923 48.3454V45.2605H163.011C163.146 45.2608 163.28 45.2344 163.405 45.1828C163.53 45.1313 163.644 45.0556 163.74 44.96C163.836 44.8645 163.912 44.7511 163.963 44.6262C164.015 44.5013 164.042 44.3674 164.042 44.2322C164.042 44.097 164.015 43.9632 163.963 43.8383C163.912 43.7134 163.836 43.6 163.74 43.5045C163.644 43.4089 163.53 43.3332 163.405 43.2817C163.28 43.2301 163.146 43.2037 163.011 43.204Z" fill="white"/>
<path d="M106.855 171.031C107.194 170.137 107.319 169.177 107.22 168.226C107.121 167.276 106.8 166.362 106.284 165.557L97.0532 117.726L93.4217 99.5873H71.6323C71.6323 99.5873 58.0139 114.642 60.9192 133.869L60.106 160.946C59.3347 162.803 59.1443 164.85 59.56 166.818L59.8836 168.35L59.7588 168.58C59.1643 169.679 58.8449 170.906 58.8279 172.155C58.8109 173.404 59.0968 174.638 59.6612 175.753L58.7402 206.423L65.2771 206.06L74.9007 170.327L81.2559 138.222L91.9691 163.072L92.3322 168.876L92.156 173.992L83.798 203.883L90.8796 206.604L106.855 171.031Z" fill="#2F2E41"/>
<path d="M159.673 218.568C159.672 218.683 159.627 218.792 159.546 218.873C159.465 218.954 159.355 219 159.241 219H0.432157C0.317542 219 0.20762 218.954 0.126575 218.874C0.04553 218.793 0 218.683 0 218.568C0 218.454 0.04553 218.344 0.126575 218.263C0.20762 218.182 0.317542 218.137 0.432157 218.137H159.241C159.297 218.136 159.354 218.147 159.406 218.169C159.459 218.191 159.506 218.223 159.547 218.263C159.587 218.303 159.619 218.35 159.64 218.403C159.662 218.455 159.673 218.512 159.673 218.568Z" fill="#CACACA"/>
</g>
<defs>
<clipPath id="clip0_12467_87530">
<rect width="344" height="219" fill="white"/>
</clipPath>
</defs>
</svg>
