<svg width="196" height="219" viewBox="0 0 196 219" fill="none" xmlns="http://www.w3.org/2000/svg">
<g clip-path="url(#clip0_12467_88350)">
<path d="M186.779 206.421C185.558 206.851 184.246 206.958 182.97 206.733C181.695 206.508 180.499 205.958 179.497 205.137C176.947 202.994 176.146 199.463 175.497 196.194L173.572 186.525L177.601 189.302C180.499 191.299 183.461 193.361 185.468 196.253C187.474 199.146 188.35 203.096 186.738 206.226" fill="#E6E6E6"/>
<path d="M186.435 218.127C186.843 215.153 187.262 212.142 186.976 209.136C186.722 206.467 185.909 203.86 184.253 201.723C183.374 200.59 182.304 199.62 181.092 198.855C180.776 198.656 180.485 199.157 180.799 199.356C182.897 200.683 184.519 202.642 185.432 204.952C186.441 207.52 186.603 210.319 186.428 213.047C186.323 214.697 186.1 216.335 185.875 217.973C185.857 218.047 185.868 218.125 185.906 218.191C185.943 218.258 186.005 218.307 186.078 218.329C186.152 218.349 186.231 218.339 186.297 218.301C186.364 218.264 186.413 218.201 186.434 218.127L186.435 218.127Z" fill="#F2F2F2"/>
<path d="M171.832 168.738H3.26855V0H171.832V168.738Z" fill="white"/>
<path d="M171.832 168.738H3.26855V0H171.832V168.738ZM5.75905 166.245H169.342V2.49309H5.75905V166.245Z" fill="#E5E5E5"/>
<path d="M141.971 26.3992H68.9756V28.6754H141.971V26.3992Z" fill="#E5E5E5"/>
<path d="M141.971 32.3173H68.9756V34.5935H141.971V32.3173Z" fill="#E5E5E5"/>
<path d="M141.971 38.2354H68.9756V40.5115H141.971V38.2354Z" fill="#E5E5E5"/>
<path d="M141.971 77.2166H68.9756V79.4927H141.971V77.2166Z" fill="#E5E5E5"/>
<path d="M141.971 83.1346H68.9756V85.4108H141.971V83.1346Z" fill="#E5E5E5"/>
<path d="M141.971 89.0527H68.9756V91.3289H141.971V89.0527Z" fill="#E5E5E5"/>
<path d="M141.971 128.034H68.9756V130.31H141.971V128.034Z" fill="#E5E5E5"/>
<path d="M141.971 133.952H68.9756V136.228H141.971V133.952Z" fill="#E5E5E5"/>
<path d="M141.971 139.87H68.9756V142.146H141.971V139.87Z" fill="#E5E5E5"/>
<path d="M39.7541 44.5346C38.5071 43.8768 37.2054 43.3284 35.8638 42.8957L35.6927 41.0013L28.7546 40.2531L27.8728 42.6744L25.3829 43.6098C25.2938 43.6436 25.209 43.6878 25.1302 43.7415H25.1275C24.9886 43.8355 24.8702 43.9569 24.7797 44.0983C24.6892 44.2396 24.6284 44.3979 24.6011 44.5636C24.5745 44.7283 24.5808 44.8966 24.6196 45.0589L24.7512 45.599C24.9407 45.7123 25.1355 45.8204 25.3302 45.9231L25.454 45.9864C25.7383 46.1339 26.0278 46.2735 26.3252 46.4027C26.3857 46.429 26.4515 46.4553 26.5121 46.4817C26.5173 46.4843 26.5199 46.4843 26.5252 46.487C26.6648 46.5449 26.8042 46.6003 26.9463 46.653C27.4132 46.8315 27.8895 46.9845 28.3729 47.1114C29.6068 47.4406 30.8783 47.6071 32.1552 47.6068C32.6211 47.6068 33.0817 47.5857 33.5371 47.5409C34.5775 47.4448 35.6046 47.2372 36.6008 46.9217C36.6034 46.9217 36.6061 46.9191 36.6087 46.9191C37.238 46.7184 37.8527 46.4745 38.4486 46.1892C38.4511 46.1866 38.4564 46.1866 38.4591 46.184C38.5933 46.1207 38.7223 46.0522 38.8539 45.9864L38.917 45.9547C39.0223 45.8994 39.1277 45.8441 39.2329 45.7861C39.4961 45.6412 39.7541 45.4884 40.0093 45.325C40.0804 45.2828 40.1489 45.2381 40.2199 45.1906C40.3199 45.1248 40.4199 45.0563 40.5173 44.9851C40.2725 44.8271 40.0173 44.6769 39.7541 44.5346Z" fill="#3F3D56"/>
<path d="M26.7325 45.7018L26.2982 43.7389H25.1638C25.1523 43.739 25.1409 43.7399 25.1296 43.7415H25.1269C24.7192 43.7761 24.3266 43.9119 23.9846 44.1367C23.7527 44.285 23.5464 44.4701 23.374 44.6848C23.7109 44.9403 24.061 45.1775 24.4216 45.4041L24.4374 45.412C24.5399 45.4752 24.6453 45.5384 24.7506 45.599C24.9401 45.7123 25.1349 45.8204 25.3296 45.9231L25.4533 45.9864C25.7376 46.1339 26.0272 46.2735 26.3246 46.4026C26.3851 46.429 26.4509 46.4553 26.5114 46.4817C26.5167 46.4843 26.5193 46.4843 26.5246 46.487C26.6641 46.545 26.8036 46.6003 26.9457 46.653L26.7325 45.7018Z" fill="#3F3D56"/>
<path d="M31.951 39.0554C34.7107 39.0554 36.9479 36.8159 36.9479 34.0533C36.9479 31.2908 34.7107 29.0513 31.951 29.0513C29.1913 29.0513 26.9541 31.2908 26.9541 34.0533C26.9541 36.8159 29.1913 39.0554 31.951 39.0554Z" fill="#FFB8B8"/>
<path d="M28.5962 31.6169C29.1135 32.2297 29.9889 32.4026 30.7964 32.4735C32.6843 32.5779 34.5777 32.4231 36.4237 32.0135C36.5381 33.1233 36.2262 34.32 36.8792 35.2329C37.1853 34.1277 37.3633 32.9908 37.4097 31.8448C37.4585 31.3531 37.3943 30.8568 37.2222 30.3937C37.1302 30.1616 36.975 29.96 36.7742 29.8119C36.5734 29.6637 36.3352 29.5749 36.0865 29.5555C36.4587 29.2728 36.8948 29.0862 37.3562 29.0121L35.7696 28.214L36.177 27.7952L33.3045 27.6193L34.1365 27.0902C32.8843 26.9179 31.6175 26.8779 30.3569 26.9707C29.7679 26.971 29.19 27.1318 28.6853 27.4359C28.211 27.7754 27.937 28.4502 28.2314 28.9486C27.8628 29.0092 27.5157 29.163 27.2231 29.3954C26.9305 29.6279 26.702 29.9312 26.5592 30.2768C26.3787 30.8261 26.3351 31.4112 26.4323 31.9812C26.5405 32.8957 26.7528 33.7948 27.0651 34.6611L28.5962 31.6169Z" fill="#2F2E41"/>
<path d="M46.0024 28.6309C45.3013 26.6147 44.1693 24.7759 42.6853 23.2427C41.2014 21.7094 39.4012 20.5187 37.4102 19.7534C35.4193 18.9882 33.2856 18.6669 31.1579 18.812C29.0302 18.9571 26.9597 19.565 25.0908 20.5934C23.2219 21.6218 21.5996 23.0459 20.337 24.7664C19.0745 26.4869 18.202 28.4624 17.7805 30.5552C17.359 32.6479 17.3985 34.8075 17.8965 36.8833C18.3944 38.9592 19.3386 40.9013 20.6634 42.5743C20.795 42.7403 20.9319 42.9063 21.0715 43.067C21.082 43.0775 21.0898 43.0881 21.1004 43.0986C21.4435 43.4943 21.8081 43.8708 22.1926 44.2263C22.2928 44.3185 22.398 44.4134 22.5033 44.503C22.7033 44.6821 22.9086 44.8534 23.1218 45.0167C23.206 45.0826 23.2876 45.1485 23.3745 45.2117C23.7114 45.4673 24.0614 45.7044 24.4221 45.931L24.4379 45.9389C24.5404 46.0022 24.6458 46.0654 24.7511 46.126C24.9406 46.2393 25.1354 46.3473 25.3301 46.4501L25.4538 46.5133C25.7381 46.6609 26.0277 46.8005 26.3251 46.9296C26.3856 46.956 26.4514 46.9823 26.5119 47.0087C26.5172 47.0113 26.5198 47.0113 26.525 47.0139C26.6646 47.0719 26.8041 47.1272 26.9462 47.1799C27.4131 47.3584 27.8893 47.5115 28.3728 47.6384C29.6066 47.9676 30.8782 48.1341 32.1551 48.1337C32.621 48.1337 33.0816 48.1126 33.5369 48.0679C34.5774 47.9717 35.6045 47.7641 36.6007 47.4487C36.6033 47.4487 36.606 47.446 36.6085 47.446C37.2379 47.2453 37.8526 47.0015 38.4484 46.7162C38.451 46.7136 38.4563 46.7136 38.459 46.7109C38.5931 46.6477 38.7222 46.5792 38.8538 46.5133L38.9169 46.4817C39.0221 46.4264 39.1275 46.371 39.2328 46.3131C39.496 46.1681 39.7539 46.0153 40.0092 45.852C40.0802 45.8098 40.1487 45.765 40.2198 45.7176C40.3198 45.6517 40.4198 45.5832 40.5172 45.5121C40.6461 45.4225 40.7751 45.3303 40.9015 45.2354C40.9409 45.2065 40.9831 45.1775 41.0225 45.1459C43.4884 43.2722 45.2984 40.6651 46.193 37.6984C47.0876 34.7316 47.0209 31.5574 46.0024 28.6309ZM40.5383 44.5056C40.4514 44.5741 40.362 44.64 40.2724 44.7006C40.1855 44.7664 40.0988 44.8297 40.0092 44.8876C39.9328 44.943 39.8565 44.9957 39.7776 45.0457L39.7539 45.0615C39.696 45.1011 39.6381 45.1379 39.5802 45.1748C39.3617 45.3118 39.1406 45.4436 38.9169 45.5701L38.8458 45.6096C38.7458 45.6649 38.6458 45.7176 38.5459 45.7703C38.5326 45.7782 38.5168 45.7835 38.5037 45.7914L38.4879 45.7993C38.3616 45.8652 38.2325 45.9284 38.1036 45.989C37.6059 46.2289 37.0934 46.4366 36.5691 46.6108C36.5006 46.6345 36.4322 46.6582 36.3639 46.6793C35.4209 46.9795 34.4485 47.1774 33.4633 47.2695C33.0316 47.309 32.5947 47.3301 32.1551 47.3301C30.9473 47.3326 29.7445 47.1749 28.5782 46.8611C27.9795 46.7047 27.3929 46.5057 26.8226 46.2657C26.7935 46.2525 26.7619 46.2419 26.733 46.2288C26.7015 46.2156 26.6725 46.205 26.6435 46.1919C26.6119 46.1787 26.583 46.1655 26.5514 46.1497C26.304 46.0417 26.0592 45.9231 25.8197 45.7993L25.7039 45.7387C25.4117 45.5859 25.1248 45.4225 24.8458 45.2486C24.7642 45.1986 24.68 45.1459 24.601 45.0905C24.58 45.0773 24.5615 45.0642 24.5405 45.051C24.3536 44.9272 24.1667 44.7981 23.9851 44.6637C23.8615 44.5715 23.7377 44.4792 23.6167 44.3844C23.414 44.2316 23.2191 44.0682 23.0297 43.8996C22.9297 43.8153 22.8323 43.7231 22.7376 43.6361C22.3644 43.2912 22.0111 42.9252 21.6795 42.5401C21.5689 42.4136 21.461 42.2871 21.3583 42.1554C21.335 42.1293 21.313 42.102 21.2925 42.0737C19.5824 39.9135 18.5537 37.2923 18.3378 34.5445C18.1218 31.7967 18.7284 29.0467 20.08 26.6454C21.4317 24.244 23.4672 22.3001 25.927 21.0615C28.3868 19.8229 31.1594 19.3458 33.8912 19.691C36.623 20.0362 39.1901 21.188 41.2653 22.9997C43.3405 24.8113 44.8296 27.2006 45.5427 29.8629C46.2558 32.5251 46.1607 35.3397 45.2694 37.9476C44.3781 40.5555 42.7311 42.8385 40.5383 44.5056Z" fill="#3F3D56"/>
<path d="M46.0024 79.4484C45.3013 77.4322 44.1693 75.5934 42.6853 74.0601C41.2014 72.5269 39.4012 71.3361 37.4102 70.5709C35.4193 69.8057 33.2856 69.4844 31.1579 69.6295C29.0302 69.7745 26.9597 70.3825 25.0908 71.4108C23.2219 72.4392 21.5996 73.8633 20.337 75.5839C19.0745 77.3044 18.202 79.2799 17.7805 81.3726C17.359 83.4653 17.3985 85.6249 17.8964 87.7007C18.3944 89.7766 19.3386 91.7187 20.6634 93.3917C20.795 93.5577 20.9319 93.7237 21.0713 93.8844C21.0818 93.8949 21.0897 93.9055 21.1002 93.916C21.4434 94.3117 21.8081 94.6882 22.1926 95.0437C22.2926 95.1359 22.3979 95.2308 22.5031 95.3204C22.7032 95.4995 22.9085 95.6708 23.1217 95.8342C23.538 96.1626 23.9721 96.4678 24.4219 96.7484L24.4377 96.7564C24.7299 96.9382 25.0273 97.1068 25.3301 97.2675L25.4537 97.3307C25.738 97.4783 26.0275 97.6179 26.3249 97.747C26.3855 97.7734 26.4513 97.7997 26.5118 97.8261C26.5171 97.8287 26.5198 97.8287 26.525 97.8313C27.126 98.0815 27.7433 98.2901 28.3727 98.4558C29.6066 98.785 30.8781 98.9515 32.155 98.9511C32.6208 98.9511 33.0814 98.9301 33.5368 98.8853C34.5772 98.7891 35.6044 98.5816 36.6006 98.2661C36.6033 98.2661 36.6058 98.2634 36.6084 98.2634C37.2377 98.0628 37.8525 97.8189 38.4483 97.5336C38.4509 97.531 38.4563 97.531 38.4588 97.5283C38.593 97.4651 38.722 97.3966 38.8536 97.3307L38.9169 97.2991C39.0221 97.2438 39.1274 97.1884 39.2326 97.1305C39.4958 96.9856 39.7538 96.8327 40.0092 96.6694C40.0802 96.6272 40.1486 96.5824 40.2197 96.535C40.4513 96.3822 40.6803 96.2188 40.9013 96.0528C40.9409 96.0239 40.9829 95.9949 41.0225 95.9633C43.4883 94.0896 45.2983 91.4825 46.1929 88.5157C47.0875 85.549 47.0208 82.3749 46.0024 79.4484Z" fill="white"/>
<path d="M36.9934 90.3234C38.2071 90.3234 39.1909 89.3385 39.1909 88.1236C39.1909 86.9086 38.2071 85.9238 36.9934 85.9238C35.7798 85.9238 34.7959 86.9086 34.7959 88.1236C34.7959 89.3385 35.7798 90.3234 36.9934 90.3234Z" fill="#2F2E41"/>
<path d="M37.6062 85.9844C37.9866 85.9844 38.3604 86.0832 38.6912 86.2712C39.0219 86.4591 39.2983 86.7298 39.4933 87.0567C39.6882 87.3836 39.7951 87.7556 39.8034 88.1362C39.8117 88.5169 39.7212 88.8932 39.5408 89.2283C39.7312 88.9897 39.87 88.714 39.9481 88.4187C40.0263 88.1235 40.0421 87.8152 39.9946 87.5135C39.9472 87.2117 39.8375 86.9232 39.6725 86.6663C39.5075 86.4094 39.2908 86.1896 39.0364 86.0211C38.7819 85.8527 38.4951 85.7391 38.1943 85.6877C37.8936 85.6362 37.5854 85.6481 37.2894 85.7224C36.9935 85.7968 36.7163 85.9321 36.4755 86.1196C36.2346 86.3071 36.0354 86.5428 35.8906 86.8117C36.0961 86.5535 36.357 86.345 36.6541 86.2018C36.9512 86.0585 37.2765 85.9842 37.6062 85.9844Z" fill="#2F2E41"/>
<path d="M32.8871 88.1188C36.4523 88.1188 39.3425 85.2256 39.3425 81.6567C39.3425 78.0878 36.4523 75.1946 32.8871 75.1946C29.3218 75.1946 26.4316 78.0878 26.4316 81.6567C26.4316 85.2256 29.3218 88.1188 32.8871 88.1188Z" fill="#2F2E41"/>
<path d="M27.8209 77.6474C28.9333 76.3951 30.4881 75.6244 32.1573 75.498C33.8265 75.3716 35.4794 75.8992 36.7673 76.9697C36.7147 76.9194 36.6621 76.8688 36.6076 76.82C35.3324 75.6764 33.6556 75.0868 31.9461 75.1808C30.2366 75.2748 28.6344 76.0448 27.492 77.3213C26.3496 78.5979 25.7605 80.2764 25.8545 81.9877C25.9484 83.6989 26.7175 85.3028 27.9928 86.4464C28.005 86.4573 28.0173 86.4683 28.0296 86.4792C28.0844 86.5279 28.1407 86.574 28.1968 86.6207C26.984 85.4657 26.2669 83.8842 26.1968 82.21C26.1267 80.5358 26.7089 78.8998 27.8209 77.6474Z" fill="#2F2E41"/>
<path d="M32.8324 88.064C35.1286 88.064 36.9901 86.2007 36.9901 83.9021C36.9901 81.6035 35.1286 79.7402 32.8324 79.7402C30.5362 79.7402 28.6748 81.6035 28.6748 83.9021C28.6748 86.2007 30.5362 88.064 32.8324 88.064Z" fill="#A0616A"/>
<path d="M40.2722 94.746V96.1425C40.0168 96.3058 39.7589 96.4586 39.4957 96.6036C39.3904 96.6615 39.2852 96.7168 39.1799 96.7722L39.1167 96.8038C38.9851 96.8697 38.8561 96.9382 38.7219 97.0014C38.7193 97.0041 38.7139 97.0041 38.7113 97.0067C38.1155 97.292 37.5008 97.5359 36.8715 97.7365C36.8689 97.7365 36.8663 97.7392 36.8636 97.7392C35.8674 98.0546 34.8403 98.2622 33.7998 98.3583C33.3445 98.4031 32.8839 98.4242 32.418 98.4242C31.1411 98.4246 29.8696 98.2581 28.6358 97.9289C28.0064 97.7632 27.389 97.5546 26.7881 97.3044C26.7828 97.3018 26.7801 97.3018 26.7748 97.2992C26.7143 97.2728 26.6485 97.2465 26.588 97.2201C26.2906 97.091 26.001 96.9514 25.7168 96.8038L25.5931 96.7406C25.2903 96.5799 24.9929 96.4112 24.7008 96.2294L24.685 96.2215C24.2351 95.9409 23.8011 95.6357 23.3848 95.3072C23.1716 95.1439 22.9663 94.9726 22.7662 94.7935C22.661 94.7039 22.5557 94.609 22.4557 94.5168C22.0711 94.1613 21.7065 93.7848 21.3633 93.3891C21.4088 93.1147 21.4757 92.8442 21.5634 92.5802L21.566 92.5776C21.5817 92.5326 21.6002 92.4886 21.6212 92.4459C21.6357 92.408 21.6524 92.3711 21.6712 92.3352C22.1424 91.4525 22.9952 91.2338 24.0533 91.1864C24.6508 91.1601 25.3114 91.1891 26.009 91.1812C26.3775 91.1785 26.759 91.1653 27.1408 91.1311C29.5491 90.9124 29.1122 89.4896 29.2201 88.7229C29.328 87.9799 29.9966 88.6228 30.0413 88.6649L30.0439 88.6676C31.4068 89.306 32.9146 89.5706 34.4132 89.4343C34.6711 89.4027 34.929 89.3842 35.187 89.3763C35.8661 89.3684 35.7187 89.5634 35.4845 89.7241C35.3708 89.799 35.2521 89.8659 35.1291 89.9244C35.1291 89.9244 35.0212 90.5831 34.9107 91.5685C34.8054 92.5117 36.611 92.9544 36.761 92.9886C36.7641 92.9907 36.7678 92.9916 36.7715 92.9913C37.4309 92.8201 38.1251 92.8383 38.7746 93.044H38.7772C39.1483 93.1806 39.4794 93.4078 39.7405 93.705C40.0016 94.0023 40.1843 94.3601 40.2722 94.746Z" fill="#112A5C"/>
<path d="M26.8149 96.4402C26.8149 96.6352 26.8098 96.8222 26.8018 96.9988C26.7992 97.1042 26.794 97.2069 26.7887 97.3044C26.7834 97.3018 26.7807 97.3018 26.7754 97.2991C26.7149 97.2728 26.6491 97.2464 26.5886 97.2201C26.2912 97.091 26.0016 96.9514 25.7173 96.8038L25.5937 96.7406C25.2909 96.5798 24.9935 96.4112 24.7014 96.2294C24.7092 96.1372 24.7225 96.045 24.7356 95.9527C24.7645 95.7499 24.7883 95.5443 24.8041 95.3415C24.9076 93.9162 24.6495 92.4878 24.0539 91.189V91.1864C24.0012 91.081 23.9697 91.023 23.9697 91.023C23.9697 91.023 24.7356 90.3643 25.8279 91.023C25.8976 91.0641 25.9592 91.1177 26.0096 91.1811C26.6676 91.9584 26.8465 94.5721 26.8149 96.4402Z" fill="#2F2E41"/>
<path d="M38.7671 96.0819C38.7565 96.377 38.7407 96.6852 38.7223 96.9988V97.0014C38.7198 97.0041 38.7144 97.0041 38.7118 97.0067C38.116 97.292 37.5012 97.5359 36.8719 97.7365C36.8693 97.7365 36.8668 97.7392 36.8641 97.7392L36.8352 96.9988L36.8325 96.9013L36.693 93.2969C36.6893 93.2153 36.7021 93.1338 36.7307 93.0573C36.7593 92.9808 36.8031 92.9109 36.8594 92.8518C36.9158 92.7927 36.9835 92.7457 37.0585 92.7135C37.1335 92.6813 37.2142 92.6646 37.2958 92.6646H38.6302C38.696 92.6646 38.7434 92.7989 38.775 93.0413V93.044C38.8398 94.0557 38.8371 95.0705 38.7671 96.0819Z" fill="#2F2E41"/>
<path d="M29.2764 78.6997V82.8627H30.2392L31.4644 81.5484L31.3004 82.8627H35.5565L35.2933 81.5484L35.8197 82.8627H36.4983V78.6997H29.2764Z" fill="#2F2E41"/>
<path d="M28.6202 83.6283C28.8015 83.6283 28.9484 83.3587 28.9484 83.026C28.9484 82.6934 28.8015 82.4237 28.6202 82.4237C28.4389 82.4237 28.292 82.6934 28.292 83.026C28.292 83.3587 28.4389 83.6283 28.6202 83.6283Z" fill="#A0616A"/>
<path d="M37.045 83.6283C37.2263 83.6283 37.3732 83.3587 37.3732 83.026C37.3732 82.6934 37.2263 82.4237 37.045 82.4237C36.8637 82.4237 36.7168 82.6934 36.7168 83.026C36.7168 83.3587 36.8637 83.6283 37.045 83.6283Z" fill="#A0616A"/>
<path d="M41.1641 95.5259C40.9431 95.6919 40.7141 95.8552 40.4825 96.0081C40.4114 96.0555 40.343 96.1003 40.272 96.1424C40.0166 96.3058 39.7587 96.4586 39.4955 96.6035C39.3902 96.6615 39.2849 96.7168 39.1797 96.7722V93.8686C39.1797 93.8686 39.6007 94.2059 40.272 94.7671C40.3561 94.8382 40.443 94.912 40.5352 94.991C40.7299 95.1544 40.9405 95.3336 41.1641 95.5259Z" fill="#112A5C"/>
<path d="M46.0024 79.4484C45.3013 77.4322 44.1693 75.5934 42.6853 74.0601C41.2014 72.5269 39.4012 71.3361 37.4102 70.5709C35.4193 69.8057 33.2856 69.4844 31.1579 69.6295C29.0302 69.7745 26.9597 70.3825 25.0908 71.4108C23.2219 72.4392 21.5996 73.8633 20.337 75.5839C19.0745 77.3044 18.202 79.2799 17.7805 81.3726C17.359 83.4653 17.3985 85.6249 17.8964 87.7007C18.3944 89.7766 19.3386 91.7187 20.6634 93.3917C20.795 93.5577 20.9319 93.7237 21.0713 93.8844C21.0818 93.8949 21.0897 93.9055 21.1002 93.916C21.4434 94.3117 21.8081 94.6882 22.1926 95.0437C22.2926 95.1359 22.3979 95.2308 22.5031 95.3204C22.7032 95.4995 22.9085 95.6708 23.1217 95.8342C23.538 96.1626 23.9721 96.4678 24.4219 96.7484L24.4377 96.7564C24.7299 96.9382 25.0273 97.1068 25.3301 97.2675L25.4537 97.3307C25.738 97.4783 26.0275 97.6179 26.3249 97.747C26.3855 97.7734 26.4513 97.7997 26.5118 97.8261C26.5171 97.8287 26.5198 97.8287 26.525 97.8313C27.126 98.0815 27.7433 98.2901 28.3727 98.4558C29.6066 98.785 30.8781 98.9515 32.155 98.9511C32.6208 98.9511 33.0814 98.9301 33.5368 98.8853C34.5772 98.7891 35.6044 98.5816 36.6006 98.2661C36.6033 98.2661 36.6058 98.2634 36.6084 98.2634C37.2377 98.0628 37.8525 97.8189 38.4483 97.5336C38.4509 97.531 38.4563 97.531 38.4588 97.5283C38.593 97.4651 38.722 97.3966 38.8536 97.3307L38.9169 97.2991C39.0221 97.2438 39.1274 97.1884 39.2326 97.1305C39.4958 96.9856 39.7538 96.8327 40.0092 96.6694C40.0802 96.6272 40.1486 96.5824 40.2197 96.535C40.4513 96.3822 40.6803 96.2188 40.9013 96.0528C40.9409 96.0239 40.9829 95.9949 41.0225 95.9633C43.4883 94.0896 45.2983 91.4825 46.1929 88.5157C47.0875 85.549 47.0208 82.3749 46.0024 79.4484ZM40.5381 95.323C40.4513 95.3915 40.3618 95.4574 40.2724 95.518C40.1855 95.5839 40.0986 95.6471 40.0092 95.705C39.9328 95.7604 39.8565 95.8131 39.7774 95.8631C39.7116 95.9079 39.6458 95.9501 39.58 95.9922C39.3617 96.1293 39.1406 96.261 38.9169 96.3875L38.8457 96.427C38.7457 96.4823 38.6457 96.535 38.5457 96.5877C38.5325 96.5956 38.5167 96.6009 38.5036 96.6088L38.4878 96.6167C38.3614 96.6826 38.2325 96.7458 38.1035 96.8064C37.6058 97.0463 37.0932 97.254 36.569 97.4282C36.5006 97.4519 36.4321 97.4756 36.3637 97.4967C35.4208 97.7969 34.4483 97.9948 33.4632 98.0869C33.0315 98.1264 32.5945 98.1475 32.155 98.1475C30.9472 98.15 29.7444 97.9923 28.578 97.6785C27.9794 97.5221 27.3927 97.3231 26.8224 97.0831C26.7619 97.0593 26.7014 97.033 26.6434 97.0093C26.6119 96.9961 26.5829 96.9829 26.5513 96.9671C26.3039 96.8591 26.0592 96.7405 25.8196 96.6167L25.7038 96.5561C25.4117 96.4033 25.1247 96.2399 24.8457 96.066C24.7431 96.0028 24.6404 95.9369 24.5404 95.8684C24.2245 95.6602 23.9166 95.4363 23.6165 95.2018C23.4138 95.049 23.2191 94.8856 23.0296 94.717C22.9296 94.6327 22.8321 94.5405 22.7374 94.4535C22.3643 94.1085 22.011 93.7426 21.6793 93.3574C21.5688 93.231 21.4609 93.1045 21.3582 92.9728C21.3348 92.9467 21.3129 92.9194 21.2924 92.8911C19.5822 90.7309 18.5536 88.1097 18.3377 85.3619C18.1217 82.6141 18.7282 79.8641 20.0799 77.4628C21.4316 75.0614 23.4671 73.1175 25.9269 71.8789C28.3867 70.6403 31.1593 70.1632 33.891 70.5084C36.6228 70.8536 39.19 72.0055 41.2652 73.8171C43.3403 75.6287 44.8294 78.018 45.5426 80.6803C46.2557 83.3425 46.1605 86.1571 45.2692 88.765C44.3779 91.3729 42.7309 93.656 40.5381 95.323Z" fill="#3F3D56"/>
<path d="M32.2381 141.688C35.4109 141.688 37.983 139.113 37.983 135.937C37.983 132.761 35.4109 130.186 32.2381 130.186C29.0652 130.186 26.4932 132.761 26.4932 135.937C26.4932 139.113 29.0652 141.688 32.2381 141.688Z" fill="#2F2E41"/>
<path d="M27.7541 132.836C28.6824 131.907 28.8706 130.588 28.1743 129.891C27.4781 129.194 26.161 129.383 25.2327 130.312C24.3043 131.241 24.1162 132.56 24.8125 133.257C25.5087 133.954 26.8257 133.765 27.7541 132.836Z" fill="#2F2E41"/>
<path d="M38.2259 131.01C38.6127 130.103 37.9475 128.95 36.7402 128.434C35.5328 127.917 34.2405 128.234 33.8537 129.14C33.4669 130.047 34.1321 131.2 35.3394 131.716C36.5468 132.232 37.8391 131.916 38.2259 131.01Z" fill="#2F2E41"/>
<path d="M39.11 147.092L38.4332 146.026C38.146 145.383 37.6162 144.881 36.9599 144.629C36.3036 144.377 35.5742 144.396 34.9316 144.681C34.289 144.966 33.7855 145.495 33.5313 146.151C33.2771 146.807 33.2931 147.537 33.5756 148.181L33.7681 148.872L33.9871 149.656C34.8739 149.544 35.7489 149.353 36.6016 149.085C36.6042 149.084 36.6065 149.083 36.6083 149.081C37.2386 148.882 37.854 148.637 38.4499 148.351C38.4531 148.347 38.4563 148.347 38.4597 148.344C38.5924 148.281 38.7219 148.214 38.8546 148.148C38.8762 148.138 38.8973 148.127 38.9176 148.115C39.0237 148.062 39.13 148.005 39.2329 147.949C39.339 147.892 39.4418 147.832 39.5413 147.769L39.11 147.092Z" fill="#CACACA"/>
<path d="M32.4196 142.19C35.1123 142.19 37.2952 140.005 37.2952 137.31C37.2952 134.614 35.1123 132.429 32.4196 132.429C29.7268 132.429 27.5439 134.614 27.5439 137.31C27.5439 140.005 29.7268 142.19 32.4196 142.19Z" fill="#FFB6B6"/>
<path d="M39.4611 146.883C38.9233 145.987 38.2557 145.177 37.4802 144.478C36.949 144.003 36.2616 143.74 35.5492 143.741H28.681C28.2852 143.74 27.8936 143.822 27.5304 143.979C27.1672 144.136 26.84 144.366 26.5692 144.655C26.2984 144.944 26.0896 145.286 25.9557 145.658C25.8219 146.031 25.7658 146.427 25.791 146.823C25.806 147.046 25.8461 147.266 25.9106 147.48C25.9596 147.636 26.0205 147.787 26.093 147.932L26.4314 148.61C26.458 148.62 26.4846 148.633 26.511 148.643C26.5176 148.646 26.521 148.646 26.5243 148.65C26.6636 148.706 26.8031 148.763 26.9456 148.816C27.4126 148.994 27.8889 149.147 28.3725 149.274C29.1509 149.483 29.9456 149.627 30.748 149.703C31.2159 149.746 31.6838 149.769 32.1549 149.769C32.6228 149.769 33.0806 149.746 33.5385 149.703C33.6878 149.689 33.8371 149.673 33.9864 149.656C34.8732 149.544 35.7482 149.353 36.601 149.085C36.6035 149.084 36.6058 149.083 36.6076 149.081C37.2379 148.882 37.8533 148.638 38.4492 148.351C38.4524 148.347 38.4556 148.347 38.459 148.344C38.5917 148.281 38.7212 148.215 38.8539 148.148C38.8755 148.138 38.8966 148.127 38.9169 148.115C39.023 148.062 39.1293 148.005 39.2321 147.949C39.3383 147.892 39.4411 147.833 39.5406 147.769C39.6469 147.713 39.7464 147.65 39.8493 147.587C39.7233 147.338 39.5938 147.105 39.4611 146.883Z" fill="#CACACA"/>
<path d="M29.9254 144.631C29.2898 144.333 28.5623 144.299 27.902 144.537C27.2418 144.775 26.7024 145.265 26.4018 145.899L25.7912 146.823L25.4992 147.265L25.0547 147.935C25.1475 147.985 25.2371 148.035 25.3301 148.085L25.4527 148.148C25.7382 148.294 26.0268 148.434 26.3255 148.563C26.3585 148.58 26.3952 148.593 26.4316 148.61C26.4582 148.62 26.4847 148.633 26.5112 148.643C26.5178 148.646 26.5212 148.646 26.5244 148.65C26.6638 148.706 26.8032 148.763 26.9458 148.816C27.4127 148.994 27.889 149.147 28.3726 149.274C29.1511 149.483 29.9457 149.627 30.7482 149.702L30.9805 148.915L31.2062 148.165C31.5036 147.526 31.5358 146.795 31.2957 146.133C31.0556 145.47 30.5628 144.93 29.9254 144.631Z" fill="#CACACA"/>
<path d="M27.2969 134.24C28.411 135.008 29.7334 135.417 31.0866 135.412C30.6039 135.747 30.0544 135.973 29.4759 136.075C31.2751 136.462 33.1345 136.472 34.9378 136.106C35.3386 136.042 35.7254 135.909 36.0811 135.713C36.2584 135.614 36.4129 135.479 36.5345 135.316C36.656 135.153 36.7421 134.966 36.7869 134.768C36.9067 134.083 36.3733 133.46 35.8189 133.041C34.9702 132.408 33.9916 131.972 32.9539 131.765C31.9163 131.557 30.8455 131.583 29.819 131.841C29.1351 131.978 28.5128 132.33 28.0421 132.846C27.8143 133.108 27.6768 133.437 27.6499 133.783C27.623 134.13 27.708 134.476 27.8926 134.77L27.2969 134.24Z" fill="#2F2E41"/>
<path d="M46.0044 130.266C45.3034 128.249 44.1715 126.41 42.6875 124.877C41.2036 123.343 39.4033 122.152 37.4123 121.387C35.4213 120.622 33.2874 120.3 31.1596 120.445C29.0317 120.59 26.961 121.198 25.092 122.227C23.223 123.255 21.6006 124.679 20.3379 126.4C19.0753 128.121 18.2028 130.096 17.7814 132.189C17.3599 134.282 17.3996 136.442 17.8976 138.518C18.3957 140.594 19.3402 142.536 20.6652 144.209C20.7945 144.375 20.934 144.541 21.0733 144.7C21.0813 144.712 21.0902 144.723 21.0999 144.734C21.4435 145.129 21.809 145.505 22.1948 145.86C22.2942 145.953 22.3971 146.049 22.5034 146.139C22.7023 146.318 22.9081 146.487 23.1237 146.65C23.2067 146.716 23.2896 146.783 23.376 146.846C23.711 147.102 24.0627 147.338 24.4211 147.567C24.4272 147.567 24.4331 147.569 24.4376 147.573C24.5405 147.637 24.6468 147.7 24.7529 147.759C24.8524 147.819 24.9552 147.879 25.0549 147.935C25.1477 147.985 25.2373 148.035 25.3303 148.085L25.4529 148.148C25.7384 148.294 26.0269 148.434 26.3257 148.563C26.3587 148.58 26.3954 148.593 26.4318 148.61C26.4584 148.62 26.4849 148.633 26.5113 148.643C26.518 148.646 26.5214 148.646 26.5246 148.65C26.6639 148.706 26.8034 148.762 26.946 148.816C27.4129 148.994 27.8892 149.147 28.3728 149.274C29.1513 149.483 29.9459 149.627 30.7484 149.702C31.2163 149.746 31.6841 149.769 32.1553 149.769C32.6231 149.769 33.081 149.746 33.5388 149.702C33.6882 149.689 33.8374 149.673 33.9868 149.656C34.8736 149.544 35.7485 149.353 36.6013 149.085C36.6038 149.084 36.6062 149.083 36.6079 149.081C37.2383 148.882 37.8537 148.637 38.4495 148.351C38.4527 148.347 38.456 148.347 38.4594 148.344C38.5921 148.281 38.7215 148.214 38.8542 148.148C38.8759 148.138 38.8969 148.127 38.9172 148.115C39.0233 148.062 39.1296 148.005 39.2325 147.949C39.3386 147.892 39.4414 147.832 39.541 147.769C39.6472 147.713 39.7467 147.65 39.8496 147.587C39.9027 147.553 39.9558 147.52 40.0089 147.487C40.0819 147.444 40.1482 147.401 40.2212 147.351C40.3207 147.288 40.4204 147.218 40.5164 147.148C40.6459 147.059 40.7753 146.966 40.9014 146.869C40.9438 146.842 40.9848 146.812 41.0242 146.78C43.4882 144.905 45.2967 142.298 46.1912 139.332C47.0857 136.366 47.0203 133.192 46.0044 130.266ZM40.5398 146.139C40.4534 146.208 40.3638 146.275 40.2744 146.335C40.1846 146.401 40.0985 146.464 40.0089 146.524C39.9326 146.577 39.8562 146.63 39.7767 146.68C39.7695 146.686 39.7617 146.692 39.7534 146.697C39.697 146.736 39.6372 146.773 39.5808 146.81C39.541 146.833 39.5013 146.859 39.4614 146.883C39.3453 146.956 39.2291 147.025 39.1097 147.092C39.0467 147.132 38.9803 147.168 38.9173 147.205C38.8941 147.218 38.8707 147.231 38.8476 147.245C38.7447 147.301 38.6452 147.351 38.5456 147.404C38.5325 147.414 38.5158 147.417 38.5059 147.427C38.4997 147.427 38.4938 147.43 38.4892 147.434C38.3632 147.5 38.2337 147.563 38.1044 147.623C37.6062 147.863 37.0931 148.071 36.5681 148.244C36.5018 148.268 36.4322 148.294 36.3657 148.314C35.5196 148.583 34.6496 148.77 33.7677 148.872C33.6683 148.885 33.5654 148.895 33.4625 148.905C33.0313 148.945 32.5966 148.965 32.1553 148.965C31.7637 148.965 31.3689 148.948 30.9807 148.915C30.1692 148.848 29.3653 148.708 28.5786 148.497C27.9798 148.341 27.3931 148.141 26.8234 147.899C26.7934 147.886 26.7636 147.876 26.7338 147.862C26.7006 147.849 26.674 147.839 26.6442 147.826C26.611 147.813 26.5844 147.799 26.5512 147.783C26.3356 147.69 26.1199 147.587 25.911 147.48C25.881 147.464 25.8512 147.451 25.8214 147.434L25.7052 147.374C25.6355 147.338 25.5659 147.301 25.4995 147.265C25.2772 147.145 25.0581 147.015 24.8459 146.883C24.7662 146.833 24.68 146.78 24.6003 146.726L24.5405 146.687C24.3547 146.56 24.169 146.434 23.9865 146.298C23.8636 146.205 23.7376 146.115 23.6182 146.019C23.4158 145.866 23.22 145.703 23.0309 145.534C22.9313 145.451 22.8318 145.358 22.739 145.272C22.3653 144.927 22.012 144.561 21.6806 144.176C21.5711 144.049 21.4615 143.923 21.3587 143.79C21.3355 143.764 21.3156 143.737 21.2922 143.707C19.5817 141.547 18.5527 138.925 18.3366 136.177C18.1204 133.429 18.7269 130.679 20.0785 128.277C21.4302 125.875 23.4659 123.931 25.926 122.692C28.3861 121.453 31.159 120.976 33.8911 121.321C36.6233 121.666 39.1909 122.818 41.2664 124.63C43.3419 126.442 44.8313 128.831 45.5446 131.494C46.2579 134.156 46.1628 136.971 45.2715 139.58C44.3801 142.188 42.7328 144.471 40.5398 146.139Z" fill="#3F3D56"/>
<path d="M56.6863 58.5526C51.5807 54.2399 45.3329 51.5058 38.7032 50.6828C32.0735 49.8598 25.3478 50.9835 19.3445 53.9172C13.3412 56.8508 8.31911 61.4679 4.88936 67.2067C1.45961 72.9454 -0.229924 79.5584 0.0263502 86.2408C0.282624 92.9232 2.47365 99.387 6.33283 104.846C10.192 110.304 15.5529 114.522 21.7633 116.987C27.9736 119.451 34.7656 120.055 41.3127 118.726C47.8598 117.396 53.8798 114.191 58.6401 109.499L100.911 145.204C101.555 145.745 102.386 146.009 103.224 145.938C104.062 145.866 104.837 145.465 105.379 144.823C105.922 144.18 106.188 143.348 106.119 142.51C106.05 141.671 105.652 140.894 105.012 140.349L105.007 140.345L62.736 104.64C67.6465 97.585 69.7482 88.9486 68.6291 80.4232C67.51 71.8979 63.2509 64.0982 56.6863 58.5526ZM53.9613 101.202C50.6682 105.109 46.2917 107.95 41.3854 109.367C36.479 110.784 31.2632 110.713 26.3973 109.162C21.5314 107.612 17.2342 104.651 14.0489 100.656C10.8636 96.6608 8.93338 91.8097 8.50231 86.7162C8.07124 81.6227 9.15868 76.5157 11.6271 72.0409C14.0956 67.5661 17.8341 63.9245 22.37 61.5767C26.906 59.2288 32.0355 58.2801 37.1101 58.8506C42.1846 59.421 46.9762 61.485 50.8789 64.7815C56.1123 69.202 59.3771 75.5225 59.9552 82.3526C60.5332 89.1828 58.3772 95.963 53.9613 101.202Z" fill="#3F3D56"/>
<path opacity="0.3" d="M17.5787 104.287C12.6257 100.103 9.42561 94.2076 8.61398 87.771C7.80234 81.3344 9.43847 74.8277 13.1975 69.5428C12.7038 70.0405 12.2266 70.5617 11.7658 71.1064C9.57926 73.7004 7.92453 76.7001 6.89609 79.9342C5.86764 83.1684 5.48563 86.5736 5.77185 89.9556C6.05807 93.3375 7.00692 96.6299 8.56423 99.6448C10.1215 102.66 12.2568 105.338 14.8481 107.527C17.4394 109.715 20.436 111.372 23.6668 112.401C26.8976 113.431 30.2994 113.813 33.6778 113.527C37.0563 113.24 40.3453 112.29 43.357 110.732C46.3688 109.173 49.0443 107.035 51.2308 104.441C51.6906 103.896 52.1235 103.337 52.5297 102.765C47.9579 107.364 41.8257 110.073 35.3509 110.355C28.8761 110.637 22.5321 108.471 17.5787 104.287Z" fill="black"/>
<path d="M141.905 146.539C142.235 146.135 142.473 145.664 142.601 145.159C142.73 144.653 142.746 144.126 142.649 143.613C142.552 143.101 142.344 142.616 142.039 142.192C141.735 141.769 141.341 141.418 140.886 141.163L133.181 109.594L127.561 111.39L135.881 142.744C135.504 143.537 135.431 144.441 135.676 145.285C135.921 146.128 136.466 146.852 137.209 147.32C137.951 147.788 138.839 147.966 139.705 147.822C140.57 147.678 141.353 147.222 141.905 146.539Z" fill="#FFB6B6"/>
<path d="M137.922 126.345L133.814 129.893L128.067 134.852L125.529 121.852L125.264 120.5L125.055 119.427L130.878 109.274L135.732 109.552L136.064 109.572L136.07 109.646L136.147 110.327L137.142 119.287L137.165 119.504L137.922 126.345Z" fill="#3F3D56"/>
<path d="M111.073 214.587L107.006 214.586L105.07 198.88L111.074 198.88L111.073 214.587Z" fill="#FFB6B6"/>
<path d="M112.11 218.534L98.9941 218.533V218.367C98.9942 217.012 99.5321 215.712 100.49 214.754C101.447 213.795 102.745 213.257 104.099 213.257H104.1L112.111 213.257L112.11 218.534Z" fill="#2F2E41"/>
<path d="M153.543 214.919L149.475 214.918L147.54 199.212L153.544 199.213L153.543 214.919Z" fill="#FFB6B6"/>
<path d="M154.581 218.866L141.465 218.865V218.699C141.465 217.344 142.003 216.044 142.96 215.086C143.918 214.127 145.216 213.589 146.57 213.589H146.57L154.581 213.589L154.581 218.866Z" fill="#2F2E41"/>
<path d="M156.794 208.666L145.845 210.327L129.916 156.361L112.997 210.659L100.721 208.998L116.647 145.892V140.91L118.804 133.437L118.578 131.414L117.009 117.268L116.328 111.134L116.284 110.737C116.247 110.405 116.335 110.07 116.531 109.799C116.727 109.528 117.017 109.339 117.344 109.27L122.453 108.194H130.805L135.732 109.553L136.07 109.646L136.223 109.689L136.147 110.327L134.992 120.018L134.929 120.55L133.814 129.893L133.569 131.942C143.191 138.917 143.522 145.892 143.522 145.892L156.794 208.666Z" fill="#2F2E41"/>
<path d="M125.62 103.992C130.121 103.992 133.769 100.34 133.769 95.8344C133.769 91.3291 130.121 87.6768 125.62 87.6768C121.119 87.6768 117.471 91.3291 117.471 95.8344C117.471 100.34 121.119 103.992 125.62 103.992Z" fill="#FFB6B6"/>
<path d="M134.179 130.068L118.059 132.178L118.36 134.483L134.481 132.373L134.179 130.068Z" fill="#3F3D56"/>
<path d="M96.4343 132.873C96.5884 132.973 96.7345 133.085 96.8711 133.207L112.816 129.139L113.904 125.288L119.924 126.172L118.66 133.176C118.558 133.742 118.275 134.259 117.854 134.65C117.433 135.042 116.897 135.286 116.326 135.346L97.7081 137.309C97.4047 137.948 96.9139 138.48 96.3011 138.834C95.6883 139.187 94.9825 139.345 94.2776 139.288C93.5727 139.23 92.9021 138.959 92.3549 138.51C91.8078 138.061 91.4101 137.457 91.2147 136.776C91.0193 136.096 91.0354 135.372 91.261 134.701C91.4866 134.03 91.911 133.443 92.4776 133.02C93.0442 132.596 93.7263 132.355 94.4331 132.329C95.1399 132.302 95.8379 132.492 96.4343 132.873Z" fill="#FFB6B6"/>
<path d="M120.961 111.35L118.14 109.191C117.378 108.901 116.333 109.724 116.15 110.519L112.168 126.794L120.463 132.773L121.624 130.946L120.961 111.35Z" fill="#3F3D56"/>
<g opacity="0.2">
<path d="M137.142 119.288C136.438 119.567 135.721 119.811 134.992 120.018C134.76 120.088 134.521 120.155 134.286 120.218C132.733 120.649 131.137 120.907 129.527 120.988C128.835 121.018 128.141 120.999 127.45 120.932C126.71 120.858 125.977 120.713 125.264 120.5C125.241 120.493 125.214 120.487 125.191 120.48C123.707 120.058 122.347 119.285 121.226 118.225C120.975 117.981 120.742 117.72 120.526 117.444C119.906 116.685 119.452 115.804 119.191 114.859C118.931 113.913 118.87 112.924 119.013 111.954C119.041 111.778 119.078 111.604 119.126 111.433C119.251 110.965 119.416 110.509 119.62 110.071C119.71 109.865 119.809 109.662 119.915 109.463L123.665 108.194H130.805L135.732 109.553L136.064 109.573L136.071 109.646L136.223 109.689L136.147 110.327L137.142 119.288Z" fill="black"/>
</g>
<path d="M119.375 89.0807C117.851 88.8938 116.179 89.026 114.991 89.9999C113.803 90.9738 113.42 92.9984 114.544 94.0448C115.54 94.9712 117.097 94.7533 118.431 95.0167C119.579 95.2745 120.609 95.9106 121.354 96.8233C122.099 97.736 122.516 98.8725 122.539 100.051C122.52 103.43 119.28 105.989 118.698 109.318C118.301 111.59 119.258 113.98 120.913 115.585C122.567 117.19 124.842 118.057 127.134 118.292C129.426 118.527 131.744 118.168 133.971 117.579C136.208 116.987 138.41 116.147 140.287 114.793C142.163 113.438 143.702 111.529 144.304 109.293C144.907 107.057 144.474 104.494 142.921 102.777C141.143 100.811 138.185 100.135 136.647 97.9754C134.923 95.5549 135.561 92.1078 134.166 89.4835C133.234 87.7315 131.47 86.5364 129.59 85.9069C127.709 85.2773 125.701 85.1531 123.719 85.0921C122.678 85.06 121.604 85.0494 120.634 85.4295C119.663 85.8097 118.81 86.6761 118.76 87.7182C118.709 88.7602 119.375 89.0807 119.375 89.0807Z" fill="#2F2E41"/>
<path d="M195.668 219H69.2537C69.1657 219 69.0813 218.965 69.0191 218.903C68.9568 218.84 68.9219 218.756 68.9219 218.668C68.9219 218.58 68.9568 218.495 69.0191 218.433C69.0813 218.371 69.1657 218.336 69.2537 218.336H195.668C195.756 218.336 195.84 218.371 195.903 218.433C195.965 218.495 196 218.58 196 218.668C196 218.756 195.965 218.84 195.903 218.903C195.84 218.965 195.756 219 195.668 219Z" fill="#CACACA"/>
</g>
<defs>
<clipPath id="clip0_12467_88350">
<rect width="196" height="219" fill="white"/>
</clipPath>
</defs>
</svg>
