<svg width="236" height="219" viewBox="0 0 236 219" fill="none" xmlns="http://www.w3.org/2000/svg">
<g clip-path="url(#clip0_12467_86893)">
<path d="M158.906 155.252H74.6056C67.5196 155.252 61.7549 149.49 61.7549 142.408V58.1543C61.7549 51.0722 67.5196 45.3107 74.6056 45.3107H158.906C165.992 45.3107 171.757 51.0722 171.757 58.1543V142.408C171.757 149.49 165.992 155.252 158.906 155.252ZM74.6056 47.3656C68.6439 47.3656 63.811 52.1959 63.811 58.1543V142.408C63.811 148.367 68.6439 153.197 74.6056 153.197H133.656C153.563 153.197 169.701 137.068 169.701 117.172V58.1543C169.701 52.1959 164.868 47.3656 158.906 47.3656L74.6056 47.3656Z" fill="#F2F2F2"/>
<path d="M83.6937 56.1271C79.7038 56.1271 76.458 59.3711 76.458 63.3588V74.6779C76.458 78.6656 79.7038 81.9096 83.6937 81.9096H95.0191C99.009 81.9096 102.255 78.6656 102.255 74.6779V63.3588C102.255 59.3711 99.009 56.1271 95.0191 56.1271H83.6937Z" fill="#F2F2F2"/>
<path d="M83.6937 87.9919C79.7038 87.9919 76.458 91.2359 76.458 95.2236V106.543C76.458 110.53 79.7038 113.774 83.6937 113.774H95.0191C99.009 113.774 102.255 110.53 102.255 106.543V95.2236C102.255 91.2359 99.009 87.9919 95.0191 87.9919H83.6937Z" fill="#F2F2F2"/>
<path d="M83.6937 119.857C79.7038 119.857 76.458 123.101 76.458 127.088V138.408C76.458 142.395 79.7038 145.639 83.6937 145.639H95.0191C99.009 145.639 102.255 142.395 102.255 138.408V127.088C102.255 123.101 99.009 119.857 95.0191 119.857H83.6937Z" fill="#F2F2F2"/>
<path d="M91.2041 28.511C86.1767 28.511 82.0869 32.5985 82.0869 37.6231V51.8855C82.0869 56.9101 86.1767 60.9976 91.2041 60.9976H105.474C110.502 60.9976 114.592 56.9101 114.592 51.8855V37.6231C114.592 32.5985 110.502 28.511 105.474 28.511H91.2041Z" fill="#112A5C"/>
<path d="M138.186 68.3685C133.158 68.3685 129.068 72.4561 129.068 77.4806V91.7431C129.068 96.7677 133.158 100.855 138.186 100.855H152.456C157.483 100.855 161.573 96.7677 161.573 91.7431V77.4806C161.573 72.4561 157.483 68.3685 152.456 68.3685H138.186Z" fill="#112A5C"/>
<path d="M117.76 211.926L114.861 211.901L113.578 200.465L117.857 200.501L117.76 211.926Z" fill="#A0616A"/>
<path d="M108.475 216.533C108.468 217.246 109.044 217.833 109.76 217.84L115.524 217.888L116.533 215.844L116.903 217.898L119.078 217.918L118.529 210.59L117.772 210.539L114.686 210.327L113.69 210.26L113.673 212.334L109.043 215.472C108.69 215.712 108.478 216.108 108.475 216.533Z" fill="#2F2E41"/>
<path d="M132.51 211.926L129.611 211.901L128.328 200.465L132.607 200.501L132.51 211.926Z" fill="#A0616A"/>
<path d="M123.225 216.533C123.218 217.246 123.794 217.833 124.51 217.84L130.274 217.888L131.283 215.844L131.653 217.898L133.828 217.918L133.279 210.59L132.522 210.539L129.436 210.327L128.44 210.26L128.423 212.334L123.793 215.472C123.44 215.712 123.228 216.108 123.225 216.533Z" fill="#2F2E41"/>
<path d="M106.385 119.463L118.136 119.833L129.269 122.306C129.269 122.306 128.155 123.666 131.866 127.375C131.866 127.375 136.814 136.029 133.351 144.436L131.866 178.063C131.866 178.063 136.194 201.767 132.887 209.312L128.517 209.585L121.122 178.336L117.517 144.683L115.786 177.815C115.786 177.815 122.411 200.557 118.227 209.585L113.494 209.312L105.395 177.815C105.395 177.815 101.932 141.468 102.426 134.545C102.921 127.622 106.385 119.463 106.385 119.463Z" fill="#2F2E41"/>
<path d="M145.848 66.3267C144.241 66.7424 143.276 68.381 143.692 69.9865C143.883 70.7222 144.332 71.3207 144.916 71.7161L144.915 71.7202L144.687 77.237L148.912 79.1907L149.249 70.7013L149.219 70.7022C149.586 70.05 149.712 69.2622 149.51 68.481C149.094 66.8755 147.454 65.911 145.848 66.3267Z" fill="#A0616A"/>
<path d="M122.239 86.0158C121.352 85.1367 120.837 83.9449 120.818 82.6488C120.792 80.9102 121.664 79.3321 123.15 78.4276C124.861 77.386 127.001 77.4914 128.602 78.6958L141.866 88.6774L144.23 74.2982L149.304 75.9307L148.093 94.6545C148.008 95.9642 147.268 97.118 146.112 97.7408C144.956 98.3636 143.585 98.3481 142.443 97.6991L123.274 86.7992C122.889 86.5802 122.542 86.3161 122.239 86.0158Z" fill="#3F3D56"/>
<path d="M102.013 58.2837C102.861 59.7093 102.392 61.552 100.966 62.3994C100.312 62.7878 99.5715 62.8968 98.8786 62.767L98.8758 62.77L95.1514 66.8481L90.7754 65.2632L96.5163 58.9972L96.5365 59.0185C96.7358 58.2977 97.201 57.6491 97.895 57.2368C99.3214 56.3893 101.165 56.858 102.013 58.2837Z" fill="#A0616A"/>
<path d="M103.622 88.7062L82.3309 82.9582C81.0632 82.6159 80.0783 81.662 79.6962 80.4064C79.3141 79.1507 79.601 77.8102 80.4634 76.8205L92.7935 62.6719L97.5471 65.0832L89.0961 76.9576L105.547 79.2029C107.532 79.4739 109.126 80.9049 109.608 82.8488C110.026 84.5368 109.533 86.2709 108.29 87.4873C107.363 88.3942 106.158 88.8783 104.909 88.8782C104.482 88.8782 104.05 88.8217 103.622 88.7062Z" fill="#3F3D56"/>
<path d="M133.976 124.41L104.203 125.775C103.385 124.534 103.607 122.667 104.752 120.331C109.076 111.507 105.792 94.8155 103.583 86.124C102.963 83.6854 104.627 81.2611 107.132 81.0107L109.939 80.7301L112.534 72.8132H121.622L125.393 77.1182L131.791 81.0031C130.627 92.9931 125.664 109.924 132.734 118.415C134.28 120.272 134.718 122.28 133.976 124.41Z" fill="#3F3D56"/>
<path d="M115.922 72.9961C120.811 72.9961 124.775 69.0351 124.775 64.1489C124.775 59.2627 120.811 55.3017 115.922 55.3017C111.034 55.3017 107.07 59.2627 107.07 64.1489C107.07 69.0351 111.034 72.9961 115.922 72.9961Z" fill="#A0616A"/>
<path d="M125.939 58.4858C127.171 53.998 113.748 50.1496 111.139 53.7637C110.776 53.2498 109.436 52.9378 108.821 53.0954C108.206 53.253 107.689 53.647 107.184 54.0285C106.49 54.5612 105.771 55.1128 105.345 55.8788C104.916 56.6417 104.85 57.682 105.427 58.3439C105.884 58.8703 106.688 61.6678 107.376 61.8065C107.855 61.9042 108.259 61.983 108.606 62.0397C108.915 61.589 109.703 61.0227 109.646 60.4774C110.113 60.7863 109.943 61.3298 109.848 61.8853C109.535 63.735 102.475 78.0536 106.518 73.8342C106.919 74.0707 107.414 74.2913 107.985 74.493C108.953 73.0335 109.748 71.3124 110.272 69.5124L110.275 69.5457C110.456 71.1099 111.599 72.3934 113.113 72.8315C119.183 74.5891 124.093 72.0101 125.782 67.3593C125.164 66.1047 124.894 66.241 124.95 66.2037C125.722 65.6837 126.782 66.0237 127.114 66.893C127.212 67.1492 127.301 67.368 127.378 67.5327C128.258 64.3867 129.305 64.8408 125.939 58.4858Z" fill="#2F2E41"/>
<path d="M121.752 55.2298L121.132 52.0616C121.08 51.7953 121.03 51.5063 121.151 51.263C121.305 50.9503 121.702 50.8207 122.047 50.8705C122.392 50.9204 122.651 51.2356 122.994 51.2963C124.189 51.5073 125.767 50.3282 126.195 53.3112C126.374 54.5549 128.36 54.6863 129.023 55.7536C129.686 56.821 129.767 58.3617 128.862 59.2338C128.139 59.9302 126.979 60.0106 126.04 59.6548C125.101 59.2991 124.348 58.5805 123.689 57.8227C123.031 57.0649 122.435 56.2448 121.676 55.5881" fill="#2F2E41"/>
<path d="M126.412 60.0486C123.99 59.7104 122.339 58.8299 121.505 57.4319C120.413 55.6018 121.145 53.5867 121.176 53.5018L121.688 53.6921C121.681 53.7106 121.018 55.5552 121.977 57.157C122.723 58.4031 124.241 59.1941 126.488 59.5079L126.412 60.0486Z" fill="#112A5C"/>
<path d="M137.779 25.8157C130.658 25.8157 124.864 20.0248 124.864 12.9079C124.864 5.79089 130.658 0 137.779 0C144.9 0 150.694 5.79089 150.694 12.9079C150.694 20.0248 144.9 25.8157 137.779 25.8157ZM137.779 5.16315C133.506 5.16315 130.03 8.63718 130.03 12.9079C130.03 17.1786 133.506 20.6526 137.779 20.6526C142.052 20.6526 145.528 17.1786 145.528 12.9079C145.528 8.63718 142.052 5.16315 137.779 5.16315Z" fill="#112A5C"/>
<path d="M157.65 34.5878C157.017 34.5878 156.383 34.3571 155.884 33.8895L143.763 22.5358C142.721 21.5614 142.668 19.9278 143.644 18.8878C144.618 17.8441 146.252 17.7924 147.294 18.7694L159.416 30.123C160.458 31.0974 160.511 32.731 159.534 33.771C159.026 34.3143 158.339 34.5878 157.65 34.5878Z" fill="#112A5C"/>
<path d="M212.434 211.636C213.312 211.691 213.798 210.6 213.133 209.965L213.067 209.702C213.076 209.681 213.085 209.66 213.094 209.639C213.982 207.522 216.992 207.537 217.872 209.657C218.654 211.538 219.649 213.423 219.894 215.412C220.004 216.29 219.954 217.185 219.759 218.046C221.591 214.048 222.555 209.682 222.555 205.292C222.555 204.188 222.494 203.085 222.371 201.985C222.269 201.085 222.129 200.19 221.948 199.304C220.968 194.513 218.845 189.949 215.784 186.137C214.312 185.333 213.085 184.077 212.343 182.57C212.077 182.027 211.868 181.442 211.77 180.847C211.937 180.869 212.401 178.319 212.275 178.163C212.508 177.809 212.926 177.633 213.181 177.288C214.449 175.57 216.195 175.87 217.107 178.204C219.055 179.187 219.074 180.816 217.879 182.383C217.118 183.381 217.014 184.73 216.347 185.797C216.415 185.885 216.487 185.97 216.555 186.058C217.814 187.671 218.903 189.406 219.82 191.228C219.561 189.203 219.944 186.763 220.597 185.191C221.34 183.399 222.733 181.89 223.96 180.341C225.433 178.48 228.454 179.292 228.714 181.651C228.716 181.674 228.719 181.697 228.721 181.719C228.539 181.822 228.361 181.931 228.186 182.047C227.192 182.704 227.535 184.245 228.714 184.427L228.741 184.431C228.675 185.086 228.562 185.737 228.397 186.376C229.971 192.458 226.574 194.674 221.723 194.773C221.616 194.828 221.511 194.883 221.404 194.935C221.896 196.318 222.288 197.737 222.579 199.175C222.84 200.445 223.021 201.73 223.123 203.019C223.249 204.647 223.238 206.282 223.101 207.907L223.109 207.849C223.458 206.06 224.43 204.389 225.841 203.231C227.943 201.505 230.914 200.869 233.182 199.482C234.274 198.814 235.673 199.677 235.482 200.942L235.473 201.003C235.135 201.14 234.806 201.299 234.487 201.477C234.305 201.58 234.126 201.689 233.952 201.804C232.958 202.462 233.301 204.003 234.48 204.184L234.506 204.188C234.526 204.191 234.542 204.194 234.561 204.197C233.982 205.571 233.175 206.848 232.164 207.948C231.18 213.257 226.954 213.761 222.434 212.215H222.431C221.937 214.366 221.215 216.468 220.287 218.472H212.626C212.599 218.387 212.574 218.299 212.549 218.214C213.258 218.258 213.972 218.216 214.669 218.088C214.101 217.39 213.532 216.688 212.964 215.991C212.95 215.977 212.939 215.964 212.928 215.95C212.64 215.593 212.349 215.239 212.061 214.882L212.06 214.882C212.042 213.787 212.174 212.695 212.434 211.636Z" fill="#F2F2F2"/>
<path d="M0.5 218.494C0.5 218.775 0.725316 219 1.0059 219H234.935C235.215 219 235.44 218.775 235.44 218.494C235.44 218.214 235.215 217.989 234.935 217.989H1.0059C0.725316 217.989 0.5 218.214 0.5 218.494Z" fill="#CCCCCC"/>
</g>
<defs>
<clipPath id="clip0_12467_86893">
<rect width="235" height="219" fill="white" transform="translate(0.5)"/>
</clipPath>
</defs>
</svg>
